<?xml version="1.0" encoding="utf-8" standalone="no"?>
<!DOCTYPE svg PUBLIC "-//W3C//DTD SVG 1.1//EN"
  "http://www.w3.org/Graphics/SVG/1.1/DTD/svg11.dtd">
<!-- Created with matplotlib (https://matplotlib.org/) -->
<svg height="864pt" version="1.1" viewBox="0 0 1152 864" width="1152pt" xmlns="http://www.w3.org/2000/svg" xmlns:xlink="http://www.w3.org/1999/xlink">
 <metadata>
  <rdf:RDF xmlns:cc="http://creativecommons.org/ns#" xmlns:dc="http://purl.org/dc/elements/1.1/" xmlns:rdf="http://www.w3.org/1999/02/22-rdf-syntax-ns#">
   <cc:Work>
    <dc:type rdf:resource="http://purl.org/dc/dcmitype/StillImage"/>
    <dc:date>2021-03-10T13:04:04.746149</dc:date>
    <dc:format>image/svg+xml</dc:format>
    <dc:creator>
     <cc:Agent>
      <dc:title>Matplotlib v3.3.4, https://matplotlib.org/</dc:title>
     </cc:Agent>
    </dc:creator>
   </cc:Work>
  </rdf:RDF>
 </metadata>
 <defs>
  <style type="text/css">*{stroke-linecap:butt;stroke-linejoin:round;}</style>
 </defs>
 <g id="figure_1">
  <g id="patch_1">
   <path d="M 0 864 
L 1152 864 
L 1152 0 
L 0 0 
z
" style="fill:#ffffff;"/>
  </g>
  <g id="axes_1">
   <g id="patch_2">
    <path d="M 67.16 204.853397 
L 1137.96 204.853397 
L 1137.96 31.6275 
L 67.16 31.6275 
z
" style="fill:#eaeaf2;"/>
   </g>
   <g id="matplotlib.axis_1">
    <g id="xtick_1">
     <g id="line2d_1">
      <path clip-path="url(#p79c0ef6237)" d="M 172.327857 204.853397 
L 172.327857 31.6275 
" style="fill:none;stroke:#ffffff;stroke-linecap:round;stroke-width:0.8;"/>
     </g>
     <g id="text_1">
      <!-- 2003-01-15 -->
      <g style="fill:#262626;" transform="translate(139.082388 221.158554)scale(0.13 -0.13)">
       <defs>
        <path d="M 50.34375 8.453125 
L 50.34375 0 
L 3.03125 0 
Q 2.9375 3.171875 4.046875 6.109375 
Q 5.859375 10.9375 9.828125 15.625 
Q 13.8125 20.3125 21.34375 26.46875 
Q 33.015625 36.03125 37.109375 41.625 
Q 41.21875 47.21875 41.21875 52.203125 
Q 41.21875 57.421875 37.46875 61 
Q 33.734375 64.59375 27.734375 64.59375 
Q 21.390625 64.59375 17.578125 60.78125 
Q 13.765625 56.984375 13.71875 50.25 
L 4.6875 51.171875 
Q 5.609375 61.28125 11.65625 66.578125 
Q 17.71875 71.875 27.9375 71.875 
Q 38.234375 71.875 44.234375 66.15625 
Q 50.25 60.453125 50.25 52 
Q 50.25 47.703125 48.484375 43.546875 
Q 46.734375 39.40625 42.65625 34.8125 
Q 38.578125 30.21875 29.109375 22.21875 
Q 21.1875 15.578125 18.9375 13.203125 
Q 16.703125 10.84375 15.234375 8.453125 
z
" id="ArialMT-50"/>
        <path d="M 4.15625 35.296875 
Q 4.15625 48 6.765625 55.734375 
Q 9.375 63.484375 14.515625 67.671875 
Q 19.671875 71.875 27.484375 71.875 
Q 33.25 71.875 37.59375 69.546875 
Q 41.9375 67.234375 44.765625 62.859375 
Q 47.609375 58.5 49.21875 52.21875 
Q 50.828125 45.953125 50.828125 35.296875 
Q 50.828125 22.703125 48.234375 14.96875 
Q 45.65625 7.234375 40.5 3 
Q 35.359375 -1.21875 27.484375 -1.21875 
Q 17.140625 -1.21875 11.234375 6.203125 
Q 4.15625 15.140625 4.15625 35.296875 
z
M 13.1875 35.296875 
Q 13.1875 17.671875 17.3125 11.828125 
Q 21.4375 6 27.484375 6 
Q 33.546875 6 37.671875 11.859375 
Q 41.796875 17.71875 41.796875 35.296875 
Q 41.796875 52.984375 37.671875 58.78125 
Q 33.546875 64.59375 27.390625 64.59375 
Q 21.34375 64.59375 17.71875 59.46875 
Q 13.1875 52.9375 13.1875 35.296875 
z
" id="ArialMT-48"/>
        <path d="M 4.203125 18.890625 
L 12.984375 20.0625 
Q 14.5 12.59375 18.140625 9.296875 
Q 21.78125 6 27 6 
Q 33.203125 6 37.46875 10.296875 
Q 41.75 14.59375 41.75 20.953125 
Q 41.75 27 37.796875 30.921875 
Q 33.84375 34.859375 27.734375 34.859375 
Q 25.25 34.859375 21.53125 33.890625 
L 22.515625 41.609375 
Q 23.390625 41.5 23.921875 41.5 
Q 29.546875 41.5 34.03125 44.421875 
Q 38.53125 47.359375 38.53125 53.46875 
Q 38.53125 58.296875 35.25 61.46875 
Q 31.984375 64.65625 26.8125 64.65625 
Q 21.6875 64.65625 18.265625 61.421875 
Q 14.84375 58.203125 13.875 51.765625 
L 5.078125 53.328125 
Q 6.6875 62.15625 12.390625 67.015625 
Q 18.109375 71.875 26.609375 71.875 
Q 32.46875 71.875 37.390625 69.359375 
Q 42.328125 66.84375 44.9375 62.5 
Q 47.5625 58.15625 47.5625 53.265625 
Q 47.5625 48.640625 45.0625 44.828125 
Q 42.578125 41.015625 37.703125 38.765625 
Q 44.046875 37.3125 47.5625 32.6875 
Q 51.078125 28.078125 51.078125 21.140625 
Q 51.078125 11.765625 44.234375 5.25 
Q 37.40625 -1.265625 26.953125 -1.265625 
Q 17.53125 -1.265625 11.296875 4.34375 
Q 5.078125 9.96875 4.203125 18.890625 
z
" id="ArialMT-51"/>
        <path d="M 3.171875 21.484375 
L 3.171875 30.328125 
L 30.171875 30.328125 
L 30.171875 21.484375 
z
" id="ArialMT-45"/>
        <path d="M 37.25 0 
L 28.46875 0 
L 28.46875 56 
Q 25.296875 52.984375 20.140625 49.953125 
Q 14.984375 46.921875 10.890625 45.40625 
L 10.890625 53.90625 
Q 18.265625 57.375 23.78125 62.296875 
Q 29.296875 67.234375 31.59375 71.875 
L 37.25 71.875 
z
" id="ArialMT-49"/>
        <path d="M 4.15625 18.75 
L 13.375 19.53125 
Q 14.40625 12.796875 18.140625 9.390625 
Q 21.875 6 27.15625 6 
Q 33.5 6 37.890625 10.78125 
Q 42.28125 15.578125 42.28125 23.484375 
Q 42.28125 31 38.0625 35.34375 
Q 33.84375 39.703125 27 39.703125 
Q 22.75 39.703125 19.328125 37.765625 
Q 15.921875 35.84375 13.96875 32.765625 
L 5.71875 33.84375 
L 12.640625 70.609375 
L 48.25 70.609375 
L 48.25 62.203125 
L 19.671875 62.203125 
L 15.828125 42.96875 
Q 22.265625 47.46875 29.34375 47.46875 
Q 38.71875 47.46875 45.15625 40.96875 
Q 51.609375 34.46875 51.609375 24.265625 
Q 51.609375 14.546875 45.953125 7.46875 
Q 39.0625 -1.21875 27.15625 -1.21875 
Q 17.390625 -1.21875 11.203125 4.25 
Q 5.03125 9.71875 4.15625 18.75 
z
" id="ArialMT-53"/>
       </defs>
       <use xlink:href="#ArialMT-50"/>
       <use x="55.615234" xlink:href="#ArialMT-48"/>
       <use x="111.230469" xlink:href="#ArialMT-48"/>
       <use x="166.845703" xlink:href="#ArialMT-51"/>
       <use x="222.460938" xlink:href="#ArialMT-45"/>
       <use x="255.761719" xlink:href="#ArialMT-48"/>
       <use x="311.376953" xlink:href="#ArialMT-49"/>
       <use x="366.992188" xlink:href="#ArialMT-45"/>
       <use x="400.292969" xlink:href="#ArialMT-49"/>
       <use x="455.908203" xlink:href="#ArialMT-53"/>
      </g>
     </g>
    </g>
    <g id="xtick_2">
     <g id="line2d_2">
      <path clip-path="url(#p79c0ef6237)" d="M 334.86 204.853397 
L 334.86 31.6275 
" style="fill:none;stroke:#ffffff;stroke-linecap:round;stroke-width:0.8;"/>
     </g>
     <g id="text_2">
      <!-- 2003-02-01 -->
      <g style="fill:#262626;" transform="translate(301.614531 221.158554)scale(0.13 -0.13)">
       <use xlink:href="#ArialMT-50"/>
       <use x="55.615234" xlink:href="#ArialMT-48"/>
       <use x="111.230469" xlink:href="#ArialMT-48"/>
       <use x="166.845703" xlink:href="#ArialMT-51"/>
       <use x="222.460938" xlink:href="#ArialMT-45"/>
       <use x="255.761719" xlink:href="#ArialMT-48"/>
       <use x="311.376953" xlink:href="#ArialMT-50"/>
       <use x="366.992188" xlink:href="#ArialMT-45"/>
       <use x="400.292969" xlink:href="#ArialMT-48"/>
       <use x="455.908203" xlink:href="#ArialMT-49"/>
      </g>
     </g>
    </g>
    <g id="xtick_3">
     <g id="line2d_3">
      <path clip-path="url(#p79c0ef6237)" d="M 468.71 204.853397 
L 468.71 31.6275 
" style="fill:none;stroke:#ffffff;stroke-linecap:round;stroke-width:0.8;"/>
     </g>
     <g id="text_3">
      <!-- 2003-02-15 -->
      <g style="fill:#262626;" transform="translate(435.464531 221.158554)scale(0.13 -0.13)">
       <use xlink:href="#ArialMT-50"/>
       <use x="55.615234" xlink:href="#ArialMT-48"/>
       <use x="111.230469" xlink:href="#ArialMT-48"/>
       <use x="166.845703" xlink:href="#ArialMT-51"/>
       <use x="222.460938" xlink:href="#ArialMT-45"/>
       <use x="255.761719" xlink:href="#ArialMT-48"/>
       <use x="311.376953" xlink:href="#ArialMT-50"/>
       <use x="366.992188" xlink:href="#ArialMT-45"/>
       <use x="400.292969" xlink:href="#ArialMT-49"/>
       <use x="455.908203" xlink:href="#ArialMT-53"/>
      </g>
     </g>
    </g>
    <g id="xtick_4">
     <g id="line2d_4">
      <path clip-path="url(#p79c0ef6237)" d="M 602.56 204.853397 
L 602.56 31.6275 
" style="fill:none;stroke:#ffffff;stroke-linecap:round;stroke-width:0.8;"/>
     </g>
     <g id="text_4">
      <!-- 2003-03-01 -->
      <g style="fill:#262626;" transform="translate(569.314531 221.158554)scale(0.13 -0.13)">
       <use xlink:href="#ArialMT-50"/>
       <use x="55.615234" xlink:href="#ArialMT-48"/>
       <use x="111.230469" xlink:href="#ArialMT-48"/>
       <use x="166.845703" xlink:href="#ArialMT-51"/>
       <use x="222.460938" xlink:href="#ArialMT-45"/>
       <use x="255.761719" xlink:href="#ArialMT-48"/>
       <use x="311.376953" xlink:href="#ArialMT-51"/>
       <use x="366.992188" xlink:href="#ArialMT-45"/>
       <use x="400.292969" xlink:href="#ArialMT-48"/>
       <use x="455.908203" xlink:href="#ArialMT-49"/>
      </g>
     </g>
    </g>
    <g id="xtick_5">
     <g id="line2d_5">
      <path clip-path="url(#p79c0ef6237)" d="M 736.41 204.853397 
L 736.41 31.6275 
" style="fill:none;stroke:#ffffff;stroke-linecap:round;stroke-width:0.8;"/>
     </g>
     <g id="text_5">
      <!-- 2003-03-15 -->
      <g style="fill:#262626;" transform="translate(703.164531 221.158554)scale(0.13 -0.13)">
       <use xlink:href="#ArialMT-50"/>
       <use x="55.615234" xlink:href="#ArialMT-48"/>
       <use x="111.230469" xlink:href="#ArialMT-48"/>
       <use x="166.845703" xlink:href="#ArialMT-51"/>
       <use x="222.460938" xlink:href="#ArialMT-45"/>
       <use x="255.761719" xlink:href="#ArialMT-48"/>
       <use x="311.376953" xlink:href="#ArialMT-51"/>
       <use x="366.992188" xlink:href="#ArialMT-45"/>
       <use x="400.292969" xlink:href="#ArialMT-49"/>
       <use x="455.908203" xlink:href="#ArialMT-53"/>
      </g>
     </g>
    </g>
    <g id="xtick_6">
     <g id="line2d_6">
      <path clip-path="url(#p79c0ef6237)" d="M 898.942143 204.853397 
L 898.942143 31.6275 
" style="fill:none;stroke:#ffffff;stroke-linecap:round;stroke-width:0.8;"/>
     </g>
     <g id="text_6">
      <!-- 2003-04-01 -->
      <g style="fill:#262626;" transform="translate(865.696674 221.158554)scale(0.13 -0.13)">
       <defs>
        <path d="M 32.328125 0 
L 32.328125 17.140625 
L 1.265625 17.140625 
L 1.265625 25.203125 
L 33.9375 71.578125 
L 41.109375 71.578125 
L 41.109375 25.203125 
L 50.78125 25.203125 
L 50.78125 17.140625 
L 41.109375 17.140625 
L 41.109375 0 
z
M 32.328125 25.203125 
L 32.328125 57.46875 
L 9.90625 25.203125 
z
" id="ArialMT-52"/>
       </defs>
       <use xlink:href="#ArialMT-50"/>
       <use x="55.615234" xlink:href="#ArialMT-48"/>
       <use x="111.230469" xlink:href="#ArialMT-48"/>
       <use x="166.845703" xlink:href="#ArialMT-51"/>
       <use x="222.460938" xlink:href="#ArialMT-45"/>
       <use x="255.761719" xlink:href="#ArialMT-48"/>
       <use x="311.376953" xlink:href="#ArialMT-52"/>
       <use x="366.992188" xlink:href="#ArialMT-45"/>
       <use x="400.292969" xlink:href="#ArialMT-48"/>
       <use x="455.908203" xlink:href="#ArialMT-49"/>
      </g>
     </g>
    </g>
    <g id="xtick_7">
     <g id="line2d_7">
      <path clip-path="url(#p79c0ef6237)" d="M 1032.792143 204.853397 
L 1032.792143 31.6275 
" style="fill:none;stroke:#ffffff;stroke-linecap:round;stroke-width:0.8;"/>
     </g>
     <g id="text_7">
      <!-- 2003-04-15 -->
      <g style="fill:#262626;" transform="translate(999.546674 221.158554)scale(0.13 -0.13)">
       <use xlink:href="#ArialMT-50"/>
       <use x="55.615234" xlink:href="#ArialMT-48"/>
       <use x="111.230469" xlink:href="#ArialMT-48"/>
       <use x="166.845703" xlink:href="#ArialMT-51"/>
       <use x="222.460938" xlink:href="#ArialMT-45"/>
       <use x="255.761719" xlink:href="#ArialMT-48"/>
       <use x="311.376953" xlink:href="#ArialMT-52"/>
       <use x="366.992188" xlink:href="#ArialMT-45"/>
       <use x="400.292969" xlink:href="#ArialMT-49"/>
       <use x="455.908203" xlink:href="#ArialMT-53"/>
      </g>
     </g>
    </g>
   </g>
   <g id="matplotlib.axis_2">
    <g id="ytick_1">
     <g id="line2d_8">
      <path clip-path="url(#p79c0ef6237)" d="M 67.16 193.111172 
L 1137.96 193.111172 
" style="fill:none;stroke:#ffffff;stroke-linecap:round;stroke-width:0.8;"/>
     </g>
     <g id="text_8">
      <!-- 250 -->
      <g style="fill:#262626;" transform="translate(38.472344 197.76375)scale(0.13 -0.13)">
       <use xlink:href="#ArialMT-50"/>
       <use x="55.615234" xlink:href="#ArialMT-53"/>
       <use x="111.230469" xlink:href="#ArialMT-48"/>
      </g>
     </g>
    </g>
    <g id="ytick_2">
     <g id="line2d_9">
      <path clip-path="url(#p79c0ef6237)" d="M 67.16 161.915037 
L 1137.96 161.915037 
" style="fill:none;stroke:#ffffff;stroke-linecap:round;stroke-width:0.8;"/>
     </g>
     <g id="text_9">
      <!-- 500 -->
      <g style="fill:#262626;" transform="translate(38.472344 166.567615)scale(0.13 -0.13)">
       <use xlink:href="#ArialMT-53"/>
       <use x="55.615234" xlink:href="#ArialMT-48"/>
       <use x="111.230469" xlink:href="#ArialMT-48"/>
      </g>
     </g>
    </g>
    <g id="ytick_3">
     <g id="line2d_10">
      <path clip-path="url(#p79c0ef6237)" d="M 67.16 130.718903 
L 1137.96 130.718903 
" style="fill:none;stroke:#ffffff;stroke-linecap:round;stroke-width:0.8;"/>
     </g>
     <g id="text_10">
      <!-- 750 -->
      <g style="fill:#262626;" transform="translate(38.472344 135.371481)scale(0.13 -0.13)">
       <defs>
        <path d="M 4.734375 62.203125 
L 4.734375 70.65625 
L 51.078125 70.65625 
L 51.078125 63.8125 
Q 44.234375 56.546875 37.515625 44.484375 
Q 30.8125 32.421875 27.15625 19.671875 
Q 24.515625 10.6875 23.78125 0 
L 14.75 0 
Q 14.890625 8.453125 18.0625 20.40625 
Q 21.234375 32.375 27.171875 43.484375 
Q 33.109375 54.59375 39.796875 62.203125 
z
" id="ArialMT-55"/>
       </defs>
       <use xlink:href="#ArialMT-55"/>
       <use x="55.615234" xlink:href="#ArialMT-53"/>
       <use x="111.230469" xlink:href="#ArialMT-48"/>
      </g>
     </g>
    </g>
    <g id="ytick_4">
     <g id="line2d_11">
      <path clip-path="url(#p79c0ef6237)" d="M 67.16 99.522768 
L 1137.96 99.522768 
" style="fill:none;stroke:#ffffff;stroke-linecap:round;stroke-width:0.8;"/>
     </g>
     <g id="text_11">
      <!-- 1000 -->
      <g style="fill:#262626;" transform="translate(31.243125 104.175346)scale(0.13 -0.13)">
       <use xlink:href="#ArialMT-49"/>
       <use x="55.615234" xlink:href="#ArialMT-48"/>
       <use x="111.230469" xlink:href="#ArialMT-48"/>
       <use x="166.845703" xlink:href="#ArialMT-48"/>
      </g>
     </g>
    </g>
    <g id="ytick_5">
     <g id="line2d_12">
      <path clip-path="url(#p79c0ef6237)" d="M 67.16 68.326633 
L 1137.96 68.326633 
" style="fill:none;stroke:#ffffff;stroke-linecap:round;stroke-width:0.8;"/>
     </g>
     <g id="text_12">
      <!-- 1250 -->
      <g style="fill:#262626;" transform="translate(31.243125 72.979211)scale(0.13 -0.13)">
       <use xlink:href="#ArialMT-49"/>
       <use x="55.615234" xlink:href="#ArialMT-50"/>
       <use x="111.230469" xlink:href="#ArialMT-53"/>
       <use x="166.845703" xlink:href="#ArialMT-48"/>
      </g>
     </g>
    </g>
    <g id="ytick_6">
     <g id="line2d_13">
      <path clip-path="url(#p79c0ef6237)" d="M 67.16 37.130498 
L 1137.96 37.130498 
" style="fill:none;stroke:#ffffff;stroke-linecap:round;stroke-width:0.8;"/>
     </g>
     <g id="text_13">
      <!-- 1500 -->
      <g style="fill:#262626;" transform="translate(31.243125 41.783076)scale(0.13 -0.13)">
       <use xlink:href="#ArialMT-49"/>
       <use x="55.615234" xlink:href="#ArialMT-53"/>
       <use x="111.230469" xlink:href="#ArialMT-48"/>
       <use x="166.845703" xlink:href="#ArialMT-48"/>
      </g>
     </g>
    </g>
   </g>
   <g id="line2d_14">
    <path clip-path="url(#p79c0ef6237)" d="M 67.16 109.006393 
L 76.720714 101.982806 
L 86.281429 94.959219 
L 95.842143 87.935632 
L 105.402857 80.912045 
L 114.963571 73.888458 
L 124.524286 66.864871 
L 134.085 59.841284 
L 143.645714 59.377799 
L 153.206429 58.914314 
L 162.767143 58.450828 
L 172.327857 57.987343 
L 181.888571 57.523857 
L 191.449286 57.060372 
L 201.01 56.596886 
L 210.570714 73.424973 
L 220.131429 90.253059 
L 229.692143 107.081146 
L 239.252857 123.909232 
L 248.813571 140.737318 
L 258.374286 157.565405 
L 267.935 174.393491 
L 277.495714 175.284809 
L 287.056429 176.176128 
L 296.617143 177.067446 
L 306.177857 177.958764 
L 315.738571 178.850082 
L 325.299286 179.7414 
L 334.86 180.632718 
L 344.420714 160.471102 
L 353.981429 140.309486 
L 363.542143 120.147869 
L 373.102857 99.986253 
L 382.663571 79.824637 
L 392.224286 59.663021 
L 401.785 39.501404 
L 411.345714 58.040822 
L 420.906429 76.580239 
L 430.467143 95.119656 
L 440.027857 113.659073 
L 449.588571 132.198491 
L 459.149286 150.737908 
L 468.71 169.277325 
L 478.270714 173.234778 
L 487.831429 177.19223 
L 497.392143 181.149683 
L 506.952857 185.107135 
L 516.513571 189.064588 
L 526.074286 193.02204 
L 535.635 196.979493 
L 545.195714 191.11462 
L 554.756429 185.249746 
L 564.317143 179.384873 
L 573.877857 173.52 
L 583.438571 167.655126 
L 592.999286 161.790253 
L 602.56 155.925379 
L 612.120714 159.615437 
L 621.681429 163.305494 
L 631.242143 166.995551 
L 640.802857 170.685608 
L 650.363571 174.375665 
L 659.924286 178.065722 
L 669.485 181.755779 
L 679.045714 176.621787 
L 688.606429 171.487794 
L 698.167143 166.353802 
L 707.727857 161.219809 
L 717.288571 156.085817 
L 726.849286 150.951824 
L 736.41 145.817832 
L 745.970714 149.169188 
L 755.531429 152.520544 
L 765.092143 155.8719 
L 774.652857 159.223257 
L 784.213571 162.574613 
L 793.774286 165.925969 
L 803.335 169.277325 
L 812.895714 166.781634 
L 822.456429 164.285944 
L 832.017143 161.790253 
L 841.577857 159.294562 
L 851.138571 156.798871 
L 860.699286 154.30318 
L 870.26 151.80749 
L 879.820714 151.80749 
L 889.381429 151.80749 
L 898.942143 151.80749 
L 908.502857 151.80749 
L 918.063571 151.80749 
L 927.624286 151.80749 
L 937.185 151.80749 
L 946.745714 136.797692 
L 956.306429 121.787895 
L 965.867143 106.778097 
L 975.427857 91.7683 
L 984.988571 76.758503 
L 994.549286 61.748705 
L 1004.11 46.738908 
L 1013.670714 59.181709 
L 1023.231429 71.62451 
L 1032.792143 84.067311 
L 1042.352857 96.510112 
L 1051.913571 108.952914 
L 1061.474286 121.395715 
L 1071.035 133.838516 
L 1080.595714 125.335341 
L 1090.156429 116.832166 
L 1099.717143 108.328991 
L 1109.277857 99.825816 
L 1118.838571 91.322641 
L 1128.399286 82.819466 
L 1137.96 74.316291 
" style="fill:none;stroke:#1f77b4;stroke-linecap:round;stroke-width:1.5;"/>
   </g>
   <g id="patch_3">
    <path d="M 67.16 204.853397 
L 67.16 31.6275 
" style="fill:none;stroke:#ffffff;stroke-linecap:square;stroke-linejoin:miter;stroke-width:0.8;"/>
   </g>
   <g id="patch_4">
    <path d="M 1137.96 204.853397 
L 1137.96 31.6275 
" style="fill:none;stroke:#ffffff;stroke-linecap:square;stroke-linejoin:miter;stroke-width:0.8;"/>
   </g>
   <g id="patch_5">
    <path d="M 67.16 204.853397 
L 1137.96 204.853397 
" style="fill:none;stroke:#ffffff;stroke-linecap:square;stroke-linejoin:miter;stroke-width:0.8;"/>
   </g>
   <g id="patch_6">
    <path d="M 67.16 31.6275 
L 1137.96 31.6275 
" style="fill:none;stroke:#ffffff;stroke-linecap:square;stroke-linejoin:miter;stroke-width:0.8;"/>
   </g>
   <g id="text_14">
    <!-- Bacteria;Firmicutes;Bacilli;Bacillales;Bacillaceae;sf_1;3715 -->
    <g style="fill:#262626;" transform="translate(399.677125 25.6275)scale(0.156 -0.156)">
     <defs>
      <path d="M 7.328125 0 
L 7.328125 71.578125 
L 34.1875 71.578125 
Q 42.390625 71.578125 47.34375 69.40625 
Q 52.296875 67.234375 55.09375 62.71875 
Q 57.90625 58.203125 57.90625 53.265625 
Q 57.90625 48.6875 55.421875 44.625 
Q 52.9375 40.578125 47.90625 38.09375 
Q 54.390625 36.1875 57.875 31.59375 
Q 61.375 27 61.375 20.75 
Q 61.375 15.71875 59.25 11.390625 
Q 57.125 7.078125 54 4.734375 
Q 50.875 2.390625 46.15625 1.1875 
Q 41.453125 0 34.625 0 
z
M 16.796875 41.5 
L 32.28125 41.5 
Q 38.578125 41.5 41.3125 42.328125 
Q 44.921875 43.40625 46.75 45.890625 
Q 48.578125 48.390625 48.578125 52.15625 
Q 48.578125 55.71875 46.875 58.421875 
Q 45.171875 61.140625 41.984375 62.140625 
Q 38.8125 63.140625 31.109375 63.140625 
L 16.796875 63.140625 
z
M 16.796875 8.453125 
L 34.625 8.453125 
Q 39.203125 8.453125 41.0625 8.796875 
Q 44.34375 9.375 46.53125 10.734375 
Q 48.734375 12.109375 50.140625 14.71875 
Q 51.5625 17.328125 51.5625 20.75 
Q 51.5625 24.75 49.515625 27.703125 
Q 47.46875 30.671875 43.828125 31.859375 
Q 40.1875 33.0625 33.34375 33.0625 
L 16.796875 33.0625 
z
" id="ArialMT-66"/>
      <path d="M 40.4375 6.390625 
Q 35.546875 2.25 31.03125 0.53125 
Q 26.515625 -1.171875 21.34375 -1.171875 
Q 12.796875 -1.171875 8.203125 3 
Q 3.609375 7.171875 3.609375 13.671875 
Q 3.609375 17.484375 5.34375 20.625 
Q 7.078125 23.78125 9.890625 25.6875 
Q 12.703125 27.59375 16.21875 28.5625 
Q 18.796875 29.25 24.03125 29.890625 
Q 34.671875 31.15625 39.703125 32.90625 
Q 39.75 34.71875 39.75 35.203125 
Q 39.75 40.578125 37.25 42.78125 
Q 33.890625 45.75 27.25 45.75 
Q 21.046875 45.75 18.09375 43.578125 
Q 15.140625 41.40625 13.71875 35.890625 
L 5.125 37.0625 
Q 6.296875 42.578125 8.984375 45.96875 
Q 11.671875 49.359375 16.75 51.1875 
Q 21.828125 53.03125 28.515625 53.03125 
Q 35.15625 53.03125 39.296875 51.46875 
Q 43.453125 49.90625 45.40625 47.53125 
Q 47.359375 45.171875 48.140625 41.546875 
Q 48.578125 39.3125 48.578125 33.453125 
L 48.578125 21.734375 
Q 48.578125 9.46875 49.140625 6.21875 
Q 49.703125 2.984375 51.375 0 
L 42.1875 0 
Q 40.828125 2.734375 40.4375 6.390625 
z
M 39.703125 26.03125 
Q 34.90625 24.078125 25.34375 22.703125 
Q 19.921875 21.921875 17.671875 20.9375 
Q 15.4375 19.96875 14.203125 18.09375 
Q 12.984375 16.21875 12.984375 13.921875 
Q 12.984375 10.40625 15.640625 8.0625 
Q 18.3125 5.71875 23.4375 5.71875 
Q 28.515625 5.71875 32.46875 7.9375 
Q 36.421875 10.15625 38.28125 14.015625 
Q 39.703125 17 39.703125 22.796875 
z
" id="ArialMT-97"/>
      <path d="M 40.4375 19 
L 49.078125 17.875 
Q 47.65625 8.9375 41.8125 3.875 
Q 35.984375 -1.171875 27.484375 -1.171875 
Q 16.84375 -1.171875 10.375 5.78125 
Q 3.90625 12.75 3.90625 25.734375 
Q 3.90625 34.125 6.6875 40.421875 
Q 9.46875 46.734375 15.15625 49.875 
Q 20.84375 53.03125 27.546875 53.03125 
Q 35.984375 53.03125 41.359375 48.75 
Q 46.734375 44.484375 48.25 36.625 
L 39.703125 35.296875 
Q 38.484375 40.53125 35.375 43.15625 
Q 32.28125 45.796875 27.875 45.796875 
Q 21.234375 45.796875 17.078125 41.03125 
Q 12.9375 36.28125 12.9375 25.984375 
Q 12.9375 15.53125 16.9375 10.796875 
Q 20.953125 6.0625 27.390625 6.0625 
Q 32.5625 6.0625 36.03125 9.234375 
Q 39.5 12.40625 40.4375 19 
z
" id="ArialMT-99"/>
      <path d="M 25.78125 7.859375 
L 27.046875 0.09375 
Q 23.34375 -0.6875 20.40625 -0.6875 
Q 15.625 -0.6875 12.984375 0.828125 
Q 10.359375 2.34375 9.28125 4.8125 
Q 8.203125 7.28125 8.203125 15.1875 
L 8.203125 45.015625 
L 1.765625 45.015625 
L 1.765625 51.859375 
L 8.203125 51.859375 
L 8.203125 64.703125 
L 16.9375 69.96875 
L 16.9375 51.859375 
L 25.78125 51.859375 
L 25.78125 45.015625 
L 16.9375 45.015625 
L 16.9375 14.703125 
Q 16.9375 10.9375 17.40625 9.859375 
Q 17.875 8.796875 18.921875 8.15625 
Q 19.96875 7.515625 21.921875 7.515625 
Q 23.390625 7.515625 25.78125 7.859375 
z
" id="ArialMT-116"/>
      <path d="M 42.09375 16.703125 
L 51.171875 15.578125 
Q 49.03125 7.625 43.21875 3.21875 
Q 37.40625 -1.171875 28.375 -1.171875 
Q 17 -1.171875 10.328125 5.828125 
Q 3.65625 12.84375 3.65625 25.484375 
Q 3.65625 38.578125 10.390625 45.796875 
Q 17.140625 53.03125 27.875 53.03125 
Q 38.28125 53.03125 44.875 45.953125 
Q 51.46875 38.875 51.46875 26.03125 
Q 51.46875 25.25 51.421875 23.6875 
L 12.75 23.6875 
Q 13.234375 15.140625 17.578125 10.59375 
Q 21.921875 6.0625 28.421875 6.0625 
Q 33.25 6.0625 36.671875 8.59375 
Q 40.09375 11.140625 42.09375 16.703125 
z
M 13.234375 30.90625 
L 42.1875 30.90625 
Q 41.609375 37.453125 38.875 40.71875 
Q 34.671875 45.796875 27.984375 45.796875 
Q 21.921875 45.796875 17.796875 41.75 
Q 13.671875 37.703125 13.234375 30.90625 
z
" id="ArialMT-101"/>
      <path d="M 6.5 0 
L 6.5 51.859375 
L 14.40625 51.859375 
L 14.40625 44 
Q 17.4375 49.515625 20 51.265625 
Q 22.5625 53.03125 25.640625 53.03125 
Q 30.078125 53.03125 34.671875 50.203125 
L 31.640625 42.046875 
Q 28.421875 43.953125 25.203125 43.953125 
Q 22.3125 43.953125 20.015625 42.21875 
Q 17.71875 40.484375 16.75 37.40625 
Q 15.28125 32.71875 15.28125 27.15625 
L 15.28125 0 
z
" id="ArialMT-114"/>
      <path d="M 6.640625 61.46875 
L 6.640625 71.578125 
L 15.4375 71.578125 
L 15.4375 61.46875 
z
M 6.640625 0 
L 6.640625 51.859375 
L 15.4375 51.859375 
L 15.4375 0 
z
" id="ArialMT-105"/>
      <path d="M 8.890625 41.84375 
L 8.890625 51.859375 
L 18.890625 51.859375 
L 18.890625 41.84375 
z
M 8.890625 0 
L 8.890625 10.015625 
L 18.890625 10.015625 
L 18.890625 0 
Q 18.890625 -5.515625 16.9375 -8.90625 
Q 14.984375 -12.3125 10.75 -14.15625 
L 8.296875 -10.40625 
Q 11.078125 -9.1875 12.390625 -6.8125 
Q 13.71875 -4.4375 13.875 0 
z
" id="ArialMT-59"/>
      <path d="M 8.203125 0 
L 8.203125 71.578125 
L 56.5 71.578125 
L 56.5 63.140625 
L 17.671875 63.140625 
L 17.671875 40.96875 
L 51.265625 40.96875 
L 51.265625 32.515625 
L 17.671875 32.515625 
L 17.671875 0 
z
" id="ArialMT-70"/>
      <path d="M 6.59375 0 
L 6.59375 51.859375 
L 14.453125 51.859375 
L 14.453125 44.578125 
Q 16.890625 48.390625 20.9375 50.703125 
Q 25 53.03125 30.171875 53.03125 
Q 35.9375 53.03125 39.625 50.640625 
Q 43.3125 48.25 44.828125 43.953125 
Q 50.984375 53.03125 60.84375 53.03125 
Q 68.5625 53.03125 72.703125 48.75 
Q 76.859375 44.484375 76.859375 35.59375 
L 76.859375 0 
L 68.109375 0 
L 68.109375 32.671875 
Q 68.109375 37.9375 67.25 40.25 
Q 66.40625 42.578125 64.15625 43.984375 
Q 61.921875 45.40625 58.890625 45.40625 
Q 53.421875 45.40625 49.796875 41.765625 
Q 46.1875 38.140625 46.1875 30.125 
L 46.1875 0 
L 37.40625 0 
L 37.40625 33.6875 
Q 37.40625 39.546875 35.25 42.46875 
Q 33.109375 45.40625 28.21875 45.40625 
Q 24.515625 45.40625 21.359375 43.453125 
Q 18.21875 41.5 16.796875 37.734375 
Q 15.375 33.984375 15.375 26.90625 
L 15.375 0 
z
" id="ArialMT-109"/>
      <path d="M 40.578125 0 
L 40.578125 7.625 
Q 34.515625 -1.171875 24.125 -1.171875 
Q 19.53125 -1.171875 15.546875 0.578125 
Q 11.578125 2.34375 9.640625 5 
Q 7.71875 7.671875 6.9375 11.53125 
Q 6.390625 14.109375 6.390625 19.734375 
L 6.390625 51.859375 
L 15.1875 51.859375 
L 15.1875 23.09375 
Q 15.1875 16.21875 15.71875 13.8125 
Q 16.546875 10.359375 19.234375 8.375 
Q 21.921875 6.390625 25.875 6.390625 
Q 29.828125 6.390625 33.296875 8.421875 
Q 36.765625 10.453125 38.203125 13.9375 
Q 39.65625 17.4375 39.65625 24.078125 
L 39.65625 51.859375 
L 48.4375 51.859375 
L 48.4375 0 
z
" id="ArialMT-117"/>
      <path d="M 3.078125 15.484375 
L 11.765625 16.84375 
Q 12.5 11.625 15.84375 8.84375 
Q 19.1875 6.0625 25.203125 6.0625 
Q 31.25 6.0625 34.171875 8.515625 
Q 37.109375 10.984375 37.109375 14.3125 
Q 37.109375 17.28125 34.515625 19 
Q 32.71875 20.171875 25.53125 21.96875 
Q 15.875 24.421875 12.140625 26.203125 
Q 8.40625 27.984375 6.46875 31.125 
Q 4.546875 34.28125 4.546875 38.09375 
Q 4.546875 41.546875 6.125 44.5 
Q 7.71875 47.46875 10.453125 49.421875 
Q 12.5 50.921875 16.03125 51.96875 
Q 19.578125 53.03125 23.640625 53.03125 
Q 29.734375 53.03125 34.34375 51.265625 
Q 38.96875 49.515625 41.15625 46.5 
Q 43.359375 43.5 44.1875 38.484375 
L 35.59375 37.3125 
Q 35.015625 41.3125 32.203125 43.546875 
Q 29.390625 45.796875 24.265625 45.796875 
Q 18.21875 45.796875 15.625 43.796875 
Q 13.03125 41.796875 13.03125 39.109375 
Q 13.03125 37.40625 14.109375 36.03125 
Q 15.1875 34.625 17.484375 33.6875 
Q 18.796875 33.203125 25.25 31.453125 
Q 34.578125 28.953125 38.25 27.359375 
Q 41.9375 25.78125 44.03125 22.75 
Q 46.140625 19.734375 46.140625 15.234375 
Q 46.140625 10.84375 43.578125 6.953125 
Q 41.015625 3.078125 36.171875 0.953125 
Q 31.34375 -1.171875 25.25 -1.171875 
Q 15.140625 -1.171875 9.84375 3.03125 
Q 4.546875 7.234375 3.078125 15.484375 
z
" id="ArialMT-115"/>
      <path d="M 6.390625 0 
L 6.390625 71.578125 
L 15.1875 71.578125 
L 15.1875 0 
z
" id="ArialMT-108"/>
      <path d="M 8.6875 0 
L 8.6875 45.015625 
L 0.921875 45.015625 
L 0.921875 51.859375 
L 8.6875 51.859375 
L 8.6875 57.375 
Q 8.6875 62.59375 9.625 65.140625 
Q 10.890625 68.5625 14.078125 70.671875 
Q 17.28125 72.796875 23.046875 72.796875 
Q 26.765625 72.796875 31.25 71.921875 
L 29.9375 64.265625 
Q 27.203125 64.75 24.75 64.75 
Q 20.75 64.75 19.09375 63.03125 
Q 17.4375 61.328125 17.4375 56.640625 
L 17.4375 51.859375 
L 27.546875 51.859375 
L 27.546875 45.015625 
L 17.4375 45.015625 
L 17.4375 0 
z
" id="ArialMT-102"/>
      <path d="M -1.515625 -19.875 
L -1.515625 -13.53125 
L 56.734375 -13.53125 
L 56.734375 -19.875 
z
" id="ArialMT-95"/>
     </defs>
     <use xlink:href="#ArialMT-66"/>
     <use x="66.699219" xlink:href="#ArialMT-97"/>
     <use x="122.314453" xlink:href="#ArialMT-99"/>
     <use x="172.314453" xlink:href="#ArialMT-116"/>
     <use x="200.097656" xlink:href="#ArialMT-101"/>
     <use x="255.712891" xlink:href="#ArialMT-114"/>
     <use x="289.013672" xlink:href="#ArialMT-105"/>
     <use x="311.230469" xlink:href="#ArialMT-97"/>
     <use x="366.845703" xlink:href="#ArialMT-59"/>
     <use x="394.628906" xlink:href="#ArialMT-70"/>
     <use x="455.712891" xlink:href="#ArialMT-105"/>
     <use x="477.929688" xlink:href="#ArialMT-114"/>
     <use x="511.230469" xlink:href="#ArialMT-109"/>
     <use x="594.53125" xlink:href="#ArialMT-105"/>
     <use x="616.748047" xlink:href="#ArialMT-99"/>
     <use x="666.748047" xlink:href="#ArialMT-117"/>
     <use x="722.363281" xlink:href="#ArialMT-116"/>
     <use x="750.146484" xlink:href="#ArialMT-101"/>
     <use x="805.761719" xlink:href="#ArialMT-115"/>
     <use x="855.761719" xlink:href="#ArialMT-59"/>
     <use x="883.544922" xlink:href="#ArialMT-66"/>
     <use x="950.244141" xlink:href="#ArialMT-97"/>
     <use x="1005.859375" xlink:href="#ArialMT-99"/>
     <use x="1055.859375" xlink:href="#ArialMT-105"/>
     <use x="1078.076172" xlink:href="#ArialMT-108"/>
     <use x="1100.292969" xlink:href="#ArialMT-108"/>
     <use x="1122.509766" xlink:href="#ArialMT-105"/>
     <use x="1144.726562" xlink:href="#ArialMT-59"/>
     <use x="1172.509766" xlink:href="#ArialMT-66"/>
     <use x="1239.208984" xlink:href="#ArialMT-97"/>
     <use x="1294.824219" xlink:href="#ArialMT-99"/>
     <use x="1344.824219" xlink:href="#ArialMT-105"/>
     <use x="1367.041016" xlink:href="#ArialMT-108"/>
     <use x="1389.257812" xlink:href="#ArialMT-108"/>
     <use x="1411.474609" xlink:href="#ArialMT-97"/>
     <use x="1467.089844" xlink:href="#ArialMT-108"/>
     <use x="1489.306641" xlink:href="#ArialMT-101"/>
     <use x="1544.921875" xlink:href="#ArialMT-115"/>
     <use x="1594.921875" xlink:href="#ArialMT-59"/>
     <use x="1622.705078" xlink:href="#ArialMT-66"/>
     <use x="1689.404297" xlink:href="#ArialMT-97"/>
     <use x="1745.019531" xlink:href="#ArialMT-99"/>
     <use x="1795.019531" xlink:href="#ArialMT-105"/>
     <use x="1817.236328" xlink:href="#ArialMT-108"/>
     <use x="1839.453125" xlink:href="#ArialMT-108"/>
     <use x="1861.669922" xlink:href="#ArialMT-97"/>
     <use x="1917.285156" xlink:href="#ArialMT-99"/>
     <use x="1967.285156" xlink:href="#ArialMT-101"/>
     <use x="2022.900391" xlink:href="#ArialMT-97"/>
     <use x="2078.515625" xlink:href="#ArialMT-101"/>
     <use x="2134.130859" xlink:href="#ArialMT-59"/>
     <use x="2161.914062" xlink:href="#ArialMT-115"/>
     <use x="2211.914062" xlink:href="#ArialMT-102"/>
     <use x="2239.697266" xlink:href="#ArialMT-95"/>
     <use x="2295.3125" xlink:href="#ArialMT-49"/>
     <use x="2350.927734" xlink:href="#ArialMT-59"/>
     <use x="2378.710938" xlink:href="#ArialMT-51"/>
     <use x="2434.326172" xlink:href="#ArialMT-55"/>
     <use x="2489.941406" xlink:href="#ArialMT-49"/>
     <use x="2545.556641" xlink:href="#ArialMT-53"/>
    </g>
   </g>
  </g>
  <g id="axes_2">
   <g id="patch_7">
    <path d="M 67.16 413.235598 
L 1137.96 413.235598 
L 1137.96 240.009701 
L 67.16 240.009701 
z
" style="fill:#eaeaf2;"/>
   </g>
   <g id="matplotlib.axis_3">
    <g id="xtick_8">
     <g id="line2d_15">
      <path clip-path="url(#p066f5e4d43)" d="M 172.327857 413.235598 
L 172.327857 240.009701 
" style="fill:none;stroke:#ffffff;stroke-linecap:round;stroke-width:0.8;"/>
     </g>
     <g id="text_15">
      <!-- 2003-01-15 -->
      <g style="fill:#262626;" transform="translate(139.082388 429.540754)scale(0.13 -0.13)">
       <use xlink:href="#ArialMT-50"/>
       <use x="55.615234" xlink:href="#ArialMT-48"/>
       <use x="111.230469" xlink:href="#ArialMT-48"/>
       <use x="166.845703" xlink:href="#ArialMT-51"/>
       <use x="222.460938" xlink:href="#ArialMT-45"/>
       <use x="255.761719" xlink:href="#ArialMT-48"/>
       <use x="311.376953" xlink:href="#ArialMT-49"/>
       <use x="366.992188" xlink:href="#ArialMT-45"/>
       <use x="400.292969" xlink:href="#ArialMT-49"/>
       <use x="455.908203" xlink:href="#ArialMT-53"/>
      </g>
     </g>
    </g>
    <g id="xtick_9">
     <g id="line2d_16">
      <path clip-path="url(#p066f5e4d43)" d="M 334.86 413.235598 
L 334.86 240.009701 
" style="fill:none;stroke:#ffffff;stroke-linecap:round;stroke-width:0.8;"/>
     </g>
     <g id="text_16">
      <!-- 2003-02-01 -->
      <g style="fill:#262626;" transform="translate(301.614531 429.540754)scale(0.13 -0.13)">
       <use xlink:href="#ArialMT-50"/>
       <use x="55.615234" xlink:href="#ArialMT-48"/>
       <use x="111.230469" xlink:href="#ArialMT-48"/>
       <use x="166.845703" xlink:href="#ArialMT-51"/>
       <use x="222.460938" xlink:href="#ArialMT-45"/>
       <use x="255.761719" xlink:href="#ArialMT-48"/>
       <use x="311.376953" xlink:href="#ArialMT-50"/>
       <use x="366.992188" xlink:href="#ArialMT-45"/>
       <use x="400.292969" xlink:href="#ArialMT-48"/>
       <use x="455.908203" xlink:href="#ArialMT-49"/>
      </g>
     </g>
    </g>
    <g id="xtick_10">
     <g id="line2d_17">
      <path clip-path="url(#p066f5e4d43)" d="M 468.71 413.235598 
L 468.71 240.009701 
" style="fill:none;stroke:#ffffff;stroke-linecap:round;stroke-width:0.8;"/>
     </g>
     <g id="text_17">
      <!-- 2003-02-15 -->
      <g style="fill:#262626;" transform="translate(435.464531 429.540754)scale(0.13 -0.13)">
       <use xlink:href="#ArialMT-50"/>
       <use x="55.615234" xlink:href="#ArialMT-48"/>
       <use x="111.230469" xlink:href="#ArialMT-48"/>
       <use x="166.845703" xlink:href="#ArialMT-51"/>
       <use x="222.460938" xlink:href="#ArialMT-45"/>
       <use x="255.761719" xlink:href="#ArialMT-48"/>
       <use x="311.376953" xlink:href="#ArialMT-50"/>
       <use x="366.992188" xlink:href="#ArialMT-45"/>
       <use x="400.292969" xlink:href="#ArialMT-49"/>
       <use x="455.908203" xlink:href="#ArialMT-53"/>
      </g>
     </g>
    </g>
    <g id="xtick_11">
     <g id="line2d_18">
      <path clip-path="url(#p066f5e4d43)" d="M 602.56 413.235598 
L 602.56 240.009701 
" style="fill:none;stroke:#ffffff;stroke-linecap:round;stroke-width:0.8;"/>
     </g>
     <g id="text_18">
      <!-- 2003-03-01 -->
      <g style="fill:#262626;" transform="translate(569.314531 429.540754)scale(0.13 -0.13)">
       <use xlink:href="#ArialMT-50"/>
       <use x="55.615234" xlink:href="#ArialMT-48"/>
       <use x="111.230469" xlink:href="#ArialMT-48"/>
       <use x="166.845703" xlink:href="#ArialMT-51"/>
       <use x="222.460938" xlink:href="#ArialMT-45"/>
       <use x="255.761719" xlink:href="#ArialMT-48"/>
       <use x="311.376953" xlink:href="#ArialMT-51"/>
       <use x="366.992188" xlink:href="#ArialMT-45"/>
       <use x="400.292969" xlink:href="#ArialMT-48"/>
       <use x="455.908203" xlink:href="#ArialMT-49"/>
      </g>
     </g>
    </g>
    <g id="xtick_12">
     <g id="line2d_19">
      <path clip-path="url(#p066f5e4d43)" d="M 736.41 413.235598 
L 736.41 240.009701 
" style="fill:none;stroke:#ffffff;stroke-linecap:round;stroke-width:0.8;"/>
     </g>
     <g id="text_19">
      <!-- 2003-03-15 -->
      <g style="fill:#262626;" transform="translate(703.164531 429.540754)scale(0.13 -0.13)">
       <use xlink:href="#ArialMT-50"/>
       <use x="55.615234" xlink:href="#ArialMT-48"/>
       <use x="111.230469" xlink:href="#ArialMT-48"/>
       <use x="166.845703" xlink:href="#ArialMT-51"/>
       <use x="222.460938" xlink:href="#ArialMT-45"/>
       <use x="255.761719" xlink:href="#ArialMT-48"/>
       <use x="311.376953" xlink:href="#ArialMT-51"/>
       <use x="366.992188" xlink:href="#ArialMT-45"/>
       <use x="400.292969" xlink:href="#ArialMT-49"/>
       <use x="455.908203" xlink:href="#ArialMT-53"/>
      </g>
     </g>
    </g>
    <g id="xtick_13">
     <g id="line2d_20">
      <path clip-path="url(#p066f5e4d43)" d="M 898.942143 413.235598 
L 898.942143 240.009701 
" style="fill:none;stroke:#ffffff;stroke-linecap:round;stroke-width:0.8;"/>
     </g>
     <g id="text_20">
      <!-- 2003-04-01 -->
      <g style="fill:#262626;" transform="translate(865.696674 429.540754)scale(0.13 -0.13)">
       <use xlink:href="#ArialMT-50"/>
       <use x="55.615234" xlink:href="#ArialMT-48"/>
       <use x="111.230469" xlink:href="#ArialMT-48"/>
       <use x="166.845703" xlink:href="#ArialMT-51"/>
       <use x="222.460938" xlink:href="#ArialMT-45"/>
       <use x="255.761719" xlink:href="#ArialMT-48"/>
       <use x="311.376953" xlink:href="#ArialMT-52"/>
       <use x="366.992188" xlink:href="#ArialMT-45"/>
       <use x="400.292969" xlink:href="#ArialMT-48"/>
       <use x="455.908203" xlink:href="#ArialMT-49"/>
      </g>
     </g>
    </g>
    <g id="xtick_14">
     <g id="line2d_21">
      <path clip-path="url(#p066f5e4d43)" d="M 1032.792143 413.235598 
L 1032.792143 240.009701 
" style="fill:none;stroke:#ffffff;stroke-linecap:round;stroke-width:0.8;"/>
     </g>
     <g id="text_21">
      <!-- 2003-04-15 -->
      <g style="fill:#262626;" transform="translate(999.546674 429.540754)scale(0.13 -0.13)">
       <use xlink:href="#ArialMT-50"/>
       <use x="55.615234" xlink:href="#ArialMT-48"/>
       <use x="111.230469" xlink:href="#ArialMT-48"/>
       <use x="166.845703" xlink:href="#ArialMT-51"/>
       <use x="222.460938" xlink:href="#ArialMT-45"/>
       <use x="255.761719" xlink:href="#ArialMT-48"/>
       <use x="311.376953" xlink:href="#ArialMT-52"/>
       <use x="366.992188" xlink:href="#ArialMT-45"/>
       <use x="400.292969" xlink:href="#ArialMT-49"/>
       <use x="455.908203" xlink:href="#ArialMT-53"/>
      </g>
     </g>
    </g>
   </g>
   <g id="matplotlib.axis_4">
    <g id="ytick_7">
     <g id="line2d_22">
      <path clip-path="url(#p066f5e4d43)" d="M 67.16 388.784824 
L 1137.96 388.784824 
" style="fill:none;stroke:#ffffff;stroke-linecap:round;stroke-width:0.8;"/>
     </g>
     <g id="text_22">
      <!-- 400 -->
      <g style="fill:#262626;" transform="translate(38.472344 393.437402)scale(0.13 -0.13)">
       <use xlink:href="#ArialMT-52"/>
       <use x="55.615234" xlink:href="#ArialMT-48"/>
       <use x="111.230469" xlink:href="#ArialMT-48"/>
      </g>
     </g>
    </g>
    <g id="ytick_8">
     <g id="line2d_23">
      <path clip-path="url(#p066f5e4d43)" d="M 67.16 358.281574 
L 1137.96 358.281574 
" style="fill:none;stroke:#ffffff;stroke-linecap:round;stroke-width:0.8;"/>
     </g>
     <g id="text_23">
      <!-- 600 -->
      <g style="fill:#262626;" transform="translate(38.472344 362.934152)scale(0.13 -0.13)">
       <defs>
        <path d="M 49.75 54.046875 
L 41.015625 53.375 
Q 39.84375 58.546875 37.703125 60.890625 
Q 34.125 64.65625 28.90625 64.65625 
Q 24.703125 64.65625 21.53125 62.3125 
Q 17.390625 59.28125 14.984375 53.46875 
Q 12.59375 47.65625 12.5 36.921875 
Q 15.671875 41.75 20.265625 44.09375 
Q 24.859375 46.4375 29.890625 46.4375 
Q 38.671875 46.4375 44.84375 39.96875 
Q 51.03125 33.5 51.03125 23.25 
Q 51.03125 16.5 48.125 10.71875 
Q 45.21875 4.9375 40.140625 1.859375 
Q 35.0625 -1.21875 28.609375 -1.21875 
Q 17.625 -1.21875 10.6875 6.859375 
Q 3.765625 14.9375 3.765625 33.5 
Q 3.765625 54.25 11.421875 63.671875 
Q 18.109375 71.875 29.4375 71.875 
Q 37.890625 71.875 43.28125 67.140625 
Q 48.6875 62.40625 49.75 54.046875 
z
M 13.875 23.1875 
Q 13.875 18.65625 15.796875 14.5 
Q 17.71875 10.359375 21.1875 8.171875 
Q 24.65625 6 28.46875 6 
Q 34.03125 6 38.03125 10.484375 
Q 42.046875 14.984375 42.046875 22.703125 
Q 42.046875 30.125 38.078125 34.390625 
Q 34.125 38.671875 28.125 38.671875 
Q 22.171875 38.671875 18.015625 34.390625 
Q 13.875 30.125 13.875 23.1875 
z
" id="ArialMT-54"/>
       </defs>
       <use xlink:href="#ArialMT-54"/>
       <use x="55.615234" xlink:href="#ArialMT-48"/>
       <use x="111.230469" xlink:href="#ArialMT-48"/>
      </g>
     </g>
    </g>
    <g id="ytick_9">
     <g id="line2d_24">
      <path clip-path="url(#p066f5e4d43)" d="M 67.16 327.778325 
L 1137.96 327.778325 
" style="fill:none;stroke:#ffffff;stroke-linecap:round;stroke-width:0.8;"/>
     </g>
     <g id="text_24">
      <!-- 800 -->
      <g style="fill:#262626;" transform="translate(38.472344 332.430903)scale(0.13 -0.13)">
       <defs>
        <path d="M 17.671875 38.8125 
Q 12.203125 40.828125 9.5625 44.53125 
Q 6.9375 48.25 6.9375 53.421875 
Q 6.9375 61.234375 12.546875 66.546875 
Q 18.171875 71.875 27.484375 71.875 
Q 36.859375 71.875 42.578125 66.421875 
Q 48.296875 60.984375 48.296875 53.171875 
Q 48.296875 48.1875 45.671875 44.5 
Q 43.0625 40.828125 37.75 38.8125 
Q 44.34375 36.671875 47.78125 31.875 
Q 51.21875 27.09375 51.21875 20.453125 
Q 51.21875 11.28125 44.71875 5.03125 
Q 38.234375 -1.21875 27.640625 -1.21875 
Q 17.046875 -1.21875 10.546875 5.046875 
Q 4.046875 11.328125 4.046875 20.703125 
Q 4.046875 27.6875 7.59375 32.390625 
Q 11.140625 37.109375 17.671875 38.8125 
z
M 15.921875 53.71875 
Q 15.921875 48.640625 19.1875 45.40625 
Q 22.46875 42.1875 27.6875 42.1875 
Q 32.765625 42.1875 36.015625 45.375 
Q 39.265625 48.578125 39.265625 53.21875 
Q 39.265625 58.0625 35.90625 61.359375 
Q 32.5625 64.65625 27.59375 64.65625 
Q 22.5625 64.65625 19.234375 61.421875 
Q 15.921875 58.203125 15.921875 53.71875 
z
M 13.09375 20.65625 
Q 13.09375 16.890625 14.875 13.375 
Q 16.65625 9.859375 20.171875 7.921875 
Q 23.6875 6 27.734375 6 
Q 34.03125 6 38.125 10.046875 
Q 42.234375 14.109375 42.234375 20.359375 
Q 42.234375 26.703125 38.015625 30.859375 
Q 33.796875 35.015625 27.4375 35.015625 
Q 21.234375 35.015625 17.15625 30.90625 
Q 13.09375 26.8125 13.09375 20.65625 
z
" id="ArialMT-56"/>
       </defs>
       <use xlink:href="#ArialMT-56"/>
       <use x="55.615234" xlink:href="#ArialMT-48"/>
       <use x="111.230469" xlink:href="#ArialMT-48"/>
      </g>
     </g>
    </g>
    <g id="ytick_10">
     <g id="line2d_25">
      <path clip-path="url(#p066f5e4d43)" d="M 67.16 297.275075 
L 1137.96 297.275075 
" style="fill:none;stroke:#ffffff;stroke-linecap:round;stroke-width:0.8;"/>
     </g>
     <g id="text_25">
      <!-- 1000 -->
      <g style="fill:#262626;" transform="translate(31.243125 301.927653)scale(0.13 -0.13)">
       <use xlink:href="#ArialMT-49"/>
       <use x="55.615234" xlink:href="#ArialMT-48"/>
       <use x="111.230469" xlink:href="#ArialMT-48"/>
       <use x="166.845703" xlink:href="#ArialMT-48"/>
      </g>
     </g>
    </g>
    <g id="ytick_11">
     <g id="line2d_26">
      <path clip-path="url(#p066f5e4d43)" d="M 67.16 266.771825 
L 1137.96 266.771825 
" style="fill:none;stroke:#ffffff;stroke-linecap:round;stroke-width:0.8;"/>
     </g>
     <g id="text_26">
      <!-- 1200 -->
      <g style="fill:#262626;" transform="translate(31.243125 271.424404)scale(0.13 -0.13)">
       <use xlink:href="#ArialMT-49"/>
       <use x="55.615234" xlink:href="#ArialMT-50"/>
       <use x="111.230469" xlink:href="#ArialMT-48"/>
       <use x="166.845703" xlink:href="#ArialMT-48"/>
      </g>
     </g>
    </g>
    <g id="text_27">
     <!-- Trend -->
     <g style="fill:#262626;" transform="translate(24.659375 343.357103)rotate(-90)scale(0.13 -0.13)">
      <defs>
       <path d="M 25.921875 0 
L 25.921875 63.140625 
L 2.34375 63.140625 
L 2.34375 71.578125 
L 59.078125 71.578125 
L 59.078125 63.140625 
L 35.40625 63.140625 
L 35.40625 0 
z
" id="ArialMT-84"/>
       <path d="M 6.59375 0 
L 6.59375 51.859375 
L 14.5 51.859375 
L 14.5 44.484375 
Q 20.21875 53.03125 31 53.03125 
Q 35.6875 53.03125 39.625 51.34375 
Q 43.5625 49.65625 45.515625 46.921875 
Q 47.46875 44.1875 48.25 40.4375 
Q 48.734375 37.984375 48.734375 31.890625 
L 48.734375 0 
L 39.9375 0 
L 39.9375 31.546875 
Q 39.9375 36.921875 38.90625 39.578125 
Q 37.890625 42.234375 35.28125 43.8125 
Q 32.671875 45.40625 29.15625 45.40625 
Q 23.53125 45.40625 19.453125 41.84375 
Q 15.375 38.28125 15.375 28.328125 
L 15.375 0 
z
" id="ArialMT-110"/>
       <path d="M 40.234375 0 
L 40.234375 6.546875 
Q 35.296875 -1.171875 25.734375 -1.171875 
Q 19.53125 -1.171875 14.328125 2.25 
Q 9.125 5.671875 6.265625 11.796875 
Q 3.421875 17.921875 3.421875 25.875 
Q 3.421875 33.640625 6 39.96875 
Q 8.59375 46.296875 13.765625 49.65625 
Q 18.953125 53.03125 25.34375 53.03125 
Q 30.03125 53.03125 33.6875 51.046875 
Q 37.359375 49.078125 39.65625 45.90625 
L 39.65625 71.578125 
L 48.390625 71.578125 
L 48.390625 0 
z
M 12.453125 25.875 
Q 12.453125 15.921875 16.640625 10.984375 
Q 20.84375 6.0625 26.5625 6.0625 
Q 32.328125 6.0625 36.34375 10.765625 
Q 40.375 15.484375 40.375 25.140625 
Q 40.375 35.796875 36.265625 40.765625 
Q 32.171875 45.75 26.171875 45.75 
Q 20.3125 45.75 16.375 40.96875 
Q 12.453125 36.1875 12.453125 25.875 
z
" id="ArialMT-100"/>
      </defs>
      <use xlink:href="#ArialMT-84"/>
      <use x="57.333984" xlink:href="#ArialMT-114"/>
      <use x="90.634766" xlink:href="#ArialMT-101"/>
      <use x="146.25" xlink:href="#ArialMT-110"/>
      <use x="201.865234" xlink:href="#ArialMT-100"/>
     </g>
    </g>
   </g>
   <g id="line2d_27">
    <path clip-path="url(#p066f5e4d43)" d="M 67.16 306.942255 
L 76.720714 299.048887 
L 86.281429 291.274214 
L 95.842143 283.623649 
L 105.402857 276.096335 
L 114.963571 268.67639 
L 124.524286 261.478154 
L 134.085 256.337503 
L 143.645714 252.347498 
L 153.206429 249.490194 
L 162.767143 247.883605 
L 172.327857 248.102776 
L 181.888571 250.768662 
L 191.449286 256.252578 
L 201.01 264.742785 
L 210.570714 276.272704 
L 220.131429 290.798048 
L 229.692143 307.823902 
L 239.252857 325.90439 
L 248.813571 343.171919 
L 258.374286 358.175142 
L 267.935 370.416862 
L 277.495714 379.850248 
L 287.056429 386.511367 
L 296.617143 390.383562 
L 306.177857 391.080092 
L 315.738571 388.32281 
L 325.299286 382.059065 
L 334.86 372.145781 
L 344.420714 358.523905 
L 353.981429 341.241184 
L 363.542143 321.151569 
L 373.102857 300.948813 
L 382.663571 284.023929 
L 392.224286 272.915277 
L 401.785 268.528329 
L 411.345714 270.949824 
L 420.906429 280.081591 
L 430.467143 295.09625 
L 440.027857 313.77632 
L 449.588571 333.116566 
L 459.149286 350.68431 
L 468.71 365.725379 
L 478.270714 378.197529 
L 487.831429 388.13174 
L 497.392143 395.637403 
L 506.952857 400.818768 
L 516.513571 403.953517 
L 526.074286 405.361694 
L 535.635 405.069467 
L 545.195714 403.046717 
L 554.756429 399.311946 
L 564.317143 394.150777 
L 573.877857 388.41536 
L 583.438571 383.208603 
L 592.999286 379.380513 
L 602.56 377.215112 
L 612.120714 376.733122 
L 621.681429 377.909037 
L 631.242143 380.468141 
L 640.802857 383.609208 
L 650.363571 386.291687 
L 659.924286 387.710564 
L 669.485 387.601192 
L 679.045714 385.945526 
L 688.606429 382.763522 
L 698.167143 378.306065 
L 707.727857 373.321766 
L 717.288571 368.788792 
L 726.849286 365.470335 
L 736.41 363.628806 
L 745.970714 363.288691 
L 755.531429 364.427942 
L 765.092143 366.823853 
L 774.652857 369.853355 
L 784.213571 372.705588 
L 793.774286 374.748281 
L 803.335 375.78009 
L 812.895714 375.790987 
L 822.456429 374.794282 
L 832.017143 372.911718 
L 841.577857 370.483188 
L 851.138571 367.98205 
L 860.699286 365.794831 
L 870.26 364.044416 
L 879.820714 362.741329 
L 889.381429 361.879164 
L 898.942143 361.212059 
L 908.502857 359.907678 
L 918.063571 356.978427 
L 927.624286 351.722774 
L 937.185 343.865213 
L 946.745714 333.37395 
L 956.306429 320.285848 
L 965.867143 305.20078 
L 975.427857 290.0173 
L 984.988571 277.141731 
L 994.549286 268.383611 
L 1004.11 264.393182 
L 1013.670714 265.242392 
L 1023.231429 270.865633 
L 1032.792143 280.528889 
L 1042.352857 292.130541 
L 1051.913571 302.937545 
L 1061.474286 310.815359 
L 1071.035 315.060125 
L 1080.595714 315.62647 
L 1090.156429 309.701088 
L 1099.717143 303.196348 
L 1109.277857 296.327207 
L 1118.838571 289.053449 
L 1128.399286 281.39932 
L 1137.96 273.407992 
" style="fill:none;stroke:#1f77b4;stroke-linecap:round;stroke-width:1.5;"/>
   </g>
   <g id="patch_8">
    <path d="M 67.16 413.235598 
L 67.16 240.009701 
" style="fill:none;stroke:#ffffff;stroke-linecap:square;stroke-linejoin:miter;stroke-width:0.8;"/>
   </g>
   <g id="patch_9">
    <path d="M 1137.96 413.235598 
L 1137.96 240.009701 
" style="fill:none;stroke:#ffffff;stroke-linecap:square;stroke-linejoin:miter;stroke-width:0.8;"/>
   </g>
   <g id="patch_10">
    <path d="M 67.16 413.235598 
L 1137.96 413.235598 
" style="fill:none;stroke:#ffffff;stroke-linecap:square;stroke-linejoin:miter;stroke-width:0.8;"/>
   </g>
   <g id="patch_11">
    <path d="M 67.16 240.009701 
L 1137.96 240.009701 
" style="fill:none;stroke:#ffffff;stroke-linecap:square;stroke-linejoin:miter;stroke-width:0.8;"/>
   </g>
  </g>
  <g id="axes_3">
   <g id="patch_12">
    <path d="M 67.16 621.617799 
L 1137.96 621.617799 
L 1137.96 448.391902 
L 67.16 448.391902 
z
" style="fill:#eaeaf2;"/>
   </g>
   <g id="matplotlib.axis_5">
    <g id="xtick_15">
     <g id="line2d_28">
      <path clip-path="url(#p7c3e0186aa)" d="M 172.327857 621.617799 
L 172.327857 448.391902 
" style="fill:none;stroke:#ffffff;stroke-linecap:round;stroke-width:0.8;"/>
     </g>
     <g id="text_28">
      <!-- 2003-01-15 -->
      <g style="fill:#262626;" transform="translate(139.082388 637.922955)scale(0.13 -0.13)">
       <use xlink:href="#ArialMT-50"/>
       <use x="55.615234" xlink:href="#ArialMT-48"/>
       <use x="111.230469" xlink:href="#ArialMT-48"/>
       <use x="166.845703" xlink:href="#ArialMT-51"/>
       <use x="222.460938" xlink:href="#ArialMT-45"/>
       <use x="255.761719" xlink:href="#ArialMT-48"/>
       <use x="311.376953" xlink:href="#ArialMT-49"/>
       <use x="366.992188" xlink:href="#ArialMT-45"/>
       <use x="400.292969" xlink:href="#ArialMT-49"/>
       <use x="455.908203" xlink:href="#ArialMT-53"/>
      </g>
     </g>
    </g>
    <g id="xtick_16">
     <g id="line2d_29">
      <path clip-path="url(#p7c3e0186aa)" d="M 334.86 621.617799 
L 334.86 448.391902 
" style="fill:none;stroke:#ffffff;stroke-linecap:round;stroke-width:0.8;"/>
     </g>
     <g id="text_29">
      <!-- 2003-02-01 -->
      <g style="fill:#262626;" transform="translate(301.614531 637.922955)scale(0.13 -0.13)">
       <use xlink:href="#ArialMT-50"/>
       <use x="55.615234" xlink:href="#ArialMT-48"/>
       <use x="111.230469" xlink:href="#ArialMT-48"/>
       <use x="166.845703" xlink:href="#ArialMT-51"/>
       <use x="222.460938" xlink:href="#ArialMT-45"/>
       <use x="255.761719" xlink:href="#ArialMT-48"/>
       <use x="311.376953" xlink:href="#ArialMT-50"/>
       <use x="366.992188" xlink:href="#ArialMT-45"/>
       <use x="400.292969" xlink:href="#ArialMT-48"/>
       <use x="455.908203" xlink:href="#ArialMT-49"/>
      </g>
     </g>
    </g>
    <g id="xtick_17">
     <g id="line2d_30">
      <path clip-path="url(#p7c3e0186aa)" d="M 468.71 621.617799 
L 468.71 448.391902 
" style="fill:none;stroke:#ffffff;stroke-linecap:round;stroke-width:0.8;"/>
     </g>
     <g id="text_30">
      <!-- 2003-02-15 -->
      <g style="fill:#262626;" transform="translate(435.464531 637.922955)scale(0.13 -0.13)">
       <use xlink:href="#ArialMT-50"/>
       <use x="55.615234" xlink:href="#ArialMT-48"/>
       <use x="111.230469" xlink:href="#ArialMT-48"/>
       <use x="166.845703" xlink:href="#ArialMT-51"/>
       <use x="222.460938" xlink:href="#ArialMT-45"/>
       <use x="255.761719" xlink:href="#ArialMT-48"/>
       <use x="311.376953" xlink:href="#ArialMT-50"/>
       <use x="366.992188" xlink:href="#ArialMT-45"/>
       <use x="400.292969" xlink:href="#ArialMT-49"/>
       <use x="455.908203" xlink:href="#ArialMT-53"/>
      </g>
     </g>
    </g>
    <g id="xtick_18">
     <g id="line2d_31">
      <path clip-path="url(#p7c3e0186aa)" d="M 602.56 621.617799 
L 602.56 448.391902 
" style="fill:none;stroke:#ffffff;stroke-linecap:round;stroke-width:0.8;"/>
     </g>
     <g id="text_31">
      <!-- 2003-03-01 -->
      <g style="fill:#262626;" transform="translate(569.314531 637.922955)scale(0.13 -0.13)">
       <use xlink:href="#ArialMT-50"/>
       <use x="55.615234" xlink:href="#ArialMT-48"/>
       <use x="111.230469" xlink:href="#ArialMT-48"/>
       <use x="166.845703" xlink:href="#ArialMT-51"/>
       <use x="222.460938" xlink:href="#ArialMT-45"/>
       <use x="255.761719" xlink:href="#ArialMT-48"/>
       <use x="311.376953" xlink:href="#ArialMT-51"/>
       <use x="366.992188" xlink:href="#ArialMT-45"/>
       <use x="400.292969" xlink:href="#ArialMT-48"/>
       <use x="455.908203" xlink:href="#ArialMT-49"/>
      </g>
     </g>
    </g>
    <g id="xtick_19">
     <g id="line2d_32">
      <path clip-path="url(#p7c3e0186aa)" d="M 736.41 621.617799 
L 736.41 448.391902 
" style="fill:none;stroke:#ffffff;stroke-linecap:round;stroke-width:0.8;"/>
     </g>
     <g id="text_32">
      <!-- 2003-03-15 -->
      <g style="fill:#262626;" transform="translate(703.164531 637.922955)scale(0.13 -0.13)">
       <use xlink:href="#ArialMT-50"/>
       <use x="55.615234" xlink:href="#ArialMT-48"/>
       <use x="111.230469" xlink:href="#ArialMT-48"/>
       <use x="166.845703" xlink:href="#ArialMT-51"/>
       <use x="222.460938" xlink:href="#ArialMT-45"/>
       <use x="255.761719" xlink:href="#ArialMT-48"/>
       <use x="311.376953" xlink:href="#ArialMT-51"/>
       <use x="366.992188" xlink:href="#ArialMT-45"/>
       <use x="400.292969" xlink:href="#ArialMT-49"/>
       <use x="455.908203" xlink:href="#ArialMT-53"/>
      </g>
     </g>
    </g>
    <g id="xtick_20">
     <g id="line2d_33">
      <path clip-path="url(#p7c3e0186aa)" d="M 898.942143 621.617799 
L 898.942143 448.391902 
" style="fill:none;stroke:#ffffff;stroke-linecap:round;stroke-width:0.8;"/>
     </g>
     <g id="text_33">
      <!-- 2003-04-01 -->
      <g style="fill:#262626;" transform="translate(865.696674 637.922955)scale(0.13 -0.13)">
       <use xlink:href="#ArialMT-50"/>
       <use x="55.615234" xlink:href="#ArialMT-48"/>
       <use x="111.230469" xlink:href="#ArialMT-48"/>
       <use x="166.845703" xlink:href="#ArialMT-51"/>
       <use x="222.460938" xlink:href="#ArialMT-45"/>
       <use x="255.761719" xlink:href="#ArialMT-48"/>
       <use x="311.376953" xlink:href="#ArialMT-52"/>
       <use x="366.992188" xlink:href="#ArialMT-45"/>
       <use x="400.292969" xlink:href="#ArialMT-48"/>
       <use x="455.908203" xlink:href="#ArialMT-49"/>
      </g>
     </g>
    </g>
    <g id="xtick_21">
     <g id="line2d_34">
      <path clip-path="url(#p7c3e0186aa)" d="M 1032.792143 621.617799 
L 1032.792143 448.391902 
" style="fill:none;stroke:#ffffff;stroke-linecap:round;stroke-width:0.8;"/>
     </g>
     <g id="text_34">
      <!-- 2003-04-15 -->
      <g style="fill:#262626;" transform="translate(999.546674 637.922955)scale(0.13 -0.13)">
       <use xlink:href="#ArialMT-50"/>
       <use x="55.615234" xlink:href="#ArialMT-48"/>
       <use x="111.230469" xlink:href="#ArialMT-48"/>
       <use x="166.845703" xlink:href="#ArialMT-51"/>
       <use x="222.460938" xlink:href="#ArialMT-45"/>
       <use x="255.761719" xlink:href="#ArialMT-48"/>
       <use x="311.376953" xlink:href="#ArialMT-52"/>
       <use x="366.992188" xlink:href="#ArialMT-45"/>
       <use x="400.292969" xlink:href="#ArialMT-49"/>
       <use x="455.908203" xlink:href="#ArialMT-53"/>
      </g>
     </g>
    </g>
   </g>
   <g id="matplotlib.axis_6">
    <g id="ytick_12">
     <g id="line2d_35">
      <path clip-path="url(#p7c3e0186aa)" d="M 67.16 609.106108 
L 1137.96 609.106108 
" style="fill:none;stroke:#ffffff;stroke-linecap:round;stroke-width:0.8;"/>
     </g>
     <g id="text_35">
      <!-- 5.0 -->
      <g style="fill:#262626;" transform="translate(34.497187 613.758686)scale(0.13 -0.13)">
       <defs>
        <path d="M 52.828125 31.203125 
L 5.5625 31.203125 
L 5.5625 39.40625 
L 52.828125 39.40625 
z
" id="ArialMT-8722"/>
        <path d="M 9.078125 0 
L 9.078125 10.015625 
L 19.09375 10.015625 
L 19.09375 0 
z
" id="ArialMT-46"/>
       </defs>
       <use xlink:href="#ArialMT-8722"/>
       <use x="58.398438" xlink:href="#ArialMT-53"/>
       <use x="114.013672" xlink:href="#ArialMT-46"/>
       <use x="141.796875" xlink:href="#ArialMT-48"/>
      </g>
     </g>
    </g>
    <g id="ytick_13">
     <g id="line2d_36">
      <path clip-path="url(#p7c3e0186aa)" d="M 67.16 575.962116 
L 1137.96 575.962116 
" style="fill:none;stroke:#ffffff;stroke-linecap:round;stroke-width:0.8;"/>
     </g>
     <g id="text_36">
      <!-- 2.5 -->
      <g style="fill:#262626;" transform="translate(34.497187 580.614694)scale(0.13 -0.13)">
       <use xlink:href="#ArialMT-8722"/>
       <use x="58.398438" xlink:href="#ArialMT-50"/>
       <use x="114.013672" xlink:href="#ArialMT-46"/>
       <use x="141.796875" xlink:href="#ArialMT-53"/>
      </g>
     </g>
    </g>
    <g id="ytick_14">
     <g id="line2d_37">
      <path clip-path="url(#p7c3e0186aa)" d="M 67.16 542.818124 
L 1137.96 542.818124 
" style="fill:none;stroke:#ffffff;stroke-linecap:round;stroke-width:0.8;"/>
     </g>
     <g id="text_37">
      <!-- 0.0 -->
      <g style="fill:#262626;" transform="translate(42.09 547.470702)scale(0.13 -0.13)">
       <use xlink:href="#ArialMT-48"/>
       <use x="55.615234" xlink:href="#ArialMT-46"/>
       <use x="83.398438" xlink:href="#ArialMT-48"/>
      </g>
     </g>
    </g>
    <g id="ytick_15">
     <g id="line2d_38">
      <path clip-path="url(#p7c3e0186aa)" d="M 67.16 509.674131 
L 1137.96 509.674131 
" style="fill:none;stroke:#ffffff;stroke-linecap:round;stroke-width:0.8;"/>
     </g>
     <g id="text_38">
      <!-- 2.5 -->
      <g style="fill:#262626;" transform="translate(42.09 514.326709)scale(0.13 -0.13)">
       <use xlink:href="#ArialMT-50"/>
       <use x="55.615234" xlink:href="#ArialMT-46"/>
       <use x="83.398438" xlink:href="#ArialMT-53"/>
      </g>
     </g>
    </g>
    <g id="ytick_16">
     <g id="line2d_39">
      <path clip-path="url(#p7c3e0186aa)" d="M 67.16 476.530139 
L 1137.96 476.530139 
" style="fill:none;stroke:#ffffff;stroke-linecap:round;stroke-width:0.8;"/>
     </g>
     <g id="text_39">
      <!-- 5.0 -->
      <g style="fill:#262626;" transform="translate(42.09 481.182717)scale(0.13 -0.13)">
       <use xlink:href="#ArialMT-53"/>
       <use x="55.615234" xlink:href="#ArialMT-46"/>
       <use x="83.398438" xlink:href="#ArialMT-48"/>
      </g>
     </g>
    </g>
    <g id="text_40">
     <!-- Season -->
     <g style="fill:#262626;" transform="translate(27.913437 557.048991)rotate(-90)scale(0.13 -0.13)">
      <defs>
       <path d="M 4.5 23 
L 13.421875 23.78125 
Q 14.0625 18.40625 16.375 14.96875 
Q 18.703125 11.53125 23.578125 9.40625 
Q 28.46875 7.28125 34.578125 7.28125 
Q 39.984375 7.28125 44.140625 8.890625 
Q 48.296875 10.5 50.3125 13.296875 
Q 52.34375 16.109375 52.34375 19.4375 
Q 52.34375 22.796875 50.390625 25.3125 
Q 48.4375 27.828125 43.953125 29.546875 
Q 41.0625 30.671875 31.203125 33.03125 
Q 21.34375 35.40625 17.390625 37.5 
Q 12.25 40.1875 9.734375 44.15625 
Q 7.234375 48.140625 7.234375 53.078125 
Q 7.234375 58.5 10.296875 63.203125 
Q 13.375 67.921875 19.28125 70.359375 
Q 25.203125 72.796875 32.421875 72.796875 
Q 40.375 72.796875 46.453125 70.234375 
Q 52.546875 67.671875 55.8125 62.6875 
Q 59.078125 57.71875 59.328125 51.421875 
L 50.25 50.734375 
Q 49.515625 57.515625 45.28125 60.984375 
Q 41.0625 64.453125 32.8125 64.453125 
Q 24.21875 64.453125 20.28125 61.296875 
Q 16.359375 58.15625 16.359375 53.71875 
Q 16.359375 49.859375 19.140625 47.359375 
Q 21.875 44.875 33.421875 42.265625 
Q 44.96875 39.65625 49.265625 37.703125 
Q 55.515625 34.8125 58.484375 30.390625 
Q 61.46875 25.984375 61.46875 20.21875 
Q 61.46875 14.5 58.203125 9.4375 
Q 54.9375 4.390625 48.796875 1.578125 
Q 42.671875 -1.21875 35.015625 -1.21875 
Q 25.296875 -1.21875 18.71875 1.609375 
Q 12.15625 4.4375 8.421875 10.125 
Q 4.6875 15.828125 4.5 23 
z
" id="ArialMT-83"/>
       <path d="M 3.328125 25.921875 
Q 3.328125 40.328125 11.328125 47.265625 
Q 18.015625 53.03125 27.640625 53.03125 
Q 38.328125 53.03125 45.109375 46.015625 
Q 51.90625 39.015625 51.90625 26.65625 
Q 51.90625 16.65625 48.90625 10.90625 
Q 45.90625 5.171875 40.15625 2 
Q 34.421875 -1.171875 27.640625 -1.171875 
Q 16.75 -1.171875 10.03125 5.8125 
Q 3.328125 12.796875 3.328125 25.921875 
z
M 12.359375 25.921875 
Q 12.359375 15.96875 16.703125 11.015625 
Q 21.046875 6.0625 27.640625 6.0625 
Q 34.1875 6.0625 38.53125 11.03125 
Q 42.875 16.015625 42.875 26.21875 
Q 42.875 35.84375 38.5 40.796875 
Q 34.125 45.75 27.640625 45.75 
Q 21.046875 45.75 16.703125 40.8125 
Q 12.359375 35.890625 12.359375 25.921875 
z
" id="ArialMT-111"/>
      </defs>
      <use xlink:href="#ArialMT-83"/>
      <use x="66.699219" xlink:href="#ArialMT-101"/>
      <use x="122.314453" xlink:href="#ArialMT-97"/>
      <use x="177.929688" xlink:href="#ArialMT-115"/>
      <use x="227.929688" xlink:href="#ArialMT-111"/>
      <use x="283.544922" xlink:href="#ArialMT-110"/>
     </g>
    </g>
   </g>
   <g id="line2d_40">
    <path clip-path="url(#p7c3e0186aa)" d="M 67.16 456.265806 
L 76.720714 536.590294 
L 86.281429 587.445278 
L 95.842143 602.763082 
L 105.402857 586.619986 
L 114.963571 545.566687 
L 124.524286 483.050007 
L 134.085 470.410494 
L 143.645714 538.281553 
L 153.206429 580.254408 
L 162.767143 592.537357 
L 172.327857 578.802587 
L 181.888571 544.749451 
L 191.449286 493.371053 
L 201.01 483.434128 
L 210.570714 539.775165 
L 220.131429 573.625601 
L 229.692143 583.123914 
L 239.252857 571.592167 
L 248.813571 543.991914 
L 258.374286 502.914973 
L 267.935 495.336022 
L 277.495714 540.873803 
L 287.056429 567.230417 
L 296.617143 574.140115 
L 306.177857 564.713875 
L 315.738571 543.36931 
L 325.299286 512.438572 
L 334.86 507.182681 
L 344.420714 542.082166 
L 353.981429 560.969129 
L 363.542143 565.218455 
L 373.102857 557.795041 
L 382.663571 542.664084 
L 392.224286 521.960488 
L 401.785 519.27146 
L 411.345714 543.694895 
L 420.906429 555.077267 
L 430.467143 556.594319 
L 440.027857 550.999098 
L 449.588571 541.736824 
L 459.149286 530.689418 
L 468.71 530.579488 
L 478.270714 545.128138 
L 487.831429 549.487584 
L 497.392143 548.390581 
L 506.952857 544.42352 
L 516.513571 540.598143 
L 526.074286 538.612504 
L 535.635 542.215378 
L 545.195714 547.1551 
L 554.756429 544.48074 
L 564.317143 540.579273 
L 573.877857 537.864289 
L 583.438571 538.956229 
L 592.999286 545.389873 
L 602.56 556.221733 
L 612.120714 548.183942 
L 621.681429 543.47583 
L 631.242143 537.532682 
L 640.802857 533.324746 
L 650.363571 534.560649 
L 659.924286 543.643392 
L 669.485 551.990595 
L 679.045714 554.121408 
L 688.606429 550.505524 
L 698.167143 541.321407 
L 707.727857 531.283724 
L 717.288571 527.31688 
L 726.849286 534.231673 
L 736.41 547.83967 
L 745.970714 563.448835 
L 755.531429 559.838027 
L 765.092143 546.408246 
L 774.652857 529.626247 
L 784.213571 519.736493 
L 793.774286 524.025202 
L 803.335 542.474252 
L 812.895714 573.407026 
L 822.456429 569.701408 
L 832.017143 551.839705 
L 841.577857 528.072418 
L 851.138571 512.040699 
L 860.699286 513.557138 
L 870.26 536.458374 
L 879.820714 583.543035 
L 889.381429 579.836797 
L 898.942143 557.513508 
L 908.502857 526.64404 
L 918.063571 504.327574 
L 927.624286 502.945878 
L 937.185 529.910691 
L 946.745714 593.670955 
L 956.306429 590.238776 
L 965.867143 563.500337 
L 975.427857 525.401217 
L 984.988571 496.59292 
L 994.549286 492.099671 
L 1004.11 522.722597 
L 1013.670714 603.80042 
L 1023.231429 601.105299 
L 1032.792143 570.032412 
L 1042.352857 524.466263 
L 1051.913571 488.743409 
L 1061.474286 480.636906 
L 1071.035 514.321068 
L 1080.595714 613.743895 
L 1090.156429 612.470098 
L 1099.717143 577.124084 
L 1109.277857 523.737293 
L 1118.838571 480.695285 
L 1128.399286 468.793359 
L 1137.96 505.368639 
" style="fill:none;stroke:#1f77b4;stroke-linecap:round;stroke-width:1.5;"/>
   </g>
   <g id="patch_13">
    <path d="M 67.16 621.617799 
L 67.16 448.391902 
" style="fill:none;stroke:#ffffff;stroke-linecap:square;stroke-linejoin:miter;stroke-width:0.8;"/>
   </g>
   <g id="patch_14">
    <path d="M 1137.96 621.617799 
L 1137.96 448.391902 
" style="fill:none;stroke:#ffffff;stroke-linecap:square;stroke-linejoin:miter;stroke-width:0.8;"/>
   </g>
   <g id="patch_15">
    <path d="M 67.16 621.617799 
L 1137.96 621.617799 
" style="fill:none;stroke:#ffffff;stroke-linecap:square;stroke-linejoin:miter;stroke-width:0.8;"/>
   </g>
   <g id="patch_16">
    <path d="M 67.16 448.391902 
L 1137.96 448.391902 
" style="fill:none;stroke:#ffffff;stroke-linecap:square;stroke-linejoin:miter;stroke-width:0.8;"/>
   </g>
  </g>
  <g id="axes_4">
   <g id="patch_17">
    <path d="M 67.16 830 
L 1137.96 830 
L 1137.96 656.774103 
L 67.16 656.774103 
z
" style="fill:#eaeaf2;"/>
   </g>
   <g id="line2d_41">
    <path clip-path="url(#p465b6b4237)" d="M 67.16 765.825275 
L 1137.96 765.825275 
" style="fill:none;stroke:#000000;stroke-linecap:round;stroke-width:1.5;"/>
   </g>
   <g id="matplotlib.axis_7">
    <g id="xtick_22">
     <g id="line2d_42">
      <path clip-path="url(#p465b6b4237)" d="M 172.327857 830 
L 172.327857 656.774103 
" style="fill:none;stroke:#ffffff;stroke-linecap:round;stroke-width:0.8;"/>
     </g>
     <g id="text_41">
      <!-- 2003-01-15 -->
      <g style="fill:#262626;" transform="translate(139.082388 846.305156)scale(0.13 -0.13)">
       <use xlink:href="#ArialMT-50"/>
       <use x="55.615234" xlink:href="#ArialMT-48"/>
       <use x="111.230469" xlink:href="#ArialMT-48"/>
       <use x="166.845703" xlink:href="#ArialMT-51"/>
       <use x="222.460938" xlink:href="#ArialMT-45"/>
       <use x="255.761719" xlink:href="#ArialMT-48"/>
       <use x="311.376953" xlink:href="#ArialMT-49"/>
       <use x="366.992188" xlink:href="#ArialMT-45"/>
       <use x="400.292969" xlink:href="#ArialMT-49"/>
       <use x="455.908203" xlink:href="#ArialMT-53"/>
      </g>
     </g>
    </g>
    <g id="xtick_23">
     <g id="line2d_43">
      <path clip-path="url(#p465b6b4237)" d="M 334.86 830 
L 334.86 656.774103 
" style="fill:none;stroke:#ffffff;stroke-linecap:round;stroke-width:0.8;"/>
     </g>
     <g id="text_42">
      <!-- 2003-02-01 -->
      <g style="fill:#262626;" transform="translate(301.614531 846.305156)scale(0.13 -0.13)">
       <use xlink:href="#ArialMT-50"/>
       <use x="55.615234" xlink:href="#ArialMT-48"/>
       <use x="111.230469" xlink:href="#ArialMT-48"/>
       <use x="166.845703" xlink:href="#ArialMT-51"/>
       <use x="222.460938" xlink:href="#ArialMT-45"/>
       <use x="255.761719" xlink:href="#ArialMT-48"/>
       <use x="311.376953" xlink:href="#ArialMT-50"/>
       <use x="366.992188" xlink:href="#ArialMT-45"/>
       <use x="400.292969" xlink:href="#ArialMT-48"/>
       <use x="455.908203" xlink:href="#ArialMT-49"/>
      </g>
     </g>
    </g>
    <g id="xtick_24">
     <g id="line2d_44">
      <path clip-path="url(#p465b6b4237)" d="M 468.71 830 
L 468.71 656.774103 
" style="fill:none;stroke:#ffffff;stroke-linecap:round;stroke-width:0.8;"/>
     </g>
     <g id="text_43">
      <!-- 2003-02-15 -->
      <g style="fill:#262626;" transform="translate(435.464531 846.305156)scale(0.13 -0.13)">
       <use xlink:href="#ArialMT-50"/>
       <use x="55.615234" xlink:href="#ArialMT-48"/>
       <use x="111.230469" xlink:href="#ArialMT-48"/>
       <use x="166.845703" xlink:href="#ArialMT-51"/>
       <use x="222.460938" xlink:href="#ArialMT-45"/>
       <use x="255.761719" xlink:href="#ArialMT-48"/>
       <use x="311.376953" xlink:href="#ArialMT-50"/>
       <use x="366.992188" xlink:href="#ArialMT-45"/>
       <use x="400.292969" xlink:href="#ArialMT-49"/>
       <use x="455.908203" xlink:href="#ArialMT-53"/>
      </g>
     </g>
    </g>
    <g id="xtick_25">
     <g id="line2d_45">
      <path clip-path="url(#p465b6b4237)" d="M 602.56 830 
L 602.56 656.774103 
" style="fill:none;stroke:#ffffff;stroke-linecap:round;stroke-width:0.8;"/>
     </g>
     <g id="text_44">
      <!-- 2003-03-01 -->
      <g style="fill:#262626;" transform="translate(569.314531 846.305156)scale(0.13 -0.13)">
       <use xlink:href="#ArialMT-50"/>
       <use x="55.615234" xlink:href="#ArialMT-48"/>
       <use x="111.230469" xlink:href="#ArialMT-48"/>
       <use x="166.845703" xlink:href="#ArialMT-51"/>
       <use x="222.460938" xlink:href="#ArialMT-45"/>
       <use x="255.761719" xlink:href="#ArialMT-48"/>
       <use x="311.376953" xlink:href="#ArialMT-51"/>
       <use x="366.992188" xlink:href="#ArialMT-45"/>
       <use x="400.292969" xlink:href="#ArialMT-48"/>
       <use x="455.908203" xlink:href="#ArialMT-49"/>
      </g>
     </g>
    </g>
    <g id="xtick_26">
     <g id="line2d_46">
      <path clip-path="url(#p465b6b4237)" d="M 736.41 830 
L 736.41 656.774103 
" style="fill:none;stroke:#ffffff;stroke-linecap:round;stroke-width:0.8;"/>
     </g>
     <g id="text_45">
      <!-- 2003-03-15 -->
      <g style="fill:#262626;" transform="translate(703.164531 846.305156)scale(0.13 -0.13)">
       <use xlink:href="#ArialMT-50"/>
       <use x="55.615234" xlink:href="#ArialMT-48"/>
       <use x="111.230469" xlink:href="#ArialMT-48"/>
       <use x="166.845703" xlink:href="#ArialMT-51"/>
       <use x="222.460938" xlink:href="#ArialMT-45"/>
       <use x="255.761719" xlink:href="#ArialMT-48"/>
       <use x="311.376953" xlink:href="#ArialMT-51"/>
       <use x="366.992188" xlink:href="#ArialMT-45"/>
       <use x="400.292969" xlink:href="#ArialMT-49"/>
       <use x="455.908203" xlink:href="#ArialMT-53"/>
      </g>
     </g>
    </g>
    <g id="xtick_27">
     <g id="line2d_47">
      <path clip-path="url(#p465b6b4237)" d="M 898.942143 830 
L 898.942143 656.774103 
" style="fill:none;stroke:#ffffff;stroke-linecap:round;stroke-width:0.8;"/>
     </g>
     <g id="text_46">
      <!-- 2003-04-01 -->
      <g style="fill:#262626;" transform="translate(865.696674 846.305156)scale(0.13 -0.13)">
       <use xlink:href="#ArialMT-50"/>
       <use x="55.615234" xlink:href="#ArialMT-48"/>
       <use x="111.230469" xlink:href="#ArialMT-48"/>
       <use x="166.845703" xlink:href="#ArialMT-51"/>
       <use x="222.460938" xlink:href="#ArialMT-45"/>
       <use x="255.761719" xlink:href="#ArialMT-48"/>
       <use x="311.376953" xlink:href="#ArialMT-52"/>
       <use x="366.992188" xlink:href="#ArialMT-45"/>
       <use x="400.292969" xlink:href="#ArialMT-48"/>
       <use x="455.908203" xlink:href="#ArialMT-49"/>
      </g>
     </g>
    </g>
    <g id="xtick_28">
     <g id="line2d_48">
      <path clip-path="url(#p465b6b4237)" d="M 1032.792143 830 
L 1032.792143 656.774103 
" style="fill:none;stroke:#ffffff;stroke-linecap:round;stroke-width:0.8;"/>
     </g>
     <g id="text_47">
      <!-- 2003-04-15 -->
      <g style="fill:#262626;" transform="translate(999.546674 846.305156)scale(0.13 -0.13)">
       <use xlink:href="#ArialMT-50"/>
       <use x="55.615234" xlink:href="#ArialMT-48"/>
       <use x="111.230469" xlink:href="#ArialMT-48"/>
       <use x="166.845703" xlink:href="#ArialMT-51"/>
       <use x="222.460938" xlink:href="#ArialMT-45"/>
       <use x="255.761719" xlink:href="#ArialMT-48"/>
       <use x="311.376953" xlink:href="#ArialMT-52"/>
       <use x="366.992188" xlink:href="#ArialMT-45"/>
       <use x="400.292969" xlink:href="#ArialMT-49"/>
       <use x="455.908203" xlink:href="#ArialMT-53"/>
      </g>
     </g>
    </g>
   </g>
   <g id="matplotlib.axis_8">
    <g id="ytick_17">
     <g id="line2d_49">
      <path clip-path="url(#p465b6b4237)" d="M 67.16 800.6251 
L 1137.96 800.6251 
" style="fill:none;stroke:#ffffff;stroke-linecap:round;stroke-width:0.8;"/>
     </g>
     <g id="text_48">
      <!-- 100 -->
      <g style="fill:#262626;" transform="translate(30.879531 805.277678)scale(0.13 -0.13)">
       <use xlink:href="#ArialMT-8722"/>
       <use x="58.398438" xlink:href="#ArialMT-49"/>
       <use x="114.013672" xlink:href="#ArialMT-48"/>
       <use x="169.628906" xlink:href="#ArialMT-48"/>
      </g>
     </g>
    </g>
    <g id="ytick_18">
     <g id="line2d_50">
      <path clip-path="url(#p465b6b4237)" d="M 67.16 765.825275 
L 1137.96 765.825275 
" style="fill:none;stroke:#ffffff;stroke-linecap:round;stroke-width:0.8;"/>
     </g>
     <g id="text_49">
      <!-- 0 -->
      <g style="fill:#262626;" transform="translate(52.930781 770.477853)scale(0.13 -0.13)">
       <use xlink:href="#ArialMT-48"/>
      </g>
     </g>
    </g>
    <g id="ytick_19">
     <g id="line2d_51">
      <path clip-path="url(#p465b6b4237)" d="M 67.16 731.02545 
L 1137.96 731.02545 
" style="fill:none;stroke:#ffffff;stroke-linecap:round;stroke-width:0.8;"/>
     </g>
     <g id="text_50">
      <!-- 100 -->
      <g style="fill:#262626;" transform="translate(38.472344 735.678028)scale(0.13 -0.13)">
       <use xlink:href="#ArialMT-49"/>
       <use x="55.615234" xlink:href="#ArialMT-48"/>
       <use x="111.230469" xlink:href="#ArialMT-48"/>
      </g>
     </g>
    </g>
    <g id="ytick_20">
     <g id="line2d_52">
      <path clip-path="url(#p465b6b4237)" d="M 67.16 696.225625 
L 1137.96 696.225625 
" style="fill:none;stroke:#ffffff;stroke-linecap:round;stroke-width:0.8;"/>
     </g>
     <g id="text_51">
      <!-- 200 -->
      <g style="fill:#262626;" transform="translate(38.472344 700.878203)scale(0.13 -0.13)">
       <use xlink:href="#ArialMT-50"/>
       <use x="55.615234" xlink:href="#ArialMT-48"/>
       <use x="111.230469" xlink:href="#ArialMT-48"/>
      </g>
     </g>
    </g>
    <g id="ytick_21">
     <g id="line2d_53">
      <path clip-path="url(#p465b6b4237)" d="M 67.16 661.4258 
L 1137.96 661.4258 
" style="fill:none;stroke:#ffffff;stroke-linecap:round;stroke-width:0.8;"/>
     </g>
     <g id="text_52">
      <!-- 300 -->
      <g style="fill:#262626;" transform="translate(38.472344 666.078378)scale(0.13 -0.13)">
       <use xlink:href="#ArialMT-51"/>
       <use x="55.615234" xlink:href="#ArialMT-48"/>
       <use x="111.230469" xlink:href="#ArialMT-48"/>
      </g>
     </g>
    </g>
    <g id="text_53">
     <!-- Resid -->
     <g style="fill:#262626;" transform="translate(24.295781 760.004708)rotate(-90)scale(0.13 -0.13)">
      <defs>
       <path d="M 7.859375 0 
L 7.859375 71.578125 
L 39.59375 71.578125 
Q 49.171875 71.578125 54.140625 69.640625 
Q 59.125 67.71875 62.109375 62.828125 
Q 65.09375 57.953125 65.09375 52.046875 
Q 65.09375 44.4375 60.15625 39.203125 
Q 55.21875 33.984375 44.921875 32.5625 
Q 48.6875 30.765625 50.640625 29 
Q 54.78125 25.203125 58.5 19.484375 
L 70.953125 0 
L 59.03125 0 
L 49.5625 14.890625 
Q 45.40625 21.34375 42.71875 24.75 
Q 40.046875 28.171875 37.921875 29.53125 
Q 35.796875 30.90625 33.59375 31.453125 
Q 31.984375 31.78125 28.328125 31.78125 
L 17.328125 31.78125 
L 17.328125 0 
z
M 17.328125 39.984375 
L 37.703125 39.984375 
Q 44.1875 39.984375 47.84375 41.328125 
Q 51.515625 42.671875 53.421875 45.625 
Q 55.328125 48.578125 55.328125 52.046875 
Q 55.328125 57.125 51.640625 60.390625 
Q 47.953125 63.671875 39.984375 63.671875 
L 17.328125 63.671875 
z
" id="ArialMT-82"/>
      </defs>
      <use xlink:href="#ArialMT-82"/>
      <use x="72.216797" xlink:href="#ArialMT-101"/>
      <use x="127.832031" xlink:href="#ArialMT-115"/>
      <use x="177.832031" xlink:href="#ArialMT-105"/>
      <use x="200.048828" xlink:href="#ArialMT-100"/>
     </g>
    </g>
   </g>
   <g id="line2d_54">
    <defs>
     <path d="M 0 3 
C 0.795609 3 1.55874 2.683901 2.12132 2.12132 
C 2.683901 1.55874 3 0.795609 3 0 
C 3 -0.795609 2.683901 -1.55874 2.12132 -2.12132 
C 1.55874 -2.683901 0.795609 -3 0 -3 
C -0.795609 -3 -1.55874 -2.683901 -2.12132 -2.12132 
C -2.683901 -1.55874 -3 -0.795609 -3 0 
C -3 0.795609 -2.683901 1.55874 -2.12132 2.12132 
C -1.55874 2.683901 -0.795609 3 0 3 
z
" id="m03403d9f6d" style="stroke:#1f77b4;"/>
    </defs>
    <g clip-path="url(#p465b6b4237)">
     <use style="fill:#1f77b4;stroke:#1f77b4;" x="67.16" xlink:href="#m03403d9f6d" y="772.487323"/>
     <use style="fill:#1f77b4;stroke:#1f77b4;" x="76.720714" xlink:href="#m03403d9f6d" y="768.801957"/>
     <use style="fill:#1f77b4;stroke:#1f77b4;" x="86.281429" xlink:href="#m03403d9f6d" y="765.619305"/>
     <use style="fill:#1f77b4;stroke:#1f77b4;" x="95.842143" xlink:href="#m03403d9f6d" y="763.086289"/>
     <use style="fill:#1f77b4;stroke:#1f77b4;" x="105.402857" xlink:href="#m03403d9f6d" y="761.097867"/>
     <use style="fill:#1f77b4;stroke:#1f77b4;" x="114.963571" xlink:href="#m03403d9f6d" y="759.518326"/>
     <use style="fill:#1f77b4;stroke:#1f77b4;" x="124.524286" xlink:href="#m03403d9f6d" y="757.9963"/>
     <use style="fill:#1f77b4;stroke:#1f77b4;" x="134.085" xlink:href="#m03403d9f6d" y="750.470233"/>
     <use style="fill:#1f77b4;stroke:#1f77b4;" x="143.645714" xlink:href="#m03403d9f6d" y="756.500167"/>
     <use style="fill:#1f77b4;stroke:#1f77b4;" x="153.206429" xlink:href="#m03403d9f6d" y="760.625404"/>
     <use style="fill:#1f77b4;stroke:#1f77b4;" x="162.767143" xlink:href="#m03403d9f6d" y="762.676199"/>
     <use style="fill:#1f77b4;stroke:#1f77b4;" x="172.327857" xlink:href="#m03403d9f6d" y="761.244072"/>
     <use style="fill:#1f77b4;stroke:#1f77b4;" x="181.888571" xlink:href="#m03403d9f6d" y="754.762582"/>
     <use style="fill:#1f77b4;stroke:#1f77b4;" x="191.449286" xlink:href="#m03403d9f6d" y="742.305926"/>
     <use style="fill:#1f77b4;stroke:#1f77b4;" x="201.01" xlink:href="#m03403d9f6d" y="721.901982"/>
     <use style="fill:#1f77b4;stroke:#1f77b4;" x="210.570714" xlink:href="#m03403d9f6d" y="741.045177"/>
     <use style="fill:#1f77b4;stroke:#1f77b4;" x="220.131429" xlink:href="#m03403d9f6d" y="753.944027"/>
     <use style="fill:#1f77b4;stroke:#1f77b4;" x="229.692143" xlink:href="#m03403d9f6d" y="761.77665"/>
     <use style="fill:#1f77b4;stroke:#1f77b4;" x="239.252857" xlink:href="#m03403d9f6d" y="767.754917"/>
     <use style="fill:#1f77b4;stroke:#1f77b4;" x="248.813571" xlink:href="#m03403d9f6d" y="776.009906"/>
     <use style="fill:#1f77b4;stroke:#1f77b4;" x="258.374286" xlink:href="#m03403d9f6d" y="789.78514"/>
     <use style="fill:#1f77b4;stroke:#1f77b4;" x="267.935" xlink:href="#m03403d9f6d" y="808.982041"/>
     <use style="fill:#1f77b4;stroke:#1f77b4;" x="277.495714" xlink:href="#m03403d9f6d" y="788.748148"/>
     <use style="fill:#1f77b4;stroke:#1f77b4;" x="287.056429" xlink:href="#m03403d9f6d" y="775.343255"/>
     <use style="fill:#1f77b4;stroke:#1f77b4;" x="296.617143" xlink:href="#m03403d9f6d" y="768.812348"/>
     <use style="fill:#1f77b4;stroke:#1f77b4;" x="306.177857" xlink:href="#m03403d9f6d" y="769.956198"/>
     <use style="fill:#1f77b4;stroke:#1f77b4;" x="315.738571" xlink:href="#m03403d9f6d" y="779.293498"/>
     <use style="fill:#1f77b4;stroke:#1f77b4;" x="325.299286" xlink:href="#m03403d9f6d" y="796.883165"/>
     <use style="fill:#1f77b4;stroke:#1f77b4;" x="334.86" xlink:href="#m03403d9f6d" y="822.126096"/>
     <use style="fill:#1f77b4;stroke:#1f77b4;" x="344.420714" xlink:href="#m03403d9f6d" y="796.06465"/>
     <use style="fill:#1f77b4;stroke:#1f77b4;" x="353.981429" xlink:href="#m03403d9f6d" y="778.776516"/>
     <use style="fill:#1f77b4;stroke:#1f77b4;" x="363.542143" xlink:href="#m03403d9f6d" y="768.277131"/>
     <use style="fill:#1f77b4;stroke:#1f77b4;" x="373.102857" xlink:href="#m03403d9f6d" y="758.342298"/>
     <use style="fill:#1f77b4;stroke:#1f77b4;" x="382.663571" xlink:href="#m03403d9f6d" y="741.130616"/>
     <use style="fill:#1f77b4;stroke:#1f77b4;" x="392.224286" xlink:href="#m03403d9f6d" y="710.794241"/>
     <use style="fill:#1f77b4;stroke:#1f77b4;" x="401.785" xlink:href="#m03403d9f6d" y="664.648007"/>
     <use style="fill:#1f77b4;stroke:#1f77b4;" x="411.345714" xlink:href="#m03403d9f6d" y="710.184358"/>
     <use style="fill:#1f77b4;stroke:#1f77b4;" x="420.906429" xlink:href="#m03403d9f6d" y="740.752111"/>
     <use style="fill:#1f77b4;stroke:#1f77b4;" x="430.467143" xlink:href="#m03403d9f6d" y="758.155749"/>
     <use style="fill:#1f77b4;stroke:#1f77b4;" x="440.027857" xlink:href="#m03403d9f6d" y="767.382664"/>
     <use style="fill:#1f77b4;stroke:#1f77b4;" x="449.588571" xlink:href="#m03403d9f6d" y="775.199502"/>
     <use style="fill:#1f77b4;stroke:#1f77b4;" x="459.149286" xlink:href="#m03403d9f6d" y="787.107539"/>
     <use style="fill:#1f77b4;stroke:#1f77b4;" x="468.71" xlink:href="#m03403d9f6d" y="804.493624"/>
     <use style="fill:#1f77b4;stroke:#1f77b4;" x="478.270714" xlink:href="#m03403d9f6d" y="786.690391"/>
     <use style="fill:#1f77b4;stroke:#1f77b4;" x="487.831429" xlink:href="#m03403d9f6d" y="774.945462"/>
     <use style="fill:#1f77b4;stroke:#1f77b4;" x="497.392143" xlink:href="#m03403d9f6d" y="768.885005"/>
     <use style="fill:#1f77b4;stroke:#1f77b4;" x="506.952857" xlink:href="#m03403d9f6d" y="768.203268"/>
     <use style="fill:#1f77b4;stroke:#1f77b4;" x="516.513571" xlink:href="#m03403d9f6d" y="772.1876"/>
     <use style="fill:#1f77b4;stroke:#1f77b4;" x="526.074286" xlink:href="#m03403d9f6d" y="780.063181"/>
     <use style="fill:#1f77b4;stroke:#1f77b4;" x="535.635" xlink:href="#m03403d9f6d" y="791.671903"/>
     <use style="fill:#1f77b4;stroke:#1f77b4;" x="545.195714" xlink:href="#m03403d9f6d" y="779.801657"/>
     <use style="fill:#1f77b4;stroke:#1f77b4;" x="554.756429" xlink:href="#m03403d9f6d" y="772.037613"/>
     <use style="fill:#1f77b4;stroke:#1f77b4;" x="564.317143" xlink:href="#m03403d9f6d" y="767.560409"/>
     <use style="fill:#1f77b4;stroke:#1f77b4;" x="573.877857" xlink:href="#m03403d9f6d" y="764.362331"/>
     <use style="fill:#1f77b4;stroke:#1f77b4;" x="583.438571" xlink:href="#m03403d9f6d" y="759.858074"/>
     <use style="fill:#1f77b4;stroke:#1f77b4;" x="592.999286" xlink:href="#m03403d9f6d" y="752.067881"/>
     <use style="fill:#1f77b4;stroke:#1f77b4;" x="602.56" xlink:href="#m03403d9f6d" y="740.368461"/>
     <use style="fill:#1f77b4;stroke:#1f77b4;" x="612.120714" xlink:href="#m03403d9f6d" y="751.970012"/>
     <use style="fill:#1f77b4;stroke:#1f77b4;" x="621.681429" xlink:href="#m03403d9f6d" y="759.7013"/>
     <use style="fill:#1f77b4;stroke:#1f77b4;" x="631.242143" xlink:href="#m03403d9f6d" y="764.308968"/>
     <use style="fill:#1f77b4;stroke:#1f77b4;" x="640.802857" xlink:href="#m03403d9f6d" y="767.543216"/>
     <use style="fill:#1f77b4;stroke:#1f77b4;" x="650.363571" xlink:href="#m03403d9f6d" y="771.680933"/>
     <use style="fill:#1f77b4;stroke:#1f77b4;" x="659.924286" xlink:href="#m03403d9f6d" y="778.495856"/>
     <use style="fill:#1f77b4;stroke:#1f77b4;" x="669.485" xlink:href="#m03403d9f6d" y="788.817111"/>
     <use style="fill:#1f77b4;stroke:#1f77b4;" x="679.045714" xlink:href="#m03403d9f6d" y="778.221291"/>
     <use style="fill:#1f77b4;stroke:#1f77b4;" x="688.606429" xlink:href="#m03403d9f6d" y="771.258981"/>
     <use style="fill:#1f77b4;stroke:#1f77b4;" x="698.167143" xlink:href="#m03403d9f6d" y="767.353049"/>
     <use style="fill:#1f77b4;stroke:#1f77b4;" x="707.727857" xlink:href="#m03403d9f6d" y="764.671623"/>
     <use style="fill:#1f77b4;stroke:#1f77b4;" x="717.288571" xlink:href="#m03403d9f6d" y="760.801051"/>
     <use style="fill:#1f77b4;stroke:#1f77b4;" x="726.849286" xlink:href="#m03403d9f6d" y="753.873667"/>
     <use style="fill:#1f77b4;stroke:#1f77b4;" x="736.41" xlink:href="#m03403d9f6d" y="743.400669"/>
     <use style="fill:#1f77b4;stroke:#1f77b4;" x="745.970714" xlink:href="#m03403d9f6d" y="753.113228"/>
     <use style="fill:#1f77b4;stroke:#1f77b4;" x="755.531429" xlink:href="#m03403d9f6d" y="759.954803"/>
     <use style="fill:#1f77b4;stroke:#1f77b4;" x="765.092143" xlink:href="#m03403d9f6d" y="764.186779"/>
     <use style="fill:#1f77b4;stroke:#1f77b4;" x="774.652857" xlink:href="#m03403d9f6d" y="767.061075"/>
     <use style="fill:#1f77b4;stroke:#1f77b4;" x="784.213571" xlink:href="#m03403d9f6d" y="770.158933"/>
     <use style="fill:#1f77b4;stroke:#1f77b4;" x="793.774286" xlink:href="#m03403d9f6d" y="774.731759"/>
     <use style="fill:#1f77b4;stroke:#1f77b4;" x="803.335" xlink:href="#m03403d9f6d" y="781.239439"/>
     <use style="fill:#1f77b4;stroke:#1f77b4;" x="812.895714" xlink:href="#m03403d9f6d" y="773.442655"/>
     <use style="fill:#1f77b4;stroke:#1f77b4;" x="822.456429" xlink:href="#m03403d9f6d" y="768.854154"/>
     <use style="fill:#1f77b4;stroke:#1f77b4;" x="832.017143" xlink:href="#m03403d9f6d" y="766.658509"/>
     <use style="fill:#1f77b4;stroke:#1f77b4;" x="841.577857" xlink:href="#m03403d9f6d" y="765.86362"/>
     <use style="fill:#1f77b4;stroke:#1f77b4;" x="851.138571" xlink:href="#m03403d9f6d" y="765.03135"/>
     <use style="fill:#1f77b4;stroke:#1f77b4;" x="860.699286" xlink:href="#m03403d9f6d" y="763.022184"/>
     <use style="fill:#1f77b4;stroke:#1f77b4;" x="870.26" xlink:href="#m03403d9f6d" y="759.455029"/>
     <use style="fill:#1f77b4;stroke:#1f77b4;" x="879.820714" xlink:href="#m03403d9f6d" y="761.192375"/>
     <use style="fill:#1f77b4;stroke:#1f77b4;" x="889.381429" xlink:href="#m03403d9f6d" y="763.256873"/>
     <use style="fill:#1f77b4;stroke:#1f77b4;" x="898.942143" xlink:href="#m03403d9f6d" y="765.364979"/>
     <use style="fill:#1f77b4;stroke:#1f77b4;" x="908.502857" xlink:href="#m03403d9f6d" y="769.151493"/>
     <use style="fill:#1f77b4;stroke:#1f77b4;" x="918.063571" xlink:href="#m03403d9f6d" y="776.420987"/>
     <use style="fill:#1f77b4;stroke:#1f77b4;" x="927.624286" xlink:href="#m03403d9f6d" y="788.449143"/>
     <use style="fill:#1f77b4;stroke:#1f77b4;" x="937.185" xlink:href="#m03403d9f6d" y="805.670042"/>
     <use style="fill:#1f77b4;stroke:#1f77b4;" x="946.745714" xlink:href="#m03403d9f6d" y="786.075231"/>
     <use style="fill:#1f77b4;stroke:#1f77b4;" x="956.306429" xlink:href="#m03403d9f6d" y="774.169391"/>
     <use style="fill:#1f77b4;stroke:#1f77b4;" x="965.867143" xlink:href="#m03403d9f6d" y="767.431818"/>
     <use style="fill:#1f77b4;stroke:#1f77b4;" x="975.427857" xlink:href="#m03403d9f6d" y="761.217003"/>
     <use style="fill:#1f77b4;stroke:#1f77b4;" x="984.988571" xlink:href="#m03403d9f6d" y="749.492321"/>
     <use style="fill:#1f77b4;stroke:#1f77b4;" x="994.549286" xlink:href="#m03403d9f6d" y="727.73456"/>
     <use style="fill:#1f77b4;stroke:#1f77b4;" x="1004.11" xlink:href="#m03403d9f6d" y="694.176533"/>
     <use style="fill:#1f77b4;stroke:#1f77b4;" x="1013.670714" xlink:href="#m03403d9f6d" y="724.811068"/>
     <use style="fill:#1f77b4;stroke:#1f77b4;" x="1023.231429" xlink:href="#m03403d9f6d" y="746.751589"/>
     <use style="fill:#1f77b4;stroke:#1f77b4;" x="1032.792143" xlink:href="#m03403d9f6d" y="760.218843"/>
     <use style="fill:#1f77b4;stroke:#1f77b4;" x="1042.352857" xlink:href="#m03403d9f6d" y="769.643669"/>
     <use style="fill:#1f77b4;stroke:#1f77b4;" x="1051.913571" xlink:href="#m03403d9f6d" y="780.623276"/>
     <use style="fill:#1f77b4;stroke:#1f77b4;" x="1061.474286" xlink:href="#m03403d9f6d" y="797.561553"/>
     <use style="fill:#1f77b4;stroke:#1f77b4;" x="1071.035" xlink:href="#m03403d9f6d" y="821.692438"/>
     <use style="fill:#1f77b4;stroke:#1f77b4;" x="1080.595714" xlink:href="#m03403d9f6d" y="794.07686"/>
     <use style="fill:#1f77b4;stroke:#1f77b4;" x="1090.156429" xlink:href="#m03403d9f6d" y="783.916721"/>
     <use style="fill:#1f77b4;stroke:#1f77b4;" x="1099.717143" xlink:href="#m03403d9f6d" y="775.972869"/>
     <use style="fill:#1f77b4;stroke:#1f77b4;" x="1109.277857" xlink:href="#m03403d9f6d" y="769.334028"/>
     <use style="fill:#1f77b4;stroke:#1f77b4;" x="1118.838571" xlink:href="#m03403d9f6d" y="763.346868"/>
     <use style="fill:#1f77b4;stroke:#1f77b4;" x="1128.399286" xlink:href="#m03403d9f6d" y="757.410209"/>
     <use style="fill:#1f77b4;stroke:#1f77b4;" x="1137.96" xlink:href="#m03403d9f6d" y="750.970465"/>
    </g>
   </g>
   <g id="patch_18">
    <path d="M 67.16 830 
L 67.16 656.774103 
" style="fill:none;stroke:#ffffff;stroke-linecap:square;stroke-linejoin:miter;stroke-width:0.8;"/>
   </g>
   <g id="patch_19">
    <path d="M 1137.96 830 
L 1137.96 656.774103 
" style="fill:none;stroke:#ffffff;stroke-linecap:square;stroke-linejoin:miter;stroke-width:0.8;"/>
   </g>
   <g id="patch_20">
    <path d="M 67.16 830 
L 1137.96 830 
" style="fill:none;stroke:#ffffff;stroke-linecap:square;stroke-linejoin:miter;stroke-width:0.8;"/>
   </g>
   <g id="patch_21">
    <path d="M 67.16 656.774103 
L 1137.96 656.774103 
" style="fill:none;stroke:#ffffff;stroke-linecap:square;stroke-linejoin:miter;stroke-width:0.8;"/>
   </g>
  </g>
 </g>
 <defs>
  <clipPath id="p79c0ef6237">
   <rect height="173.225897" width="1070.8" x="67.16" y="31.6275"/>
  </clipPath>
  <clipPath id="p066f5e4d43">
   <rect height="173.225897" width="1070.8" x="67.16" y="240.009701"/>
  </clipPath>
  <clipPath id="p7c3e0186aa">
   <rect height="173.225897" width="1070.8" x="67.16" y="448.391902"/>
  </clipPath>
  <clipPath id="p465b6b4237">
   <rect height="173.225897" width="1070.8" x="67.16" y="656.774103"/>
  </clipPath>
 </defs>
</svg>
