<?xml version="1.0" encoding="utf-8" standalone="no"?>
<!DOCTYPE svg PUBLIC "-//W3C//DTD SVG 1.1//EN"
  "http://www.w3.org/Graphics/SVG/1.1/DTD/svg11.dtd">
<!-- Created with matplotlib (https://matplotlib.org/) -->
<svg height="864pt" version="1.1" viewBox="0 0 1152 864" width="1152pt" xmlns="http://www.w3.org/2000/svg" xmlns:xlink="http://www.w3.org/1999/xlink">
 <metadata>
  <rdf:RDF xmlns:cc="http://creativecommons.org/ns#" xmlns:dc="http://purl.org/dc/elements/1.1/" xmlns:rdf="http://www.w3.org/1999/02/22-rdf-syntax-ns#">
   <cc:Work>
    <dc:type rdf:resource="http://purl.org/dc/dcmitype/StillImage"/>
    <dc:date>2021-03-10T13:04:07.068670</dc:date>
    <dc:format>image/svg+xml</dc:format>
    <dc:creator>
     <cc:Agent>
      <dc:title>Matplotlib v3.3.4, https://matplotlib.org/</dc:title>
     </cc:Agent>
    </dc:creator>
   </cc:Work>
  </rdf:RDF>
 </metadata>
 <defs>
  <style type="text/css">*{stroke-linecap:butt;stroke-linejoin:round;}</style>
 </defs>
 <g id="figure_1">
  <g id="patch_1">
   <path d="M 0 864 
L 1152 864 
L 1152 0 
L 0 0 
z
" style="fill:#ffffff;"/>
  </g>
  <g id="axes_1">
   <g id="patch_2">
    <path d="M 67.16 203.492501 
L 1137.96 203.492501 
L 1137.96 31.6275 
L 67.16 31.6275 
z
" style="fill:#eaeaf2;"/>
   </g>
   <g id="matplotlib.axis_1">
    <g id="xtick_1">
     <g id="line2d_1">
      <path clip-path="url(#p386f368594)" d="M 172.327857 203.492501 
L 172.327857 31.6275 
" style="fill:none;stroke:#ffffff;stroke-linecap:round;stroke-width:0.8;"/>
     </g>
     <g id="text_1">
      <!-- 2003-01-15 -->
      <g style="fill:#262626;" transform="translate(139.082388 219.797657)scale(0.13 -0.13)">
       <defs>
        <path d="M 50.34375 8.453125 
L 50.34375 0 
L 3.03125 0 
Q 2.9375 3.171875 4.046875 6.109375 
Q 5.859375 10.9375 9.828125 15.625 
Q 13.8125 20.3125 21.34375 26.46875 
Q 33.015625 36.03125 37.109375 41.625 
Q 41.21875 47.21875 41.21875 52.203125 
Q 41.21875 57.421875 37.46875 61 
Q 33.734375 64.59375 27.734375 64.59375 
Q 21.390625 64.59375 17.578125 60.78125 
Q 13.765625 56.984375 13.71875 50.25 
L 4.6875 51.171875 
Q 5.609375 61.28125 11.65625 66.578125 
Q 17.71875 71.875 27.9375 71.875 
Q 38.234375 71.875 44.234375 66.15625 
Q 50.25 60.453125 50.25 52 
Q 50.25 47.703125 48.484375 43.546875 
Q 46.734375 39.40625 42.65625 34.8125 
Q 38.578125 30.21875 29.109375 22.21875 
Q 21.1875 15.578125 18.9375 13.203125 
Q 16.703125 10.84375 15.234375 8.453125 
z
" id="ArialMT-50"/>
        <path d="M 4.15625 35.296875 
Q 4.15625 48 6.765625 55.734375 
Q 9.375 63.484375 14.515625 67.671875 
Q 19.671875 71.875 27.484375 71.875 
Q 33.25 71.875 37.59375 69.546875 
Q 41.9375 67.234375 44.765625 62.859375 
Q 47.609375 58.5 49.21875 52.21875 
Q 50.828125 45.953125 50.828125 35.296875 
Q 50.828125 22.703125 48.234375 14.96875 
Q 45.65625 7.234375 40.5 3 
Q 35.359375 -1.21875 27.484375 -1.21875 
Q 17.140625 -1.21875 11.234375 6.203125 
Q 4.15625 15.140625 4.15625 35.296875 
z
M 13.1875 35.296875 
Q 13.1875 17.671875 17.3125 11.828125 
Q 21.4375 6 27.484375 6 
Q 33.546875 6 37.671875 11.859375 
Q 41.796875 17.71875 41.796875 35.296875 
Q 41.796875 52.984375 37.671875 58.78125 
Q 33.546875 64.59375 27.390625 64.59375 
Q 21.34375 64.59375 17.71875 59.46875 
Q 13.1875 52.9375 13.1875 35.296875 
z
" id="ArialMT-48"/>
        <path d="M 4.203125 18.890625 
L 12.984375 20.0625 
Q 14.5 12.59375 18.140625 9.296875 
Q 21.78125 6 27 6 
Q 33.203125 6 37.46875 10.296875 
Q 41.75 14.59375 41.75 20.953125 
Q 41.75 27 37.796875 30.921875 
Q 33.84375 34.859375 27.734375 34.859375 
Q 25.25 34.859375 21.53125 33.890625 
L 22.515625 41.609375 
Q 23.390625 41.5 23.921875 41.5 
Q 29.546875 41.5 34.03125 44.421875 
Q 38.53125 47.359375 38.53125 53.46875 
Q 38.53125 58.296875 35.25 61.46875 
Q 31.984375 64.65625 26.8125 64.65625 
Q 21.6875 64.65625 18.265625 61.421875 
Q 14.84375 58.203125 13.875 51.765625 
L 5.078125 53.328125 
Q 6.6875 62.15625 12.390625 67.015625 
Q 18.109375 71.875 26.609375 71.875 
Q 32.46875 71.875 37.390625 69.359375 
Q 42.328125 66.84375 44.9375 62.5 
Q 47.5625 58.15625 47.5625 53.265625 
Q 47.5625 48.640625 45.0625 44.828125 
Q 42.578125 41.015625 37.703125 38.765625 
Q 44.046875 37.3125 47.5625 32.6875 
Q 51.078125 28.078125 51.078125 21.140625 
Q 51.078125 11.765625 44.234375 5.25 
Q 37.40625 -1.265625 26.953125 -1.265625 
Q 17.53125 -1.265625 11.296875 4.34375 
Q 5.078125 9.96875 4.203125 18.890625 
z
" id="ArialMT-51"/>
        <path d="M 3.171875 21.484375 
L 3.171875 30.328125 
L 30.171875 30.328125 
L 30.171875 21.484375 
z
" id="ArialMT-45"/>
        <path d="M 37.25 0 
L 28.46875 0 
L 28.46875 56 
Q 25.296875 52.984375 20.140625 49.953125 
Q 14.984375 46.921875 10.890625 45.40625 
L 10.890625 53.90625 
Q 18.265625 57.375 23.78125 62.296875 
Q 29.296875 67.234375 31.59375 71.875 
L 37.25 71.875 
z
" id="ArialMT-49"/>
        <path d="M 4.15625 18.75 
L 13.375 19.53125 
Q 14.40625 12.796875 18.140625 9.390625 
Q 21.875 6 27.15625 6 
Q 33.5 6 37.890625 10.78125 
Q 42.28125 15.578125 42.28125 23.484375 
Q 42.28125 31 38.0625 35.34375 
Q 33.84375 39.703125 27 39.703125 
Q 22.75 39.703125 19.328125 37.765625 
Q 15.921875 35.84375 13.96875 32.765625 
L 5.71875 33.84375 
L 12.640625 70.609375 
L 48.25 70.609375 
L 48.25 62.203125 
L 19.671875 62.203125 
L 15.828125 42.96875 
Q 22.265625 47.46875 29.34375 47.46875 
Q 38.71875 47.46875 45.15625 40.96875 
Q 51.609375 34.46875 51.609375 24.265625 
Q 51.609375 14.546875 45.953125 7.46875 
Q 39.0625 -1.21875 27.15625 -1.21875 
Q 17.390625 -1.21875 11.203125 4.25 
Q 5.03125 9.71875 4.15625 18.75 
z
" id="ArialMT-53"/>
       </defs>
       <use xlink:href="#ArialMT-50"/>
       <use x="55.615234" xlink:href="#ArialMT-48"/>
       <use x="111.230469" xlink:href="#ArialMT-48"/>
       <use x="166.845703" xlink:href="#ArialMT-51"/>
       <use x="222.460938" xlink:href="#ArialMT-45"/>
       <use x="255.761719" xlink:href="#ArialMT-48"/>
       <use x="311.376953" xlink:href="#ArialMT-49"/>
       <use x="366.992188" xlink:href="#ArialMT-45"/>
       <use x="400.292969" xlink:href="#ArialMT-49"/>
       <use x="455.908203" xlink:href="#ArialMT-53"/>
      </g>
     </g>
    </g>
    <g id="xtick_2">
     <g id="line2d_2">
      <path clip-path="url(#p386f368594)" d="M 334.86 203.492501 
L 334.86 31.6275 
" style="fill:none;stroke:#ffffff;stroke-linecap:round;stroke-width:0.8;"/>
     </g>
     <g id="text_2">
      <!-- 2003-02-01 -->
      <g style="fill:#262626;" transform="translate(301.614531 219.797657)scale(0.13 -0.13)">
       <use xlink:href="#ArialMT-50"/>
       <use x="55.615234" xlink:href="#ArialMT-48"/>
       <use x="111.230469" xlink:href="#ArialMT-48"/>
       <use x="166.845703" xlink:href="#ArialMT-51"/>
       <use x="222.460938" xlink:href="#ArialMT-45"/>
       <use x="255.761719" xlink:href="#ArialMT-48"/>
       <use x="311.376953" xlink:href="#ArialMT-50"/>
       <use x="366.992188" xlink:href="#ArialMT-45"/>
       <use x="400.292969" xlink:href="#ArialMT-48"/>
       <use x="455.908203" xlink:href="#ArialMT-49"/>
      </g>
     </g>
    </g>
    <g id="xtick_3">
     <g id="line2d_3">
      <path clip-path="url(#p386f368594)" d="M 468.71 203.492501 
L 468.71 31.6275 
" style="fill:none;stroke:#ffffff;stroke-linecap:round;stroke-width:0.8;"/>
     </g>
     <g id="text_3">
      <!-- 2003-02-15 -->
      <g style="fill:#262626;" transform="translate(435.464531 219.797657)scale(0.13 -0.13)">
       <use xlink:href="#ArialMT-50"/>
       <use x="55.615234" xlink:href="#ArialMT-48"/>
       <use x="111.230469" xlink:href="#ArialMT-48"/>
       <use x="166.845703" xlink:href="#ArialMT-51"/>
       <use x="222.460938" xlink:href="#ArialMT-45"/>
       <use x="255.761719" xlink:href="#ArialMT-48"/>
       <use x="311.376953" xlink:href="#ArialMT-50"/>
       <use x="366.992188" xlink:href="#ArialMT-45"/>
       <use x="400.292969" xlink:href="#ArialMT-49"/>
       <use x="455.908203" xlink:href="#ArialMT-53"/>
      </g>
     </g>
    </g>
    <g id="xtick_4">
     <g id="line2d_4">
      <path clip-path="url(#p386f368594)" d="M 602.56 203.492501 
L 602.56 31.6275 
" style="fill:none;stroke:#ffffff;stroke-linecap:round;stroke-width:0.8;"/>
     </g>
     <g id="text_4">
      <!-- 2003-03-01 -->
      <g style="fill:#262626;" transform="translate(569.314531 219.797657)scale(0.13 -0.13)">
       <use xlink:href="#ArialMT-50"/>
       <use x="55.615234" xlink:href="#ArialMT-48"/>
       <use x="111.230469" xlink:href="#ArialMT-48"/>
       <use x="166.845703" xlink:href="#ArialMT-51"/>
       <use x="222.460938" xlink:href="#ArialMT-45"/>
       <use x="255.761719" xlink:href="#ArialMT-48"/>
       <use x="311.376953" xlink:href="#ArialMT-51"/>
       <use x="366.992188" xlink:href="#ArialMT-45"/>
       <use x="400.292969" xlink:href="#ArialMT-48"/>
       <use x="455.908203" xlink:href="#ArialMT-49"/>
      </g>
     </g>
    </g>
    <g id="xtick_5">
     <g id="line2d_5">
      <path clip-path="url(#p386f368594)" d="M 736.41 203.492501 
L 736.41 31.6275 
" style="fill:none;stroke:#ffffff;stroke-linecap:round;stroke-width:0.8;"/>
     </g>
     <g id="text_5">
      <!-- 2003-03-15 -->
      <g style="fill:#262626;" transform="translate(703.164531 219.797657)scale(0.13 -0.13)">
       <use xlink:href="#ArialMT-50"/>
       <use x="55.615234" xlink:href="#ArialMT-48"/>
       <use x="111.230469" xlink:href="#ArialMT-48"/>
       <use x="166.845703" xlink:href="#ArialMT-51"/>
       <use x="222.460938" xlink:href="#ArialMT-45"/>
       <use x="255.761719" xlink:href="#ArialMT-48"/>
       <use x="311.376953" xlink:href="#ArialMT-51"/>
       <use x="366.992188" xlink:href="#ArialMT-45"/>
       <use x="400.292969" xlink:href="#ArialMT-49"/>
       <use x="455.908203" xlink:href="#ArialMT-53"/>
      </g>
     </g>
    </g>
    <g id="xtick_6">
     <g id="line2d_6">
      <path clip-path="url(#p386f368594)" d="M 898.942143 203.492501 
L 898.942143 31.6275 
" style="fill:none;stroke:#ffffff;stroke-linecap:round;stroke-width:0.8;"/>
     </g>
     <g id="text_6">
      <!-- 2003-04-01 -->
      <g style="fill:#262626;" transform="translate(865.696674 219.797657)scale(0.13 -0.13)">
       <defs>
        <path d="M 32.328125 0 
L 32.328125 17.140625 
L 1.265625 17.140625 
L 1.265625 25.203125 
L 33.9375 71.578125 
L 41.109375 71.578125 
L 41.109375 25.203125 
L 50.78125 25.203125 
L 50.78125 17.140625 
L 41.109375 17.140625 
L 41.109375 0 
z
M 32.328125 25.203125 
L 32.328125 57.46875 
L 9.90625 25.203125 
z
" id="ArialMT-52"/>
       </defs>
       <use xlink:href="#ArialMT-50"/>
       <use x="55.615234" xlink:href="#ArialMT-48"/>
       <use x="111.230469" xlink:href="#ArialMT-48"/>
       <use x="166.845703" xlink:href="#ArialMT-51"/>
       <use x="222.460938" xlink:href="#ArialMT-45"/>
       <use x="255.761719" xlink:href="#ArialMT-48"/>
       <use x="311.376953" xlink:href="#ArialMT-52"/>
       <use x="366.992188" xlink:href="#ArialMT-45"/>
       <use x="400.292969" xlink:href="#ArialMT-48"/>
       <use x="455.908203" xlink:href="#ArialMT-49"/>
      </g>
     </g>
    </g>
    <g id="xtick_7">
     <g id="line2d_7">
      <path clip-path="url(#p386f368594)" d="M 1032.792143 203.492501 
L 1032.792143 31.6275 
" style="fill:none;stroke:#ffffff;stroke-linecap:round;stroke-width:0.8;"/>
     </g>
     <g id="text_7">
      <!-- 2003-04-15 -->
      <g style="fill:#262626;" transform="translate(999.546674 219.797657)scale(0.13 -0.13)">
       <use xlink:href="#ArialMT-50"/>
       <use x="55.615234" xlink:href="#ArialMT-48"/>
       <use x="111.230469" xlink:href="#ArialMT-48"/>
       <use x="166.845703" xlink:href="#ArialMT-51"/>
       <use x="222.460938" xlink:href="#ArialMT-45"/>
       <use x="255.761719" xlink:href="#ArialMT-48"/>
       <use x="311.376953" xlink:href="#ArialMT-52"/>
       <use x="366.992188" xlink:href="#ArialMT-45"/>
       <use x="400.292969" xlink:href="#ArialMT-49"/>
       <use x="455.908203" xlink:href="#ArialMT-53"/>
      </g>
     </g>
    </g>
   </g>
   <g id="matplotlib.axis_2">
    <g id="ytick_1">
     <g id="line2d_8">
      <path clip-path="url(#p386f368594)" d="M 67.16 174.542784 
L 1137.96 174.542784 
" style="fill:none;stroke:#ffffff;stroke-linecap:round;stroke-width:0.8;"/>
     </g>
     <g id="text_8">
      <!-- 500 -->
      <g style="fill:#262626;" transform="translate(38.472344 179.195362)scale(0.13 -0.13)">
       <use xlink:href="#ArialMT-53"/>
       <use x="55.615234" xlink:href="#ArialMT-48"/>
       <use x="111.230469" xlink:href="#ArialMT-48"/>
      </g>
     </g>
    </g>
    <g id="ytick_2">
     <g id="line2d_9">
      <path clip-path="url(#p386f368594)" d="M 67.16 140.339432 
L 1137.96 140.339432 
" style="fill:none;stroke:#ffffff;stroke-linecap:round;stroke-width:0.8;"/>
     </g>
     <g id="text_9">
      <!-- 1000 -->
      <g style="fill:#262626;" transform="translate(31.243125 144.992011)scale(0.13 -0.13)">
       <use xlink:href="#ArialMT-49"/>
       <use x="55.615234" xlink:href="#ArialMT-48"/>
       <use x="111.230469" xlink:href="#ArialMT-48"/>
       <use x="166.845703" xlink:href="#ArialMT-48"/>
      </g>
     </g>
    </g>
    <g id="ytick_3">
     <g id="line2d_10">
      <path clip-path="url(#p386f368594)" d="M 67.16 106.136081 
L 1137.96 106.136081 
" style="fill:none;stroke:#ffffff;stroke-linecap:round;stroke-width:0.8;"/>
     </g>
     <g id="text_10">
      <!-- 1500 -->
      <g style="fill:#262626;" transform="translate(31.243125 110.788659)scale(0.13 -0.13)">
       <use xlink:href="#ArialMT-49"/>
       <use x="55.615234" xlink:href="#ArialMT-53"/>
       <use x="111.230469" xlink:href="#ArialMT-48"/>
       <use x="166.845703" xlink:href="#ArialMT-48"/>
      </g>
     </g>
    </g>
    <g id="ytick_4">
     <g id="line2d_11">
      <path clip-path="url(#p386f368594)" d="M 67.16 71.932729 
L 1137.96 71.932729 
" style="fill:none;stroke:#ffffff;stroke-linecap:round;stroke-width:0.8;"/>
     </g>
     <g id="text_11">
      <!-- 2000 -->
      <g style="fill:#262626;" transform="translate(31.243125 76.585308)scale(0.13 -0.13)">
       <use xlink:href="#ArialMT-50"/>
       <use x="55.615234" xlink:href="#ArialMT-48"/>
       <use x="111.230469" xlink:href="#ArialMT-48"/>
       <use x="166.845703" xlink:href="#ArialMT-48"/>
      </g>
     </g>
    </g>
    <g id="ytick_5">
     <g id="line2d_12">
      <path clip-path="url(#p386f368594)" d="M 67.16 37.729378 
L 1137.96 37.729378 
" style="fill:none;stroke:#ffffff;stroke-linecap:round;stroke-width:0.8;"/>
     </g>
     <g id="text_12">
      <!-- 2500 -->
      <g style="fill:#262626;" transform="translate(31.243125 42.381956)scale(0.13 -0.13)">
       <use xlink:href="#ArialMT-50"/>
       <use x="55.615234" xlink:href="#ArialMT-53"/>
       <use x="111.230469" xlink:href="#ArialMT-48"/>
       <use x="166.845703" xlink:href="#ArialMT-48"/>
      </g>
     </g>
    </g>
   </g>
   <g id="line2d_13">
    <path clip-path="url(#p386f368594)" d="M 67.16 167.223267 
L 76.720714 159.913522 
L 86.281429 152.603777 
L 95.842143 145.294032 
L 105.402857 137.984287 
L 114.963571 130.674543 
L 124.524286 123.364798 
L 134.085 116.055053 
L 143.645714 117.081153 
L 153.206429 118.107254 
L 162.767143 119.133354 
L 172.327857 120.159455 
L 181.888571 121.185556 
L 191.449286 122.211656 
L 201.01 123.237757 
L 210.570714 121.24419 
L 220.131429 119.250623 
L 229.692143 117.257056 
L 239.252857 115.26349 
L 248.813571 113.269923 
L 258.374286 111.276356 
L 267.935 109.282789 
L 277.495714 117.227739 
L 287.056429 125.172689 
L 296.617143 133.117639 
L 306.177857 141.062589 
L 315.738571 149.007539 
L 325.299286 156.952489 
L 334.86 164.897439 
L 344.420714 154.177131 
L 353.981429 143.456824 
L 363.542143 132.736516 
L 373.102857 122.016208 
L 382.663571 111.295901 
L 392.224286 100.575593 
L 401.785 89.855286 
L 411.345714 104.132742 
L 420.906429 118.410198 
L 430.467143 132.687654 
L 440.027857 146.96511 
L 449.588571 161.242566 
L 459.149286 175.520023 
L 468.71 189.797479 
L 478.270714 190.637904 
L 487.831429 191.478329 
L 497.392143 192.318754 
L 506.952857 193.15918 
L 516.513571 193.999605 
L 526.074286 194.84003 
L 535.635 195.680455 
L 545.195714 173.360325 
L 554.756429 151.040195 
L 564.317143 128.720065 
L 573.877857 106.399935 
L 583.438571 84.079805 
L 592.999286 61.759675 
L 602.56 39.439545 
L 612.120714 44.45278 
L 621.681429 49.466014 
L 631.242143 54.479248 
L 640.802857 59.492482 
L 650.363571 64.505716 
L 659.924286 69.51895 
L 669.485 74.532184 
L 679.045714 87.851946 
L 688.606429 101.171709 
L 698.167143 114.491471 
L 707.727857 127.811233 
L 717.288571 141.130996 
L 726.849286 154.450758 
L 736.41 167.77052 
L 745.970714 169.295013 
L 755.531429 170.819505 
L 765.092143 172.343997 
L 774.652857 173.868489 
L 784.213571 175.392981 
L 793.774286 176.917474 
L 803.335 178.441966 
L 812.895714 167.408942 
L 822.456429 156.375918 
L 832.017143 145.342894 
L 841.577857 134.30987 
L 851.138571 123.276846 
L 860.699286 112.243822 
L 870.26 101.210798 
L 879.820714 107.132864 
L 889.381429 113.05493 
L 898.942143 118.976996 
L 908.502857 124.899062 
L 918.063571 130.821128 
L 927.624286 136.743194 
L 937.185 142.66526 
L 946.745714 130.723404 
L 956.306429 118.781549 
L 965.867143 106.839693 
L 975.427857 94.897837 
L 984.988571 82.955981 
L 994.549286 71.014125 
L 1004.11 59.072269 
L 1013.670714 72.108632 
L 1023.231429 85.144995 
L 1032.792143 98.181359 
L 1042.352857 111.217722 
L 1051.913571 124.254085 
L 1061.474286 137.290448 
L 1071.035 150.326811 
L 1080.595714 145.235398 
L 1090.156429 140.143985 
L 1099.717143 135.052572 
L 1109.277857 129.961158 
L 1118.838571 124.869745 
L 1128.399286 119.778332 
L 1137.96 114.686919 
" style="fill:none;stroke:#1f77b4;stroke-linecap:round;stroke-width:1.5;"/>
   </g>
   <g id="patch_3">
    <path d="M 67.16 203.492501 
L 67.16 31.6275 
" style="fill:none;stroke:#ffffff;stroke-linecap:square;stroke-linejoin:miter;stroke-width:0.8;"/>
   </g>
   <g id="patch_4">
    <path d="M 1137.96 203.492501 
L 1137.96 31.6275 
" style="fill:none;stroke:#ffffff;stroke-linecap:square;stroke-linejoin:miter;stroke-width:0.8;"/>
   </g>
   <g id="patch_5">
    <path d="M 67.16 203.492501 
L 1137.96 203.492501 
" style="fill:none;stroke:#ffffff;stroke-linecap:square;stroke-linejoin:miter;stroke-width:0.8;"/>
   </g>
   <g id="patch_6">
    <path d="M 67.16 31.6275 
L 1137.96 31.6275 
" style="fill:none;stroke:#ffffff;stroke-linecap:square;stroke-linejoin:miter;stroke-width:0.8;"/>
   </g>
   <g id="text_13">
    <!-- Bacteria;Proteobacteria;Gammaproteobacteria;Enterobacteriales;Enterobacteriaceae;sf_1;9337 -->
    <g style="fill:#262626;" transform="translate(272.192219 25.6275)scale(0.156 -0.156)">
     <defs>
      <path d="M 7.328125 0 
L 7.328125 71.578125 
L 34.1875 71.578125 
Q 42.390625 71.578125 47.34375 69.40625 
Q 52.296875 67.234375 55.09375 62.71875 
Q 57.90625 58.203125 57.90625 53.265625 
Q 57.90625 48.6875 55.421875 44.625 
Q 52.9375 40.578125 47.90625 38.09375 
Q 54.390625 36.1875 57.875 31.59375 
Q 61.375 27 61.375 20.75 
Q 61.375 15.71875 59.25 11.390625 
Q 57.125 7.078125 54 4.734375 
Q 50.875 2.390625 46.15625 1.1875 
Q 41.453125 0 34.625 0 
z
M 16.796875 41.5 
L 32.28125 41.5 
Q 38.578125 41.5 41.3125 42.328125 
Q 44.921875 43.40625 46.75 45.890625 
Q 48.578125 48.390625 48.578125 52.15625 
Q 48.578125 55.71875 46.875 58.421875 
Q 45.171875 61.140625 41.984375 62.140625 
Q 38.8125 63.140625 31.109375 63.140625 
L 16.796875 63.140625 
z
M 16.796875 8.453125 
L 34.625 8.453125 
Q 39.203125 8.453125 41.0625 8.796875 
Q 44.34375 9.375 46.53125 10.734375 
Q 48.734375 12.109375 50.140625 14.71875 
Q 51.5625 17.328125 51.5625 20.75 
Q 51.5625 24.75 49.515625 27.703125 
Q 47.46875 30.671875 43.828125 31.859375 
Q 40.1875 33.0625 33.34375 33.0625 
L 16.796875 33.0625 
z
" id="ArialMT-66"/>
      <path d="M 40.4375 6.390625 
Q 35.546875 2.25 31.03125 0.53125 
Q 26.515625 -1.171875 21.34375 -1.171875 
Q 12.796875 -1.171875 8.203125 3 
Q 3.609375 7.171875 3.609375 13.671875 
Q 3.609375 17.484375 5.34375 20.625 
Q 7.078125 23.78125 9.890625 25.6875 
Q 12.703125 27.59375 16.21875 28.5625 
Q 18.796875 29.25 24.03125 29.890625 
Q 34.671875 31.15625 39.703125 32.90625 
Q 39.75 34.71875 39.75 35.203125 
Q 39.75 40.578125 37.25 42.78125 
Q 33.890625 45.75 27.25 45.75 
Q 21.046875 45.75 18.09375 43.578125 
Q 15.140625 41.40625 13.71875 35.890625 
L 5.125 37.0625 
Q 6.296875 42.578125 8.984375 45.96875 
Q 11.671875 49.359375 16.75 51.1875 
Q 21.828125 53.03125 28.515625 53.03125 
Q 35.15625 53.03125 39.296875 51.46875 
Q 43.453125 49.90625 45.40625 47.53125 
Q 47.359375 45.171875 48.140625 41.546875 
Q 48.578125 39.3125 48.578125 33.453125 
L 48.578125 21.734375 
Q 48.578125 9.46875 49.140625 6.21875 
Q 49.703125 2.984375 51.375 0 
L 42.1875 0 
Q 40.828125 2.734375 40.4375 6.390625 
z
M 39.703125 26.03125 
Q 34.90625 24.078125 25.34375 22.703125 
Q 19.921875 21.921875 17.671875 20.9375 
Q 15.4375 19.96875 14.203125 18.09375 
Q 12.984375 16.21875 12.984375 13.921875 
Q 12.984375 10.40625 15.640625 8.0625 
Q 18.3125 5.71875 23.4375 5.71875 
Q 28.515625 5.71875 32.46875 7.9375 
Q 36.421875 10.15625 38.28125 14.015625 
Q 39.703125 17 39.703125 22.796875 
z
" id="ArialMT-97"/>
      <path d="M 40.4375 19 
L 49.078125 17.875 
Q 47.65625 8.9375 41.8125 3.875 
Q 35.984375 -1.171875 27.484375 -1.171875 
Q 16.84375 -1.171875 10.375 5.78125 
Q 3.90625 12.75 3.90625 25.734375 
Q 3.90625 34.125 6.6875 40.421875 
Q 9.46875 46.734375 15.15625 49.875 
Q 20.84375 53.03125 27.546875 53.03125 
Q 35.984375 53.03125 41.359375 48.75 
Q 46.734375 44.484375 48.25 36.625 
L 39.703125 35.296875 
Q 38.484375 40.53125 35.375 43.15625 
Q 32.28125 45.796875 27.875 45.796875 
Q 21.234375 45.796875 17.078125 41.03125 
Q 12.9375 36.28125 12.9375 25.984375 
Q 12.9375 15.53125 16.9375 10.796875 
Q 20.953125 6.0625 27.390625 6.0625 
Q 32.5625 6.0625 36.03125 9.234375 
Q 39.5 12.40625 40.4375 19 
z
" id="ArialMT-99"/>
      <path d="M 25.78125 7.859375 
L 27.046875 0.09375 
Q 23.34375 -0.6875 20.40625 -0.6875 
Q 15.625 -0.6875 12.984375 0.828125 
Q 10.359375 2.34375 9.28125 4.8125 
Q 8.203125 7.28125 8.203125 15.1875 
L 8.203125 45.015625 
L 1.765625 45.015625 
L 1.765625 51.859375 
L 8.203125 51.859375 
L 8.203125 64.703125 
L 16.9375 69.96875 
L 16.9375 51.859375 
L 25.78125 51.859375 
L 25.78125 45.015625 
L 16.9375 45.015625 
L 16.9375 14.703125 
Q 16.9375 10.9375 17.40625 9.859375 
Q 17.875 8.796875 18.921875 8.15625 
Q 19.96875 7.515625 21.921875 7.515625 
Q 23.390625 7.515625 25.78125 7.859375 
z
" id="ArialMT-116"/>
      <path d="M 42.09375 16.703125 
L 51.171875 15.578125 
Q 49.03125 7.625 43.21875 3.21875 
Q 37.40625 -1.171875 28.375 -1.171875 
Q 17 -1.171875 10.328125 5.828125 
Q 3.65625 12.84375 3.65625 25.484375 
Q 3.65625 38.578125 10.390625 45.796875 
Q 17.140625 53.03125 27.875 53.03125 
Q 38.28125 53.03125 44.875 45.953125 
Q 51.46875 38.875 51.46875 26.03125 
Q 51.46875 25.25 51.421875 23.6875 
L 12.75 23.6875 
Q 13.234375 15.140625 17.578125 10.59375 
Q 21.921875 6.0625 28.421875 6.0625 
Q 33.25 6.0625 36.671875 8.59375 
Q 40.09375 11.140625 42.09375 16.703125 
z
M 13.234375 30.90625 
L 42.1875 30.90625 
Q 41.609375 37.453125 38.875 40.71875 
Q 34.671875 45.796875 27.984375 45.796875 
Q 21.921875 45.796875 17.796875 41.75 
Q 13.671875 37.703125 13.234375 30.90625 
z
" id="ArialMT-101"/>
      <path d="M 6.5 0 
L 6.5 51.859375 
L 14.40625 51.859375 
L 14.40625 44 
Q 17.4375 49.515625 20 51.265625 
Q 22.5625 53.03125 25.640625 53.03125 
Q 30.078125 53.03125 34.671875 50.203125 
L 31.640625 42.046875 
Q 28.421875 43.953125 25.203125 43.953125 
Q 22.3125 43.953125 20.015625 42.21875 
Q 17.71875 40.484375 16.75 37.40625 
Q 15.28125 32.71875 15.28125 27.15625 
L 15.28125 0 
z
" id="ArialMT-114"/>
      <path d="M 6.640625 61.46875 
L 6.640625 71.578125 
L 15.4375 71.578125 
L 15.4375 61.46875 
z
M 6.640625 0 
L 6.640625 51.859375 
L 15.4375 51.859375 
L 15.4375 0 
z
" id="ArialMT-105"/>
      <path d="M 8.890625 41.84375 
L 8.890625 51.859375 
L 18.890625 51.859375 
L 18.890625 41.84375 
z
M 8.890625 0 
L 8.890625 10.015625 
L 18.890625 10.015625 
L 18.890625 0 
Q 18.890625 -5.515625 16.9375 -8.90625 
Q 14.984375 -12.3125 10.75 -14.15625 
L 8.296875 -10.40625 
Q 11.078125 -9.1875 12.390625 -6.8125 
Q 13.71875 -4.4375 13.875 0 
z
" id="ArialMT-59"/>
      <path d="M 7.71875 0 
L 7.71875 71.578125 
L 34.71875 71.578125 
Q 41.84375 71.578125 45.609375 70.90625 
Q 50.875 70.015625 54.4375 67.546875 
Q 58.015625 65.09375 60.1875 60.640625 
Q 62.359375 56.203125 62.359375 50.875 
Q 62.359375 41.75 56.546875 35.421875 
Q 50.734375 29.109375 35.546875 29.109375 
L 17.1875 29.109375 
L 17.1875 0 
z
M 17.1875 37.546875 
L 35.6875 37.546875 
Q 44.875 37.546875 48.734375 40.96875 
Q 52.59375 44.390625 52.59375 50.59375 
Q 52.59375 55.078125 50.3125 58.265625 
Q 48.046875 61.46875 44.34375 62.5 
Q 41.9375 63.140625 35.5 63.140625 
L 17.1875 63.140625 
z
" id="ArialMT-80"/>
      <path d="M 3.328125 25.921875 
Q 3.328125 40.328125 11.328125 47.265625 
Q 18.015625 53.03125 27.640625 53.03125 
Q 38.328125 53.03125 45.109375 46.015625 
Q 51.90625 39.015625 51.90625 26.65625 
Q 51.90625 16.65625 48.90625 10.90625 
Q 45.90625 5.171875 40.15625 2 
Q 34.421875 -1.171875 27.640625 -1.171875 
Q 16.75 -1.171875 10.03125 5.8125 
Q 3.328125 12.796875 3.328125 25.921875 
z
M 12.359375 25.921875 
Q 12.359375 15.96875 16.703125 11.015625 
Q 21.046875 6.0625 27.640625 6.0625 
Q 34.1875 6.0625 38.53125 11.03125 
Q 42.875 16.015625 42.875 26.21875 
Q 42.875 35.84375 38.5 40.796875 
Q 34.125 45.75 27.640625 45.75 
Q 21.046875 45.75 16.703125 40.8125 
Q 12.359375 35.890625 12.359375 25.921875 
z
" id="ArialMT-111"/>
      <path d="M 14.703125 0 
L 6.546875 0 
L 6.546875 71.578125 
L 15.328125 71.578125 
L 15.328125 46.046875 
Q 20.90625 53.03125 29.546875 53.03125 
Q 34.328125 53.03125 38.59375 51.09375 
Q 42.875 49.171875 45.625 45.671875 
Q 48.390625 42.1875 49.953125 37.25 
Q 51.515625 32.328125 51.515625 26.703125 
Q 51.515625 13.375 44.921875 6.09375 
Q 38.328125 -1.171875 29.109375 -1.171875 
Q 19.921875 -1.171875 14.703125 6.5 
z
M 14.59375 26.3125 
Q 14.59375 17 17.140625 12.84375 
Q 21.296875 6.0625 28.375 6.0625 
Q 34.125 6.0625 38.328125 11.0625 
Q 42.53125 16.0625 42.53125 25.984375 
Q 42.53125 36.140625 38.5 40.96875 
Q 34.46875 45.796875 28.765625 45.796875 
Q 23 45.796875 18.796875 40.796875 
Q 14.59375 35.796875 14.59375 26.3125 
z
" id="ArialMT-98"/>
      <path d="M 41.21875 28.078125 
L 41.21875 36.46875 
L 71.53125 36.53125 
L 71.53125 9.96875 
Q 64.546875 4.390625 57.125 1.578125 
Q 49.703125 -1.21875 41.890625 -1.21875 
Q 31.34375 -1.21875 22.71875 3.296875 
Q 14.109375 7.8125 9.71875 16.359375 
Q 5.328125 24.90625 5.328125 35.453125 
Q 5.328125 45.90625 9.6875 54.953125 
Q 14.0625 64.015625 22.265625 68.40625 
Q 30.46875 72.796875 41.15625 72.796875 
Q 48.921875 72.796875 55.1875 70.28125 
Q 61.46875 67.78125 65.03125 63.28125 
Q 68.609375 58.796875 70.453125 51.5625 
L 61.921875 49.21875 
Q 60.296875 54.6875 57.90625 57.8125 
Q 55.515625 60.9375 51.0625 62.8125 
Q 46.625 64.703125 41.21875 64.703125 
Q 34.71875 64.703125 29.984375 62.71875 
Q 25.25 60.75 22.34375 57.515625 
Q 19.4375 54.296875 17.828125 50.4375 
Q 15.09375 43.796875 15.09375 36.03125 
Q 15.09375 26.46875 18.390625 20.015625 
Q 21.6875 13.578125 27.984375 10.453125 
Q 34.28125 7.328125 41.359375 7.328125 
Q 47.515625 7.328125 53.375 9.6875 
Q 59.234375 12.0625 62.25 14.75 
L 62.25 28.078125 
z
" id="ArialMT-71"/>
      <path d="M 6.59375 0 
L 6.59375 51.859375 
L 14.453125 51.859375 
L 14.453125 44.578125 
Q 16.890625 48.390625 20.9375 50.703125 
Q 25 53.03125 30.171875 53.03125 
Q 35.9375 53.03125 39.625 50.640625 
Q 43.3125 48.25 44.828125 43.953125 
Q 50.984375 53.03125 60.84375 53.03125 
Q 68.5625 53.03125 72.703125 48.75 
Q 76.859375 44.484375 76.859375 35.59375 
L 76.859375 0 
L 68.109375 0 
L 68.109375 32.671875 
Q 68.109375 37.9375 67.25 40.25 
Q 66.40625 42.578125 64.15625 43.984375 
Q 61.921875 45.40625 58.890625 45.40625 
Q 53.421875 45.40625 49.796875 41.765625 
Q 46.1875 38.140625 46.1875 30.125 
L 46.1875 0 
L 37.40625 0 
L 37.40625 33.6875 
Q 37.40625 39.546875 35.25 42.46875 
Q 33.109375 45.40625 28.21875 45.40625 
Q 24.515625 45.40625 21.359375 43.453125 
Q 18.21875 41.5 16.796875 37.734375 
Q 15.375 33.984375 15.375 26.90625 
L 15.375 0 
z
" id="ArialMT-109"/>
      <path d="M 6.59375 -19.875 
L 6.59375 51.859375 
L 14.59375 51.859375 
L 14.59375 45.125 
Q 17.4375 49.078125 21 51.046875 
Q 24.5625 53.03125 29.640625 53.03125 
Q 36.28125 53.03125 41.359375 49.609375 
Q 46.4375 46.1875 49.015625 39.953125 
Q 51.609375 33.734375 51.609375 26.3125 
Q 51.609375 18.359375 48.75 11.984375 
Q 45.90625 5.609375 40.453125 2.21875 
Q 35.015625 -1.171875 29 -1.171875 
Q 24.609375 -1.171875 21.109375 0.6875 
Q 17.625 2.546875 15.375 5.375 
L 15.375 -19.875 
z
M 14.546875 25.640625 
Q 14.546875 15.625 18.59375 10.84375 
Q 22.65625 6.0625 28.421875 6.0625 
Q 34.28125 6.0625 38.453125 11.015625 
Q 42.625 15.96875 42.625 26.375 
Q 42.625 36.28125 38.546875 41.203125 
Q 34.46875 46.140625 28.8125 46.140625 
Q 23.1875 46.140625 18.859375 40.890625 
Q 14.546875 35.640625 14.546875 25.640625 
z
" id="ArialMT-112"/>
      <path d="M 7.90625 0 
L 7.90625 71.578125 
L 59.671875 71.578125 
L 59.671875 63.140625 
L 17.390625 63.140625 
L 17.390625 41.21875 
L 56.984375 41.21875 
L 56.984375 32.8125 
L 17.390625 32.8125 
L 17.390625 8.453125 
L 61.328125 8.453125 
L 61.328125 0 
z
" id="ArialMT-69"/>
      <path d="M 6.59375 0 
L 6.59375 51.859375 
L 14.5 51.859375 
L 14.5 44.484375 
Q 20.21875 53.03125 31 53.03125 
Q 35.6875 53.03125 39.625 51.34375 
Q 43.5625 49.65625 45.515625 46.921875 
Q 47.46875 44.1875 48.25 40.4375 
Q 48.734375 37.984375 48.734375 31.890625 
L 48.734375 0 
L 39.9375 0 
L 39.9375 31.546875 
Q 39.9375 36.921875 38.90625 39.578125 
Q 37.890625 42.234375 35.28125 43.8125 
Q 32.671875 45.40625 29.15625 45.40625 
Q 23.53125 45.40625 19.453125 41.84375 
Q 15.375 38.28125 15.375 28.328125 
L 15.375 0 
z
" id="ArialMT-110"/>
      <path d="M 6.390625 0 
L 6.390625 71.578125 
L 15.1875 71.578125 
L 15.1875 0 
z
" id="ArialMT-108"/>
      <path d="M 3.078125 15.484375 
L 11.765625 16.84375 
Q 12.5 11.625 15.84375 8.84375 
Q 19.1875 6.0625 25.203125 6.0625 
Q 31.25 6.0625 34.171875 8.515625 
Q 37.109375 10.984375 37.109375 14.3125 
Q 37.109375 17.28125 34.515625 19 
Q 32.71875 20.171875 25.53125 21.96875 
Q 15.875 24.421875 12.140625 26.203125 
Q 8.40625 27.984375 6.46875 31.125 
Q 4.546875 34.28125 4.546875 38.09375 
Q 4.546875 41.546875 6.125 44.5 
Q 7.71875 47.46875 10.453125 49.421875 
Q 12.5 50.921875 16.03125 51.96875 
Q 19.578125 53.03125 23.640625 53.03125 
Q 29.734375 53.03125 34.34375 51.265625 
Q 38.96875 49.515625 41.15625 46.5 
Q 43.359375 43.5 44.1875 38.484375 
L 35.59375 37.3125 
Q 35.015625 41.3125 32.203125 43.546875 
Q 29.390625 45.796875 24.265625 45.796875 
Q 18.21875 45.796875 15.625 43.796875 
Q 13.03125 41.796875 13.03125 39.109375 
Q 13.03125 37.40625 14.109375 36.03125 
Q 15.1875 34.625 17.484375 33.6875 
Q 18.796875 33.203125 25.25 31.453125 
Q 34.578125 28.953125 38.25 27.359375 
Q 41.9375 25.78125 44.03125 22.75 
Q 46.140625 19.734375 46.140625 15.234375 
Q 46.140625 10.84375 43.578125 6.953125 
Q 41.015625 3.078125 36.171875 0.953125 
Q 31.34375 -1.171875 25.25 -1.171875 
Q 15.140625 -1.171875 9.84375 3.03125 
Q 4.546875 7.234375 3.078125 15.484375 
z
" id="ArialMT-115"/>
      <path d="M 8.6875 0 
L 8.6875 45.015625 
L 0.921875 45.015625 
L 0.921875 51.859375 
L 8.6875 51.859375 
L 8.6875 57.375 
Q 8.6875 62.59375 9.625 65.140625 
Q 10.890625 68.5625 14.078125 70.671875 
Q 17.28125 72.796875 23.046875 72.796875 
Q 26.765625 72.796875 31.25 71.921875 
L 29.9375 64.265625 
Q 27.203125 64.75 24.75 64.75 
Q 20.75 64.75 19.09375 63.03125 
Q 17.4375 61.328125 17.4375 56.640625 
L 17.4375 51.859375 
L 27.546875 51.859375 
L 27.546875 45.015625 
L 17.4375 45.015625 
L 17.4375 0 
z
" id="ArialMT-102"/>
      <path d="M -1.515625 -19.875 
L -1.515625 -13.53125 
L 56.734375 -13.53125 
L 56.734375 -19.875 
z
" id="ArialMT-95"/>
      <path d="M 5.46875 16.546875 
L 13.921875 17.328125 
Q 14.984375 11.375 18.015625 8.6875 
Q 21.046875 6 25.78125 6 
Q 29.828125 6 32.875 7.859375 
Q 35.9375 9.71875 37.890625 12.8125 
Q 39.84375 15.921875 41.15625 21.1875 
Q 42.484375 26.46875 42.484375 31.9375 
Q 42.484375 32.515625 42.4375 33.6875 
Q 39.796875 29.5 35.234375 26.875 
Q 30.671875 24.265625 25.34375 24.265625 
Q 16.453125 24.265625 10.296875 30.703125 
Q 4.15625 37.15625 4.15625 47.703125 
Q 4.15625 58.59375 10.578125 65.234375 
Q 17 71.875 26.65625 71.875 
Q 33.640625 71.875 39.421875 68.109375 
Q 45.21875 64.359375 48.21875 57.390625 
Q 51.21875 50.4375 51.21875 37.25 
Q 51.21875 23.53125 48.234375 15.40625 
Q 45.265625 7.28125 39.375 3.03125 
Q 33.5 -1.21875 25.59375 -1.21875 
Q 17.1875 -1.21875 11.859375 3.4375 
Q 6.546875 8.109375 5.46875 16.546875 
z
M 41.453125 48.140625 
Q 41.453125 55.71875 37.421875 60.15625 
Q 33.40625 64.59375 27.734375 64.59375 
Q 21.875 64.59375 17.53125 59.8125 
Q 13.1875 55.03125 13.1875 47.40625 
Q 13.1875 40.578125 17.3125 36.296875 
Q 21.4375 32.03125 27.484375 32.03125 
Q 33.59375 32.03125 37.515625 36.296875 
Q 41.453125 40.578125 41.453125 48.140625 
z
" id="ArialMT-57"/>
      <path d="M 4.734375 62.203125 
L 4.734375 70.65625 
L 51.078125 70.65625 
L 51.078125 63.8125 
Q 44.234375 56.546875 37.515625 44.484375 
Q 30.8125 32.421875 27.15625 19.671875 
Q 24.515625 10.6875 23.78125 0 
L 14.75 0 
Q 14.890625 8.453125 18.0625 20.40625 
Q 21.234375 32.375 27.171875 43.484375 
Q 33.109375 54.59375 39.796875 62.203125 
z
" id="ArialMT-55"/>
     </defs>
     <use xlink:href="#ArialMT-66"/>
     <use x="66.699219" xlink:href="#ArialMT-97"/>
     <use x="122.314453" xlink:href="#ArialMT-99"/>
     <use x="172.314453" xlink:href="#ArialMT-116"/>
     <use x="200.097656" xlink:href="#ArialMT-101"/>
     <use x="255.712891" xlink:href="#ArialMT-114"/>
     <use x="289.013672" xlink:href="#ArialMT-105"/>
     <use x="311.230469" xlink:href="#ArialMT-97"/>
     <use x="366.845703" xlink:href="#ArialMT-59"/>
     <use x="394.628906" xlink:href="#ArialMT-80"/>
     <use x="461.328125" xlink:href="#ArialMT-114"/>
     <use x="494.628906" xlink:href="#ArialMT-111"/>
     <use x="550.244141" xlink:href="#ArialMT-116"/>
     <use x="578.027344" xlink:href="#ArialMT-101"/>
     <use x="633.642578" xlink:href="#ArialMT-111"/>
     <use x="689.257812" xlink:href="#ArialMT-98"/>
     <use x="744.873047" xlink:href="#ArialMT-97"/>
     <use x="800.488281" xlink:href="#ArialMT-99"/>
     <use x="850.488281" xlink:href="#ArialMT-116"/>
     <use x="878.271484" xlink:href="#ArialMT-101"/>
     <use x="933.886719" xlink:href="#ArialMT-114"/>
     <use x="967.1875" xlink:href="#ArialMT-105"/>
     <use x="989.404297" xlink:href="#ArialMT-97"/>
     <use x="1045.019531" xlink:href="#ArialMT-59"/>
     <use x="1072.802734" xlink:href="#ArialMT-71"/>
     <use x="1150.585938" xlink:href="#ArialMT-97"/>
     <use x="1206.201172" xlink:href="#ArialMT-109"/>
     <use x="1289.501953" xlink:href="#ArialMT-109"/>
     <use x="1372.802734" xlink:href="#ArialMT-97"/>
     <use x="1428.417969" xlink:href="#ArialMT-112"/>
     <use x="1484.033203" xlink:href="#ArialMT-114"/>
     <use x="1517.333984" xlink:href="#ArialMT-111"/>
     <use x="1572.949219" xlink:href="#ArialMT-116"/>
     <use x="1600.732422" xlink:href="#ArialMT-101"/>
     <use x="1656.347656" xlink:href="#ArialMT-111"/>
     <use x="1711.962891" xlink:href="#ArialMT-98"/>
     <use x="1767.578125" xlink:href="#ArialMT-97"/>
     <use x="1823.193359" xlink:href="#ArialMT-99"/>
     <use x="1873.193359" xlink:href="#ArialMT-116"/>
     <use x="1900.976562" xlink:href="#ArialMT-101"/>
     <use x="1956.591797" xlink:href="#ArialMT-114"/>
     <use x="1989.892578" xlink:href="#ArialMT-105"/>
     <use x="2012.109375" xlink:href="#ArialMT-97"/>
     <use x="2067.724609" xlink:href="#ArialMT-59"/>
     <use x="2095.507812" xlink:href="#ArialMT-69"/>
     <use x="2162.207031" xlink:href="#ArialMT-110"/>
     <use x="2217.822266" xlink:href="#ArialMT-116"/>
     <use x="2245.605469" xlink:href="#ArialMT-101"/>
     <use x="2301.220703" xlink:href="#ArialMT-114"/>
     <use x="2334.521484" xlink:href="#ArialMT-111"/>
     <use x="2390.136719" xlink:href="#ArialMT-98"/>
     <use x="2445.751953" xlink:href="#ArialMT-97"/>
     <use x="2501.367188" xlink:href="#ArialMT-99"/>
     <use x="2551.367188" xlink:href="#ArialMT-116"/>
     <use x="2579.150391" xlink:href="#ArialMT-101"/>
     <use x="2634.765625" xlink:href="#ArialMT-114"/>
     <use x="2668.066406" xlink:href="#ArialMT-105"/>
     <use x="2690.283203" xlink:href="#ArialMT-97"/>
     <use x="2745.898438" xlink:href="#ArialMT-108"/>
     <use x="2768.115234" xlink:href="#ArialMT-101"/>
     <use x="2823.730469" xlink:href="#ArialMT-115"/>
     <use x="2873.730469" xlink:href="#ArialMT-59"/>
     <use x="2901.513672" xlink:href="#ArialMT-69"/>
     <use x="2968.212891" xlink:href="#ArialMT-110"/>
     <use x="3023.828125" xlink:href="#ArialMT-116"/>
     <use x="3051.611328" xlink:href="#ArialMT-101"/>
     <use x="3107.226562" xlink:href="#ArialMT-114"/>
     <use x="3140.527344" xlink:href="#ArialMT-111"/>
     <use x="3196.142578" xlink:href="#ArialMT-98"/>
     <use x="3251.757812" xlink:href="#ArialMT-97"/>
     <use x="3307.373047" xlink:href="#ArialMT-99"/>
     <use x="3357.373047" xlink:href="#ArialMT-116"/>
     <use x="3385.15625" xlink:href="#ArialMT-101"/>
     <use x="3440.771484" xlink:href="#ArialMT-114"/>
     <use x="3474.072266" xlink:href="#ArialMT-105"/>
     <use x="3496.289062" xlink:href="#ArialMT-97"/>
     <use x="3551.904297" xlink:href="#ArialMT-99"/>
     <use x="3601.904297" xlink:href="#ArialMT-101"/>
     <use x="3657.519531" xlink:href="#ArialMT-97"/>
     <use x="3713.134766" xlink:href="#ArialMT-101"/>
     <use x="3768.75" xlink:href="#ArialMT-59"/>
     <use x="3796.533203" xlink:href="#ArialMT-115"/>
     <use x="3846.533203" xlink:href="#ArialMT-102"/>
     <use x="3874.316406" xlink:href="#ArialMT-95"/>
     <use x="3929.931641" xlink:href="#ArialMT-49"/>
     <use x="3985.546875" xlink:href="#ArialMT-59"/>
     <use x="4013.330078" xlink:href="#ArialMT-57"/>
     <use x="4068.945312" xlink:href="#ArialMT-51"/>
     <use x="4124.560547" xlink:href="#ArialMT-51"/>
     <use x="4180.175781" xlink:href="#ArialMT-55"/>
    </g>
   </g>
  </g>
  <g id="axes_2">
   <g id="patch_7">
    <path d="M 67.16 412.328334 
L 1137.96 412.328334 
L 1137.96 240.463333 
L 67.16 240.463333 
z
" style="fill:#eaeaf2;"/>
   </g>
   <g id="matplotlib.axis_3">
    <g id="xtick_8">
     <g id="line2d_14">
      <path clip-path="url(#p4ecdcf0ed5)" d="M 172.327857 412.328334 
L 172.327857 240.463333 
" style="fill:none;stroke:#ffffff;stroke-linecap:round;stroke-width:0.8;"/>
     </g>
     <g id="text_14">
      <!-- 2003-01-15 -->
      <g style="fill:#262626;" transform="translate(139.082388 428.63349)scale(0.13 -0.13)">
       <use xlink:href="#ArialMT-50"/>
       <use x="55.615234" xlink:href="#ArialMT-48"/>
       <use x="111.230469" xlink:href="#ArialMT-48"/>
       <use x="166.845703" xlink:href="#ArialMT-51"/>
       <use x="222.460938" xlink:href="#ArialMT-45"/>
       <use x="255.761719" xlink:href="#ArialMT-48"/>
       <use x="311.376953" xlink:href="#ArialMT-49"/>
       <use x="366.992188" xlink:href="#ArialMT-45"/>
       <use x="400.292969" xlink:href="#ArialMT-49"/>
       <use x="455.908203" xlink:href="#ArialMT-53"/>
      </g>
     </g>
    </g>
    <g id="xtick_9">
     <g id="line2d_15">
      <path clip-path="url(#p4ecdcf0ed5)" d="M 334.86 412.328334 
L 334.86 240.463333 
" style="fill:none;stroke:#ffffff;stroke-linecap:round;stroke-width:0.8;"/>
     </g>
     <g id="text_15">
      <!-- 2003-02-01 -->
      <g style="fill:#262626;" transform="translate(301.614531 428.63349)scale(0.13 -0.13)">
       <use xlink:href="#ArialMT-50"/>
       <use x="55.615234" xlink:href="#ArialMT-48"/>
       <use x="111.230469" xlink:href="#ArialMT-48"/>
       <use x="166.845703" xlink:href="#ArialMT-51"/>
       <use x="222.460938" xlink:href="#ArialMT-45"/>
       <use x="255.761719" xlink:href="#ArialMT-48"/>
       <use x="311.376953" xlink:href="#ArialMT-50"/>
       <use x="366.992188" xlink:href="#ArialMT-45"/>
       <use x="400.292969" xlink:href="#ArialMT-48"/>
       <use x="455.908203" xlink:href="#ArialMT-49"/>
      </g>
     </g>
    </g>
    <g id="xtick_10">
     <g id="line2d_16">
      <path clip-path="url(#p4ecdcf0ed5)" d="M 468.71 412.328334 
L 468.71 240.463333 
" style="fill:none;stroke:#ffffff;stroke-linecap:round;stroke-width:0.8;"/>
     </g>
     <g id="text_16">
      <!-- 2003-02-15 -->
      <g style="fill:#262626;" transform="translate(435.464531 428.63349)scale(0.13 -0.13)">
       <use xlink:href="#ArialMT-50"/>
       <use x="55.615234" xlink:href="#ArialMT-48"/>
       <use x="111.230469" xlink:href="#ArialMT-48"/>
       <use x="166.845703" xlink:href="#ArialMT-51"/>
       <use x="222.460938" xlink:href="#ArialMT-45"/>
       <use x="255.761719" xlink:href="#ArialMT-48"/>
       <use x="311.376953" xlink:href="#ArialMT-50"/>
       <use x="366.992188" xlink:href="#ArialMT-45"/>
       <use x="400.292969" xlink:href="#ArialMT-49"/>
       <use x="455.908203" xlink:href="#ArialMT-53"/>
      </g>
     </g>
    </g>
    <g id="xtick_11">
     <g id="line2d_17">
      <path clip-path="url(#p4ecdcf0ed5)" d="M 602.56 412.328334 
L 602.56 240.463333 
" style="fill:none;stroke:#ffffff;stroke-linecap:round;stroke-width:0.8;"/>
     </g>
     <g id="text_17">
      <!-- 2003-03-01 -->
      <g style="fill:#262626;" transform="translate(569.314531 428.63349)scale(0.13 -0.13)">
       <use xlink:href="#ArialMT-50"/>
       <use x="55.615234" xlink:href="#ArialMT-48"/>
       <use x="111.230469" xlink:href="#ArialMT-48"/>
       <use x="166.845703" xlink:href="#ArialMT-51"/>
       <use x="222.460938" xlink:href="#ArialMT-45"/>
       <use x="255.761719" xlink:href="#ArialMT-48"/>
       <use x="311.376953" xlink:href="#ArialMT-51"/>
       <use x="366.992188" xlink:href="#ArialMT-45"/>
       <use x="400.292969" xlink:href="#ArialMT-48"/>
       <use x="455.908203" xlink:href="#ArialMT-49"/>
      </g>
     </g>
    </g>
    <g id="xtick_12">
     <g id="line2d_18">
      <path clip-path="url(#p4ecdcf0ed5)" d="M 736.41 412.328334 
L 736.41 240.463333 
" style="fill:none;stroke:#ffffff;stroke-linecap:round;stroke-width:0.8;"/>
     </g>
     <g id="text_18">
      <!-- 2003-03-15 -->
      <g style="fill:#262626;" transform="translate(703.164531 428.63349)scale(0.13 -0.13)">
       <use xlink:href="#ArialMT-50"/>
       <use x="55.615234" xlink:href="#ArialMT-48"/>
       <use x="111.230469" xlink:href="#ArialMT-48"/>
       <use x="166.845703" xlink:href="#ArialMT-51"/>
       <use x="222.460938" xlink:href="#ArialMT-45"/>
       <use x="255.761719" xlink:href="#ArialMT-48"/>
       <use x="311.376953" xlink:href="#ArialMT-51"/>
       <use x="366.992188" xlink:href="#ArialMT-45"/>
       <use x="400.292969" xlink:href="#ArialMT-49"/>
       <use x="455.908203" xlink:href="#ArialMT-53"/>
      </g>
     </g>
    </g>
    <g id="xtick_13">
     <g id="line2d_19">
      <path clip-path="url(#p4ecdcf0ed5)" d="M 898.942143 412.328334 
L 898.942143 240.463333 
" style="fill:none;stroke:#ffffff;stroke-linecap:round;stroke-width:0.8;"/>
     </g>
     <g id="text_19">
      <!-- 2003-04-01 -->
      <g style="fill:#262626;" transform="translate(865.696674 428.63349)scale(0.13 -0.13)">
       <use xlink:href="#ArialMT-50"/>
       <use x="55.615234" xlink:href="#ArialMT-48"/>
       <use x="111.230469" xlink:href="#ArialMT-48"/>
       <use x="166.845703" xlink:href="#ArialMT-51"/>
       <use x="222.460938" xlink:href="#ArialMT-45"/>
       <use x="255.761719" xlink:href="#ArialMT-48"/>
       <use x="311.376953" xlink:href="#ArialMT-52"/>
       <use x="366.992188" xlink:href="#ArialMT-45"/>
       <use x="400.292969" xlink:href="#ArialMT-48"/>
       <use x="455.908203" xlink:href="#ArialMT-49"/>
      </g>
     </g>
    </g>
    <g id="xtick_14">
     <g id="line2d_20">
      <path clip-path="url(#p4ecdcf0ed5)" d="M 1032.792143 412.328334 
L 1032.792143 240.463333 
" style="fill:none;stroke:#ffffff;stroke-linecap:round;stroke-width:0.8;"/>
     </g>
     <g id="text_20">
      <!-- 2003-04-15 -->
      <g style="fill:#262626;" transform="translate(999.546674 428.63349)scale(0.13 -0.13)">
       <use xlink:href="#ArialMT-50"/>
       <use x="55.615234" xlink:href="#ArialMT-48"/>
       <use x="111.230469" xlink:href="#ArialMT-48"/>
       <use x="166.845703" xlink:href="#ArialMT-51"/>
       <use x="222.460938" xlink:href="#ArialMT-45"/>
       <use x="255.761719" xlink:href="#ArialMT-48"/>
       <use x="311.376953" xlink:href="#ArialMT-52"/>
       <use x="366.992188" xlink:href="#ArialMT-45"/>
       <use x="400.292969" xlink:href="#ArialMT-49"/>
       <use x="455.908203" xlink:href="#ArialMT-53"/>
      </g>
     </g>
    </g>
   </g>
   <g id="matplotlib.axis_4">
    <g id="ytick_6">
     <g id="line2d_21">
      <path clip-path="url(#p4ecdcf0ed5)" d="M 67.16 385.154174 
L 1137.96 385.154174 
" style="fill:none;stroke:#ffffff;stroke-linecap:round;stroke-width:0.8;"/>
     </g>
     <g id="text_21">
      <!-- 500 -->
      <g style="fill:#262626;" transform="translate(38.472344 389.806752)scale(0.13 -0.13)">
       <use xlink:href="#ArialMT-53"/>
       <use x="55.615234" xlink:href="#ArialMT-48"/>
       <use x="111.230469" xlink:href="#ArialMT-48"/>
      </g>
     </g>
    </g>
    <g id="ytick_7">
     <g id="line2d_22">
      <path clip-path="url(#p4ecdcf0ed5)" d="M 67.16 345.750646 
L 1137.96 345.750646 
" style="fill:none;stroke:#ffffff;stroke-linecap:round;stroke-width:0.8;"/>
     </g>
     <g id="text_22">
      <!-- 1000 -->
      <g style="fill:#262626;" transform="translate(31.243125 350.403224)scale(0.13 -0.13)">
       <use xlink:href="#ArialMT-49"/>
       <use x="55.615234" xlink:href="#ArialMT-48"/>
       <use x="111.230469" xlink:href="#ArialMT-48"/>
       <use x="166.845703" xlink:href="#ArialMT-48"/>
      </g>
     </g>
    </g>
    <g id="ytick_8">
     <g id="line2d_23">
      <path clip-path="url(#p4ecdcf0ed5)" d="M 67.16 306.347117 
L 1137.96 306.347117 
" style="fill:none;stroke:#ffffff;stroke-linecap:round;stroke-width:0.8;"/>
     </g>
     <g id="text_23">
      <!-- 1500 -->
      <g style="fill:#262626;" transform="translate(31.243125 310.999695)scale(0.13 -0.13)">
       <use xlink:href="#ArialMT-49"/>
       <use x="55.615234" xlink:href="#ArialMT-53"/>
       <use x="111.230469" xlink:href="#ArialMT-48"/>
       <use x="166.845703" xlink:href="#ArialMT-48"/>
      </g>
     </g>
    </g>
    <g id="ytick_9">
     <g id="line2d_24">
      <path clip-path="url(#p4ecdcf0ed5)" d="M 67.16 266.943589 
L 1137.96 266.943589 
" style="fill:none;stroke:#ffffff;stroke-linecap:round;stroke-width:0.8;"/>
     </g>
     <g id="text_24">
      <!-- 2000 -->
      <g style="fill:#262626;" transform="translate(31.243125 271.596167)scale(0.13 -0.13)">
       <use xlink:href="#ArialMT-50"/>
       <use x="55.615234" xlink:href="#ArialMT-48"/>
       <use x="111.230469" xlink:href="#ArialMT-48"/>
       <use x="166.845703" xlink:href="#ArialMT-48"/>
      </g>
     </g>
    </g>
    <g id="text_25">
     <!-- Trend -->
     <g style="fill:#262626;" transform="translate(24.659375 343.130287)rotate(-90)scale(0.13 -0.13)">
      <defs>
       <path d="M 25.921875 0 
L 25.921875 63.140625 
L 2.34375 63.140625 
L 2.34375 71.578125 
L 59.078125 71.578125 
L 59.078125 63.140625 
L 35.40625 63.140625 
L 35.40625 0 
z
" id="ArialMT-84"/>
       <path d="M 40.234375 0 
L 40.234375 6.546875 
Q 35.296875 -1.171875 25.734375 -1.171875 
Q 19.53125 -1.171875 14.328125 2.25 
Q 9.125 5.671875 6.265625 11.796875 
Q 3.421875 17.921875 3.421875 25.875 
Q 3.421875 33.640625 6 39.96875 
Q 8.59375 46.296875 13.765625 49.65625 
Q 18.953125 53.03125 25.34375 53.03125 
Q 30.03125 53.03125 33.6875 51.046875 
Q 37.359375 49.078125 39.65625 45.90625 
L 39.65625 71.578125 
L 48.390625 71.578125 
L 48.390625 0 
z
M 12.453125 25.875 
Q 12.453125 15.921875 16.640625 10.984375 
Q 20.84375 6.0625 26.5625 6.0625 
Q 32.328125 6.0625 36.34375 10.765625 
Q 40.375 15.484375 40.375 25.140625 
Q 40.375 35.796875 36.265625 40.765625 
Q 32.171875 45.75 26.171875 45.75 
Q 20.3125 45.75 16.375 40.96875 
Q 12.453125 36.1875 12.453125 25.875 
z
" id="ArialMT-100"/>
      </defs>
      <use xlink:href="#ArialMT-84"/>
      <use x="57.333984" xlink:href="#ArialMT-114"/>
      <use x="90.634766" xlink:href="#ArialMT-101"/>
      <use x="146.25" xlink:href="#ArialMT-110"/>
      <use x="201.865234" xlink:href="#ArialMT-100"/>
     </g>
    </g>
   </g>
   <g id="line2d_25">
    <path clip-path="url(#p4ecdcf0ed5)" d="M 67.16 374.262853 
L 76.720714 366.707322 
L 86.281429 359.285966 
L 95.842143 352.010214 
L 105.402857 344.884163 
L 114.963571 337.89072 
L 124.524286 331.137955 
L 134.085 326.833792 
L 143.645714 323.908651 
L 153.206429 322.343841 
L 162.767143 321.972347 
L 172.327857 322.349697 
L 181.888571 322.878749 
L 191.449286 323.071332 
L 201.01 322.770697 
L 210.570714 321.96552 
L 220.131429 320.662999 
L 229.692143 319.033021 
L 239.252857 317.639673 
L 248.813571 317.181173 
L 258.374286 318.164105 
L 267.935 320.773567 
L 277.495714 325.028228 
L 287.056429 330.905423 
L 296.617143 338.020439 
L 306.177857 345.159343 
L 315.738571 350.802967 
L 325.299286 353.811012 
L 334.86 353.765994 
L 344.420714 350.621117 
L 353.981429 344.41906 
L 363.542143 335.759647 
L 373.102857 326.469936 
L 382.663571 318.883517 
L 392.224286 314.774197 
L 401.785 314.755014 
L 411.345714 318.879374 
L 420.906429 327.089518 
L 430.467143 338.833757 
L 440.027857 352.578781 
L 449.588571 366.279478 
L 459.149286 378.305156 
L 468.71 388.133347 
L 478.270714 395.729293 
L 487.831429 401.122777 
L 497.392143 404.235903 
L 506.952857 404.516288 
L 516.513571 401.449742 
L 526.074286 394.791404 
L 535.635 384.345751 
L 545.195714 370.055396 
L 554.756429 351.971134 
L 564.317143 330.790938 
L 573.877857 308.615393 
L 583.438571 288.141 
L 592.999286 271.433101 
L 602.56 259.199775 
L 612.120714 251.501679 
L 621.681429 248.275379 
L 631.242143 249.200911 
L 640.802857 253.640927 
L 650.363571 260.579582 
L 659.924286 269.086228 
L 669.485 278.954232 
L 679.045714 290.205185 
L 688.606429 302.81998 
L 698.167143 316.52052 
L 707.727857 330.456202 
L 717.288571 343.553409 
L 726.849286 355.004418 
L 736.41 364.528765 
L 745.970714 372.10219 
L 755.531429 377.751639 
L 765.092143 381.499673 
L 774.652857 383.203593 
L 784.213571 382.822275 
L 793.774286 380.433505 
L 803.335 375.993638 
L 812.895714 369.476564 
L 822.456429 360.911041 
L 832.017143 350.697043 
L 841.577857 340.059032 
L 851.138571 330.571585 
L 860.699286 323.439949 
L 870.26 319.085369 
L 879.820714 317.549462 
L 889.381429 318.79365 
L 898.942143 322.329315 
L 908.502857 326.706923 
L 918.063571 330.071581 
L 927.624286 331.001074 
L 937.185 329.011082 
L 946.745714 324.063559 
L 956.306429 316.200258 
L 965.867143 306.002245 
L 975.427857 295.252175 
L 984.988571 286.23742 
L 994.549286 280.702626 
L 1004.11 279.256954 
L 1013.670714 281.960862 
L 1023.231429 288.75842 
L 1032.792143 299.03324 
L 1042.352857 311.024217 
L 1051.913571 322.436341 
L 1061.474286 331.475141 
L 1071.035 337.550839 
L 1080.595714 340.625297 
L 1090.156429 338.403374 
L 1099.717143 335.715734 
L 1109.277857 332.729473 
L 1118.838571 329.412054 
L 1128.399286 325.784624 
L 1137.96 321.883838 
" style="fill:none;stroke:#1f77b4;stroke-linecap:round;stroke-width:1.5;"/>
   </g>
   <g id="patch_8">
    <path d="M 67.16 412.328334 
L 67.16 240.463333 
" style="fill:none;stroke:#ffffff;stroke-linecap:square;stroke-linejoin:miter;stroke-width:0.8;"/>
   </g>
   <g id="patch_9">
    <path d="M 1137.96 412.328334 
L 1137.96 240.463333 
" style="fill:none;stroke:#ffffff;stroke-linecap:square;stroke-linejoin:miter;stroke-width:0.8;"/>
   </g>
   <g id="patch_10">
    <path d="M 67.16 412.328334 
L 1137.96 412.328334 
" style="fill:none;stroke:#ffffff;stroke-linecap:square;stroke-linejoin:miter;stroke-width:0.8;"/>
   </g>
   <g id="patch_11">
    <path d="M 67.16 240.463333 
L 1137.96 240.463333 
" style="fill:none;stroke:#ffffff;stroke-linecap:square;stroke-linejoin:miter;stroke-width:0.8;"/>
   </g>
  </g>
  <g id="axes_3">
   <g id="patch_12">
    <path d="M 67.16 621.164167 
L 1137.96 621.164167 
L 1137.96 449.299166 
L 67.16 449.299166 
z
" style="fill:#eaeaf2;"/>
   </g>
   <g id="matplotlib.axis_5">
    <g id="xtick_15">
     <g id="line2d_26">
      <path clip-path="url(#pfb3054c6e1)" d="M 172.327857 621.164167 
L 172.327857 449.299166 
" style="fill:none;stroke:#ffffff;stroke-linecap:round;stroke-width:0.8;"/>
     </g>
     <g id="text_26">
      <!-- 2003-01-15 -->
      <g style="fill:#262626;" transform="translate(139.082388 637.469323)scale(0.13 -0.13)">
       <use xlink:href="#ArialMT-50"/>
       <use x="55.615234" xlink:href="#ArialMT-48"/>
       <use x="111.230469" xlink:href="#ArialMT-48"/>
       <use x="166.845703" xlink:href="#ArialMT-51"/>
       <use x="222.460938" xlink:href="#ArialMT-45"/>
       <use x="255.761719" xlink:href="#ArialMT-48"/>
       <use x="311.376953" xlink:href="#ArialMT-49"/>
       <use x="366.992188" xlink:href="#ArialMT-45"/>
       <use x="400.292969" xlink:href="#ArialMT-49"/>
       <use x="455.908203" xlink:href="#ArialMT-53"/>
      </g>
     </g>
    </g>
    <g id="xtick_16">
     <g id="line2d_27">
      <path clip-path="url(#pfb3054c6e1)" d="M 334.86 621.164167 
L 334.86 449.299166 
" style="fill:none;stroke:#ffffff;stroke-linecap:round;stroke-width:0.8;"/>
     </g>
     <g id="text_27">
      <!-- 2003-02-01 -->
      <g style="fill:#262626;" transform="translate(301.614531 637.469323)scale(0.13 -0.13)">
       <use xlink:href="#ArialMT-50"/>
       <use x="55.615234" xlink:href="#ArialMT-48"/>
       <use x="111.230469" xlink:href="#ArialMT-48"/>
       <use x="166.845703" xlink:href="#ArialMT-51"/>
       <use x="222.460938" xlink:href="#ArialMT-45"/>
       <use x="255.761719" xlink:href="#ArialMT-48"/>
       <use x="311.376953" xlink:href="#ArialMT-50"/>
       <use x="366.992188" xlink:href="#ArialMT-45"/>
       <use x="400.292969" xlink:href="#ArialMT-48"/>
       <use x="455.908203" xlink:href="#ArialMT-49"/>
      </g>
     </g>
    </g>
    <g id="xtick_17">
     <g id="line2d_28">
      <path clip-path="url(#pfb3054c6e1)" d="M 468.71 621.164167 
L 468.71 449.299166 
" style="fill:none;stroke:#ffffff;stroke-linecap:round;stroke-width:0.8;"/>
     </g>
     <g id="text_28">
      <!-- 2003-02-15 -->
      <g style="fill:#262626;" transform="translate(435.464531 637.469323)scale(0.13 -0.13)">
       <use xlink:href="#ArialMT-50"/>
       <use x="55.615234" xlink:href="#ArialMT-48"/>
       <use x="111.230469" xlink:href="#ArialMT-48"/>
       <use x="166.845703" xlink:href="#ArialMT-51"/>
       <use x="222.460938" xlink:href="#ArialMT-45"/>
       <use x="255.761719" xlink:href="#ArialMT-48"/>
       <use x="311.376953" xlink:href="#ArialMT-50"/>
       <use x="366.992188" xlink:href="#ArialMT-45"/>
       <use x="400.292969" xlink:href="#ArialMT-49"/>
       <use x="455.908203" xlink:href="#ArialMT-53"/>
      </g>
     </g>
    </g>
    <g id="xtick_18">
     <g id="line2d_29">
      <path clip-path="url(#pfb3054c6e1)" d="M 602.56 621.164167 
L 602.56 449.299166 
" style="fill:none;stroke:#ffffff;stroke-linecap:round;stroke-width:0.8;"/>
     </g>
     <g id="text_29">
      <!-- 2003-03-01 -->
      <g style="fill:#262626;" transform="translate(569.314531 637.469323)scale(0.13 -0.13)">
       <use xlink:href="#ArialMT-50"/>
       <use x="55.615234" xlink:href="#ArialMT-48"/>
       <use x="111.230469" xlink:href="#ArialMT-48"/>
       <use x="166.845703" xlink:href="#ArialMT-51"/>
       <use x="222.460938" xlink:href="#ArialMT-45"/>
       <use x="255.761719" xlink:href="#ArialMT-48"/>
       <use x="311.376953" xlink:href="#ArialMT-51"/>
       <use x="366.992188" xlink:href="#ArialMT-45"/>
       <use x="400.292969" xlink:href="#ArialMT-48"/>
       <use x="455.908203" xlink:href="#ArialMT-49"/>
      </g>
     </g>
    </g>
    <g id="xtick_19">
     <g id="line2d_30">
      <path clip-path="url(#pfb3054c6e1)" d="M 736.41 621.164167 
L 736.41 449.299166 
" style="fill:none;stroke:#ffffff;stroke-linecap:round;stroke-width:0.8;"/>
     </g>
     <g id="text_30">
      <!-- 2003-03-15 -->
      <g style="fill:#262626;" transform="translate(703.164531 637.469323)scale(0.13 -0.13)">
       <use xlink:href="#ArialMT-50"/>
       <use x="55.615234" xlink:href="#ArialMT-48"/>
       <use x="111.230469" xlink:href="#ArialMT-48"/>
       <use x="166.845703" xlink:href="#ArialMT-51"/>
       <use x="222.460938" xlink:href="#ArialMT-45"/>
       <use x="255.761719" xlink:href="#ArialMT-48"/>
       <use x="311.376953" xlink:href="#ArialMT-51"/>
       <use x="366.992188" xlink:href="#ArialMT-45"/>
       <use x="400.292969" xlink:href="#ArialMT-49"/>
       <use x="455.908203" xlink:href="#ArialMT-53"/>
      </g>
     </g>
    </g>
    <g id="xtick_20">
     <g id="line2d_31">
      <path clip-path="url(#pfb3054c6e1)" d="M 898.942143 621.164167 
L 898.942143 449.299166 
" style="fill:none;stroke:#ffffff;stroke-linecap:round;stroke-width:0.8;"/>
     </g>
     <g id="text_31">
      <!-- 2003-04-01 -->
      <g style="fill:#262626;" transform="translate(865.696674 637.469323)scale(0.13 -0.13)">
       <use xlink:href="#ArialMT-50"/>
       <use x="55.615234" xlink:href="#ArialMT-48"/>
       <use x="111.230469" xlink:href="#ArialMT-48"/>
       <use x="166.845703" xlink:href="#ArialMT-51"/>
       <use x="222.460938" xlink:href="#ArialMT-45"/>
       <use x="255.761719" xlink:href="#ArialMT-48"/>
       <use x="311.376953" xlink:href="#ArialMT-52"/>
       <use x="366.992188" xlink:href="#ArialMT-45"/>
       <use x="400.292969" xlink:href="#ArialMT-48"/>
       <use x="455.908203" xlink:href="#ArialMT-49"/>
      </g>
     </g>
    </g>
    <g id="xtick_21">
     <g id="line2d_32">
      <path clip-path="url(#pfb3054c6e1)" d="M 1032.792143 621.164167 
L 1032.792143 449.299166 
" style="fill:none;stroke:#ffffff;stroke-linecap:round;stroke-width:0.8;"/>
     </g>
     <g id="text_32">
      <!-- 2003-04-15 -->
      <g style="fill:#262626;" transform="translate(999.546674 637.469323)scale(0.13 -0.13)">
       <use xlink:href="#ArialMT-50"/>
       <use x="55.615234" xlink:href="#ArialMT-48"/>
       <use x="111.230469" xlink:href="#ArialMT-48"/>
       <use x="166.845703" xlink:href="#ArialMT-51"/>
       <use x="222.460938" xlink:href="#ArialMT-45"/>
       <use x="255.761719" xlink:href="#ArialMT-48"/>
       <use x="311.376953" xlink:href="#ArialMT-52"/>
       <use x="366.992188" xlink:href="#ArialMT-45"/>
       <use x="400.292969" xlink:href="#ArialMT-49"/>
       <use x="455.908203" xlink:href="#ArialMT-53"/>
      </g>
     </g>
    </g>
   </g>
   <g id="matplotlib.axis_6">
    <g id="ytick_10">
     <g id="line2d_33">
      <path clip-path="url(#pfb3054c6e1)" d="M 67.16 580.852809 
L 1137.96 580.852809 
" style="fill:none;stroke:#ffffff;stroke-linecap:round;stroke-width:0.8;"/>
     </g>
     <g id="text_33">
      <!-- 5 -->
      <g style="fill:#262626;" transform="translate(45.337969 585.505387)scale(0.13 -0.13)">
       <defs>
        <path d="M 52.828125 31.203125 
L 5.5625 31.203125 
L 5.5625 39.40625 
L 52.828125 39.40625 
z
" id="ArialMT-8722"/>
       </defs>
       <use xlink:href="#ArialMT-8722"/>
       <use x="58.398438" xlink:href="#ArialMT-53"/>
      </g>
     </g>
    </g>
    <g id="ytick_11">
     <g id="line2d_34">
      <path clip-path="url(#pfb3054c6e1)" d="M 67.16 536.97214 
L 1137.96 536.97214 
" style="fill:none;stroke:#ffffff;stroke-linecap:round;stroke-width:0.8;"/>
     </g>
     <g id="text_34">
      <!-- 0 -->
      <g style="fill:#262626;" transform="translate(52.930781 541.624718)scale(0.13 -0.13)">
       <use xlink:href="#ArialMT-48"/>
      </g>
     </g>
    </g>
    <g id="ytick_12">
     <g id="line2d_35">
      <path clip-path="url(#pfb3054c6e1)" d="M 67.16 493.091471 
L 1137.96 493.091471 
" style="fill:none;stroke:#ffffff;stroke-linecap:round;stroke-width:0.8;"/>
     </g>
     <g id="text_35">
      <!-- 5 -->
      <g style="fill:#262626;" transform="translate(52.930781 497.744049)scale(0.13 -0.13)">
       <use xlink:href="#ArialMT-53"/>
      </g>
     </g>
    </g>
    <g id="text_36">
     <!-- Season -->
     <g style="fill:#262626;" transform="translate(38.754219 557.275807)rotate(-90)scale(0.13 -0.13)">
      <defs>
       <path d="M 4.5 23 
L 13.421875 23.78125 
Q 14.0625 18.40625 16.375 14.96875 
Q 18.703125 11.53125 23.578125 9.40625 
Q 28.46875 7.28125 34.578125 7.28125 
Q 39.984375 7.28125 44.140625 8.890625 
Q 48.296875 10.5 50.3125 13.296875 
Q 52.34375 16.109375 52.34375 19.4375 
Q 52.34375 22.796875 50.390625 25.3125 
Q 48.4375 27.828125 43.953125 29.546875 
Q 41.0625 30.671875 31.203125 33.03125 
Q 21.34375 35.40625 17.390625 37.5 
Q 12.25 40.1875 9.734375 44.15625 
Q 7.234375 48.140625 7.234375 53.078125 
Q 7.234375 58.5 10.296875 63.203125 
Q 13.375 67.921875 19.28125 70.359375 
Q 25.203125 72.796875 32.421875 72.796875 
Q 40.375 72.796875 46.453125 70.234375 
Q 52.546875 67.671875 55.8125 62.6875 
Q 59.078125 57.71875 59.328125 51.421875 
L 50.25 50.734375 
Q 49.515625 57.515625 45.28125 60.984375 
Q 41.0625 64.453125 32.8125 64.453125 
Q 24.21875 64.453125 20.28125 61.296875 
Q 16.359375 58.15625 16.359375 53.71875 
Q 16.359375 49.859375 19.140625 47.359375 
Q 21.875 44.875 33.421875 42.265625 
Q 44.96875 39.65625 49.265625 37.703125 
Q 55.515625 34.8125 58.484375 30.390625 
Q 61.46875 25.984375 61.46875 20.21875 
Q 61.46875 14.5 58.203125 9.4375 
Q 54.9375 4.390625 48.796875 1.578125 
Q 42.671875 -1.21875 35.015625 -1.21875 
Q 25.296875 -1.21875 18.71875 1.609375 
Q 12.15625 4.4375 8.421875 10.125 
Q 4.6875 15.828125 4.5 23 
z
" id="ArialMT-83"/>
      </defs>
      <use xlink:href="#ArialMT-83"/>
      <use x="66.699219" xlink:href="#ArialMT-101"/>
      <use x="122.314453" xlink:href="#ArialMT-97"/>
      <use x="177.929688" xlink:href="#ArialMT-115"/>
      <use x="227.929688" xlink:href="#ArialMT-111"/>
      <use x="283.544922" xlink:href="#ArialMT-110"/>
     </g>
    </g>
   </g>
   <g id="line2d_36">
    <path clip-path="url(#pfb3054c6e1)" d="M 67.16 481.593402 
L 76.720714 550.259793 
L 86.281429 585.576849 
L 95.842143 586.784879 
L 105.402857 561.816483 
L 114.963571 522.278211 
L 124.524286 474.526792 
L 134.085 488.369361 
L 143.645714 548.293353 
L 153.206429 578.677937 
L 162.767143 579.745649 
L 172.327857 558.437663 
L 181.888571 524.786705 
L 191.449286 484.302312 
L 201.01 494.479201 
L 210.570714 546.328327 
L 220.131429 572.296406 
L 229.692143 573.30546 
L 239.252857 555.402371 
L 248.813571 527.208736 
L 258.374286 493.470061 
L 267.935 499.953409 
L 277.495714 544.270412 
L 287.056429 566.301124 
L 296.617143 567.366306 
L 306.177857 552.69794 
L 315.738571 529.627858 
L 325.299286 502.220299 
L 334.86 504.833151 
L 344.420714 542.032988 
L 353.981429 560.502292 
L 363.542143 561.706254 
L 373.102857 550.162347 
L 382.663571 532.056598 
L 392.224286 510.878248 
L 401.785 509.718536 
L 411.345714 539.968274 
L 420.906429 554.941195 
L 430.467143 556.225478 
L 440.027857 547.642864 
L 449.588571 534.272693 
L 459.149286 519.052349 
L 468.71 514.413781 
L 478.270714 537.928737 
L 487.831429 549.397051 
L 497.392143 550.579586 
L 506.952857 544.731597 
L 516.513571 536.002595 
L 526.074286 526.898356 
L 535.635 520.725327 
L 545.195714 537.226612 
L 554.756429 544.05972 
L 564.317143 544.275589 
L 573.877857 540.650441 
L 583.438571 536.534797 
L 592.999286 534.061223 
L 602.56 531.483209 
L 612.120714 538.050842 
L 621.681429 543.319111 
L 631.242143 541.965112 
L 640.802857 537.11697 
L 650.363571 532.921251 
L 659.924286 532.180264 
L 669.485 526.33081 
L 679.045714 543.368188 
L 688.606429 550.714415 
L 698.167143 546.567957 
L 707.727857 535.822984 
L 717.288571 525.873457 
L 726.849286 521.957842 
L 736.41 520.495201 
L 745.970714 551.721758 
L 755.531429 560.303446 
L 765.092143 552.399828 
L 774.652857 534.862523 
L 784.213571 518.663387 
L 793.774286 511.713453 
L 803.335 514.571651 
L 812.895714 561.155741 
L 822.456429 570.274069 
L 832.017143 558.119475 
L 841.577857 533.52354 
L 851.138571 511.091979 
L 860.699286 501.432246 
L 870.26 508.607866 
L 879.820714 571.087087 
L 889.381429 580.522281 
L 898.942143 563.932744 
L 908.502857 532.122231 
L 918.063571 503.330166 
L 927.624286 490.849801 
L 937.185 501.981691 
L 946.745714 580.932962 
L 956.306429 591.008586 
L 965.867143 570.038464 
L 975.427857 530.881294 
L 984.988571 495.541041 
L 994.549286 480.097557 
L 1004.11 494.856806 
L 1013.670714 590.835816 
L 1023.231429 601.943037 
L 1032.792143 576.621686 
L 1042.352857 529.862335 
L 1051.913571 487.583168 
L 1061.474286 468.76865 
L 1071.035 486.664935 
L 1080.595714 600.602077 
L 1090.156429 613.352121 
L 1099.717143 583.684607 
L 1109.277857 528.947173 
L 1118.838571 479.362774 
L 1128.399286 457.111212 
L 1137.96 478.117987 
" style="fill:none;stroke:#1f77b4;stroke-linecap:round;stroke-width:1.5;"/>
   </g>
   <g id="patch_13">
    <path d="M 67.16 621.164167 
L 67.16 449.299166 
" style="fill:none;stroke:#ffffff;stroke-linecap:square;stroke-linejoin:miter;stroke-width:0.8;"/>
   </g>
   <g id="patch_14">
    <path d="M 1137.96 621.164167 
L 1137.96 449.299166 
" style="fill:none;stroke:#ffffff;stroke-linecap:square;stroke-linejoin:miter;stroke-width:0.8;"/>
   </g>
   <g id="patch_15">
    <path d="M 67.16 621.164167 
L 1137.96 621.164167 
" style="fill:none;stroke:#ffffff;stroke-linecap:square;stroke-linejoin:miter;stroke-width:0.8;"/>
   </g>
   <g id="patch_16">
    <path d="M 67.16 449.299166 
L 1137.96 449.299166 
" style="fill:none;stroke:#ffffff;stroke-linecap:square;stroke-linejoin:miter;stroke-width:0.8;"/>
   </g>
  </g>
  <g id="axes_4">
   <g id="patch_17">
    <path d="M 67.16 830 
L 1137.96 830 
L 1137.96 658.134999 
L 67.16 658.134999 
z
" style="fill:#eaeaf2;"/>
   </g>
   <g id="line2d_37">
    <path clip-path="url(#p8d4372a68f)" d="M 67.16 750.230236 
L 1137.96 750.230236 
" style="fill:none;stroke:#000000;stroke-linecap:round;stroke-width:1.5;"/>
   </g>
   <g id="matplotlib.axis_7">
    <g id="xtick_22">
     <g id="line2d_38">
      <path clip-path="url(#p8d4372a68f)" d="M 172.327857 830 
L 172.327857 658.134999 
" style="fill:none;stroke:#ffffff;stroke-linecap:round;stroke-width:0.8;"/>
     </g>
     <g id="text_37">
      <!-- 2003-01-15 -->
      <g style="fill:#262626;" transform="translate(139.082388 846.305156)scale(0.13 -0.13)">
       <use xlink:href="#ArialMT-50"/>
       <use x="55.615234" xlink:href="#ArialMT-48"/>
       <use x="111.230469" xlink:href="#ArialMT-48"/>
       <use x="166.845703" xlink:href="#ArialMT-51"/>
       <use x="222.460938" xlink:href="#ArialMT-45"/>
       <use x="255.761719" xlink:href="#ArialMT-48"/>
       <use x="311.376953" xlink:href="#ArialMT-49"/>
       <use x="366.992188" xlink:href="#ArialMT-45"/>
       <use x="400.292969" xlink:href="#ArialMT-49"/>
       <use x="455.908203" xlink:href="#ArialMT-53"/>
      </g>
     </g>
    </g>
    <g id="xtick_23">
     <g id="line2d_39">
      <path clip-path="url(#p8d4372a68f)" d="M 334.86 830 
L 334.86 658.134999 
" style="fill:none;stroke:#ffffff;stroke-linecap:round;stroke-width:0.8;"/>
     </g>
     <g id="text_38">
      <!-- 2003-02-01 -->
      <g style="fill:#262626;" transform="translate(301.614531 846.305156)scale(0.13 -0.13)">
       <use xlink:href="#ArialMT-50"/>
       <use x="55.615234" xlink:href="#ArialMT-48"/>
       <use x="111.230469" xlink:href="#ArialMT-48"/>
       <use x="166.845703" xlink:href="#ArialMT-51"/>
       <use x="222.460938" xlink:href="#ArialMT-45"/>
       <use x="255.761719" xlink:href="#ArialMT-48"/>
       <use x="311.376953" xlink:href="#ArialMT-50"/>
       <use x="366.992188" xlink:href="#ArialMT-45"/>
       <use x="400.292969" xlink:href="#ArialMT-48"/>
       <use x="455.908203" xlink:href="#ArialMT-49"/>
      </g>
     </g>
    </g>
    <g id="xtick_24">
     <g id="line2d_40">
      <path clip-path="url(#p8d4372a68f)" d="M 468.71 830 
L 468.71 658.134999 
" style="fill:none;stroke:#ffffff;stroke-linecap:round;stroke-width:0.8;"/>
     </g>
     <g id="text_39">
      <!-- 2003-02-15 -->
      <g style="fill:#262626;" transform="translate(435.464531 846.305156)scale(0.13 -0.13)">
       <use xlink:href="#ArialMT-50"/>
       <use x="55.615234" xlink:href="#ArialMT-48"/>
       <use x="111.230469" xlink:href="#ArialMT-48"/>
       <use x="166.845703" xlink:href="#ArialMT-51"/>
       <use x="222.460938" xlink:href="#ArialMT-45"/>
       <use x="255.761719" xlink:href="#ArialMT-48"/>
       <use x="311.376953" xlink:href="#ArialMT-50"/>
       <use x="366.992188" xlink:href="#ArialMT-45"/>
       <use x="400.292969" xlink:href="#ArialMT-49"/>
       <use x="455.908203" xlink:href="#ArialMT-53"/>
      </g>
     </g>
    </g>
    <g id="xtick_25">
     <g id="line2d_41">
      <path clip-path="url(#p8d4372a68f)" d="M 602.56 830 
L 602.56 658.134999 
" style="fill:none;stroke:#ffffff;stroke-linecap:round;stroke-width:0.8;"/>
     </g>
     <g id="text_40">
      <!-- 2003-03-01 -->
      <g style="fill:#262626;" transform="translate(569.314531 846.305156)scale(0.13 -0.13)">
       <use xlink:href="#ArialMT-50"/>
       <use x="55.615234" xlink:href="#ArialMT-48"/>
       <use x="111.230469" xlink:href="#ArialMT-48"/>
       <use x="166.845703" xlink:href="#ArialMT-51"/>
       <use x="222.460938" xlink:href="#ArialMT-45"/>
       <use x="255.761719" xlink:href="#ArialMT-48"/>
       <use x="311.376953" xlink:href="#ArialMT-51"/>
       <use x="366.992188" xlink:href="#ArialMT-45"/>
       <use x="400.292969" xlink:href="#ArialMT-48"/>
       <use x="455.908203" xlink:href="#ArialMT-49"/>
      </g>
     </g>
    </g>
    <g id="xtick_26">
     <g id="line2d_42">
      <path clip-path="url(#p8d4372a68f)" d="M 736.41 830 
L 736.41 658.134999 
" style="fill:none;stroke:#ffffff;stroke-linecap:round;stroke-width:0.8;"/>
     </g>
     <g id="text_41">
      <!-- 2003-03-15 -->
      <g style="fill:#262626;" transform="translate(703.164531 846.305156)scale(0.13 -0.13)">
       <use xlink:href="#ArialMT-50"/>
       <use x="55.615234" xlink:href="#ArialMT-48"/>
       <use x="111.230469" xlink:href="#ArialMT-48"/>
       <use x="166.845703" xlink:href="#ArialMT-51"/>
       <use x="222.460938" xlink:href="#ArialMT-45"/>
       <use x="255.761719" xlink:href="#ArialMT-48"/>
       <use x="311.376953" xlink:href="#ArialMT-51"/>
       <use x="366.992188" xlink:href="#ArialMT-45"/>
       <use x="400.292969" xlink:href="#ArialMT-49"/>
       <use x="455.908203" xlink:href="#ArialMT-53"/>
      </g>
     </g>
    </g>
    <g id="xtick_27">
     <g id="line2d_43">
      <path clip-path="url(#p8d4372a68f)" d="M 898.942143 830 
L 898.942143 658.134999 
" style="fill:none;stroke:#ffffff;stroke-linecap:round;stroke-width:0.8;"/>
     </g>
     <g id="text_42">
      <!-- 2003-04-01 -->
      <g style="fill:#262626;" transform="translate(865.696674 846.305156)scale(0.13 -0.13)">
       <use xlink:href="#ArialMT-50"/>
       <use x="55.615234" xlink:href="#ArialMT-48"/>
       <use x="111.230469" xlink:href="#ArialMT-48"/>
       <use x="166.845703" xlink:href="#ArialMT-51"/>
       <use x="222.460938" xlink:href="#ArialMT-45"/>
       <use x="255.761719" xlink:href="#ArialMT-48"/>
       <use x="311.376953" xlink:href="#ArialMT-52"/>
       <use x="366.992188" xlink:href="#ArialMT-45"/>
       <use x="400.292969" xlink:href="#ArialMT-48"/>
       <use x="455.908203" xlink:href="#ArialMT-49"/>
      </g>
     </g>
    </g>
    <g id="xtick_28">
     <g id="line2d_44">
      <path clip-path="url(#p8d4372a68f)" d="M 1032.792143 830 
L 1032.792143 658.134999 
" style="fill:none;stroke:#ffffff;stroke-linecap:round;stroke-width:0.8;"/>
     </g>
     <g id="text_43">
      <!-- 2003-04-15 -->
      <g style="fill:#262626;" transform="translate(999.546674 846.305156)scale(0.13 -0.13)">
       <use xlink:href="#ArialMT-50"/>
       <use x="55.615234" xlink:href="#ArialMT-48"/>
       <use x="111.230469" xlink:href="#ArialMT-48"/>
       <use x="166.845703" xlink:href="#ArialMT-51"/>
       <use x="222.460938" xlink:href="#ArialMT-45"/>
       <use x="255.761719" xlink:href="#ArialMT-48"/>
       <use x="311.376953" xlink:href="#ArialMT-52"/>
       <use x="366.992188" xlink:href="#ArialMT-45"/>
       <use x="400.292969" xlink:href="#ArialMT-49"/>
       <use x="455.908203" xlink:href="#ArialMT-53"/>
      </g>
     </g>
    </g>
   </g>
   <g id="matplotlib.axis_8">
    <g id="ytick_13">
     <g id="line2d_45">
      <path clip-path="url(#p8d4372a68f)" d="M 67.16 795.048416 
L 1137.96 795.048416 
" style="fill:none;stroke:#ffffff;stroke-linecap:round;stroke-width:0.8;"/>
     </g>
     <g id="text_44">
      <!-- 200 -->
      <g style="fill:#262626;" transform="translate(30.879531 799.700994)scale(0.13 -0.13)">
       <use xlink:href="#ArialMT-8722"/>
       <use x="58.398438" xlink:href="#ArialMT-50"/>
       <use x="114.013672" xlink:href="#ArialMT-48"/>
       <use x="169.628906" xlink:href="#ArialMT-48"/>
      </g>
     </g>
    </g>
    <g id="ytick_14">
     <g id="line2d_46">
      <path clip-path="url(#p8d4372a68f)" d="M 67.16 750.230236 
L 1137.96 750.230236 
" style="fill:none;stroke:#ffffff;stroke-linecap:round;stroke-width:0.8;"/>
     </g>
     <g id="text_45">
      <!-- 0 -->
      <g style="fill:#262626;" transform="translate(52.930781 754.882814)scale(0.13 -0.13)">
       <use xlink:href="#ArialMT-48"/>
      </g>
     </g>
    </g>
    <g id="ytick_15">
     <g id="line2d_47">
      <path clip-path="url(#p8d4372a68f)" d="M 67.16 705.412055 
L 1137.96 705.412055 
" style="fill:none;stroke:#ffffff;stroke-linecap:round;stroke-width:0.8;"/>
     </g>
     <g id="text_46">
      <!-- 200 -->
      <g style="fill:#262626;" transform="translate(38.472344 710.064633)scale(0.13 -0.13)">
       <use xlink:href="#ArialMT-50"/>
       <use x="55.615234" xlink:href="#ArialMT-48"/>
       <use x="111.230469" xlink:href="#ArialMT-48"/>
      </g>
     </g>
    </g>
    <g id="ytick_16">
     <g id="line2d_48">
      <path clip-path="url(#p8d4372a68f)" d="M 67.16 660.593874 
L 1137.96 660.593874 
" style="fill:none;stroke:#ffffff;stroke-linecap:round;stroke-width:0.8;"/>
     </g>
     <g id="text_47">
      <!-- 400 -->
      <g style="fill:#262626;" transform="translate(38.472344 665.246453)scale(0.13 -0.13)">
       <use xlink:href="#ArialMT-52"/>
       <use x="55.615234" xlink:href="#ArialMT-48"/>
       <use x="111.230469" xlink:href="#ArialMT-48"/>
      </g>
     </g>
    </g>
    <g id="text_48">
     <!-- Resid -->
     <g style="fill:#262626;" transform="translate(24.295781 760.685156)rotate(-90)scale(0.13 -0.13)">
      <defs>
       <path d="M 7.859375 0 
L 7.859375 71.578125 
L 39.59375 71.578125 
Q 49.171875 71.578125 54.140625 69.640625 
Q 59.125 67.71875 62.109375 62.828125 
Q 65.09375 57.953125 65.09375 52.046875 
Q 65.09375 44.4375 60.15625 39.203125 
Q 55.21875 33.984375 44.921875 32.5625 
Q 48.6875 30.765625 50.640625 29 
Q 54.78125 25.203125 58.5 19.484375 
L 70.953125 0 
L 59.03125 0 
L 49.5625 14.890625 
Q 45.40625 21.34375 42.71875 24.75 
Q 40.046875 28.171875 37.921875 29.53125 
Q 35.796875 30.90625 33.59375 31.453125 
Q 31.984375 31.78125 28.328125 31.78125 
L 17.328125 31.78125 
L 17.328125 0 
z
M 17.328125 39.984375 
L 37.703125 39.984375 
Q 44.1875 39.984375 47.84375 41.328125 
Q 51.515625 42.671875 53.421875 45.625 
Q 55.328125 48.578125 55.328125 52.046875 
Q 55.328125 57.125 51.640625 60.390625 
Q 47.953125 63.671875 39.984375 63.671875 
L 17.328125 63.671875 
z
" id="ArialMT-82"/>
      </defs>
      <use xlink:href="#ArialMT-82"/>
      <use x="72.216797" xlink:href="#ArialMT-101"/>
      <use x="127.832031" xlink:href="#ArialMT-115"/>
      <use x="177.832031" xlink:href="#ArialMT-105"/>
      <use x="200.048828" xlink:href="#ArialMT-100"/>
     </g>
    </g>
   </g>
   <g id="line2d_49">
    <defs>
     <path d="M 0 3 
C 0.795609 3 1.55874 2.683901 2.12132 2.12132 
C 2.683901 1.55874 3 0.795609 3 0 
C 3 -0.795609 2.683901 -1.55874 2.12132 -2.12132 
C 1.55874 -2.683901 0.795609 -3 0 -3 
C -0.795609 -3 -1.55874 -2.683901 -2.12132 -2.12132 
C -2.683901 -1.55874 -3 -0.795609 -3 0 
C -3 0.795609 -2.683901 1.55874 -2.12132 2.12132 
C -1.55874 2.683901 -0.795609 3 0 3 
z
" id="mf7a6b20e46" style="stroke:#1f77b4;"/>
    </defs>
    <g clip-path="url(#p8d4372a68f)">
     <use style="fill:#1f77b4;stroke:#1f77b4;" x="67.16" xlink:href="#mf7a6b20e46" y="758.636449"/>
     <use style="fill:#1f77b4;stroke:#1f77b4;" x="76.720714" xlink:href="#mf7a6b20e46" y="754.421841"/>
     <use style="fill:#1f77b4;stroke:#1f77b4;" x="86.281429" xlink:href="#mf7a6b20e46" y="750.677248"/>
     <use style="fill:#1f77b4;stroke:#1f77b4;" x="95.842143" xlink:href="#mf7a6b20e46" y="747.389572"/>
     <use style="fill:#1f77b4;stroke:#1f77b4;" x="105.402857" xlink:href="#mf7a6b20e46" y="744.344605"/>
     <use style="fill:#1f77b4;stroke:#1f77b4;" x="114.963571" xlink:href="#mf7a6b20e46" y="741.29459"/>
     <use style="fill:#1f77b4;stroke:#1f77b4;" x="124.524286" xlink:href="#mf7a6b20e46" y="737.769915"/>
     <use style="fill:#1f77b4;stroke:#1f77b4;" x="134.085" xlink:href="#mf7a6b20e46" y="725.709797"/>
     <use style="fill:#1f77b4;stroke:#1f77b4;" x="143.645714" xlink:href="#mf7a6b20e46" y="735.858805"/>
     <use style="fill:#1f77b4;stroke:#1f77b4;" x="153.206429" xlink:href="#mf7a6b20e46" y="742.893921"/>
     <use style="fill:#1f77b4;stroke:#1f77b4;" x="162.767143" xlink:href="#mf7a6b20e46" y="747.284379"/>
     <use style="fill:#1f77b4;stroke:#1f77b4;" x="172.327857" xlink:href="#mf7a6b20e46" y="750.116815"/>
     <use style="fill:#1f77b4;stroke:#1f77b4;" x="181.888571" xlink:href="#mf7a6b20e46" y="752.833048"/>
     <use style="fill:#1f77b4;stroke:#1f77b4;" x="191.449286" xlink:href="#mf7a6b20e46" y="756.680527"/>
     <use style="fill:#1f77b4;stroke:#1f77b4;" x="201.01" xlink:href="#mf7a6b20e46" y="760.6369"/>
     <use style="fill:#1f77b4;stroke:#1f77b4;" x="210.570714" xlink:href="#mf7a6b20e46" y="755.071881"/>
     <use style="fill:#1f77b4;stroke:#1f77b4;" x="220.131429" xlink:href="#mf7a6b20e46" y="751.581926"/>
     <use style="fill:#1f77b4;stroke:#1f77b4;" x="229.692143" xlink:href="#mf7a6b20e46" y="749.660419"/>
     <use style="fill:#1f77b4;stroke:#1f77b4;" x="239.252857" xlink:href="#mf7a6b20e46" y="747.548946"/>
     <use style="fill:#1f77b4;stroke:#1f77b4;" x="248.813571" xlink:href="#mf7a6b20e46" y="743.041961"/>
     <use style="fill:#1f77b4;stroke:#1f77b4;" x="258.374286" xlink:href="#mf7a6b20e46" y="734.577794"/>
     <use style="fill:#1f77b4;stroke:#1f77b4;" x="267.935" xlink:href="#mf7a6b20e46" y="720.461492"/>
     <use style="fill:#1f77b4;stroke:#1f77b4;" x="277.495714" xlink:href="#mf7a6b20e46" y="733.258163"/>
     <use style="fill:#1f77b4;stroke:#1f77b4;" x="287.056429" xlink:href="#mf7a6b20e46" y="742.010154"/>
     <use style="fill:#1f77b4;stroke:#1f77b4;" x="296.617143" xlink:href="#mf7a6b20e46" y="747.777692"/>
     <use style="fill:#1f77b4;stroke:#1f77b4;" x="306.177857" xlink:href="#mf7a6b20e46" y="753.879044"/>
     <use style="fill:#1f77b4;stroke:#1f77b4;" x="315.738571" xlink:href="#mf7a6b20e46" y="764.446814"/>
     <use style="fill:#1f77b4;stroke:#1f77b4;" x="325.299286" xlink:href="#mf7a6b20e46" y="782.619707"/>
     <use style="fill:#1f77b4;stroke:#1f77b4;" x="334.86" xlink:href="#mf7a6b20e46" y="808.70756"/>
     <use style="fill:#1f77b4;stroke:#1f77b4;" x="344.420714" xlink:href="#mf7a6b20e46" y="781.582026"/>
     <use style="fill:#1f77b4;stroke:#1f77b4;" x="353.981429" xlink:href="#mf7a6b20e46" y="763.627971"/>
     <use style="fill:#1f77b4;stroke:#1f77b4;" x="363.542143" xlink:href="#mf7a6b20e46" y="753.102359"/>
     <use style="fill:#1f77b4;stroke:#1f77b4;" x="373.102857" xlink:href="#mf7a6b20e46" y="744.694527"/>
     <use style="fill:#1f77b4;stroke:#1f77b4;" x="382.663571" xlink:href="#mf7a6b20e46" y="731.61087"/>
     <use style="fill:#1f77b4;stroke:#1f77b4;" x="392.224286" xlink:href="#mf7a6b20e46" y="708.718404"/>
     <use style="fill:#1f77b4;stroke:#1f77b4;" x="401.785" xlink:href="#mf7a6b20e46" y="673.684318"/>
     <use style="fill:#1f77b4;stroke:#1f77b4;" x="411.345714" xlink:href="#mf7a6b20e46" y="707.955114"/>
     <use style="fill:#1f77b4;stroke:#1f77b4;" x="420.906429" xlink:href="#mf7a6b20e46" y="730.997905"/>
     <use style="fill:#1f77b4;stroke:#1f77b4;" x="430.467143" xlink:href="#mf7a6b20e46" y="744.340889"/>
     <use style="fill:#1f77b4;stroke:#1f77b4;" x="440.027857" xlink:href="#mf7a6b20e46" y="752.246507"/>
     <use style="fill:#1f77b4;stroke:#1f77b4;" x="449.588571" xlink:href="#mf7a6b20e46" y="760.400415"/>
     <use style="fill:#1f77b4;stroke:#1f77b4;" x="459.149286" xlink:href="#mf7a6b20e46" y="773.364549"/>
     <use style="fill:#1f77b4;stroke:#1f77b4;" x="468.71" xlink:href="#mf7a6b20e46" y="792.307122"/>
     <use style="fill:#1f77b4;stroke:#1f77b4;" x="478.270714" xlink:href="#mf7a6b20e46" y="772.860441"/>
     <use style="fill:#1f77b4;stroke:#1f77b4;" x="487.831429" xlink:href="#mf7a6b20e46" y="759.984143"/>
     <use style="fill:#1f77b4;stroke:#1f77b4;" x="497.392143" xlink:href="#mf7a6b20e46" y="753.854771"/>
     <use style="fill:#1f77b4;stroke:#1f77b4;" x="506.952857" xlink:href="#mf7a6b20e46" y="755.959926"/>
     <use style="fill:#1f77b4;stroke:#1f77b4;" x="516.513571" xlink:href="#mf7a6b20e46" y="767.655774"/>
     <use style="fill:#1f77b4;stroke:#1f77b4;" x="526.074286" xlink:href="#mf7a6b20e46" y="789.574598"/>
     <use style="fill:#1f77b4;stroke:#1f77b4;" x="535.635" xlink:href="#mf7a6b20e46" y="822.187955"/>
     <use style="fill:#1f77b4;stroke:#1f77b4;" x="545.195714" xlink:href="#mf7a6b20e46" y="789.284125"/>
     <use style="fill:#1f77b4;stroke:#1f77b4;" x="554.756429" xlink:href="#mf7a6b20e46" y="767.415281"/>
     <use style="fill:#1f77b4;stroke:#1f77b4;" x="564.317143" xlink:href="#mf7a6b20e46" y="754.518814"/>
     <use style="fill:#1f77b4;stroke:#1f77b4;" x="573.877857" xlink:href="#mf7a6b20e46" y="744.550734"/>
     <use style="fill:#1f77b4;stroke:#1f77b4;" x="583.438571" xlink:href="#mf7a6b20e46" y="729.757889"/>
     <use style="fill:#1f77b4;stroke:#1f77b4;" x="592.999286" xlink:href="#mf7a6b20e46" y="704.212944"/>
     <use style="fill:#1f77b4;stroke:#1f77b4;" x="602.56" xlink:href="#mf7a6b20e46" y="665.947045"/>
     <use style="fill:#1f77b4;stroke:#1f77b4;" x="612.120714" xlink:href="#mf7a6b20e46" y="704.09184"/>
     <use style="fill:#1f77b4;stroke:#1f77b4;" x="621.681429" xlink:href="#mf7a6b20e46" y="729.55409"/>
     <use style="fill:#1f77b4;stroke:#1f77b4;" x="631.242143" xlink:href="#mf7a6b20e46" y="743.379537"/>
     <use style="fill:#1f77b4;stroke:#1f77b4;" x="640.802857" xlink:href="#mf7a6b20e46" y="747.300636"/>
     <use style="fill:#1f77b4;stroke:#1f77b4;" x="650.363571" xlink:href="#mf7a6b20e46" y="744.1001"/>
     <use style="fill:#1f77b4;stroke:#1f77b4;" x="659.924286" xlink:href="#mf7a6b20e46" y="736.352705"/>
     <use style="fill:#1f77b4;stroke:#1f77b4;" x="669.485" xlink:href="#mf7a6b20e46" y="724.86468"/>
     <use style="fill:#1f77b4;stroke:#1f77b4;" x="679.045714" xlink:href="#mf7a6b20e46" y="736.070828"/>
     <use style="fill:#1f77b4;stroke:#1f77b4;" x="688.606429" xlink:href="#mf7a6b20e46" y="743.646293"/>
     <use style="fill:#1f77b4;stroke:#1f77b4;" x="698.167143" xlink:href="#mf7a6b20e46" y="748.427854"/>
     <use style="fill:#1f77b4;stroke:#1f77b4;" x="707.727857" xlink:href="#mf7a6b20e46" y="752.70927"/>
     <use style="fill:#1f77b4;stroke:#1f77b4;" x="717.288571" xlink:href="#mf7a6b20e46" y="759.354609"/>
     <use style="fill:#1f77b4;stroke:#1f77b4;" x="726.849286" xlink:href="#mf7a6b20e46" y="770.526907"/>
     <use style="fill:#1f77b4;stroke:#1f77b4;" x="736.41" xlink:href="#mf7a6b20e46" y="787.115105"/>
     <use style="fill:#1f77b4;stroke:#1f77b4;" x="745.970714" xlink:href="#mf7a6b20e46" y="769.776464"/>
     <use style="fill:#1f77b4;stroke:#1f77b4;" x="755.531429" xlink:href="#mf7a6b20e46" y="758.486937"/>
     <use style="fill:#1f77b4;stroke:#1f77b4;" x="765.092143" xlink:href="#mf7a6b20e46" y="753.025097"/>
     <use style="fill:#1f77b4;stroke:#1f77b4;" x="774.652857" xlink:href="#mf7a6b20e46" y="753.621761"/>
     <use style="fill:#1f77b4;stroke:#1f77b4;" x="784.213571" xlink:href="#mf7a6b20e46" y="760.113709"/>
     <use style="fill:#1f77b4;stroke:#1f77b4;" x="793.774286" xlink:href="#mf7a6b20e46" y="772.077755"/>
     <use style="fill:#1f77b4;stroke:#1f77b4;" x="803.335" xlink:href="#mf7a6b20e46" y="789.623731"/>
     <use style="fill:#1f77b4;stroke:#1f77b4;" x="812.895714" xlink:href="#mf7a6b20e46" y="770.823137"/>
     <use style="fill:#1f77b4;stroke:#1f77b4;" x="822.456429" xlink:href="#mf7a6b20e46" y="758.804043"/>
     <use style="fill:#1f77b4;stroke:#1f77b4;" x="832.017143" xlink:href="#mf7a6b20e46" y="752.015636"/>
     <use style="fill:#1f77b4;stroke:#1f77b4;" x="841.577857" xlink:href="#mf7a6b20e46" y="746.750603"/>
     <use style="fill:#1f77b4;stroke:#1f77b4;" x="851.138571" xlink:href="#mf7a6b20e46" y="738.158633"/>
     <use style="fill:#1f77b4;stroke:#1f77b4;" x="860.699286" xlink:href="#mf7a6b20e46" y="722.541705"/>
     <use style="fill:#1f77b4;stroke:#1f77b4;" x="870.26" xlink:href="#mf7a6b20e46" y="698.598238"/>
     <use style="fill:#1f77b4;stroke:#1f77b4;" x="879.820714" xlink:href="#mf7a6b20e46" y="720.770165"/>
     <use style="fill:#1f77b4;stroke:#1f77b4;" x="889.381429" xlink:href="#mf7a6b20e46" y="736.39122"/>
     <use style="fill:#1f77b4;stroke:#1f77b4;" x="898.942143" xlink:href="#mf7a6b20e46" y="746.160888"/>
     <use style="fill:#1f77b4;stroke:#1f77b4;" x="908.502857" xlink:href="#mf7a6b20e46" y="753.925115"/>
     <use style="fill:#1f77b4;stroke:#1f77b4;" x="918.063571" xlink:href="#mf7a6b20e46" y="764.492629"/>
     <use style="fill:#1f77b4;stroke:#1f77b4;" x="927.624286" xlink:href="#mf7a6b20e46" y="781.568127"/>
     <use style="fill:#1f77b4;stroke:#1f77b4;" x="937.185" xlink:href="#mf7a6b20e46" y="806.342371"/>
     <use style="fill:#1f77b4;stroke:#1f77b4;" x="946.745714" xlink:href="#mf7a6b20e46" y="779.275022"/>
     <use style="fill:#1f77b4;stroke:#1f77b4;" x="956.306429" xlink:href="#mf7a6b20e46" y="762.257481"/>
     <use style="fill:#1f77b4;stroke:#1f77b4;" x="965.867143" xlink:href="#mf7a6b20e46" y="752.671508"/>
     <use style="fill:#1f77b4;stroke:#1f77b4;" x="975.427857" xlink:href="#mf7a6b20e46" y="745.11972"/>
     <use style="fill:#1f77b4;stroke:#1f77b4;" x="984.988571" xlink:href="#mf7a6b20e46" y="732.536037"/>
     <use style="fill:#1f77b4;stroke:#1f77b4;" x="994.549286" xlink:href="#mf7a6b20e46" y="709.548905"/>
     <use style="fill:#1f77b4;stroke:#1f77b4;" x="1004.11" xlink:href="#mf7a6b20e46" y="674.162995"/>
     <use style="fill:#1f77b4;stroke:#1f77b4;" x="1013.670714" xlink:href="#mf7a6b20e46" y="706.728912"/>
     <use style="fill:#1f77b4;stroke:#1f77b4;" x="1023.231429" xlink:href="#mf7a6b20e46" y="729.821504"/>
     <use style="fill:#1f77b4;stroke:#1f77b4;" x="1032.792143" xlink:href="#mf7a6b20e46" y="743.956539"/>
     <use style="fill:#1f77b4;stroke:#1f77b4;" x="1042.352857" xlink:href="#mf7a6b20e46" y="753.759018"/>
     <use style="fill:#1f77b4;stroke:#1f77b4;" x="1051.913571" xlink:href="#mf7a6b20e46" y="765.093089"/>
     <use style="fill:#1f77b4;stroke:#1f77b4;" x="1061.474286" xlink:href="#mf7a6b20e46" y="782.576649"/>
     <use style="fill:#1f77b4;stroke:#1f77b4;" x="1071.035" xlink:href="#mf7a6b20e46" y="807.548524"/>
     <use style="fill:#1f77b4;stroke:#1f77b4;" x="1080.595714" xlink:href="#mf7a6b20e46" y="779.218133"/>
     <use style="fill:#1f77b4;stroke:#1f77b4;" x="1090.156429" xlink:href="#mf7a6b20e46" y="768.531931"/>
     <use style="fill:#1f77b4;stroke:#1f77b4;" x="1099.717143" xlink:href="#mf7a6b20e46" y="760.253107"/>
     <use style="fill:#1f77b4;stroke:#1f77b4;" x="1109.277857" xlink:href="#mf7a6b20e46" y="753.463561"/>
     <use style="fill:#1f77b4;stroke:#1f77b4;" x="1118.838571" xlink:href="#mf7a6b20e46" y="747.484098"/>
     <use style="fill:#1f77b4;stroke:#1f77b4;" x="1128.399286" xlink:href="#mf7a6b20e46" y="741.688242"/>
     <use style="fill:#1f77b4;stroke:#1f77b4;" x="1137.96" xlink:href="#mf7a6b20e46" y="735.565123"/>
    </g>
   </g>
   <g id="patch_18">
    <path d="M 67.16 830 
L 67.16 658.134999 
" style="fill:none;stroke:#ffffff;stroke-linecap:square;stroke-linejoin:miter;stroke-width:0.8;"/>
   </g>
   <g id="patch_19">
    <path d="M 1137.96 830 
L 1137.96 658.134999 
" style="fill:none;stroke:#ffffff;stroke-linecap:square;stroke-linejoin:miter;stroke-width:0.8;"/>
   </g>
   <g id="patch_20">
    <path d="M 67.16 830 
L 1137.96 830 
" style="fill:none;stroke:#ffffff;stroke-linecap:square;stroke-linejoin:miter;stroke-width:0.8;"/>
   </g>
   <g id="patch_21">
    <path d="M 67.16 658.134999 
L 1137.96 658.134999 
" style="fill:none;stroke:#ffffff;stroke-linecap:square;stroke-linejoin:miter;stroke-width:0.8;"/>
   </g>
  </g>
 </g>
 <defs>
  <clipPath id="p386f368594">
   <rect height="171.865001" width="1070.8" x="67.16" y="31.6275"/>
  </clipPath>
  <clipPath id="p4ecdcf0ed5">
   <rect height="171.865001" width="1070.8" x="67.16" y="240.463333"/>
  </clipPath>
  <clipPath id="pfb3054c6e1">
   <rect height="171.865001" width="1070.8" x="67.16" y="449.299166"/>
  </clipPath>
  <clipPath id="p8d4372a68f">
   <rect height="171.865001" width="1070.8" x="67.16" y="658.134999"/>
  </clipPath>
 </defs>
</svg>
