<?xml version="1.0" encoding="utf-8" standalone="no"?>
<!DOCTYPE svg PUBLIC "-//W3C//DTD SVG 1.1//EN"
  "http://www.w3.org/Graphics/SVG/1.1/DTD/svg11.dtd">
<!-- Created with matplotlib (https://matplotlib.org/) -->
<svg height="864pt" version="1.1" viewBox="0 0 1152 864" width="1152pt" xmlns="http://www.w3.org/2000/svg" xmlns:xlink="http://www.w3.org/1999/xlink">
 <metadata>
  <rdf:RDF xmlns:cc="http://creativecommons.org/ns#" xmlns:dc="http://purl.org/dc/elements/1.1/" xmlns:rdf="http://www.w3.org/1999/02/22-rdf-syntax-ns#">
   <cc:Work>
    <dc:type rdf:resource="http://purl.org/dc/dcmitype/StillImage"/>
    <dc:date>2021-03-10T13:04:06.481581</dc:date>
    <dc:format>image/svg+xml</dc:format>
    <dc:creator>
     <cc:Agent>
      <dc:title>Matplotlib v3.3.4, https://matplotlib.org/</dc:title>
     </cc:Agent>
    </dc:creator>
   </cc:Work>
  </rdf:RDF>
 </metadata>
 <defs>
  <style type="text/css">*{stroke-linecap:butt;stroke-linejoin:round;}</style>
 </defs>
 <g id="figure_1">
  <g id="patch_1">
   <path d="M 0 864 
L 1152 864 
L 1152 0 
L 0 0 
z
" style="fill:#ffffff;"/>
  </g>
  <g id="axes_1">
   <g id="patch_2">
    <path d="M 67.16 205.720625 
L 1137.96 205.720625 
L 1137.96 31.6275 
L 67.16 31.6275 
z
" style="fill:#eaeaf2;"/>
   </g>
   <g id="matplotlib.axis_1">
    <g id="xtick_1">
     <g id="line2d_1">
      <path clip-path="url(#pcd3f90e7cf)" d="M 172.327857 205.720625 
L 172.327857 31.6275 
" style="fill:none;stroke:#ffffff;stroke-linecap:round;stroke-width:0.8;"/>
     </g>
     <g id="text_1">
      <!-- 2003-01-15 -->
      <g style="fill:#262626;" transform="translate(139.082388 222.025781)scale(0.13 -0.13)">
       <defs>
        <path d="M 50.34375 8.453125 
L 50.34375 0 
L 3.03125 0 
Q 2.9375 3.171875 4.046875 6.109375 
Q 5.859375 10.9375 9.828125 15.625 
Q 13.8125 20.3125 21.34375 26.46875 
Q 33.015625 36.03125 37.109375 41.625 
Q 41.21875 47.21875 41.21875 52.203125 
Q 41.21875 57.421875 37.46875 61 
Q 33.734375 64.59375 27.734375 64.59375 
Q 21.390625 64.59375 17.578125 60.78125 
Q 13.765625 56.984375 13.71875 50.25 
L 4.6875 51.171875 
Q 5.609375 61.28125 11.65625 66.578125 
Q 17.71875 71.875 27.9375 71.875 
Q 38.234375 71.875 44.234375 66.15625 
Q 50.25 60.453125 50.25 52 
Q 50.25 47.703125 48.484375 43.546875 
Q 46.734375 39.40625 42.65625 34.8125 
Q 38.578125 30.21875 29.109375 22.21875 
Q 21.1875 15.578125 18.9375 13.203125 
Q 16.703125 10.84375 15.234375 8.453125 
z
" id="ArialMT-50"/>
        <path d="M 4.15625 35.296875 
Q 4.15625 48 6.765625 55.734375 
Q 9.375 63.484375 14.515625 67.671875 
Q 19.671875 71.875 27.484375 71.875 
Q 33.25 71.875 37.59375 69.546875 
Q 41.9375 67.234375 44.765625 62.859375 
Q 47.609375 58.5 49.21875 52.21875 
Q 50.828125 45.953125 50.828125 35.296875 
Q 50.828125 22.703125 48.234375 14.96875 
Q 45.65625 7.234375 40.5 3 
Q 35.359375 -1.21875 27.484375 -1.21875 
Q 17.140625 -1.21875 11.234375 6.203125 
Q 4.15625 15.140625 4.15625 35.296875 
z
M 13.1875 35.296875 
Q 13.1875 17.671875 17.3125 11.828125 
Q 21.4375 6 27.484375 6 
Q 33.546875 6 37.671875 11.859375 
Q 41.796875 17.71875 41.796875 35.296875 
Q 41.796875 52.984375 37.671875 58.78125 
Q 33.546875 64.59375 27.390625 64.59375 
Q 21.34375 64.59375 17.71875 59.46875 
Q 13.1875 52.9375 13.1875 35.296875 
z
" id="ArialMT-48"/>
        <path d="M 4.203125 18.890625 
L 12.984375 20.0625 
Q 14.5 12.59375 18.140625 9.296875 
Q 21.78125 6 27 6 
Q 33.203125 6 37.46875 10.296875 
Q 41.75 14.59375 41.75 20.953125 
Q 41.75 27 37.796875 30.921875 
Q 33.84375 34.859375 27.734375 34.859375 
Q 25.25 34.859375 21.53125 33.890625 
L 22.515625 41.609375 
Q 23.390625 41.5 23.921875 41.5 
Q 29.546875 41.5 34.03125 44.421875 
Q 38.53125 47.359375 38.53125 53.46875 
Q 38.53125 58.296875 35.25 61.46875 
Q 31.984375 64.65625 26.8125 64.65625 
Q 21.6875 64.65625 18.265625 61.421875 
Q 14.84375 58.203125 13.875 51.765625 
L 5.078125 53.328125 
Q 6.6875 62.15625 12.390625 67.015625 
Q 18.109375 71.875 26.609375 71.875 
Q 32.46875 71.875 37.390625 69.359375 
Q 42.328125 66.84375 44.9375 62.5 
Q 47.5625 58.15625 47.5625 53.265625 
Q 47.5625 48.640625 45.0625 44.828125 
Q 42.578125 41.015625 37.703125 38.765625 
Q 44.046875 37.3125 47.5625 32.6875 
Q 51.078125 28.078125 51.078125 21.140625 
Q 51.078125 11.765625 44.234375 5.25 
Q 37.40625 -1.265625 26.953125 -1.265625 
Q 17.53125 -1.265625 11.296875 4.34375 
Q 5.078125 9.96875 4.203125 18.890625 
z
" id="ArialMT-51"/>
        <path d="M 3.171875 21.484375 
L 3.171875 30.328125 
L 30.171875 30.328125 
L 30.171875 21.484375 
z
" id="ArialMT-45"/>
        <path d="M 37.25 0 
L 28.46875 0 
L 28.46875 56 
Q 25.296875 52.984375 20.140625 49.953125 
Q 14.984375 46.921875 10.890625 45.40625 
L 10.890625 53.90625 
Q 18.265625 57.375 23.78125 62.296875 
Q 29.296875 67.234375 31.59375 71.875 
L 37.25 71.875 
z
" id="ArialMT-49"/>
        <path d="M 4.15625 18.75 
L 13.375 19.53125 
Q 14.40625 12.796875 18.140625 9.390625 
Q 21.875 6 27.15625 6 
Q 33.5 6 37.890625 10.78125 
Q 42.28125 15.578125 42.28125 23.484375 
Q 42.28125 31 38.0625 35.34375 
Q 33.84375 39.703125 27 39.703125 
Q 22.75 39.703125 19.328125 37.765625 
Q 15.921875 35.84375 13.96875 32.765625 
L 5.71875 33.84375 
L 12.640625 70.609375 
L 48.25 70.609375 
L 48.25 62.203125 
L 19.671875 62.203125 
L 15.828125 42.96875 
Q 22.265625 47.46875 29.34375 47.46875 
Q 38.71875 47.46875 45.15625 40.96875 
Q 51.609375 34.46875 51.609375 24.265625 
Q 51.609375 14.546875 45.953125 7.46875 
Q 39.0625 -1.21875 27.15625 -1.21875 
Q 17.390625 -1.21875 11.203125 4.25 
Q 5.03125 9.71875 4.15625 18.75 
z
" id="ArialMT-53"/>
       </defs>
       <use xlink:href="#ArialMT-50"/>
       <use x="55.615234" xlink:href="#ArialMT-48"/>
       <use x="111.230469" xlink:href="#ArialMT-48"/>
       <use x="166.845703" xlink:href="#ArialMT-51"/>
       <use x="222.460938" xlink:href="#ArialMT-45"/>
       <use x="255.761719" xlink:href="#ArialMT-48"/>
       <use x="311.376953" xlink:href="#ArialMT-49"/>
       <use x="366.992188" xlink:href="#ArialMT-45"/>
       <use x="400.292969" xlink:href="#ArialMT-49"/>
       <use x="455.908203" xlink:href="#ArialMT-53"/>
      </g>
     </g>
    </g>
    <g id="xtick_2">
     <g id="line2d_2">
      <path clip-path="url(#pcd3f90e7cf)" d="M 334.86 205.720625 
L 334.86 31.6275 
" style="fill:none;stroke:#ffffff;stroke-linecap:round;stroke-width:0.8;"/>
     </g>
     <g id="text_2">
      <!-- 2003-02-01 -->
      <g style="fill:#262626;" transform="translate(301.614531 222.025781)scale(0.13 -0.13)">
       <use xlink:href="#ArialMT-50"/>
       <use x="55.615234" xlink:href="#ArialMT-48"/>
       <use x="111.230469" xlink:href="#ArialMT-48"/>
       <use x="166.845703" xlink:href="#ArialMT-51"/>
       <use x="222.460938" xlink:href="#ArialMT-45"/>
       <use x="255.761719" xlink:href="#ArialMT-48"/>
       <use x="311.376953" xlink:href="#ArialMT-50"/>
       <use x="366.992188" xlink:href="#ArialMT-45"/>
       <use x="400.292969" xlink:href="#ArialMT-48"/>
       <use x="455.908203" xlink:href="#ArialMT-49"/>
      </g>
     </g>
    </g>
    <g id="xtick_3">
     <g id="line2d_3">
      <path clip-path="url(#pcd3f90e7cf)" d="M 468.71 205.720625 
L 468.71 31.6275 
" style="fill:none;stroke:#ffffff;stroke-linecap:round;stroke-width:0.8;"/>
     </g>
     <g id="text_3">
      <!-- 2003-02-15 -->
      <g style="fill:#262626;" transform="translate(435.464531 222.025781)scale(0.13 -0.13)">
       <use xlink:href="#ArialMT-50"/>
       <use x="55.615234" xlink:href="#ArialMT-48"/>
       <use x="111.230469" xlink:href="#ArialMT-48"/>
       <use x="166.845703" xlink:href="#ArialMT-51"/>
       <use x="222.460938" xlink:href="#ArialMT-45"/>
       <use x="255.761719" xlink:href="#ArialMT-48"/>
       <use x="311.376953" xlink:href="#ArialMT-50"/>
       <use x="366.992188" xlink:href="#ArialMT-45"/>
       <use x="400.292969" xlink:href="#ArialMT-49"/>
       <use x="455.908203" xlink:href="#ArialMT-53"/>
      </g>
     </g>
    </g>
    <g id="xtick_4">
     <g id="line2d_4">
      <path clip-path="url(#pcd3f90e7cf)" d="M 602.56 205.720625 
L 602.56 31.6275 
" style="fill:none;stroke:#ffffff;stroke-linecap:round;stroke-width:0.8;"/>
     </g>
     <g id="text_4">
      <!-- 2003-03-01 -->
      <g style="fill:#262626;" transform="translate(569.314531 222.025781)scale(0.13 -0.13)">
       <use xlink:href="#ArialMT-50"/>
       <use x="55.615234" xlink:href="#ArialMT-48"/>
       <use x="111.230469" xlink:href="#ArialMT-48"/>
       <use x="166.845703" xlink:href="#ArialMT-51"/>
       <use x="222.460938" xlink:href="#ArialMT-45"/>
       <use x="255.761719" xlink:href="#ArialMT-48"/>
       <use x="311.376953" xlink:href="#ArialMT-51"/>
       <use x="366.992188" xlink:href="#ArialMT-45"/>
       <use x="400.292969" xlink:href="#ArialMT-48"/>
       <use x="455.908203" xlink:href="#ArialMT-49"/>
      </g>
     </g>
    </g>
    <g id="xtick_5">
     <g id="line2d_5">
      <path clip-path="url(#pcd3f90e7cf)" d="M 736.41 205.720625 
L 736.41 31.6275 
" style="fill:none;stroke:#ffffff;stroke-linecap:round;stroke-width:0.8;"/>
     </g>
     <g id="text_5">
      <!-- 2003-03-15 -->
      <g style="fill:#262626;" transform="translate(703.164531 222.025781)scale(0.13 -0.13)">
       <use xlink:href="#ArialMT-50"/>
       <use x="55.615234" xlink:href="#ArialMT-48"/>
       <use x="111.230469" xlink:href="#ArialMT-48"/>
       <use x="166.845703" xlink:href="#ArialMT-51"/>
       <use x="222.460938" xlink:href="#ArialMT-45"/>
       <use x="255.761719" xlink:href="#ArialMT-48"/>
       <use x="311.376953" xlink:href="#ArialMT-51"/>
       <use x="366.992188" xlink:href="#ArialMT-45"/>
       <use x="400.292969" xlink:href="#ArialMT-49"/>
       <use x="455.908203" xlink:href="#ArialMT-53"/>
      </g>
     </g>
    </g>
    <g id="xtick_6">
     <g id="line2d_6">
      <path clip-path="url(#pcd3f90e7cf)" d="M 898.942143 205.720625 
L 898.942143 31.6275 
" style="fill:none;stroke:#ffffff;stroke-linecap:round;stroke-width:0.8;"/>
     </g>
     <g id="text_6">
      <!-- 2003-04-01 -->
      <g style="fill:#262626;" transform="translate(865.696674 222.025781)scale(0.13 -0.13)">
       <defs>
        <path d="M 32.328125 0 
L 32.328125 17.140625 
L 1.265625 17.140625 
L 1.265625 25.203125 
L 33.9375 71.578125 
L 41.109375 71.578125 
L 41.109375 25.203125 
L 50.78125 25.203125 
L 50.78125 17.140625 
L 41.109375 17.140625 
L 41.109375 0 
z
M 32.328125 25.203125 
L 32.328125 57.46875 
L 9.90625 25.203125 
z
" id="ArialMT-52"/>
       </defs>
       <use xlink:href="#ArialMT-50"/>
       <use x="55.615234" xlink:href="#ArialMT-48"/>
       <use x="111.230469" xlink:href="#ArialMT-48"/>
       <use x="166.845703" xlink:href="#ArialMT-51"/>
       <use x="222.460938" xlink:href="#ArialMT-45"/>
       <use x="255.761719" xlink:href="#ArialMT-48"/>
       <use x="311.376953" xlink:href="#ArialMT-52"/>
       <use x="366.992188" xlink:href="#ArialMT-45"/>
       <use x="400.292969" xlink:href="#ArialMT-48"/>
       <use x="455.908203" xlink:href="#ArialMT-49"/>
      </g>
     </g>
    </g>
    <g id="xtick_7">
     <g id="line2d_7">
      <path clip-path="url(#pcd3f90e7cf)" d="M 1032.792143 205.720625 
L 1032.792143 31.6275 
" style="fill:none;stroke:#ffffff;stroke-linecap:round;stroke-width:0.8;"/>
     </g>
     <g id="text_7">
      <!-- 2003-04-15 -->
      <g style="fill:#262626;" transform="translate(999.546674 222.025781)scale(0.13 -0.13)">
       <use xlink:href="#ArialMT-50"/>
       <use x="55.615234" xlink:href="#ArialMT-48"/>
       <use x="111.230469" xlink:href="#ArialMT-48"/>
       <use x="166.845703" xlink:href="#ArialMT-51"/>
       <use x="222.460938" xlink:href="#ArialMT-45"/>
       <use x="255.761719" xlink:href="#ArialMT-48"/>
       <use x="311.376953" xlink:href="#ArialMT-52"/>
       <use x="366.992188" xlink:href="#ArialMT-45"/>
       <use x="400.292969" xlink:href="#ArialMT-49"/>
       <use x="455.908203" xlink:href="#ArialMT-53"/>
      </g>
     </g>
    </g>
   </g>
   <g id="matplotlib.axis_2">
    <g id="ytick_1">
     <g id="line2d_8">
      <path clip-path="url(#pcd3f90e7cf)" d="M 67.16 161.807714 
L 1137.96 161.807714 
" style="fill:none;stroke:#ffffff;stroke-linecap:round;stroke-width:0.8;"/>
     </g>
     <g id="text_8">
      <!-- 500 -->
      <g style="fill:#262626;" transform="translate(38.472344 166.460292)scale(0.13 -0.13)">
       <use xlink:href="#ArialMT-53"/>
       <use x="55.615234" xlink:href="#ArialMT-48"/>
       <use x="111.230469" xlink:href="#ArialMT-48"/>
      </g>
     </g>
    </g>
    <g id="ytick_2">
     <g id="line2d_9">
      <path clip-path="url(#pcd3f90e7cf)" d="M 67.16 106.930295 
L 1137.96 106.930295 
" style="fill:none;stroke:#ffffff;stroke-linecap:round;stroke-width:0.8;"/>
     </g>
     <g id="text_9">
      <!-- 1000 -->
      <g style="fill:#262626;" transform="translate(31.243125 111.582873)scale(0.13 -0.13)">
       <use xlink:href="#ArialMT-49"/>
       <use x="55.615234" xlink:href="#ArialMT-48"/>
       <use x="111.230469" xlink:href="#ArialMT-48"/>
       <use x="166.845703" xlink:href="#ArialMT-48"/>
      </g>
     </g>
    </g>
    <g id="ytick_3">
     <g id="line2d_10">
      <path clip-path="url(#pcd3f90e7cf)" d="M 67.16 52.052875 
L 1137.96 52.052875 
" style="fill:none;stroke:#ffffff;stroke-linecap:round;stroke-width:0.8;"/>
     </g>
     <g id="text_10">
      <!-- 1500 -->
      <g style="fill:#262626;" transform="translate(31.243125 56.705454)scale(0.13 -0.13)">
       <use xlink:href="#ArialMT-49"/>
       <use x="55.615234" xlink:href="#ArialMT-53"/>
       <use x="111.230469" xlink:href="#ArialMT-48"/>
       <use x="166.845703" xlink:href="#ArialMT-48"/>
      </g>
     </g>
    </g>
   </g>
   <g id="line2d_11">
    <path clip-path="url(#pcd3f90e7cf)" d="M 67.16 146.112772 
L 76.720714 139.527482 
L 86.281429 132.942192 
L 95.842143 126.356901 
L 105.402857 119.771611 
L 114.963571 113.186321 
L 124.524286 106.60103 
L 134.085 100.01574 
L 143.645714 97.867681 
L 153.206429 95.719622 
L 162.767143 93.571563 
L 172.327857 91.423504 
L 181.888571 89.275445 
L 191.449286 87.127386 
L 201.01 84.979327 
L 210.570714 93.383412 
L 220.131429 101.787497 
L 229.692143 110.191581 
L 239.252857 118.595666 
L 248.813571 126.999751 
L 258.374286 135.403836 
L 267.935 143.807921 
L 277.495714 151.349646 
L 287.056429 158.891371 
L 296.617143 166.433097 
L 306.177857 173.974822 
L 315.738571 181.516547 
L 325.299286 189.058273 
L 334.86 196.599998 
L 344.420714 185.013023 
L 353.981429 173.426048 
L 363.542143 161.839073 
L 373.102857 150.252097 
L 382.663571 138.665122 
L 392.224286 127.078147 
L 401.785 115.491172 
L 411.345714 123.801181 
L 420.906429 132.111191 
L 430.467143 140.4212 
L 440.027857 148.731209 
L 449.588571 157.041218 
L 459.149286 165.351227 
L 468.71 173.661237 
L 478.270714 177.110674 
L 487.831429 180.560112 
L 497.392143 184.00955 
L 506.952857 187.458988 
L 516.513571 190.908426 
L 526.074286 194.357863 
L 535.635 197.807301 
L 545.195714 195.220223 
L 554.756429 192.633144 
L 564.317143 190.046066 
L 573.877857 187.458988 
L 583.438571 184.871909 
L 592.999286 182.284831 
L 602.56 179.697753 
L 612.120714 175.432993 
L 621.681429 171.168234 
L 631.242143 166.903474 
L 640.802857 162.638715 
L 650.363571 158.373956 
L 659.924286 154.109196 
L 669.485 149.844437 
L 679.045714 152.259043 
L 688.606429 154.67365 
L 698.167143 157.088256 
L 707.727857 159.502862 
L 717.288571 161.917469 
L 726.849286 164.332075 
L 736.41 166.746682 
L 745.970714 163.312923 
L 755.531429 159.879165 
L 765.092143 156.445406 
L 774.652857 153.011648 
L 784.213571 149.577889 
L 793.774286 146.144131 
L 803.335 142.710372 
L 812.895714 141.534427 
L 822.456429 140.358483 
L 832.017143 139.182538 
L 841.577857 138.006593 
L 851.138571 136.830649 
L 860.699286 135.654704 
L 870.26 134.478759 
L 879.820714 133.710475 
L 889.381429 132.942192 
L 898.942143 132.173908 
L 908.502857 131.405624 
L 918.063571 130.63734 
L 927.624286 129.869056 
L 937.185 129.100772 
L 946.745714 116.306494 
L 956.306429 103.512216 
L 965.867143 90.717937 
L 975.427857 77.923659 
L 984.988571 65.129381 
L 994.549286 52.335102 
L 1004.11 39.540824 
L 1013.670714 56.145163 
L 1023.231429 72.749502 
L 1032.792143 89.353841 
L 1042.352857 105.95818 
L 1051.913571 122.56252 
L 1061.474286 139.166859 
L 1071.035 155.771198 
L 1080.595714 146.316603 
L 1090.156429 136.862007 
L 1099.717143 127.407412 
L 1109.277857 117.952816 
L 1118.838571 108.498221 
L 1128.399286 99.043626 
L 1137.96 89.58903 
" style="fill:none;stroke:#1f77b4;stroke-linecap:round;stroke-width:1.5;"/>
   </g>
   <g id="patch_3">
    <path d="M 67.16 205.720625 
L 67.16 31.6275 
" style="fill:none;stroke:#ffffff;stroke-linecap:square;stroke-linejoin:miter;stroke-width:0.8;"/>
   </g>
   <g id="patch_4">
    <path d="M 1137.96 205.720625 
L 1137.96 31.6275 
" style="fill:none;stroke:#ffffff;stroke-linecap:square;stroke-linejoin:miter;stroke-width:0.8;"/>
   </g>
   <g id="patch_5">
    <path d="M 67.16 205.720625 
L 1137.96 205.720625 
" style="fill:none;stroke:#ffffff;stroke-linecap:square;stroke-linejoin:miter;stroke-width:0.8;"/>
   </g>
   <g id="patch_6">
    <path d="M 67.16 31.6275 
L 1137.96 31.6275 
" style="fill:none;stroke:#ffffff;stroke-linecap:square;stroke-linejoin:miter;stroke-width:0.8;"/>
   </g>
   <g id="text_11">
    <!-- Bacteria;Firmicutes;Bacilli;Bacillales;Bacillaceae;sf_1;3277 -->
    <g style="fill:#262626;" transform="translate(399.677125 25.6275)scale(0.156 -0.156)">
     <defs>
      <path d="M 7.328125 0 
L 7.328125 71.578125 
L 34.1875 71.578125 
Q 42.390625 71.578125 47.34375 69.40625 
Q 52.296875 67.234375 55.09375 62.71875 
Q 57.90625 58.203125 57.90625 53.265625 
Q 57.90625 48.6875 55.421875 44.625 
Q 52.9375 40.578125 47.90625 38.09375 
Q 54.390625 36.1875 57.875 31.59375 
Q 61.375 27 61.375 20.75 
Q 61.375 15.71875 59.25 11.390625 
Q 57.125 7.078125 54 4.734375 
Q 50.875 2.390625 46.15625 1.1875 
Q 41.453125 0 34.625 0 
z
M 16.796875 41.5 
L 32.28125 41.5 
Q 38.578125 41.5 41.3125 42.328125 
Q 44.921875 43.40625 46.75 45.890625 
Q 48.578125 48.390625 48.578125 52.15625 
Q 48.578125 55.71875 46.875 58.421875 
Q 45.171875 61.140625 41.984375 62.140625 
Q 38.8125 63.140625 31.109375 63.140625 
L 16.796875 63.140625 
z
M 16.796875 8.453125 
L 34.625 8.453125 
Q 39.203125 8.453125 41.0625 8.796875 
Q 44.34375 9.375 46.53125 10.734375 
Q 48.734375 12.109375 50.140625 14.71875 
Q 51.5625 17.328125 51.5625 20.75 
Q 51.5625 24.75 49.515625 27.703125 
Q 47.46875 30.671875 43.828125 31.859375 
Q 40.1875 33.0625 33.34375 33.0625 
L 16.796875 33.0625 
z
" id="ArialMT-66"/>
      <path d="M 40.4375 6.390625 
Q 35.546875 2.25 31.03125 0.53125 
Q 26.515625 -1.171875 21.34375 -1.171875 
Q 12.796875 -1.171875 8.203125 3 
Q 3.609375 7.171875 3.609375 13.671875 
Q 3.609375 17.484375 5.34375 20.625 
Q 7.078125 23.78125 9.890625 25.6875 
Q 12.703125 27.59375 16.21875 28.5625 
Q 18.796875 29.25 24.03125 29.890625 
Q 34.671875 31.15625 39.703125 32.90625 
Q 39.75 34.71875 39.75 35.203125 
Q 39.75 40.578125 37.25 42.78125 
Q 33.890625 45.75 27.25 45.75 
Q 21.046875 45.75 18.09375 43.578125 
Q 15.140625 41.40625 13.71875 35.890625 
L 5.125 37.0625 
Q 6.296875 42.578125 8.984375 45.96875 
Q 11.671875 49.359375 16.75 51.1875 
Q 21.828125 53.03125 28.515625 53.03125 
Q 35.15625 53.03125 39.296875 51.46875 
Q 43.453125 49.90625 45.40625 47.53125 
Q 47.359375 45.171875 48.140625 41.546875 
Q 48.578125 39.3125 48.578125 33.453125 
L 48.578125 21.734375 
Q 48.578125 9.46875 49.140625 6.21875 
Q 49.703125 2.984375 51.375 0 
L 42.1875 0 
Q 40.828125 2.734375 40.4375 6.390625 
z
M 39.703125 26.03125 
Q 34.90625 24.078125 25.34375 22.703125 
Q 19.921875 21.921875 17.671875 20.9375 
Q 15.4375 19.96875 14.203125 18.09375 
Q 12.984375 16.21875 12.984375 13.921875 
Q 12.984375 10.40625 15.640625 8.0625 
Q 18.3125 5.71875 23.4375 5.71875 
Q 28.515625 5.71875 32.46875 7.9375 
Q 36.421875 10.15625 38.28125 14.015625 
Q 39.703125 17 39.703125 22.796875 
z
" id="ArialMT-97"/>
      <path d="M 40.4375 19 
L 49.078125 17.875 
Q 47.65625 8.9375 41.8125 3.875 
Q 35.984375 -1.171875 27.484375 -1.171875 
Q 16.84375 -1.171875 10.375 5.78125 
Q 3.90625 12.75 3.90625 25.734375 
Q 3.90625 34.125 6.6875 40.421875 
Q 9.46875 46.734375 15.15625 49.875 
Q 20.84375 53.03125 27.546875 53.03125 
Q 35.984375 53.03125 41.359375 48.75 
Q 46.734375 44.484375 48.25 36.625 
L 39.703125 35.296875 
Q 38.484375 40.53125 35.375 43.15625 
Q 32.28125 45.796875 27.875 45.796875 
Q 21.234375 45.796875 17.078125 41.03125 
Q 12.9375 36.28125 12.9375 25.984375 
Q 12.9375 15.53125 16.9375 10.796875 
Q 20.953125 6.0625 27.390625 6.0625 
Q 32.5625 6.0625 36.03125 9.234375 
Q 39.5 12.40625 40.4375 19 
z
" id="ArialMT-99"/>
      <path d="M 25.78125 7.859375 
L 27.046875 0.09375 
Q 23.34375 -0.6875 20.40625 -0.6875 
Q 15.625 -0.6875 12.984375 0.828125 
Q 10.359375 2.34375 9.28125 4.8125 
Q 8.203125 7.28125 8.203125 15.1875 
L 8.203125 45.015625 
L 1.765625 45.015625 
L 1.765625 51.859375 
L 8.203125 51.859375 
L 8.203125 64.703125 
L 16.9375 69.96875 
L 16.9375 51.859375 
L 25.78125 51.859375 
L 25.78125 45.015625 
L 16.9375 45.015625 
L 16.9375 14.703125 
Q 16.9375 10.9375 17.40625 9.859375 
Q 17.875 8.796875 18.921875 8.15625 
Q 19.96875 7.515625 21.921875 7.515625 
Q 23.390625 7.515625 25.78125 7.859375 
z
" id="ArialMT-116"/>
      <path d="M 42.09375 16.703125 
L 51.171875 15.578125 
Q 49.03125 7.625 43.21875 3.21875 
Q 37.40625 -1.171875 28.375 -1.171875 
Q 17 -1.171875 10.328125 5.828125 
Q 3.65625 12.84375 3.65625 25.484375 
Q 3.65625 38.578125 10.390625 45.796875 
Q 17.140625 53.03125 27.875 53.03125 
Q 38.28125 53.03125 44.875 45.953125 
Q 51.46875 38.875 51.46875 26.03125 
Q 51.46875 25.25 51.421875 23.6875 
L 12.75 23.6875 
Q 13.234375 15.140625 17.578125 10.59375 
Q 21.921875 6.0625 28.421875 6.0625 
Q 33.25 6.0625 36.671875 8.59375 
Q 40.09375 11.140625 42.09375 16.703125 
z
M 13.234375 30.90625 
L 42.1875 30.90625 
Q 41.609375 37.453125 38.875 40.71875 
Q 34.671875 45.796875 27.984375 45.796875 
Q 21.921875 45.796875 17.796875 41.75 
Q 13.671875 37.703125 13.234375 30.90625 
z
" id="ArialMT-101"/>
      <path d="M 6.5 0 
L 6.5 51.859375 
L 14.40625 51.859375 
L 14.40625 44 
Q 17.4375 49.515625 20 51.265625 
Q 22.5625 53.03125 25.640625 53.03125 
Q 30.078125 53.03125 34.671875 50.203125 
L 31.640625 42.046875 
Q 28.421875 43.953125 25.203125 43.953125 
Q 22.3125 43.953125 20.015625 42.21875 
Q 17.71875 40.484375 16.75 37.40625 
Q 15.28125 32.71875 15.28125 27.15625 
L 15.28125 0 
z
" id="ArialMT-114"/>
      <path d="M 6.640625 61.46875 
L 6.640625 71.578125 
L 15.4375 71.578125 
L 15.4375 61.46875 
z
M 6.640625 0 
L 6.640625 51.859375 
L 15.4375 51.859375 
L 15.4375 0 
z
" id="ArialMT-105"/>
      <path d="M 8.890625 41.84375 
L 8.890625 51.859375 
L 18.890625 51.859375 
L 18.890625 41.84375 
z
M 8.890625 0 
L 8.890625 10.015625 
L 18.890625 10.015625 
L 18.890625 0 
Q 18.890625 -5.515625 16.9375 -8.90625 
Q 14.984375 -12.3125 10.75 -14.15625 
L 8.296875 -10.40625 
Q 11.078125 -9.1875 12.390625 -6.8125 
Q 13.71875 -4.4375 13.875 0 
z
" id="ArialMT-59"/>
      <path d="M 8.203125 0 
L 8.203125 71.578125 
L 56.5 71.578125 
L 56.5 63.140625 
L 17.671875 63.140625 
L 17.671875 40.96875 
L 51.265625 40.96875 
L 51.265625 32.515625 
L 17.671875 32.515625 
L 17.671875 0 
z
" id="ArialMT-70"/>
      <path d="M 6.59375 0 
L 6.59375 51.859375 
L 14.453125 51.859375 
L 14.453125 44.578125 
Q 16.890625 48.390625 20.9375 50.703125 
Q 25 53.03125 30.171875 53.03125 
Q 35.9375 53.03125 39.625 50.640625 
Q 43.3125 48.25 44.828125 43.953125 
Q 50.984375 53.03125 60.84375 53.03125 
Q 68.5625 53.03125 72.703125 48.75 
Q 76.859375 44.484375 76.859375 35.59375 
L 76.859375 0 
L 68.109375 0 
L 68.109375 32.671875 
Q 68.109375 37.9375 67.25 40.25 
Q 66.40625 42.578125 64.15625 43.984375 
Q 61.921875 45.40625 58.890625 45.40625 
Q 53.421875 45.40625 49.796875 41.765625 
Q 46.1875 38.140625 46.1875 30.125 
L 46.1875 0 
L 37.40625 0 
L 37.40625 33.6875 
Q 37.40625 39.546875 35.25 42.46875 
Q 33.109375 45.40625 28.21875 45.40625 
Q 24.515625 45.40625 21.359375 43.453125 
Q 18.21875 41.5 16.796875 37.734375 
Q 15.375 33.984375 15.375 26.90625 
L 15.375 0 
z
" id="ArialMT-109"/>
      <path d="M 40.578125 0 
L 40.578125 7.625 
Q 34.515625 -1.171875 24.125 -1.171875 
Q 19.53125 -1.171875 15.546875 0.578125 
Q 11.578125 2.34375 9.640625 5 
Q 7.71875 7.671875 6.9375 11.53125 
Q 6.390625 14.109375 6.390625 19.734375 
L 6.390625 51.859375 
L 15.1875 51.859375 
L 15.1875 23.09375 
Q 15.1875 16.21875 15.71875 13.8125 
Q 16.546875 10.359375 19.234375 8.375 
Q 21.921875 6.390625 25.875 6.390625 
Q 29.828125 6.390625 33.296875 8.421875 
Q 36.765625 10.453125 38.203125 13.9375 
Q 39.65625 17.4375 39.65625 24.078125 
L 39.65625 51.859375 
L 48.4375 51.859375 
L 48.4375 0 
z
" id="ArialMT-117"/>
      <path d="M 3.078125 15.484375 
L 11.765625 16.84375 
Q 12.5 11.625 15.84375 8.84375 
Q 19.1875 6.0625 25.203125 6.0625 
Q 31.25 6.0625 34.171875 8.515625 
Q 37.109375 10.984375 37.109375 14.3125 
Q 37.109375 17.28125 34.515625 19 
Q 32.71875 20.171875 25.53125 21.96875 
Q 15.875 24.421875 12.140625 26.203125 
Q 8.40625 27.984375 6.46875 31.125 
Q 4.546875 34.28125 4.546875 38.09375 
Q 4.546875 41.546875 6.125 44.5 
Q 7.71875 47.46875 10.453125 49.421875 
Q 12.5 50.921875 16.03125 51.96875 
Q 19.578125 53.03125 23.640625 53.03125 
Q 29.734375 53.03125 34.34375 51.265625 
Q 38.96875 49.515625 41.15625 46.5 
Q 43.359375 43.5 44.1875 38.484375 
L 35.59375 37.3125 
Q 35.015625 41.3125 32.203125 43.546875 
Q 29.390625 45.796875 24.265625 45.796875 
Q 18.21875 45.796875 15.625 43.796875 
Q 13.03125 41.796875 13.03125 39.109375 
Q 13.03125 37.40625 14.109375 36.03125 
Q 15.1875 34.625 17.484375 33.6875 
Q 18.796875 33.203125 25.25 31.453125 
Q 34.578125 28.953125 38.25 27.359375 
Q 41.9375 25.78125 44.03125 22.75 
Q 46.140625 19.734375 46.140625 15.234375 
Q 46.140625 10.84375 43.578125 6.953125 
Q 41.015625 3.078125 36.171875 0.953125 
Q 31.34375 -1.171875 25.25 -1.171875 
Q 15.140625 -1.171875 9.84375 3.03125 
Q 4.546875 7.234375 3.078125 15.484375 
z
" id="ArialMT-115"/>
      <path d="M 6.390625 0 
L 6.390625 71.578125 
L 15.1875 71.578125 
L 15.1875 0 
z
" id="ArialMT-108"/>
      <path d="M 8.6875 0 
L 8.6875 45.015625 
L 0.921875 45.015625 
L 0.921875 51.859375 
L 8.6875 51.859375 
L 8.6875 57.375 
Q 8.6875 62.59375 9.625 65.140625 
Q 10.890625 68.5625 14.078125 70.671875 
Q 17.28125 72.796875 23.046875 72.796875 
Q 26.765625 72.796875 31.25 71.921875 
L 29.9375 64.265625 
Q 27.203125 64.75 24.75 64.75 
Q 20.75 64.75 19.09375 63.03125 
Q 17.4375 61.328125 17.4375 56.640625 
L 17.4375 51.859375 
L 27.546875 51.859375 
L 27.546875 45.015625 
L 17.4375 45.015625 
L 17.4375 0 
z
" id="ArialMT-102"/>
      <path d="M -1.515625 -19.875 
L -1.515625 -13.53125 
L 56.734375 -13.53125 
L 56.734375 -19.875 
z
" id="ArialMT-95"/>
      <path d="M 4.734375 62.203125 
L 4.734375 70.65625 
L 51.078125 70.65625 
L 51.078125 63.8125 
Q 44.234375 56.546875 37.515625 44.484375 
Q 30.8125 32.421875 27.15625 19.671875 
Q 24.515625 10.6875 23.78125 0 
L 14.75 0 
Q 14.890625 8.453125 18.0625 20.40625 
Q 21.234375 32.375 27.171875 43.484375 
Q 33.109375 54.59375 39.796875 62.203125 
z
" id="ArialMT-55"/>
     </defs>
     <use xlink:href="#ArialMT-66"/>
     <use x="66.699219" xlink:href="#ArialMT-97"/>
     <use x="122.314453" xlink:href="#ArialMT-99"/>
     <use x="172.314453" xlink:href="#ArialMT-116"/>
     <use x="200.097656" xlink:href="#ArialMT-101"/>
     <use x="255.712891" xlink:href="#ArialMT-114"/>
     <use x="289.013672" xlink:href="#ArialMT-105"/>
     <use x="311.230469" xlink:href="#ArialMT-97"/>
     <use x="366.845703" xlink:href="#ArialMT-59"/>
     <use x="394.628906" xlink:href="#ArialMT-70"/>
     <use x="455.712891" xlink:href="#ArialMT-105"/>
     <use x="477.929688" xlink:href="#ArialMT-114"/>
     <use x="511.230469" xlink:href="#ArialMT-109"/>
     <use x="594.53125" xlink:href="#ArialMT-105"/>
     <use x="616.748047" xlink:href="#ArialMT-99"/>
     <use x="666.748047" xlink:href="#ArialMT-117"/>
     <use x="722.363281" xlink:href="#ArialMT-116"/>
     <use x="750.146484" xlink:href="#ArialMT-101"/>
     <use x="805.761719" xlink:href="#ArialMT-115"/>
     <use x="855.761719" xlink:href="#ArialMT-59"/>
     <use x="883.544922" xlink:href="#ArialMT-66"/>
     <use x="950.244141" xlink:href="#ArialMT-97"/>
     <use x="1005.859375" xlink:href="#ArialMT-99"/>
     <use x="1055.859375" xlink:href="#ArialMT-105"/>
     <use x="1078.076172" xlink:href="#ArialMT-108"/>
     <use x="1100.292969" xlink:href="#ArialMT-108"/>
     <use x="1122.509766" xlink:href="#ArialMT-105"/>
     <use x="1144.726562" xlink:href="#ArialMT-59"/>
     <use x="1172.509766" xlink:href="#ArialMT-66"/>
     <use x="1239.208984" xlink:href="#ArialMT-97"/>
     <use x="1294.824219" xlink:href="#ArialMT-99"/>
     <use x="1344.824219" xlink:href="#ArialMT-105"/>
     <use x="1367.041016" xlink:href="#ArialMT-108"/>
     <use x="1389.257812" xlink:href="#ArialMT-108"/>
     <use x="1411.474609" xlink:href="#ArialMT-97"/>
     <use x="1467.089844" xlink:href="#ArialMT-108"/>
     <use x="1489.306641" xlink:href="#ArialMT-101"/>
     <use x="1544.921875" xlink:href="#ArialMT-115"/>
     <use x="1594.921875" xlink:href="#ArialMT-59"/>
     <use x="1622.705078" xlink:href="#ArialMT-66"/>
     <use x="1689.404297" xlink:href="#ArialMT-97"/>
     <use x="1745.019531" xlink:href="#ArialMT-99"/>
     <use x="1795.019531" xlink:href="#ArialMT-105"/>
     <use x="1817.236328" xlink:href="#ArialMT-108"/>
     <use x="1839.453125" xlink:href="#ArialMT-108"/>
     <use x="1861.669922" xlink:href="#ArialMT-97"/>
     <use x="1917.285156" xlink:href="#ArialMT-99"/>
     <use x="1967.285156" xlink:href="#ArialMT-101"/>
     <use x="2022.900391" xlink:href="#ArialMT-97"/>
     <use x="2078.515625" xlink:href="#ArialMT-101"/>
     <use x="2134.130859" xlink:href="#ArialMT-59"/>
     <use x="2161.914062" xlink:href="#ArialMT-115"/>
     <use x="2211.914062" xlink:href="#ArialMT-102"/>
     <use x="2239.697266" xlink:href="#ArialMT-95"/>
     <use x="2295.3125" xlink:href="#ArialMT-49"/>
     <use x="2350.927734" xlink:href="#ArialMT-59"/>
     <use x="2378.710938" xlink:href="#ArialMT-51"/>
     <use x="2434.326172" xlink:href="#ArialMT-50"/>
     <use x="2489.941406" xlink:href="#ArialMT-55"/>
     <use x="2545.556641" xlink:href="#ArialMT-55"/>
    </g>
   </g>
  </g>
  <g id="axes_2">
   <g id="patch_7">
    <path d="M 67.16 413.81375 
L 1137.96 413.81375 
L 1137.96 239.720625 
L 67.16 239.720625 
z
" style="fill:#eaeaf2;"/>
   </g>
   <g id="matplotlib.axis_3">
    <g id="xtick_8">
     <g id="line2d_12">
      <path clip-path="url(#p43298bfc6c)" d="M 172.327857 413.81375 
L 172.327857 239.720625 
" style="fill:none;stroke:#ffffff;stroke-linecap:round;stroke-width:0.8;"/>
     </g>
     <g id="text_12">
      <!-- 2003-01-15 -->
      <g style="fill:#262626;" transform="translate(139.082388 430.118906)scale(0.13 -0.13)">
       <use xlink:href="#ArialMT-50"/>
       <use x="55.615234" xlink:href="#ArialMT-48"/>
       <use x="111.230469" xlink:href="#ArialMT-48"/>
       <use x="166.845703" xlink:href="#ArialMT-51"/>
       <use x="222.460938" xlink:href="#ArialMT-45"/>
       <use x="255.761719" xlink:href="#ArialMT-48"/>
       <use x="311.376953" xlink:href="#ArialMT-49"/>
       <use x="366.992188" xlink:href="#ArialMT-45"/>
       <use x="400.292969" xlink:href="#ArialMT-49"/>
       <use x="455.908203" xlink:href="#ArialMT-53"/>
      </g>
     </g>
    </g>
    <g id="xtick_9">
     <g id="line2d_13">
      <path clip-path="url(#p43298bfc6c)" d="M 334.86 413.81375 
L 334.86 239.720625 
" style="fill:none;stroke:#ffffff;stroke-linecap:round;stroke-width:0.8;"/>
     </g>
     <g id="text_13">
      <!-- 2003-02-01 -->
      <g style="fill:#262626;" transform="translate(301.614531 430.118906)scale(0.13 -0.13)">
       <use xlink:href="#ArialMT-50"/>
       <use x="55.615234" xlink:href="#ArialMT-48"/>
       <use x="111.230469" xlink:href="#ArialMT-48"/>
       <use x="166.845703" xlink:href="#ArialMT-51"/>
       <use x="222.460938" xlink:href="#ArialMT-45"/>
       <use x="255.761719" xlink:href="#ArialMT-48"/>
       <use x="311.376953" xlink:href="#ArialMT-50"/>
       <use x="366.992188" xlink:href="#ArialMT-45"/>
       <use x="400.292969" xlink:href="#ArialMT-48"/>
       <use x="455.908203" xlink:href="#ArialMT-49"/>
      </g>
     </g>
    </g>
    <g id="xtick_10">
     <g id="line2d_14">
      <path clip-path="url(#p43298bfc6c)" d="M 468.71 413.81375 
L 468.71 239.720625 
" style="fill:none;stroke:#ffffff;stroke-linecap:round;stroke-width:0.8;"/>
     </g>
     <g id="text_14">
      <!-- 2003-02-15 -->
      <g style="fill:#262626;" transform="translate(435.464531 430.118906)scale(0.13 -0.13)">
       <use xlink:href="#ArialMT-50"/>
       <use x="55.615234" xlink:href="#ArialMT-48"/>
       <use x="111.230469" xlink:href="#ArialMT-48"/>
       <use x="166.845703" xlink:href="#ArialMT-51"/>
       <use x="222.460938" xlink:href="#ArialMT-45"/>
       <use x="255.761719" xlink:href="#ArialMT-48"/>
       <use x="311.376953" xlink:href="#ArialMT-50"/>
       <use x="366.992188" xlink:href="#ArialMT-45"/>
       <use x="400.292969" xlink:href="#ArialMT-49"/>
       <use x="455.908203" xlink:href="#ArialMT-53"/>
      </g>
     </g>
    </g>
    <g id="xtick_11">
     <g id="line2d_15">
      <path clip-path="url(#p43298bfc6c)" d="M 602.56 413.81375 
L 602.56 239.720625 
" style="fill:none;stroke:#ffffff;stroke-linecap:round;stroke-width:0.8;"/>
     </g>
     <g id="text_15">
      <!-- 2003-03-01 -->
      <g style="fill:#262626;" transform="translate(569.314531 430.118906)scale(0.13 -0.13)">
       <use xlink:href="#ArialMT-50"/>
       <use x="55.615234" xlink:href="#ArialMT-48"/>
       <use x="111.230469" xlink:href="#ArialMT-48"/>
       <use x="166.845703" xlink:href="#ArialMT-51"/>
       <use x="222.460938" xlink:href="#ArialMT-45"/>
       <use x="255.761719" xlink:href="#ArialMT-48"/>
       <use x="311.376953" xlink:href="#ArialMT-51"/>
       <use x="366.992188" xlink:href="#ArialMT-45"/>
       <use x="400.292969" xlink:href="#ArialMT-48"/>
       <use x="455.908203" xlink:href="#ArialMT-49"/>
      </g>
     </g>
    </g>
    <g id="xtick_12">
     <g id="line2d_16">
      <path clip-path="url(#p43298bfc6c)" d="M 736.41 413.81375 
L 736.41 239.720625 
" style="fill:none;stroke:#ffffff;stroke-linecap:round;stroke-width:0.8;"/>
     </g>
     <g id="text_16">
      <!-- 2003-03-15 -->
      <g style="fill:#262626;" transform="translate(703.164531 430.118906)scale(0.13 -0.13)">
       <use xlink:href="#ArialMT-50"/>
       <use x="55.615234" xlink:href="#ArialMT-48"/>
       <use x="111.230469" xlink:href="#ArialMT-48"/>
       <use x="166.845703" xlink:href="#ArialMT-51"/>
       <use x="222.460938" xlink:href="#ArialMT-45"/>
       <use x="255.761719" xlink:href="#ArialMT-48"/>
       <use x="311.376953" xlink:href="#ArialMT-51"/>
       <use x="366.992188" xlink:href="#ArialMT-45"/>
       <use x="400.292969" xlink:href="#ArialMT-49"/>
       <use x="455.908203" xlink:href="#ArialMT-53"/>
      </g>
     </g>
    </g>
    <g id="xtick_13">
     <g id="line2d_17">
      <path clip-path="url(#p43298bfc6c)" d="M 898.942143 413.81375 
L 898.942143 239.720625 
" style="fill:none;stroke:#ffffff;stroke-linecap:round;stroke-width:0.8;"/>
     </g>
     <g id="text_17">
      <!-- 2003-04-01 -->
      <g style="fill:#262626;" transform="translate(865.696674 430.118906)scale(0.13 -0.13)">
       <use xlink:href="#ArialMT-50"/>
       <use x="55.615234" xlink:href="#ArialMT-48"/>
       <use x="111.230469" xlink:href="#ArialMT-48"/>
       <use x="166.845703" xlink:href="#ArialMT-51"/>
       <use x="222.460938" xlink:href="#ArialMT-45"/>
       <use x="255.761719" xlink:href="#ArialMT-48"/>
       <use x="311.376953" xlink:href="#ArialMT-52"/>
       <use x="366.992188" xlink:href="#ArialMT-45"/>
       <use x="400.292969" xlink:href="#ArialMT-48"/>
       <use x="455.908203" xlink:href="#ArialMT-49"/>
      </g>
     </g>
    </g>
    <g id="xtick_14">
     <g id="line2d_18">
      <path clip-path="url(#p43298bfc6c)" d="M 1032.792143 413.81375 
L 1032.792143 239.720625 
" style="fill:none;stroke:#ffffff;stroke-linecap:round;stroke-width:0.8;"/>
     </g>
     <g id="text_18">
      <!-- 2003-04-15 -->
      <g style="fill:#262626;" transform="translate(999.546674 430.118906)scale(0.13 -0.13)">
       <use xlink:href="#ArialMT-50"/>
       <use x="55.615234" xlink:href="#ArialMT-48"/>
       <use x="111.230469" xlink:href="#ArialMT-48"/>
       <use x="166.845703" xlink:href="#ArialMT-51"/>
       <use x="222.460938" xlink:href="#ArialMT-45"/>
       <use x="255.761719" xlink:href="#ArialMT-48"/>
       <use x="311.376953" xlink:href="#ArialMT-52"/>
       <use x="366.992188" xlink:href="#ArialMT-45"/>
       <use x="400.292969" xlink:href="#ArialMT-49"/>
       <use x="455.908203" xlink:href="#ArialMT-53"/>
      </g>
     </g>
    </g>
   </g>
   <g id="matplotlib.axis_4">
    <g id="ytick_4">
     <g id="line2d_19">
      <path clip-path="url(#p43298bfc6c)" d="M 67.16 402.260956 
L 1137.96 402.260956 
" style="fill:none;stroke:#ffffff;stroke-linecap:round;stroke-width:0.8;"/>
     </g>
     <g id="text_19">
      <!-- 250 -->
      <g style="fill:#262626;" transform="translate(38.472344 406.913534)scale(0.13 -0.13)">
       <use xlink:href="#ArialMT-50"/>
       <use x="55.615234" xlink:href="#ArialMT-53"/>
       <use x="111.230469" xlink:href="#ArialMT-48"/>
      </g>
     </g>
    </g>
    <g id="ytick_5">
     <g id="line2d_20">
      <path clip-path="url(#p43298bfc6c)" d="M 67.16 367.481785 
L 1137.96 367.481785 
" style="fill:none;stroke:#ffffff;stroke-linecap:round;stroke-width:0.8;"/>
     </g>
     <g id="text_20">
      <!-- 500 -->
      <g style="fill:#262626;" transform="translate(38.472344 372.134363)scale(0.13 -0.13)">
       <use xlink:href="#ArialMT-53"/>
       <use x="55.615234" xlink:href="#ArialMT-48"/>
       <use x="111.230469" xlink:href="#ArialMT-48"/>
      </g>
     </g>
    </g>
    <g id="ytick_6">
     <g id="line2d_21">
      <path clip-path="url(#p43298bfc6c)" d="M 67.16 332.702614 
L 1137.96 332.702614 
" style="fill:none;stroke:#ffffff;stroke-linecap:round;stroke-width:0.8;"/>
     </g>
     <g id="text_21">
      <!-- 750 -->
      <g style="fill:#262626;" transform="translate(38.472344 337.355193)scale(0.13 -0.13)">
       <use xlink:href="#ArialMT-55"/>
       <use x="55.615234" xlink:href="#ArialMT-53"/>
       <use x="111.230469" xlink:href="#ArialMT-48"/>
      </g>
     </g>
    </g>
    <g id="ytick_7">
     <g id="line2d_22">
      <path clip-path="url(#p43298bfc6c)" d="M 67.16 297.923444 
L 1137.96 297.923444 
" style="fill:none;stroke:#ffffff;stroke-linecap:round;stroke-width:0.8;"/>
     </g>
     <g id="text_22">
      <!-- 1000 -->
      <g style="fill:#262626;" transform="translate(31.243125 302.576022)scale(0.13 -0.13)">
       <use xlink:href="#ArialMT-49"/>
       <use x="55.615234" xlink:href="#ArialMT-48"/>
       <use x="111.230469" xlink:href="#ArialMT-48"/>
       <use x="166.845703" xlink:href="#ArialMT-48"/>
      </g>
     </g>
    </g>
    <g id="ytick_8">
     <g id="line2d_23">
      <path clip-path="url(#p43298bfc6c)" d="M 67.16 263.144273 
L 1137.96 263.144273 
" style="fill:none;stroke:#ffffff;stroke-linecap:round;stroke-width:0.8;"/>
     </g>
     <g id="text_23">
      <!-- 1250 -->
      <g style="fill:#262626;" transform="translate(31.243125 267.796851)scale(0.13 -0.13)">
       <use xlink:href="#ArialMT-49"/>
       <use x="55.615234" xlink:href="#ArialMT-50"/>
       <use x="111.230469" xlink:href="#ArialMT-53"/>
       <use x="166.845703" xlink:href="#ArialMT-48"/>
      </g>
     </g>
    </g>
    <g id="text_24">
     <!-- Trend -->
     <g style="fill:#262626;" transform="translate(24.659375 343.501641)rotate(-90)scale(0.13 -0.13)">
      <defs>
       <path d="M 25.921875 0 
L 25.921875 63.140625 
L 2.34375 63.140625 
L 2.34375 71.578125 
L 59.078125 71.578125 
L 59.078125 63.140625 
L 35.40625 63.140625 
L 35.40625 0 
z
" id="ArialMT-84"/>
       <path d="M 6.59375 0 
L 6.59375 51.859375 
L 14.5 51.859375 
L 14.5 44.484375 
Q 20.21875 53.03125 31 53.03125 
Q 35.6875 53.03125 39.625 51.34375 
Q 43.5625 49.65625 45.515625 46.921875 
Q 47.46875 44.1875 48.25 40.4375 
Q 48.734375 37.984375 48.734375 31.890625 
L 48.734375 0 
L 39.9375 0 
L 39.9375 31.546875 
Q 39.9375 36.921875 38.90625 39.578125 
Q 37.890625 42.234375 35.28125 43.8125 
Q 32.671875 45.40625 29.15625 45.40625 
Q 23.53125 45.40625 19.453125 41.84375 
Q 15.375 38.28125 15.375 28.328125 
L 15.375 0 
z
" id="ArialMT-110"/>
       <path d="M 40.234375 0 
L 40.234375 6.546875 
Q 35.296875 -1.171875 25.734375 -1.171875 
Q 19.53125 -1.171875 14.328125 2.25 
Q 9.125 5.671875 6.265625 11.796875 
Q 3.421875 17.921875 3.421875 25.875 
Q 3.421875 33.640625 6 39.96875 
Q 8.59375 46.296875 13.765625 49.65625 
Q 18.953125 53.03125 25.34375 53.03125 
Q 30.03125 53.03125 33.6875 51.046875 
Q 37.359375 49.078125 39.65625 45.90625 
L 39.65625 71.578125 
L 48.390625 71.578125 
L 48.390625 0 
z
M 12.453125 25.875 
Q 12.453125 15.921875 16.640625 10.984375 
Q 20.84375 6.0625 26.5625 6.0625 
Q 32.328125 6.0625 36.34375 10.765625 
Q 40.375 15.484375 40.375 25.140625 
Q 40.375 35.796875 36.265625 40.765625 
Q 32.171875 45.75 26.171875 45.75 
Q 20.3125 45.75 16.375 40.96875 
Q 12.453125 36.1875 12.453125 25.875 
z
" id="ArialMT-100"/>
      </defs>
      <use xlink:href="#ArialMT-84"/>
      <use x="57.333984" xlink:href="#ArialMT-114"/>
      <use x="90.634766" xlink:href="#ArialMT-101"/>
      <use x="146.25" xlink:href="#ArialMT-110"/>
      <use x="201.865234" xlink:href="#ArialMT-100"/>
     </g>
    </g>
   </g>
   <g id="line2d_24">
    <path clip-path="url(#p43298bfc6c)" d="M 67.16 346.295619 
L 76.720714 338.419473 
L 86.281429 330.629554 
L 95.842143 322.927863 
L 105.402857 315.311902 
L 114.963571 307.769741 
L 124.524286 300.391966 
L 134.085 294.462983 
L 143.645714 289.340872 
L 153.206429 285.012383 
L 162.767143 281.544259 
L 172.327857 279.281557 
L 181.888571 278.59528 
L 191.449286 279.702362 
L 201.01 282.713958 
L 210.570714 287.648845 
L 220.131429 294.478274 
L 229.692143 303.009554 
L 239.252857 312.769342 
L 248.813571 323.098643 
L 258.374286 333.442839 
L 267.935 343.636317 
L 277.495714 353.66985 
L 287.056429 363.543347 
L 296.617143 373.009462 
L 306.177857 381.147891 
L 315.738571 386.896424 
L 325.299286 389.525879 
L 334.86 388.716365 
L 344.420714 384.413041 
L 353.981429 376.6615 
L 363.542143 366.058147 
L 373.102857 354.376791 
L 382.663571 343.915683 
L 392.224286 336.445839 
L 401.785 332.561393 
L 411.345714 332.306359 
L 420.906429 335.627426 
L 430.467143 342.119324 
L 440.027857 350.731329 
L 449.588571 360.018533 
L 459.149286 368.793707 
L 468.71 376.697903 
L 478.270714 383.713096 
L 487.831429 389.847906 
L 497.392143 395.102145 
L 506.952857 399.375074 
L 516.513571 402.604811 
L 526.074286 404.792502 
L 535.635 405.897949 
L 545.195714 405.900426 
L 554.756429 404.810477 
L 564.317143 402.706607 
L 573.877857 399.754845 
L 583.438571 396.216631 
L 592.999286 392.328449 
L 602.56 388.143007 
L 612.120714 383.653955 
L 621.681429 378.863315 
L 631.242143 373.88828 
L 640.802857 369.127457 
L 650.363571 365.070353 
L 659.924286 362.076726 
L 669.485 360.290116 
L 679.045714 359.731067 
L 688.606429 360.381003 
L 698.167143 362.039742 
L 707.727857 364.133792 
L 717.288571 365.926973 
L 726.849286 366.855327 
L 736.41 366.736627 
L 745.970714 365.560413 
L 755.531429 363.339857 
L 765.092143 360.19743 
L 774.652857 356.472228 
L 784.213571 352.639947 
L 793.774286 349.093697 
L 803.335 345.95926 
L 812.895714 343.247125 
L 822.456429 340.950666 
L 832.017143 339.028631 
L 841.577857 337.395666 
L 851.138571 335.944816 
L 860.699286 334.590069 
L 870.26 333.313594 
L 879.820714 332.121634 
L 889.381429 331.013074 
L 898.942143 329.808118 
L 908.502857 327.873594 
L 918.063571 324.483173 
L 927.624286 319.13833 
L 937.185 311.633217 
L 946.745714 301.943084 
L 956.306429 290.099096 
L 965.867143 276.698097 
L 975.427857 263.680257 
L 984.988571 253.480653 
L 994.549286 247.909544 
L 1004.11 247.633949 
L 1013.670714 252.734094 
L 1023.231429 263.137603 
L 1032.792143 277.979317 
L 1042.352857 294.740256 
L 1051.913571 310.172769 
L 1061.474286 321.761798 
L 1071.035 328.663843 
L 1080.595714 330.819547 
L 1090.156429 324.598837 
L 1099.717143 317.635085 
L 1109.277857 310.200348 
L 1118.838571 302.242876 
L 1128.399286 293.7948 
L 1137.96 284.912724 
" style="fill:none;stroke:#1f77b4;stroke-linecap:round;stroke-width:1.5;"/>
   </g>
   <g id="patch_8">
    <path d="M 67.16 413.81375 
L 67.16 239.720625 
" style="fill:none;stroke:#ffffff;stroke-linecap:square;stroke-linejoin:miter;stroke-width:0.8;"/>
   </g>
   <g id="patch_9">
    <path d="M 1137.96 413.81375 
L 1137.96 239.720625 
" style="fill:none;stroke:#ffffff;stroke-linecap:square;stroke-linejoin:miter;stroke-width:0.8;"/>
   </g>
   <g id="patch_10">
    <path d="M 67.16 413.81375 
L 1137.96 413.81375 
" style="fill:none;stroke:#ffffff;stroke-linecap:square;stroke-linejoin:miter;stroke-width:0.8;"/>
   </g>
   <g id="patch_11">
    <path d="M 67.16 239.720625 
L 1137.96 239.720625 
" style="fill:none;stroke:#ffffff;stroke-linecap:square;stroke-linejoin:miter;stroke-width:0.8;"/>
   </g>
  </g>
  <g id="axes_3">
   <g id="patch_12">
    <path d="M 67.16 621.906875 
L 1137.96 621.906875 
L 1137.96 447.81375 
L 67.16 447.81375 
z
" style="fill:#eaeaf2;"/>
   </g>
   <g id="matplotlib.axis_5">
    <g id="xtick_15">
     <g id="line2d_25">
      <path clip-path="url(#pa6feb4c677)" d="M 172.327857 621.906875 
L 172.327857 447.81375 
" style="fill:none;stroke:#ffffff;stroke-linecap:round;stroke-width:0.8;"/>
     </g>
     <g id="text_25">
      <!-- 2003-01-15 -->
      <g style="fill:#262626;" transform="translate(139.082388 638.212031)scale(0.13 -0.13)">
       <use xlink:href="#ArialMT-50"/>
       <use x="55.615234" xlink:href="#ArialMT-48"/>
       <use x="111.230469" xlink:href="#ArialMT-48"/>
       <use x="166.845703" xlink:href="#ArialMT-51"/>
       <use x="222.460938" xlink:href="#ArialMT-45"/>
       <use x="255.761719" xlink:href="#ArialMT-48"/>
       <use x="311.376953" xlink:href="#ArialMT-49"/>
       <use x="366.992188" xlink:href="#ArialMT-45"/>
       <use x="400.292969" xlink:href="#ArialMT-49"/>
       <use x="455.908203" xlink:href="#ArialMT-53"/>
      </g>
     </g>
    </g>
    <g id="xtick_16">
     <g id="line2d_26">
      <path clip-path="url(#pa6feb4c677)" d="M 334.86 621.906875 
L 334.86 447.81375 
" style="fill:none;stroke:#ffffff;stroke-linecap:round;stroke-width:0.8;"/>
     </g>
     <g id="text_26">
      <!-- 2003-02-01 -->
      <g style="fill:#262626;" transform="translate(301.614531 638.212031)scale(0.13 -0.13)">
       <use xlink:href="#ArialMT-50"/>
       <use x="55.615234" xlink:href="#ArialMT-48"/>
       <use x="111.230469" xlink:href="#ArialMT-48"/>
       <use x="166.845703" xlink:href="#ArialMT-51"/>
       <use x="222.460938" xlink:href="#ArialMT-45"/>
       <use x="255.761719" xlink:href="#ArialMT-48"/>
       <use x="311.376953" xlink:href="#ArialMT-50"/>
       <use x="366.992188" xlink:href="#ArialMT-45"/>
       <use x="400.292969" xlink:href="#ArialMT-48"/>
       <use x="455.908203" xlink:href="#ArialMT-49"/>
      </g>
     </g>
    </g>
    <g id="xtick_17">
     <g id="line2d_27">
      <path clip-path="url(#pa6feb4c677)" d="M 468.71 621.906875 
L 468.71 447.81375 
" style="fill:none;stroke:#ffffff;stroke-linecap:round;stroke-width:0.8;"/>
     </g>
     <g id="text_27">
      <!-- 2003-02-15 -->
      <g style="fill:#262626;" transform="translate(435.464531 638.212031)scale(0.13 -0.13)">
       <use xlink:href="#ArialMT-50"/>
       <use x="55.615234" xlink:href="#ArialMT-48"/>
       <use x="111.230469" xlink:href="#ArialMT-48"/>
       <use x="166.845703" xlink:href="#ArialMT-51"/>
       <use x="222.460938" xlink:href="#ArialMT-45"/>
       <use x="255.761719" xlink:href="#ArialMT-48"/>
       <use x="311.376953" xlink:href="#ArialMT-50"/>
       <use x="366.992188" xlink:href="#ArialMT-45"/>
       <use x="400.292969" xlink:href="#ArialMT-49"/>
       <use x="455.908203" xlink:href="#ArialMT-53"/>
      </g>
     </g>
    </g>
    <g id="xtick_18">
     <g id="line2d_28">
      <path clip-path="url(#pa6feb4c677)" d="M 602.56 621.906875 
L 602.56 447.81375 
" style="fill:none;stroke:#ffffff;stroke-linecap:round;stroke-width:0.8;"/>
     </g>
     <g id="text_28">
      <!-- 2003-03-01 -->
      <g style="fill:#262626;" transform="translate(569.314531 638.212031)scale(0.13 -0.13)">
       <use xlink:href="#ArialMT-50"/>
       <use x="55.615234" xlink:href="#ArialMT-48"/>
       <use x="111.230469" xlink:href="#ArialMT-48"/>
       <use x="166.845703" xlink:href="#ArialMT-51"/>
       <use x="222.460938" xlink:href="#ArialMT-45"/>
       <use x="255.761719" xlink:href="#ArialMT-48"/>
       <use x="311.376953" xlink:href="#ArialMT-51"/>
       <use x="366.992188" xlink:href="#ArialMT-45"/>
       <use x="400.292969" xlink:href="#ArialMT-48"/>
       <use x="455.908203" xlink:href="#ArialMT-49"/>
      </g>
     </g>
    </g>
    <g id="xtick_19">
     <g id="line2d_29">
      <path clip-path="url(#pa6feb4c677)" d="M 736.41 621.906875 
L 736.41 447.81375 
" style="fill:none;stroke:#ffffff;stroke-linecap:round;stroke-width:0.8;"/>
     </g>
     <g id="text_29">
      <!-- 2003-03-15 -->
      <g style="fill:#262626;" transform="translate(703.164531 638.212031)scale(0.13 -0.13)">
       <use xlink:href="#ArialMT-50"/>
       <use x="55.615234" xlink:href="#ArialMT-48"/>
       <use x="111.230469" xlink:href="#ArialMT-48"/>
       <use x="166.845703" xlink:href="#ArialMT-51"/>
       <use x="222.460938" xlink:href="#ArialMT-45"/>
       <use x="255.761719" xlink:href="#ArialMT-48"/>
       <use x="311.376953" xlink:href="#ArialMT-51"/>
       <use x="366.992188" xlink:href="#ArialMT-45"/>
       <use x="400.292969" xlink:href="#ArialMT-49"/>
       <use x="455.908203" xlink:href="#ArialMT-53"/>
      </g>
     </g>
    </g>
    <g id="xtick_20">
     <g id="line2d_30">
      <path clip-path="url(#pa6feb4c677)" d="M 898.942143 621.906875 
L 898.942143 447.81375 
" style="fill:none;stroke:#ffffff;stroke-linecap:round;stroke-width:0.8;"/>
     </g>
     <g id="text_30">
      <!-- 2003-04-01 -->
      <g style="fill:#262626;" transform="translate(865.696674 638.212031)scale(0.13 -0.13)">
       <use xlink:href="#ArialMT-50"/>
       <use x="55.615234" xlink:href="#ArialMT-48"/>
       <use x="111.230469" xlink:href="#ArialMT-48"/>
       <use x="166.845703" xlink:href="#ArialMT-51"/>
       <use x="222.460938" xlink:href="#ArialMT-45"/>
       <use x="255.761719" xlink:href="#ArialMT-48"/>
       <use x="311.376953" xlink:href="#ArialMT-52"/>
       <use x="366.992188" xlink:href="#ArialMT-45"/>
       <use x="400.292969" xlink:href="#ArialMT-48"/>
       <use x="455.908203" xlink:href="#ArialMT-49"/>
      </g>
     </g>
    </g>
    <g id="xtick_21">
     <g id="line2d_31">
      <path clip-path="url(#pa6feb4c677)" d="M 1032.792143 621.906875 
L 1032.792143 447.81375 
" style="fill:none;stroke:#ffffff;stroke-linecap:round;stroke-width:0.8;"/>
     </g>
     <g id="text_31">
      <!-- 2003-04-15 -->
      <g style="fill:#262626;" transform="translate(999.546674 638.212031)scale(0.13 -0.13)">
       <use xlink:href="#ArialMT-50"/>
       <use x="55.615234" xlink:href="#ArialMT-48"/>
       <use x="111.230469" xlink:href="#ArialMT-48"/>
       <use x="166.845703" xlink:href="#ArialMT-51"/>
       <use x="222.460938" xlink:href="#ArialMT-45"/>
       <use x="255.761719" xlink:href="#ArialMT-48"/>
       <use x="311.376953" xlink:href="#ArialMT-52"/>
       <use x="366.992188" xlink:href="#ArialMT-45"/>
       <use x="400.292969" xlink:href="#ArialMT-49"/>
       <use x="455.908203" xlink:href="#ArialMT-53"/>
      </g>
     </g>
    </g>
   </g>
   <g id="matplotlib.axis_6">
    <g id="ytick_9">
     <g id="line2d_32">
      <path clip-path="url(#pa6feb4c677)" d="M 67.16 587.678549 
L 1137.96 587.678549 
" style="fill:none;stroke:#ffffff;stroke-linecap:round;stroke-width:0.8;"/>
     </g>
     <g id="text_32">
      <!-- 5 -->
      <g style="fill:#262626;" transform="translate(45.337969 592.331127)scale(0.13 -0.13)">
       <defs>
        <path d="M 52.828125 31.203125 
L 5.5625 31.203125 
L 5.5625 39.40625 
L 52.828125 39.40625 
z
" id="ArialMT-8722"/>
       </defs>
       <use xlink:href="#ArialMT-8722"/>
       <use x="58.398438" xlink:href="#ArialMT-53"/>
      </g>
     </g>
    </g>
    <g id="ytick_10">
     <g id="line2d_33">
      <path clip-path="url(#pa6feb4c677)" d="M 67.16 536.744941 
L 1137.96 536.744941 
" style="fill:none;stroke:#ffffff;stroke-linecap:round;stroke-width:0.8;"/>
     </g>
     <g id="text_33">
      <!-- 0 -->
      <g style="fill:#262626;" transform="translate(52.930781 541.397519)scale(0.13 -0.13)">
       <use xlink:href="#ArialMT-48"/>
      </g>
     </g>
    </g>
    <g id="ytick_11">
     <g id="line2d_34">
      <path clip-path="url(#pa6feb4c677)" d="M 67.16 485.811333 
L 1137.96 485.811333 
" style="fill:none;stroke:#ffffff;stroke-linecap:round;stroke-width:0.8;"/>
     </g>
     <g id="text_34">
      <!-- 5 -->
      <g style="fill:#262626;" transform="translate(52.930781 490.463912)scale(0.13 -0.13)">
       <use xlink:href="#ArialMT-53"/>
      </g>
     </g>
    </g>
    <g id="text_35">
     <!-- Season -->
     <g style="fill:#262626;" transform="translate(38.754219 556.904453)rotate(-90)scale(0.13 -0.13)">
      <defs>
       <path d="M 4.5 23 
L 13.421875 23.78125 
Q 14.0625 18.40625 16.375 14.96875 
Q 18.703125 11.53125 23.578125 9.40625 
Q 28.46875 7.28125 34.578125 7.28125 
Q 39.984375 7.28125 44.140625 8.890625 
Q 48.296875 10.5 50.3125 13.296875 
Q 52.34375 16.109375 52.34375 19.4375 
Q 52.34375 22.796875 50.390625 25.3125 
Q 48.4375 27.828125 43.953125 29.546875 
Q 41.0625 30.671875 31.203125 33.03125 
Q 21.34375 35.40625 17.390625 37.5 
Q 12.25 40.1875 9.734375 44.15625 
Q 7.234375 48.140625 7.234375 53.078125 
Q 7.234375 58.5 10.296875 63.203125 
Q 13.375 67.921875 19.28125 70.359375 
Q 25.203125 72.796875 32.421875 72.796875 
Q 40.375 72.796875 46.453125 70.234375 
Q 52.546875 67.671875 55.8125 62.6875 
Q 59.078125 57.71875 59.328125 51.421875 
L 50.25 50.734375 
Q 49.515625 57.515625 45.28125 60.984375 
Q 41.0625 64.453125 32.8125 64.453125 
Q 24.21875 64.453125 20.28125 61.296875 
Q 16.359375 58.15625 16.359375 53.71875 
Q 16.359375 49.859375 19.140625 47.359375 
Q 21.875 44.875 33.421875 42.265625 
Q 44.96875 39.65625 49.265625 37.703125 
Q 55.515625 34.8125 58.484375 30.390625 
Q 61.46875 25.984375 61.46875 20.21875 
Q 61.46875 14.5 58.203125 9.4375 
Q 54.9375 4.390625 48.796875 1.578125 
Q 42.671875 -1.21875 35.015625 -1.21875 
Q 25.296875 -1.21875 18.71875 1.609375 
Q 12.15625 4.4375 8.421875 10.125 
Q 4.6875 15.828125 4.5 23 
z
" id="ArialMT-83"/>
       <path d="M 3.328125 25.921875 
Q 3.328125 40.328125 11.328125 47.265625 
Q 18.015625 53.03125 27.640625 53.03125 
Q 38.328125 53.03125 45.109375 46.015625 
Q 51.90625 39.015625 51.90625 26.65625 
Q 51.90625 16.65625 48.90625 10.90625 
Q 45.90625 5.171875 40.15625 2 
Q 34.421875 -1.171875 27.640625 -1.171875 
Q 16.75 -1.171875 10.03125 5.8125 
Q 3.328125 12.796875 3.328125 25.921875 
z
M 12.359375 25.921875 
Q 12.359375 15.96875 16.703125 11.015625 
Q 21.046875 6.0625 27.640625 6.0625 
Q 34.1875 6.0625 38.53125 11.03125 
Q 42.875 16.015625 42.875 26.21875 
Q 42.875 35.84375 38.5 40.796875 
Q 34.125 45.75 27.640625 45.75 
Q 21.046875 45.75 16.703125 40.8125 
Q 12.359375 35.890625 12.359375 25.921875 
z
" id="ArialMT-111"/>
      </defs>
      <use xlink:href="#ArialMT-83"/>
      <use x="66.699219" xlink:href="#ArialMT-101"/>
      <use x="122.314453" xlink:href="#ArialMT-97"/>
      <use x="177.929688" xlink:href="#ArialMT-115"/>
      <use x="227.929688" xlink:href="#ArialMT-111"/>
      <use x="283.544922" xlink:href="#ArialMT-110"/>
     </g>
    </g>
   </g>
   <g id="line2d_35">
    <path clip-path="url(#pa6feb4c677)" d="M 67.16 467.025046 
L 76.720714 527.486875 
L 86.281429 567.545875 
L 95.842143 582.162511 
L 105.402857 573.053306 
L 114.963571 543.343323 
L 124.524286 494.556932 
L 134.085 478.230479 
L 143.645714 529.563851 
L 153.206429 562.58587 
L 162.767143 574.402204 
L 172.327857 566.641446 
L 181.888571 542.044706 
L 191.449286 501.921707 
L 201.01 488.437603 
L 210.570714 531.435359 
L 220.131429 558.121451 
L 229.692143 567.401626 
L 239.252857 560.836978 
L 248.813571 540.850851 
L 258.374286 508.568559 
L 267.935 497.509112 
L 277.495714 532.903554 
L 287.056429 553.984877 
L 296.617143 561.013162 
L 306.177857 555.556556 
L 315.738571 539.839236 
L 325.299286 514.895565 
L 334.86 505.921395 
L 344.420714 534.118996 
L 353.981429 550.028777 
L 363.542143 554.945648 
L 373.102857 550.524724 
L 382.663571 538.911014 
L 392.224286 521.141704 
L 401.785 514.224619 
L 411.345714 535.398699 
L 420.906429 546.314442 
L 430.467143 549.143177 
L 440.027857 545.63472 
L 449.588571 537.883641 
L 459.149286 526.951831 
L 468.71 522.17358 
L 478.270714 536.595034 
L 487.831429 542.785907 
L 497.392143 543.551595 
L 506.952857 540.788711 
L 516.513571 536.631181 
L 526.074286 532.233285 
L 535.635 530.520683 
L 545.195714 538.226347 
L 554.756429 539.504499 
L 564.317143 537.927048 
L 573.877857 535.578245 
L 583.438571 534.720648 
L 592.999286 536.658878 
L 602.56 540.916375 
L 612.120714 539.495463 
L 621.681429 539.73014 
L 631.242143 536.047281 
L 640.802857 531.510064 
L 650.363571 530.048423 
L 659.924286 534.235462 
L 669.485 537.605327 
L 679.045714 546.236695 
L 688.606429 547.513114 
L 698.167143 540.154887 
L 707.727857 529.237263 
L 717.288571 522.308087 
L 726.849286 524.636547 
L 736.41 533.364526 
L 745.970714 556.123717 
L 755.531429 557.435267 
L 765.092143 545.445945 
L 774.652857 527.250305 
L 784.213571 514.120334 
L 793.774286 514.091812 
L 803.335 527.826439 
L 812.895714 566.80732 
L 822.456429 568.023869 
L 832.017143 551.204262 
L 841.577857 525.452179 
L 851.138571 505.790539 
L 860.699286 503.038122 
L 870.26 521.296476 
L 879.820714 577.583764 
L 889.381429 578.960721 
L 898.942143 557.361487 
L 908.502857 523.931513 
L 918.063571 497.506948 
L 927.624286 491.738698 
L 937.185 514.026838 
L 946.745714 588.260528 
L 956.306429 590.197435 
L 965.867143 563.923197 
L 975.427857 522.686523 
L 984.988571 489.245756 
L 994.549286 480.17218 
L 1004.11 506.020881 
L 1013.670714 598.860681 
L 1023.231429 601.867981 
L 1032.792143 571.007183 
L 1042.352857 521.72389 
L 1051.913571 480.872371 
L 1061.474286 468.082933 
L 1071.035 496.971089 
L 1080.595714 609.348723 
L 1090.156429 613.993551 
L 1099.717143 578.524298 
L 1109.277857 520.814791 
L 1118.838571 472.219818 
L 1128.399286 455.727074 
L 1137.96 487.670655 
" style="fill:none;stroke:#1f77b4;stroke-linecap:round;stroke-width:1.5;"/>
   </g>
   <g id="patch_13">
    <path d="M 67.16 621.906875 
L 67.16 447.81375 
" style="fill:none;stroke:#ffffff;stroke-linecap:square;stroke-linejoin:miter;stroke-width:0.8;"/>
   </g>
   <g id="patch_14">
    <path d="M 1137.96 621.906875 
L 1137.96 447.81375 
" style="fill:none;stroke:#ffffff;stroke-linecap:square;stroke-linejoin:miter;stroke-width:0.8;"/>
   </g>
   <g id="patch_15">
    <path d="M 67.16 621.906875 
L 1137.96 621.906875 
" style="fill:none;stroke:#ffffff;stroke-linecap:square;stroke-linejoin:miter;stroke-width:0.8;"/>
   </g>
   <g id="patch_16">
    <path d="M 67.16 447.81375 
L 1137.96 447.81375 
" style="fill:none;stroke:#ffffff;stroke-linecap:square;stroke-linejoin:miter;stroke-width:0.8;"/>
   </g>
  </g>
  <g id="axes_4">
   <g id="patch_17">
    <path d="M 67.16 830 
L 1137.96 830 
L 1137.96 655.906875 
L 67.16 655.906875 
z
" style="fill:#eaeaf2;"/>
   </g>
   <g id="line2d_36">
    <path clip-path="url(#pca5252ffdf)" d="M 67.16 746.526389 
L 1137.96 746.526389 
" style="fill:none;stroke:#000000;stroke-linecap:round;stroke-width:1.5;"/>
   </g>
   <g id="matplotlib.axis_7">
    <g id="xtick_22">
     <g id="line2d_37">
      <path clip-path="url(#pca5252ffdf)" d="M 172.327857 830 
L 172.327857 655.906875 
" style="fill:none;stroke:#ffffff;stroke-linecap:round;stroke-width:0.8;"/>
     </g>
     <g id="text_36">
      <!-- 2003-01-15 -->
      <g style="fill:#262626;" transform="translate(139.082388 846.305156)scale(0.13 -0.13)">
       <use xlink:href="#ArialMT-50"/>
       <use x="55.615234" xlink:href="#ArialMT-48"/>
       <use x="111.230469" xlink:href="#ArialMT-48"/>
       <use x="166.845703" xlink:href="#ArialMT-51"/>
       <use x="222.460938" xlink:href="#ArialMT-45"/>
       <use x="255.761719" xlink:href="#ArialMT-48"/>
       <use x="311.376953" xlink:href="#ArialMT-49"/>
       <use x="366.992188" xlink:href="#ArialMT-45"/>
       <use x="400.292969" xlink:href="#ArialMT-49"/>
       <use x="455.908203" xlink:href="#ArialMT-53"/>
      </g>
     </g>
    </g>
    <g id="xtick_23">
     <g id="line2d_38">
      <path clip-path="url(#pca5252ffdf)" d="M 334.86 830 
L 334.86 655.906875 
" style="fill:none;stroke:#ffffff;stroke-linecap:round;stroke-width:0.8;"/>
     </g>
     <g id="text_37">
      <!-- 2003-02-01 -->
      <g style="fill:#262626;" transform="translate(301.614531 846.305156)scale(0.13 -0.13)">
       <use xlink:href="#ArialMT-50"/>
       <use x="55.615234" xlink:href="#ArialMT-48"/>
       <use x="111.230469" xlink:href="#ArialMT-48"/>
       <use x="166.845703" xlink:href="#ArialMT-51"/>
       <use x="222.460938" xlink:href="#ArialMT-45"/>
       <use x="255.761719" xlink:href="#ArialMT-48"/>
       <use x="311.376953" xlink:href="#ArialMT-50"/>
       <use x="366.992188" xlink:href="#ArialMT-45"/>
       <use x="400.292969" xlink:href="#ArialMT-48"/>
       <use x="455.908203" xlink:href="#ArialMT-49"/>
      </g>
     </g>
    </g>
    <g id="xtick_24">
     <g id="line2d_39">
      <path clip-path="url(#pca5252ffdf)" d="M 468.71 830 
L 468.71 655.906875 
" style="fill:none;stroke:#ffffff;stroke-linecap:round;stroke-width:0.8;"/>
     </g>
     <g id="text_38">
      <!-- 2003-02-15 -->
      <g style="fill:#262626;" transform="translate(435.464531 846.305156)scale(0.13 -0.13)">
       <use xlink:href="#ArialMT-50"/>
       <use x="55.615234" xlink:href="#ArialMT-48"/>
       <use x="111.230469" xlink:href="#ArialMT-48"/>
       <use x="166.845703" xlink:href="#ArialMT-51"/>
       <use x="222.460938" xlink:href="#ArialMT-45"/>
       <use x="255.761719" xlink:href="#ArialMT-48"/>
       <use x="311.376953" xlink:href="#ArialMT-50"/>
       <use x="366.992188" xlink:href="#ArialMT-45"/>
       <use x="400.292969" xlink:href="#ArialMT-49"/>
       <use x="455.908203" xlink:href="#ArialMT-53"/>
      </g>
     </g>
    </g>
    <g id="xtick_25">
     <g id="line2d_40">
      <path clip-path="url(#pca5252ffdf)" d="M 602.56 830 
L 602.56 655.906875 
" style="fill:none;stroke:#ffffff;stroke-linecap:round;stroke-width:0.8;"/>
     </g>
     <g id="text_39">
      <!-- 2003-03-01 -->
      <g style="fill:#262626;" transform="translate(569.314531 846.305156)scale(0.13 -0.13)">
       <use xlink:href="#ArialMT-50"/>
       <use x="55.615234" xlink:href="#ArialMT-48"/>
       <use x="111.230469" xlink:href="#ArialMT-48"/>
       <use x="166.845703" xlink:href="#ArialMT-51"/>
       <use x="222.460938" xlink:href="#ArialMT-45"/>
       <use x="255.761719" xlink:href="#ArialMT-48"/>
       <use x="311.376953" xlink:href="#ArialMT-51"/>
       <use x="366.992188" xlink:href="#ArialMT-45"/>
       <use x="400.292969" xlink:href="#ArialMT-48"/>
       <use x="455.908203" xlink:href="#ArialMT-49"/>
      </g>
     </g>
    </g>
    <g id="xtick_26">
     <g id="line2d_41">
      <path clip-path="url(#pca5252ffdf)" d="M 736.41 830 
L 736.41 655.906875 
" style="fill:none;stroke:#ffffff;stroke-linecap:round;stroke-width:0.8;"/>
     </g>
     <g id="text_40">
      <!-- 2003-03-15 -->
      <g style="fill:#262626;" transform="translate(703.164531 846.305156)scale(0.13 -0.13)">
       <use xlink:href="#ArialMT-50"/>
       <use x="55.615234" xlink:href="#ArialMT-48"/>
       <use x="111.230469" xlink:href="#ArialMT-48"/>
       <use x="166.845703" xlink:href="#ArialMT-51"/>
       <use x="222.460938" xlink:href="#ArialMT-45"/>
       <use x="255.761719" xlink:href="#ArialMT-48"/>
       <use x="311.376953" xlink:href="#ArialMT-51"/>
       <use x="366.992188" xlink:href="#ArialMT-45"/>
       <use x="400.292969" xlink:href="#ArialMT-49"/>
       <use x="455.908203" xlink:href="#ArialMT-53"/>
      </g>
     </g>
    </g>
    <g id="xtick_27">
     <g id="line2d_42">
      <path clip-path="url(#pca5252ffdf)" d="M 898.942143 830 
L 898.942143 655.906875 
" style="fill:none;stroke:#ffffff;stroke-linecap:round;stroke-width:0.8;"/>
     </g>
     <g id="text_41">
      <!-- 2003-04-01 -->
      <g style="fill:#262626;" transform="translate(865.696674 846.305156)scale(0.13 -0.13)">
       <use xlink:href="#ArialMT-50"/>
       <use x="55.615234" xlink:href="#ArialMT-48"/>
       <use x="111.230469" xlink:href="#ArialMT-48"/>
       <use x="166.845703" xlink:href="#ArialMT-51"/>
       <use x="222.460938" xlink:href="#ArialMT-45"/>
       <use x="255.761719" xlink:href="#ArialMT-48"/>
       <use x="311.376953" xlink:href="#ArialMT-52"/>
       <use x="366.992188" xlink:href="#ArialMT-45"/>
       <use x="400.292969" xlink:href="#ArialMT-48"/>
       <use x="455.908203" xlink:href="#ArialMT-49"/>
      </g>
     </g>
    </g>
    <g id="xtick_28">
     <g id="line2d_43">
      <path clip-path="url(#pca5252ffdf)" d="M 1032.792143 830 
L 1032.792143 655.906875 
" style="fill:none;stroke:#ffffff;stroke-linecap:round;stroke-width:0.8;"/>
     </g>
     <g id="text_42">
      <!-- 2003-04-15 -->
      <g style="fill:#262626;" transform="translate(999.546674 846.305156)scale(0.13 -0.13)">
       <use xlink:href="#ArialMT-50"/>
       <use x="55.615234" xlink:href="#ArialMT-48"/>
       <use x="111.230469" xlink:href="#ArialMT-48"/>
       <use x="166.845703" xlink:href="#ArialMT-51"/>
       <use x="222.460938" xlink:href="#ArialMT-45"/>
       <use x="255.761719" xlink:href="#ArialMT-48"/>
       <use x="311.376953" xlink:href="#ArialMT-52"/>
       <use x="366.992188" xlink:href="#ArialMT-45"/>
       <use x="400.292969" xlink:href="#ArialMT-49"/>
       <use x="455.908203" xlink:href="#ArialMT-53"/>
      </g>
     </g>
    </g>
   </g>
   <g id="matplotlib.axis_8">
    <g id="ytick_12">
     <g id="line2d_44">
      <path clip-path="url(#pca5252ffdf)" d="M 67.16 812.825947 
L 1137.96 812.825947 
" style="fill:none;stroke:#ffffff;stroke-linecap:round;stroke-width:0.8;"/>
     </g>
     <g id="text_43">
      <!-- 200 -->
      <g style="fill:#262626;" transform="translate(30.879531 817.478525)scale(0.13 -0.13)">
       <use xlink:href="#ArialMT-8722"/>
       <use x="58.398438" xlink:href="#ArialMT-50"/>
       <use x="114.013672" xlink:href="#ArialMT-48"/>
       <use x="169.628906" xlink:href="#ArialMT-48"/>
      </g>
     </g>
    </g>
    <g id="ytick_13">
     <g id="line2d_45">
      <path clip-path="url(#pca5252ffdf)" d="M 67.16 779.676168 
L 1137.96 779.676168 
" style="fill:none;stroke:#ffffff;stroke-linecap:round;stroke-width:0.8;"/>
     </g>
     <g id="text_44">
      <!-- 100 -->
      <g style="fill:#262626;" transform="translate(30.879531 784.328746)scale(0.13 -0.13)">
       <use xlink:href="#ArialMT-8722"/>
       <use x="58.398438" xlink:href="#ArialMT-49"/>
       <use x="114.013672" xlink:href="#ArialMT-48"/>
       <use x="169.628906" xlink:href="#ArialMT-48"/>
      </g>
     </g>
    </g>
    <g id="ytick_14">
     <g id="line2d_46">
      <path clip-path="url(#pca5252ffdf)" d="M 67.16 746.526389 
L 1137.96 746.526389 
" style="fill:none;stroke:#ffffff;stroke-linecap:round;stroke-width:0.8;"/>
     </g>
     <g id="text_45">
      <!-- 0 -->
      <g style="fill:#262626;" transform="translate(52.930781 751.178967)scale(0.13 -0.13)">
       <use xlink:href="#ArialMT-48"/>
      </g>
     </g>
    </g>
    <g id="ytick_15">
     <g id="line2d_47">
      <path clip-path="url(#pca5252ffdf)" d="M 67.16 713.37661 
L 1137.96 713.37661 
" style="fill:none;stroke:#ffffff;stroke-linecap:round;stroke-width:0.8;"/>
     </g>
     <g id="text_46">
      <!-- 100 -->
      <g style="fill:#262626;" transform="translate(38.472344 718.029188)scale(0.13 -0.13)">
       <use xlink:href="#ArialMT-49"/>
       <use x="55.615234" xlink:href="#ArialMT-48"/>
       <use x="111.230469" xlink:href="#ArialMT-48"/>
      </g>
     </g>
    </g>
    <g id="ytick_16">
     <g id="line2d_48">
      <path clip-path="url(#pca5252ffdf)" d="M 67.16 680.226831 
L 1137.96 680.226831 
" style="fill:none;stroke:#ffffff;stroke-linecap:round;stroke-width:0.8;"/>
     </g>
     <g id="text_47">
      <!-- 200 -->
      <g style="fill:#262626;" transform="translate(38.472344 684.87941)scale(0.13 -0.13)">
       <use xlink:href="#ArialMT-50"/>
       <use x="55.615234" xlink:href="#ArialMT-48"/>
       <use x="111.230469" xlink:href="#ArialMT-48"/>
      </g>
     </g>
    </g>
    <g id="text_48">
     <!-- Resid -->
     <g style="fill:#262626;" transform="translate(24.295781 759.571094)rotate(-90)scale(0.13 -0.13)">
      <defs>
       <path d="M 7.859375 0 
L 7.859375 71.578125 
L 39.59375 71.578125 
Q 49.171875 71.578125 54.140625 69.640625 
Q 59.125 67.71875 62.109375 62.828125 
Q 65.09375 57.953125 65.09375 52.046875 
Q 65.09375 44.4375 60.15625 39.203125 
Q 55.21875 33.984375 44.921875 32.5625 
Q 48.6875 30.765625 50.640625 29 
Q 54.78125 25.203125 58.5 19.484375 
L 70.953125 0 
L 59.03125 0 
L 49.5625 14.890625 
Q 45.40625 21.34375 42.71875 24.75 
Q 40.046875 28.171875 37.921875 29.53125 
Q 35.796875 30.90625 33.59375 31.453125 
Q 31.984375 31.78125 28.328125 31.78125 
L 17.328125 31.78125 
L 17.328125 0 
z
M 17.328125 39.984375 
L 37.703125 39.984375 
Q 44.1875 39.984375 47.84375 41.328125 
Q 51.515625 42.671875 53.421875 45.625 
Q 55.328125 48.578125 55.328125 52.046875 
Q 55.328125 57.125 51.640625 60.390625 
Q 47.953125 63.671875 39.984375 63.671875 
L 17.328125 63.671875 
z
" id="ArialMT-82"/>
      </defs>
      <use xlink:href="#ArialMT-82"/>
      <use x="72.216797" xlink:href="#ArialMT-101"/>
      <use x="127.832031" xlink:href="#ArialMT-115"/>
      <use x="177.832031" xlink:href="#ArialMT-105"/>
      <use x="200.048828" xlink:href="#ArialMT-100"/>
     </g>
    </g>
   </g>
   <g id="line2d_49">
    <defs>
     <path d="M 0 3 
C 0.795609 3 1.55874 2.683901 2.12132 2.12132 
C 2.683901 1.55874 3 0.795609 3 0 
C 3 -0.795609 2.683901 -1.55874 2.12132 -2.12132 
C 1.55874 -2.683901 0.795609 -3 0 -3 
C -0.795609 -3 -1.55874 -2.683901 -2.12132 -2.12132 
C -2.683901 -1.55874 -3 -0.795609 -3 0 
C -3 0.795609 -2.683901 1.55874 -2.12132 2.12132 
C -1.55874 2.683901 -0.795609 3 0 3 
z
" id="meba5e15a88" style="stroke:#1f77b4;"/>
    </defs>
    <g clip-path="url(#pca5252ffdf)">
     <use style="fill:#1f77b4;stroke:#1f77b4;" x="67.16" xlink:href="#meba5e15a88" y="751.875046"/>
     <use style="fill:#1f77b4;stroke:#1f77b4;" x="76.720714" xlink:href="#meba5e15a88" y="748.785499"/>
     <use style="fill:#1f77b4;stroke:#1f77b4;" x="86.281429" xlink:href="#meba5e15a88" y="746.154434"/>
     <use style="fill:#1f77b4;stroke:#1f77b4;" x="95.842143" xlink:href="#meba5e15a88" y="744.141085"/>
     <use style="fill:#1f77b4;stroke:#1f77b4;" x="105.402857" xlink:href="#meba5e15a88" y="742.69554"/>
     <use style="fill:#1f77b4;stroke:#1f77b4;" x="114.963571" xlink:href="#meba5e15a88" y="741.744535"/>
     <use style="fill:#1f77b4;stroke:#1f77b4;" x="124.524286" xlink:href="#meba5e15a88" y="741.022601"/>
     <use style="fill:#1f77b4;stroke:#1f77b4;" x="134.085" xlink:href="#meba5e15a88" y="735.792064"/>
     <use style="fill:#1f77b4;stroke:#1f77b4;" x="143.645714" xlink:href="#meba5e15a88" y="739.839034"/>
     <use style="fill:#1f77b4;stroke:#1f77b4;" x="153.206429" xlink:href="#meba5e15a88" y="742.590795"/>
     <use style="fill:#1f77b4;stroke:#1f77b4;" x="162.767143" xlink:href="#meba5e15a88" y="743.982489"/>
     <use style="fill:#1f77b4;stroke:#1f77b4;" x="172.327857" xlink:href="#meba5e15a88" y="743.138895"/>
     <use style="fill:#1f77b4;stroke:#1f77b4;" x="181.888571" xlink:href="#meba5e15a88" y="739.086752"/>
     <use style="fill:#1f77b4;stroke:#1f77b4;" x="191.449286" xlink:href="#meba5e15a88" y="731.266517"/>
     <use style="fill:#1f77b4;stroke:#1f77b4;" x="201.01" xlink:href="#meba5e15a88" y="718.041172"/>
     <use style="fill:#1f77b4;stroke:#1f77b4;" x="210.570714" xlink:href="#meba5e15a88" y="730.265969"/>
     <use style="fill:#1f77b4;stroke:#1f77b4;" x="220.131429" xlink:href="#meba5e15a88" y="738.507126"/>
     <use style="fill:#1f77b4;stroke:#1f77b4;" x="229.692143" xlink:href="#meba5e15a88" y="743.259406"/>
     <use style="fill:#1f77b4;stroke:#1f77b4;" x="239.252857" xlink:href="#meba5e15a88" y="745.599929"/>
     <use style="fill:#1f77b4;stroke:#1f77b4;" x="248.813571" xlink:href="#meba5e15a88" y="747.020137"/>
     <use style="fill:#1f77b4;stroke:#1f77b4;" x="258.374286" xlink:href="#meba5e15a88" y="748.804996"/>
     <use style="fill:#1f77b4;stroke:#1f77b4;" x="267.935" xlink:href="#meba5e15a88" y="750.258361"/>
     <use style="fill:#1f77b4;stroke:#1f77b4;" x="277.495714" xlink:href="#meba5e15a88" y="747.97652"/>
     <use style="fill:#1f77b4;stroke:#1f77b4;" x="287.056429" xlink:href="#meba5e15a88" y="746.541804"/>
     <use style="fill:#1f77b4;stroke:#1f77b4;" x="296.617143" xlink:href="#meba5e15a88" y="746.535144"/>
     <use style="fill:#1f77b4;stroke:#1f77b4;" x="306.177857" xlink:href="#meba5e15a88" y="750.098482"/>
     <use style="fill:#1f77b4;stroke:#1f77b4;" x="315.738571" xlink:href="#meba5e15a88" y="759.690551"/>
     <use style="fill:#1f77b4;stroke:#1f77b4;" x="325.299286" xlink:href="#meba5e15a88" y="777.01524"/>
     <use style="fill:#1f77b4;stroke:#1f77b4;" x="334.86" xlink:href="#meba5e15a88" y="802.014883"/>
     <use style="fill:#1f77b4;stroke:#1f77b4;" x="344.420714" xlink:href="#meba5e15a88" y="776.354866"/>
     <use style="fill:#1f77b4;stroke:#1f77b4;" x="353.981429" xlink:href="#meba5e15a88" y="759.311393"/>
     <use style="fill:#1f77b4;stroke:#1f77b4;" x="363.542143" xlink:href="#meba5e15a88" y="749.421165"/>
     <use style="fill:#1f77b4;stroke:#1f77b4;" x="373.102857" xlink:href="#meba5e15a88" y="742.403558"/>
     <use style="fill:#1f77b4;stroke:#1f77b4;" x="382.663571" xlink:href="#meba5e15a88" y="732.71232"/>
     <use style="fill:#1f77b4;stroke:#1f77b4;" x="392.224286" xlink:href="#meba5e15a88" y="716.093589"/>
     <use style="fill:#1f77b4;stroke:#1f77b4;" x="401.785" xlink:href="#meba5e15a88" y="690.578142"/>
     <use style="fill:#1f77b4;stroke:#1f77b4;" x="411.345714" xlink:href="#meba5e15a88" y="715.595924"/>
     <use style="fill:#1f77b4;stroke:#1f77b4;" x="420.906429" xlink:href="#meba5e15a88" y="732.426132"/>
     <use style="fill:#1f77b4;stroke:#1f77b4;" x="430.467143" xlink:href="#meba5e15a88" y="741.963809"/>
     <use style="fill:#1f77b4;stroke:#1f77b4;" x="440.027857" xlink:href="#meba5e15a88" y="746.65576"/>
     <use style="fill:#1f77b4;stroke:#1f77b4;" x="449.588571" xlink:href="#meba5e15a88" y="749.876861"/>
     <use style="fill:#1f77b4;stroke:#1f77b4;" x="459.149286" xlink:href="#meba5e15a88" y="754.421575"/>
     <use style="fill:#1f77b4;stroke:#1f77b4;" x="468.71" xlink:href="#meba5e15a88" y="760.841469"/>
     <use style="fill:#1f77b4;stroke:#1f77b4;" x="478.270714" xlink:href="#meba5e15a88" y="754.074331"/>
     <use style="fill:#1f77b4;stroke:#1f77b4;" x="487.831429" xlink:href="#meba5e15a88" y="749.672877"/>
     <use style="fill:#1f77b4;stroke:#1f77b4;" x="497.392143" xlink:href="#meba5e15a88" y="747.546263"/>
     <use style="fill:#1f77b4;stroke:#1f77b4;" x="506.952857" xlink:href="#meba5e15a88" y="747.872816"/>
     <use style="fill:#1f77b4;stroke:#1f77b4;" x="516.513571" xlink:href="#meba5e15a88" y="750.730551"/>
     <use style="fill:#1f77b4;stroke:#1f77b4;" x="526.074286" xlink:href="#meba5e15a88" y="756.079174"/>
     <use style="fill:#1f77b4;stroke:#1f77b4;" x="535.635" xlink:href="#meba5e15a88" y="763.919264"/>
     <use style="fill:#1f77b4;stroke:#1f77b4;" x="545.195714" xlink:href="#meba5e15a88" y="755.848726"/>
     <use style="fill:#1f77b4;stroke:#1f77b4;" x="554.756429" xlink:href="#meba5e15a88" y="750.590469"/>
     <use style="fill:#1f77b4;stroke:#1f77b4;" x="564.317143" xlink:href="#meba5e15a88" y="747.841187"/>
     <use style="fill:#1f77b4;stroke:#1f77b4;" x="573.877857" xlink:href="#meba5e15a88" y="747.137428"/>
     <use style="fill:#1f77b4;stroke:#1f77b4;" x="583.438571" xlink:href="#meba5e15a88" y="747.782585"/>
     <use style="fill:#1f77b4;stroke:#1f77b4;" x="592.999286" xlink:href="#meba5e15a88" y="749.17069"/>
     <use style="fill:#1f77b4;stroke:#1f77b4;" x="602.56" xlink:href="#meba5e15a88" y="751.191654"/>
     <use style="fill:#1f77b4;stroke:#1f77b4;" x="612.120714" xlink:href="#meba5e15a88" y="749.053689"/>
     <use style="fill:#1f77b4;stroke:#1f77b4;" x="621.681429" xlink:href="#meba5e15a88" y="747.580496"/>
     <use style="fill:#1f77b4;stroke:#1f77b4;" x="631.242143" xlink:href="#meba5e15a88" y="746.674178"/>
     <use style="fill:#1f77b4;stroke:#1f77b4;" x="640.802857" xlink:href="#meba5e15a88" y="745.285224"/>
     <use style="fill:#1f77b4;stroke:#1f77b4;" x="650.363571" xlink:href="#meba5e15a88" y="742.119307"/>
     <use style="fill:#1f77b4;stroke:#1f77b4;" x="659.924286" xlink:href="#meba5e15a88" y="736.235435"/>
     <use style="fill:#1f77b4;stroke:#1f77b4;" x="669.485" xlink:href="#meba5e15a88" y="727.501987"/>
     <use style="fill:#1f77b4;stroke:#1f77b4;" x="679.045714" xlink:href="#meba5e15a88" y="735.8462"/>
     <use style="fill:#1f77b4;stroke:#1f77b4;" x="688.606429" xlink:href="#meba5e15a88" y="741.548897"/>
     <use style="fill:#1f77b4;stroke:#1f77b4;" x="698.167143" xlink:href="#meba5e15a88" y="745.128731"/>
     <use style="fill:#1f77b4;stroke:#1f77b4;" x="707.727857" xlink:href="#meba5e15a88" y="747.787104"/>
     <use style="fill:#1f77b4;stroke:#1f77b4;" x="717.288571" xlink:href="#meba5e15a88" y="751.032618"/>
     <use style="fill:#1f77b4;stroke:#1f77b4;" x="726.849286" xlink:href="#meba5e15a88" y="756.037644"/>
     <use style="fill:#1f77b4;stroke:#1f77b4;" x="736.41" xlink:href="#meba5e15a88" y="763.329415"/>
     <use style="fill:#1f77b4;stroke:#1f77b4;" x="745.970714" xlink:href="#meba5e15a88" y="755.02041"/>
     <use style="fill:#1f77b4;stroke:#1f77b4;" x="755.531429" xlink:href="#meba5e15a88" y="749.897893"/>
     <use style="fill:#1f77b4;stroke:#1f77b4;" x="765.092143" xlink:href="#meba5e15a88" y="747.404919"/>
     <use style="fill:#1f77b4;stroke:#1f77b4;" x="774.652857" xlink:href="#meba5e15a88" y="746.502594"/>
     <use style="fill:#1f77b4;stroke:#1f77b4;" x="784.213571" xlink:href="#meba5e15a88" y="745.690574"/>
     <use style="fill:#1f77b4;stroke:#1f77b4;" x="793.774286" xlink:href="#meba5e15a88" y="743.770632"/>
     <use style="fill:#1f77b4;stroke:#1f77b4;" x="803.335" xlink:href="#meba5e15a88" y="740.421507"/>
     <use style="fill:#1f77b4;stroke:#1f77b4;" x="812.895714" xlink:href="#meba5e15a88" y="742.063906"/>
     <use style="fill:#1f77b4;stroke:#1f77b4;" x="822.456429" xlink:href="#meba5e15a88" y="743.944732"/>
     <use style="fill:#1f77b4;stroke:#1f77b4;" x="832.017143" xlink:href="#meba5e15a88" y="745.520286"/>
     <use style="fill:#1f77b4;stroke:#1f77b4;" x="841.577857" xlink:href="#meba5e15a88" y="746.697704"/>
     <use style="fill:#1f77b4;stroke:#1f77b4;" x="851.138571" xlink:href="#meba5e15a88" y="747.24297"/>
     <use style="fill:#1f77b4;stroke:#1f77b4;" x="860.699286" xlink:href="#meba5e15a88" y="747.00897"/>
     <use style="fill:#1f77b4;stroke:#1f77b4;" x="870.26" xlink:href="#meba5e15a88" y="745.904725"/>
     <use style="fill:#1f77b4;stroke:#1f77b4;" x="879.820714" xlink:href="#meba5e15a88" y="744.592825"/>
     <use style="fill:#1f77b4;stroke:#1f77b4;" x="889.381429" xlink:href="#meba5e15a88" y="744.869092"/>
     <use style="fill:#1f77b4;stroke:#1f77b4;" x="898.942143" xlink:href="#meba5e15a88" y="746.122754"/>
     <use style="fill:#1f77b4;stroke:#1f77b4;" x="908.502857" xlink:href="#meba5e15a88" y="749.499882"/>
     <use style="fill:#1f77b4;stroke:#1f77b4;" x="918.063571" xlink:href="#meba5e15a88" y="756.118263"/>
     <use style="fill:#1f77b4;stroke:#1f77b4;" x="927.624286" xlink:href="#meba5e15a88" y="766.721586"/>
     <use style="fill:#1f77b4;stroke:#1f77b4;" x="937.185" xlink:href="#meba5e15a88" y="781.559551"/>
     <use style="fill:#1f77b4;stroke:#1f77b4;" x="946.745714" xlink:href="#meba5e15a88" y="763.59104"/>
     <use style="fill:#1f77b4;stroke:#1f77b4;" x="956.306429" xlink:href="#meba5e15a88" y="753.107592"/>
     <use style="fill:#1f77b4;stroke:#1f77b4;" x="965.867143" xlink:href="#meba5e15a88" y="747.252357"/>
     <use style="fill:#1f77b4;stroke:#1f77b4;" x="975.427857" xlink:href="#meba5e15a88" y="740.971014"/>
     <use style="fill:#1f77b4;stroke:#1f77b4;" x="984.988571" xlink:href="#meba5e15a88" y="727.720468"/>
     <use style="fill:#1f77b4;stroke:#1f77b4;" x="994.549286" xlink:href="#meba5e15a88" y="702.647834"/>
     <use style="fill:#1f77b4;stroke:#1f77b4;" x="1004.11" xlink:href="#meba5e15a88" y="663.820199"/>
     <use style="fill:#1f77b4;stroke:#1f77b4;" x="1013.670714" xlink:href="#meba5e15a88" y="698.79686"/>
     <use style="fill:#1f77b4;stroke:#1f77b4;" x="1023.231429" xlink:href="#meba5e15a88" y="724.059605"/>
     <use style="fill:#1f77b4;stroke:#1f77b4;" x="1032.792143" xlink:href="#meba5e15a88" y="739.848798"/>
     <use style="fill:#1f77b4;stroke:#1f77b4;" x="1042.352857" xlink:href="#meba5e15a88" y="751.664224"/>
     <use style="fill:#1f77b4;stroke:#1f77b4;" x="1051.913571" xlink:href="#meba5e15a88" y="766.370738"/>
     <use style="fill:#1f77b4;stroke:#1f77b4;" x="1061.474286" xlink:href="#meba5e15a88" y="789.322594"/>
     <use style="fill:#1f77b4;stroke:#1f77b4;" x="1071.035" xlink:href="#meba5e15a88" y="822.086676"/>
     <use style="fill:#1f77b4;stroke:#1f77b4;" x="1080.595714" xlink:href="#meba5e15a88" y="784.736725"/>
     <use style="fill:#1f77b4;stroke:#1f77b4;" x="1090.156429" xlink:href="#meba5e15a88" y="770.852584"/>
     <use style="fill:#1f77b4;stroke:#1f77b4;" x="1099.717143" xlink:href="#meba5e15a88" y="760.04442"/>
     <use style="fill:#1f77b4;stroke:#1f77b4;" x="1109.277857" xlink:href="#meba5e15a88" y="751.082301"/>
     <use style="fill:#1f77b4;stroke:#1f77b4;" x="1118.838571" xlink:href="#meba5e15a88" y="743.069186"/>
     <use style="fill:#1f77b4;stroke:#1f77b4;" x="1128.399286" xlink:href="#meba5e15a88" y="735.180446"/>
     <use style="fill:#1f77b4;stroke:#1f77b4;" x="1137.96" xlink:href="#meba5e15a88" y="726.749652"/>
    </g>
   </g>
   <g id="patch_18">
    <path d="M 67.16 830 
L 67.16 655.906875 
" style="fill:none;stroke:#ffffff;stroke-linecap:square;stroke-linejoin:miter;stroke-width:0.8;"/>
   </g>
   <g id="patch_19">
    <path d="M 1137.96 830 
L 1137.96 655.906875 
" style="fill:none;stroke:#ffffff;stroke-linecap:square;stroke-linejoin:miter;stroke-width:0.8;"/>
   </g>
   <g id="patch_20">
    <path d="M 67.16 830 
L 1137.96 830 
" style="fill:none;stroke:#ffffff;stroke-linecap:square;stroke-linejoin:miter;stroke-width:0.8;"/>
   </g>
   <g id="patch_21">
    <path d="M 67.16 655.906875 
L 1137.96 655.906875 
" style="fill:none;stroke:#ffffff;stroke-linecap:square;stroke-linejoin:miter;stroke-width:0.8;"/>
   </g>
  </g>
 </g>
 <defs>
  <clipPath id="pcd3f90e7cf">
   <rect height="174.093125" width="1070.8" x="67.16" y="31.6275"/>
  </clipPath>
  <clipPath id="p43298bfc6c">
   <rect height="174.093125" width="1070.8" x="67.16" y="239.720625"/>
  </clipPath>
  <clipPath id="pa6feb4c677">
   <rect height="174.093125" width="1070.8" x="67.16" y="447.81375"/>
  </clipPath>
  <clipPath id="pca5252ffdf">
   <rect height="174.093125" width="1070.8" x="67.16" y="655.906875"/>
  </clipPath>
 </defs>
</svg>
