<?xml version="1.0" encoding="utf-8" standalone="no"?>
<!DOCTYPE svg PUBLIC "-//W3C//DTD SVG 1.1//EN"
  "http://www.w3.org/Graphics/SVG/1.1/DTD/svg11.dtd">
<!-- Created with matplotlib (https://matplotlib.org/) -->
<svg height="864pt" version="1.1" viewBox="0 0 1152 864" width="1152pt" xmlns="http://www.w3.org/2000/svg" xmlns:xlink="http://www.w3.org/1999/xlink">
 <metadata>
  <rdf:RDF xmlns:cc="http://creativecommons.org/ns#" xmlns:dc="http://purl.org/dc/elements/1.1/" xmlns:rdf="http://www.w3.org/1999/02/22-rdf-syntax-ns#">
   <cc:Work>
    <dc:type rdf:resource="http://purl.org/dc/dcmitype/StillImage"/>
    <dc:date>2021-03-10T13:04:05.904033</dc:date>
    <dc:format>image/svg+xml</dc:format>
    <dc:creator>
     <cc:Agent>
      <dc:title>Matplotlib v3.3.4, https://matplotlib.org/</dc:title>
     </cc:Agent>
    </dc:creator>
   </cc:Work>
  </rdf:RDF>
 </metadata>
 <defs>
  <style type="text/css">*{stroke-linecap:butt;stroke-linejoin:round;}</style>
 </defs>
 <g id="figure_1">
  <g id="patch_1">
   <path d="M 0 864 
L 1152 864 
L 1152 0 
L 0 0 
z
" style="fill:#ffffff;"/>
  </g>
  <g id="axes_1">
   <g id="patch_2">
    <path d="M 67.16 202.052979 
L 1137.96 202.052979 
L 1137.96 31.6275 
L 67.16 31.6275 
z
" style="fill:#eaeaf2;"/>
   </g>
   <g id="matplotlib.axis_1">
    <g id="xtick_1">
     <g id="line2d_1">
      <path clip-path="url(#p9a449d136e)" d="M 172.327857 202.052979 
L 172.327857 31.6275 
" style="fill:none;stroke:#ffffff;stroke-linecap:round;stroke-width:0.8;"/>
     </g>
     <g id="text_1">
      <!-- 2003-01-15 -->
      <g style="fill:#262626;" transform="translate(139.082388 218.358135)scale(0.13 -0.13)">
       <defs>
        <path d="M 50.34375 8.453125 
L 50.34375 0 
L 3.03125 0 
Q 2.9375 3.171875 4.046875 6.109375 
Q 5.859375 10.9375 9.828125 15.625 
Q 13.8125 20.3125 21.34375 26.46875 
Q 33.015625 36.03125 37.109375 41.625 
Q 41.21875 47.21875 41.21875 52.203125 
Q 41.21875 57.421875 37.46875 61 
Q 33.734375 64.59375 27.734375 64.59375 
Q 21.390625 64.59375 17.578125 60.78125 
Q 13.765625 56.984375 13.71875 50.25 
L 4.6875 51.171875 
Q 5.609375 61.28125 11.65625 66.578125 
Q 17.71875 71.875 27.9375 71.875 
Q 38.234375 71.875 44.234375 66.15625 
Q 50.25 60.453125 50.25 52 
Q 50.25 47.703125 48.484375 43.546875 
Q 46.734375 39.40625 42.65625 34.8125 
Q 38.578125 30.21875 29.109375 22.21875 
Q 21.1875 15.578125 18.9375 13.203125 
Q 16.703125 10.84375 15.234375 8.453125 
z
" id="ArialMT-50"/>
        <path d="M 4.15625 35.296875 
Q 4.15625 48 6.765625 55.734375 
Q 9.375 63.484375 14.515625 67.671875 
Q 19.671875 71.875 27.484375 71.875 
Q 33.25 71.875 37.59375 69.546875 
Q 41.9375 67.234375 44.765625 62.859375 
Q 47.609375 58.5 49.21875 52.21875 
Q 50.828125 45.953125 50.828125 35.296875 
Q 50.828125 22.703125 48.234375 14.96875 
Q 45.65625 7.234375 40.5 3 
Q 35.359375 -1.21875 27.484375 -1.21875 
Q 17.140625 -1.21875 11.234375 6.203125 
Q 4.15625 15.140625 4.15625 35.296875 
z
M 13.1875 35.296875 
Q 13.1875 17.671875 17.3125 11.828125 
Q 21.4375 6 27.484375 6 
Q 33.546875 6 37.671875 11.859375 
Q 41.796875 17.71875 41.796875 35.296875 
Q 41.796875 52.984375 37.671875 58.78125 
Q 33.546875 64.59375 27.390625 64.59375 
Q 21.34375 64.59375 17.71875 59.46875 
Q 13.1875 52.9375 13.1875 35.296875 
z
" id="ArialMT-48"/>
        <path d="M 4.203125 18.890625 
L 12.984375 20.0625 
Q 14.5 12.59375 18.140625 9.296875 
Q 21.78125 6 27 6 
Q 33.203125 6 37.46875 10.296875 
Q 41.75 14.59375 41.75 20.953125 
Q 41.75 27 37.796875 30.921875 
Q 33.84375 34.859375 27.734375 34.859375 
Q 25.25 34.859375 21.53125 33.890625 
L 22.515625 41.609375 
Q 23.390625 41.5 23.921875 41.5 
Q 29.546875 41.5 34.03125 44.421875 
Q 38.53125 47.359375 38.53125 53.46875 
Q 38.53125 58.296875 35.25 61.46875 
Q 31.984375 64.65625 26.8125 64.65625 
Q 21.6875 64.65625 18.265625 61.421875 
Q 14.84375 58.203125 13.875 51.765625 
L 5.078125 53.328125 
Q 6.6875 62.15625 12.390625 67.015625 
Q 18.109375 71.875 26.609375 71.875 
Q 32.46875 71.875 37.390625 69.359375 
Q 42.328125 66.84375 44.9375 62.5 
Q 47.5625 58.15625 47.5625 53.265625 
Q 47.5625 48.640625 45.0625 44.828125 
Q 42.578125 41.015625 37.703125 38.765625 
Q 44.046875 37.3125 47.5625 32.6875 
Q 51.078125 28.078125 51.078125 21.140625 
Q 51.078125 11.765625 44.234375 5.25 
Q 37.40625 -1.265625 26.953125 -1.265625 
Q 17.53125 -1.265625 11.296875 4.34375 
Q 5.078125 9.96875 4.203125 18.890625 
z
" id="ArialMT-51"/>
        <path d="M 3.171875 21.484375 
L 3.171875 30.328125 
L 30.171875 30.328125 
L 30.171875 21.484375 
z
" id="ArialMT-45"/>
        <path d="M 37.25 0 
L 28.46875 0 
L 28.46875 56 
Q 25.296875 52.984375 20.140625 49.953125 
Q 14.984375 46.921875 10.890625 45.40625 
L 10.890625 53.90625 
Q 18.265625 57.375 23.78125 62.296875 
Q 29.296875 67.234375 31.59375 71.875 
L 37.25 71.875 
z
" id="ArialMT-49"/>
        <path d="M 4.15625 18.75 
L 13.375 19.53125 
Q 14.40625 12.796875 18.140625 9.390625 
Q 21.875 6 27.15625 6 
Q 33.5 6 37.890625 10.78125 
Q 42.28125 15.578125 42.28125 23.484375 
Q 42.28125 31 38.0625 35.34375 
Q 33.84375 39.703125 27 39.703125 
Q 22.75 39.703125 19.328125 37.765625 
Q 15.921875 35.84375 13.96875 32.765625 
L 5.71875 33.84375 
L 12.640625 70.609375 
L 48.25 70.609375 
L 48.25 62.203125 
L 19.671875 62.203125 
L 15.828125 42.96875 
Q 22.265625 47.46875 29.34375 47.46875 
Q 38.71875 47.46875 45.15625 40.96875 
Q 51.609375 34.46875 51.609375 24.265625 
Q 51.609375 14.546875 45.953125 7.46875 
Q 39.0625 -1.21875 27.15625 -1.21875 
Q 17.390625 -1.21875 11.203125 4.25 
Q 5.03125 9.71875 4.15625 18.75 
z
" id="ArialMT-53"/>
       </defs>
       <use xlink:href="#ArialMT-50"/>
       <use x="55.615234" xlink:href="#ArialMT-48"/>
       <use x="111.230469" xlink:href="#ArialMT-48"/>
       <use x="166.845703" xlink:href="#ArialMT-51"/>
       <use x="222.460938" xlink:href="#ArialMT-45"/>
       <use x="255.761719" xlink:href="#ArialMT-48"/>
       <use x="311.376953" xlink:href="#ArialMT-49"/>
       <use x="366.992188" xlink:href="#ArialMT-45"/>
       <use x="400.292969" xlink:href="#ArialMT-49"/>
       <use x="455.908203" xlink:href="#ArialMT-53"/>
      </g>
     </g>
    </g>
    <g id="xtick_2">
     <g id="line2d_2">
      <path clip-path="url(#p9a449d136e)" d="M 334.86 202.052979 
L 334.86 31.6275 
" style="fill:none;stroke:#ffffff;stroke-linecap:round;stroke-width:0.8;"/>
     </g>
     <g id="text_2">
      <!-- 2003-02-01 -->
      <g style="fill:#262626;" transform="translate(301.614531 218.358135)scale(0.13 -0.13)">
       <use xlink:href="#ArialMT-50"/>
       <use x="55.615234" xlink:href="#ArialMT-48"/>
       <use x="111.230469" xlink:href="#ArialMT-48"/>
       <use x="166.845703" xlink:href="#ArialMT-51"/>
       <use x="222.460938" xlink:href="#ArialMT-45"/>
       <use x="255.761719" xlink:href="#ArialMT-48"/>
       <use x="311.376953" xlink:href="#ArialMT-50"/>
       <use x="366.992188" xlink:href="#ArialMT-45"/>
       <use x="400.292969" xlink:href="#ArialMT-48"/>
       <use x="455.908203" xlink:href="#ArialMT-49"/>
      </g>
     </g>
    </g>
    <g id="xtick_3">
     <g id="line2d_3">
      <path clip-path="url(#p9a449d136e)" d="M 468.71 202.052979 
L 468.71 31.6275 
" style="fill:none;stroke:#ffffff;stroke-linecap:round;stroke-width:0.8;"/>
     </g>
     <g id="text_3">
      <!-- 2003-02-15 -->
      <g style="fill:#262626;" transform="translate(435.464531 218.358135)scale(0.13 -0.13)">
       <use xlink:href="#ArialMT-50"/>
       <use x="55.615234" xlink:href="#ArialMT-48"/>
       <use x="111.230469" xlink:href="#ArialMT-48"/>
       <use x="166.845703" xlink:href="#ArialMT-51"/>
       <use x="222.460938" xlink:href="#ArialMT-45"/>
       <use x="255.761719" xlink:href="#ArialMT-48"/>
       <use x="311.376953" xlink:href="#ArialMT-50"/>
       <use x="366.992188" xlink:href="#ArialMT-45"/>
       <use x="400.292969" xlink:href="#ArialMT-49"/>
       <use x="455.908203" xlink:href="#ArialMT-53"/>
      </g>
     </g>
    </g>
    <g id="xtick_4">
     <g id="line2d_4">
      <path clip-path="url(#p9a449d136e)" d="M 602.56 202.052979 
L 602.56 31.6275 
" style="fill:none;stroke:#ffffff;stroke-linecap:round;stroke-width:0.8;"/>
     </g>
     <g id="text_4">
      <!-- 2003-03-01 -->
      <g style="fill:#262626;" transform="translate(569.314531 218.358135)scale(0.13 -0.13)">
       <use xlink:href="#ArialMT-50"/>
       <use x="55.615234" xlink:href="#ArialMT-48"/>
       <use x="111.230469" xlink:href="#ArialMT-48"/>
       <use x="166.845703" xlink:href="#ArialMT-51"/>
       <use x="222.460938" xlink:href="#ArialMT-45"/>
       <use x="255.761719" xlink:href="#ArialMT-48"/>
       <use x="311.376953" xlink:href="#ArialMT-51"/>
       <use x="366.992188" xlink:href="#ArialMT-45"/>
       <use x="400.292969" xlink:href="#ArialMT-48"/>
       <use x="455.908203" xlink:href="#ArialMT-49"/>
      </g>
     </g>
    </g>
    <g id="xtick_5">
     <g id="line2d_5">
      <path clip-path="url(#p9a449d136e)" d="M 736.41 202.052979 
L 736.41 31.6275 
" style="fill:none;stroke:#ffffff;stroke-linecap:round;stroke-width:0.8;"/>
     </g>
     <g id="text_5">
      <!-- 2003-03-15 -->
      <g style="fill:#262626;" transform="translate(703.164531 218.358135)scale(0.13 -0.13)">
       <use xlink:href="#ArialMT-50"/>
       <use x="55.615234" xlink:href="#ArialMT-48"/>
       <use x="111.230469" xlink:href="#ArialMT-48"/>
       <use x="166.845703" xlink:href="#ArialMT-51"/>
       <use x="222.460938" xlink:href="#ArialMT-45"/>
       <use x="255.761719" xlink:href="#ArialMT-48"/>
       <use x="311.376953" xlink:href="#ArialMT-51"/>
       <use x="366.992188" xlink:href="#ArialMT-45"/>
       <use x="400.292969" xlink:href="#ArialMT-49"/>
       <use x="455.908203" xlink:href="#ArialMT-53"/>
      </g>
     </g>
    </g>
    <g id="xtick_6">
     <g id="line2d_6">
      <path clip-path="url(#p9a449d136e)" d="M 898.942143 202.052979 
L 898.942143 31.6275 
" style="fill:none;stroke:#ffffff;stroke-linecap:round;stroke-width:0.8;"/>
     </g>
     <g id="text_6">
      <!-- 2003-04-01 -->
      <g style="fill:#262626;" transform="translate(865.696674 218.358135)scale(0.13 -0.13)">
       <defs>
        <path d="M 32.328125 0 
L 32.328125 17.140625 
L 1.265625 17.140625 
L 1.265625 25.203125 
L 33.9375 71.578125 
L 41.109375 71.578125 
L 41.109375 25.203125 
L 50.78125 25.203125 
L 50.78125 17.140625 
L 41.109375 17.140625 
L 41.109375 0 
z
M 32.328125 25.203125 
L 32.328125 57.46875 
L 9.90625 25.203125 
z
" id="ArialMT-52"/>
       </defs>
       <use xlink:href="#ArialMT-50"/>
       <use x="55.615234" xlink:href="#ArialMT-48"/>
       <use x="111.230469" xlink:href="#ArialMT-48"/>
       <use x="166.845703" xlink:href="#ArialMT-51"/>
       <use x="222.460938" xlink:href="#ArialMT-45"/>
       <use x="255.761719" xlink:href="#ArialMT-48"/>
       <use x="311.376953" xlink:href="#ArialMT-52"/>
       <use x="366.992188" xlink:href="#ArialMT-45"/>
       <use x="400.292969" xlink:href="#ArialMT-48"/>
       <use x="455.908203" xlink:href="#ArialMT-49"/>
      </g>
     </g>
    </g>
    <g id="xtick_7">
     <g id="line2d_7">
      <path clip-path="url(#p9a449d136e)" d="M 1032.792143 202.052979 
L 1032.792143 31.6275 
" style="fill:none;stroke:#ffffff;stroke-linecap:round;stroke-width:0.8;"/>
     </g>
     <g id="text_7">
      <!-- 2003-04-15 -->
      <g style="fill:#262626;" transform="translate(999.546674 218.358135)scale(0.13 -0.13)">
       <use xlink:href="#ArialMT-50"/>
       <use x="55.615234" xlink:href="#ArialMT-48"/>
       <use x="111.230469" xlink:href="#ArialMT-48"/>
       <use x="166.845703" xlink:href="#ArialMT-51"/>
       <use x="222.460938" xlink:href="#ArialMT-45"/>
       <use x="255.761719" xlink:href="#ArialMT-48"/>
       <use x="311.376953" xlink:href="#ArialMT-52"/>
       <use x="366.992188" xlink:href="#ArialMT-45"/>
       <use x="400.292969" xlink:href="#ArialMT-49"/>
       <use x="455.908203" xlink:href="#ArialMT-53"/>
      </g>
     </g>
    </g>
   </g>
   <g id="matplotlib.axis_2">
    <g id="ytick_1">
     <g id="line2d_8">
      <path clip-path="url(#p9a449d136e)" d="M 67.16 169.414949 
L 1137.96 169.414949 
" style="fill:none;stroke:#ffffff;stroke-linecap:round;stroke-width:0.8;"/>
     </g>
     <g id="text_8">
      <!-- 500 -->
      <g style="fill:#262626;" transform="translate(38.472344 174.067527)scale(0.13 -0.13)">
       <use xlink:href="#ArialMT-53"/>
       <use x="55.615234" xlink:href="#ArialMT-48"/>
       <use x="111.230469" xlink:href="#ArialMT-48"/>
      </g>
     </g>
    </g>
    <g id="ytick_2">
     <g id="line2d_9">
      <path clip-path="url(#p9a449d136e)" d="M 67.16 135.777899 
L 1137.96 135.777899 
" style="fill:none;stroke:#ffffff;stroke-linecap:round;stroke-width:0.8;"/>
     </g>
     <g id="text_9">
      <!-- 1000 -->
      <g style="fill:#262626;" transform="translate(31.243125 140.430477)scale(0.13 -0.13)">
       <use xlink:href="#ArialMT-49"/>
       <use x="55.615234" xlink:href="#ArialMT-48"/>
       <use x="111.230469" xlink:href="#ArialMT-48"/>
       <use x="166.845703" xlink:href="#ArialMT-48"/>
      </g>
     </g>
    </g>
    <g id="ytick_3">
     <g id="line2d_10">
      <path clip-path="url(#p9a449d136e)" d="M 67.16 102.140848 
L 1137.96 102.140848 
" style="fill:none;stroke:#ffffff;stroke-linecap:round;stroke-width:0.8;"/>
     </g>
     <g id="text_10">
      <!-- 1500 -->
      <g style="fill:#262626;" transform="translate(31.243125 106.793427)scale(0.13 -0.13)">
       <use xlink:href="#ArialMT-49"/>
       <use x="55.615234" xlink:href="#ArialMT-53"/>
       <use x="111.230469" xlink:href="#ArialMT-48"/>
       <use x="166.845703" xlink:href="#ArialMT-48"/>
      </g>
     </g>
    </g>
    <g id="ytick_4">
     <g id="line2d_11">
      <path clip-path="url(#p9a449d136e)" d="M 67.16 68.503798 
L 1137.96 68.503798 
" style="fill:none;stroke:#ffffff;stroke-linecap:round;stroke-width:0.8;"/>
     </g>
     <g id="text_11">
      <!-- 2000 -->
      <g style="fill:#262626;" transform="translate(31.243125 73.156376)scale(0.13 -0.13)">
       <use xlink:href="#ArialMT-50"/>
       <use x="55.615234" xlink:href="#ArialMT-48"/>
       <use x="111.230469" xlink:href="#ArialMT-48"/>
       <use x="166.845703" xlink:href="#ArialMT-48"/>
      </g>
     </g>
    </g>
    <g id="ytick_5">
     <g id="line2d_12">
      <path clip-path="url(#p9a449d136e)" d="M 67.16 34.866748 
L 1137.96 34.866748 
" style="fill:none;stroke:#ffffff;stroke-linecap:round;stroke-width:0.8;"/>
     </g>
     <g id="text_12">
      <!-- 2500 -->
      <g style="fill:#262626;" transform="translate(31.243125 39.519326)scale(0.13 -0.13)">
       <use xlink:href="#ArialMT-50"/>
       <use x="55.615234" xlink:href="#ArialMT-53"/>
       <use x="111.230469" xlink:href="#ArialMT-48"/>
       <use x="166.845703" xlink:href="#ArialMT-48"/>
      </g>
     </g>
    </g>
   </g>
   <g id="line2d_13">
    <path clip-path="url(#p9a449d136e)" d="M 67.16 100.728092 
L 76.720714 108.666436 
L 86.281429 116.60478 
L 95.842143 124.543124 
L 105.402857 132.481468 
L 114.963571 140.419812 
L 124.524286 148.358156 
L 134.085 156.296499 
L 143.645714 158.343554 
L 153.206429 160.390609 
L 162.767143 162.437664 
L 172.327857 164.484719 
L 181.888571 166.531773 
L 191.449286 168.578828 
L 201.01 170.625883 
L 210.570714 164.532771 
L 220.131429 158.43966 
L 229.692143 152.346549 
L 239.252857 146.253437 
L 248.813571 140.160326 
L 258.374286 134.067215 
L 267.935 127.974103 
L 277.495714 137.450141 
L 287.056429 146.926178 
L 296.617143 156.402216 
L 306.177857 165.878253 
L 315.738571 175.354291 
L 325.299286 184.830329 
L 334.86 194.306366 
L 344.420714 172.173187 
L 353.981429 150.040008 
L 363.542143 127.906829 
L 373.102857 105.77365 
L 382.663571 83.640471 
L 392.224286 61.507292 
L 401.785 39.374113 
L 411.345714 54.155194 
L 420.906429 68.936275 
L 430.467143 83.717356 
L 440.027857 98.498436 
L 449.588571 113.279517 
L 459.149286 128.060598 
L 468.71 142.841679 
L 478.270714 146.974231 
L 487.831429 151.106783 
L 497.392143 155.239335 
L 506.952857 159.371887 
L 516.513571 163.504439 
L 526.074286 167.636991 
L 535.635 171.769543 
L 545.195714 159.765921 
L 554.756429 147.762299 
L 564.317143 135.758678 
L 573.877857 123.755056 
L 583.438571 111.751434 
L 592.999286 99.747813 
L 602.56 87.744191 
L 612.120714 84.985953 
L 621.681429 82.227715 
L 631.242143 79.469477 
L 640.802857 76.711238 
L 650.363571 73.953 
L 659.924286 71.194762 
L 669.485 68.436524 
L 679.045714 72.857394 
L 688.606429 77.278263 
L 698.167143 81.699132 
L 707.727857 86.120002 
L 717.288571 90.540871 
L 726.849286 94.961741 
L 736.41 99.38261 
L 745.970714 102.65982 
L 755.531429 105.93703 
L 765.092143 109.21424 
L 774.652857 112.491449 
L 784.213571 115.768659 
L 793.774286 119.045869 
L 803.335 122.323079 
L 812.895714 122.630617 
L 822.456429 122.938156 
L 832.017143 123.245695 
L 841.577857 123.553234 
L 851.138571 123.860772 
L 860.699286 124.168311 
L 870.26 124.47585 
L 879.820714 132.270035 
L 889.381429 140.06422 
L 898.942143 147.858405 
L 908.502857 155.65259 
L 918.063571 163.446775 
L 927.624286 171.24096 
L 937.185 179.035145 
L 946.745714 167.579327 
L 956.306429 156.123509 
L 965.867143 144.667691 
L 975.427857 133.211872 
L 984.988571 121.756054 
L 994.549286 110.300236 
L 1004.11 98.844418 
L 1013.670714 105.94664 
L 1023.231429 113.048863 
L 1032.792143 120.151086 
L 1042.352857 127.253309 
L 1051.913571 134.355532 
L 1061.474286 141.457755 
L 1071.035 148.559978 
L 1080.595714 141.236711 
L 1090.156429 133.913445 
L 1099.717143 126.590179 
L 1109.277857 119.266912 
L 1118.838571 111.943646 
L 1128.399286 104.62038 
L 1137.96 97.297113 
" style="fill:none;stroke:#1f77b4;stroke-linecap:round;stroke-width:1.5;"/>
   </g>
   <g id="patch_3">
    <path d="M 67.16 202.052979 
L 67.16 31.6275 
" style="fill:none;stroke:#ffffff;stroke-linecap:square;stroke-linejoin:miter;stroke-width:0.8;"/>
   </g>
   <g id="patch_4">
    <path d="M 1137.96 202.052979 
L 1137.96 31.6275 
" style="fill:none;stroke:#ffffff;stroke-linecap:square;stroke-linejoin:miter;stroke-width:0.8;"/>
   </g>
   <g id="patch_5">
    <path d="M 67.16 202.052979 
L 1137.96 202.052979 
" style="fill:none;stroke:#ffffff;stroke-linecap:square;stroke-linejoin:miter;stroke-width:0.8;"/>
   </g>
   <g id="patch_6">
    <path d="M 67.16 31.6275 
L 1137.96 31.6275 
" style="fill:none;stroke:#ffffff;stroke-linecap:square;stroke-linejoin:miter;stroke-width:0.8;"/>
   </g>
   <g id="text_13">
    <!-- Bacteria;Actinobacteria;Actinobacteria;Actinomycetales;Propionibacteriaceae;sf_1;2002 -->
    <g style="fill:#262626;" transform="translate(299.9395 25.6275)scale(0.156 -0.156)">
     <defs>
      <path d="M 7.328125 0 
L 7.328125 71.578125 
L 34.1875 71.578125 
Q 42.390625 71.578125 47.34375 69.40625 
Q 52.296875 67.234375 55.09375 62.71875 
Q 57.90625 58.203125 57.90625 53.265625 
Q 57.90625 48.6875 55.421875 44.625 
Q 52.9375 40.578125 47.90625 38.09375 
Q 54.390625 36.1875 57.875 31.59375 
Q 61.375 27 61.375 20.75 
Q 61.375 15.71875 59.25 11.390625 
Q 57.125 7.078125 54 4.734375 
Q 50.875 2.390625 46.15625 1.1875 
Q 41.453125 0 34.625 0 
z
M 16.796875 41.5 
L 32.28125 41.5 
Q 38.578125 41.5 41.3125 42.328125 
Q 44.921875 43.40625 46.75 45.890625 
Q 48.578125 48.390625 48.578125 52.15625 
Q 48.578125 55.71875 46.875 58.421875 
Q 45.171875 61.140625 41.984375 62.140625 
Q 38.8125 63.140625 31.109375 63.140625 
L 16.796875 63.140625 
z
M 16.796875 8.453125 
L 34.625 8.453125 
Q 39.203125 8.453125 41.0625 8.796875 
Q 44.34375 9.375 46.53125 10.734375 
Q 48.734375 12.109375 50.140625 14.71875 
Q 51.5625 17.328125 51.5625 20.75 
Q 51.5625 24.75 49.515625 27.703125 
Q 47.46875 30.671875 43.828125 31.859375 
Q 40.1875 33.0625 33.34375 33.0625 
L 16.796875 33.0625 
z
" id="ArialMT-66"/>
      <path d="M 40.4375 6.390625 
Q 35.546875 2.25 31.03125 0.53125 
Q 26.515625 -1.171875 21.34375 -1.171875 
Q 12.796875 -1.171875 8.203125 3 
Q 3.609375 7.171875 3.609375 13.671875 
Q 3.609375 17.484375 5.34375 20.625 
Q 7.078125 23.78125 9.890625 25.6875 
Q 12.703125 27.59375 16.21875 28.5625 
Q 18.796875 29.25 24.03125 29.890625 
Q 34.671875 31.15625 39.703125 32.90625 
Q 39.75 34.71875 39.75 35.203125 
Q 39.75 40.578125 37.25 42.78125 
Q 33.890625 45.75 27.25 45.75 
Q 21.046875 45.75 18.09375 43.578125 
Q 15.140625 41.40625 13.71875 35.890625 
L 5.125 37.0625 
Q 6.296875 42.578125 8.984375 45.96875 
Q 11.671875 49.359375 16.75 51.1875 
Q 21.828125 53.03125 28.515625 53.03125 
Q 35.15625 53.03125 39.296875 51.46875 
Q 43.453125 49.90625 45.40625 47.53125 
Q 47.359375 45.171875 48.140625 41.546875 
Q 48.578125 39.3125 48.578125 33.453125 
L 48.578125 21.734375 
Q 48.578125 9.46875 49.140625 6.21875 
Q 49.703125 2.984375 51.375 0 
L 42.1875 0 
Q 40.828125 2.734375 40.4375 6.390625 
z
M 39.703125 26.03125 
Q 34.90625 24.078125 25.34375 22.703125 
Q 19.921875 21.921875 17.671875 20.9375 
Q 15.4375 19.96875 14.203125 18.09375 
Q 12.984375 16.21875 12.984375 13.921875 
Q 12.984375 10.40625 15.640625 8.0625 
Q 18.3125 5.71875 23.4375 5.71875 
Q 28.515625 5.71875 32.46875 7.9375 
Q 36.421875 10.15625 38.28125 14.015625 
Q 39.703125 17 39.703125 22.796875 
z
" id="ArialMT-97"/>
      <path d="M 40.4375 19 
L 49.078125 17.875 
Q 47.65625 8.9375 41.8125 3.875 
Q 35.984375 -1.171875 27.484375 -1.171875 
Q 16.84375 -1.171875 10.375 5.78125 
Q 3.90625 12.75 3.90625 25.734375 
Q 3.90625 34.125 6.6875 40.421875 
Q 9.46875 46.734375 15.15625 49.875 
Q 20.84375 53.03125 27.546875 53.03125 
Q 35.984375 53.03125 41.359375 48.75 
Q 46.734375 44.484375 48.25 36.625 
L 39.703125 35.296875 
Q 38.484375 40.53125 35.375 43.15625 
Q 32.28125 45.796875 27.875 45.796875 
Q 21.234375 45.796875 17.078125 41.03125 
Q 12.9375 36.28125 12.9375 25.984375 
Q 12.9375 15.53125 16.9375 10.796875 
Q 20.953125 6.0625 27.390625 6.0625 
Q 32.5625 6.0625 36.03125 9.234375 
Q 39.5 12.40625 40.4375 19 
z
" id="ArialMT-99"/>
      <path d="M 25.78125 7.859375 
L 27.046875 0.09375 
Q 23.34375 -0.6875 20.40625 -0.6875 
Q 15.625 -0.6875 12.984375 0.828125 
Q 10.359375 2.34375 9.28125 4.8125 
Q 8.203125 7.28125 8.203125 15.1875 
L 8.203125 45.015625 
L 1.765625 45.015625 
L 1.765625 51.859375 
L 8.203125 51.859375 
L 8.203125 64.703125 
L 16.9375 69.96875 
L 16.9375 51.859375 
L 25.78125 51.859375 
L 25.78125 45.015625 
L 16.9375 45.015625 
L 16.9375 14.703125 
Q 16.9375 10.9375 17.40625 9.859375 
Q 17.875 8.796875 18.921875 8.15625 
Q 19.96875 7.515625 21.921875 7.515625 
Q 23.390625 7.515625 25.78125 7.859375 
z
" id="ArialMT-116"/>
      <path d="M 42.09375 16.703125 
L 51.171875 15.578125 
Q 49.03125 7.625 43.21875 3.21875 
Q 37.40625 -1.171875 28.375 -1.171875 
Q 17 -1.171875 10.328125 5.828125 
Q 3.65625 12.84375 3.65625 25.484375 
Q 3.65625 38.578125 10.390625 45.796875 
Q 17.140625 53.03125 27.875 53.03125 
Q 38.28125 53.03125 44.875 45.953125 
Q 51.46875 38.875 51.46875 26.03125 
Q 51.46875 25.25 51.421875 23.6875 
L 12.75 23.6875 
Q 13.234375 15.140625 17.578125 10.59375 
Q 21.921875 6.0625 28.421875 6.0625 
Q 33.25 6.0625 36.671875 8.59375 
Q 40.09375 11.140625 42.09375 16.703125 
z
M 13.234375 30.90625 
L 42.1875 30.90625 
Q 41.609375 37.453125 38.875 40.71875 
Q 34.671875 45.796875 27.984375 45.796875 
Q 21.921875 45.796875 17.796875 41.75 
Q 13.671875 37.703125 13.234375 30.90625 
z
" id="ArialMT-101"/>
      <path d="M 6.5 0 
L 6.5 51.859375 
L 14.40625 51.859375 
L 14.40625 44 
Q 17.4375 49.515625 20 51.265625 
Q 22.5625 53.03125 25.640625 53.03125 
Q 30.078125 53.03125 34.671875 50.203125 
L 31.640625 42.046875 
Q 28.421875 43.953125 25.203125 43.953125 
Q 22.3125 43.953125 20.015625 42.21875 
Q 17.71875 40.484375 16.75 37.40625 
Q 15.28125 32.71875 15.28125 27.15625 
L 15.28125 0 
z
" id="ArialMT-114"/>
      <path d="M 6.640625 61.46875 
L 6.640625 71.578125 
L 15.4375 71.578125 
L 15.4375 61.46875 
z
M 6.640625 0 
L 6.640625 51.859375 
L 15.4375 51.859375 
L 15.4375 0 
z
" id="ArialMT-105"/>
      <path d="M 8.890625 41.84375 
L 8.890625 51.859375 
L 18.890625 51.859375 
L 18.890625 41.84375 
z
M 8.890625 0 
L 8.890625 10.015625 
L 18.890625 10.015625 
L 18.890625 0 
Q 18.890625 -5.515625 16.9375 -8.90625 
Q 14.984375 -12.3125 10.75 -14.15625 
L 8.296875 -10.40625 
Q 11.078125 -9.1875 12.390625 -6.8125 
Q 13.71875 -4.4375 13.875 0 
z
" id="ArialMT-59"/>
      <path d="M -0.140625 0 
L 27.34375 71.578125 
L 37.546875 71.578125 
L 66.84375 0 
L 56.0625 0 
L 47.703125 21.6875 
L 17.78125 21.6875 
L 9.90625 0 
z
M 20.515625 29.390625 
L 44.78125 29.390625 
L 37.3125 49.21875 
Q 33.890625 58.25 32.234375 64.0625 
Q 30.859375 57.171875 28.375 50.390625 
z
" id="ArialMT-65"/>
      <path d="M 6.59375 0 
L 6.59375 51.859375 
L 14.5 51.859375 
L 14.5 44.484375 
Q 20.21875 53.03125 31 53.03125 
Q 35.6875 53.03125 39.625 51.34375 
Q 43.5625 49.65625 45.515625 46.921875 
Q 47.46875 44.1875 48.25 40.4375 
Q 48.734375 37.984375 48.734375 31.890625 
L 48.734375 0 
L 39.9375 0 
L 39.9375 31.546875 
Q 39.9375 36.921875 38.90625 39.578125 
Q 37.890625 42.234375 35.28125 43.8125 
Q 32.671875 45.40625 29.15625 45.40625 
Q 23.53125 45.40625 19.453125 41.84375 
Q 15.375 38.28125 15.375 28.328125 
L 15.375 0 
z
" id="ArialMT-110"/>
      <path d="M 3.328125 25.921875 
Q 3.328125 40.328125 11.328125 47.265625 
Q 18.015625 53.03125 27.640625 53.03125 
Q 38.328125 53.03125 45.109375 46.015625 
Q 51.90625 39.015625 51.90625 26.65625 
Q 51.90625 16.65625 48.90625 10.90625 
Q 45.90625 5.171875 40.15625 2 
Q 34.421875 -1.171875 27.640625 -1.171875 
Q 16.75 -1.171875 10.03125 5.8125 
Q 3.328125 12.796875 3.328125 25.921875 
z
M 12.359375 25.921875 
Q 12.359375 15.96875 16.703125 11.015625 
Q 21.046875 6.0625 27.640625 6.0625 
Q 34.1875 6.0625 38.53125 11.03125 
Q 42.875 16.015625 42.875 26.21875 
Q 42.875 35.84375 38.5 40.796875 
Q 34.125 45.75 27.640625 45.75 
Q 21.046875 45.75 16.703125 40.8125 
Q 12.359375 35.890625 12.359375 25.921875 
z
" id="ArialMT-111"/>
      <path d="M 14.703125 0 
L 6.546875 0 
L 6.546875 71.578125 
L 15.328125 71.578125 
L 15.328125 46.046875 
Q 20.90625 53.03125 29.546875 53.03125 
Q 34.328125 53.03125 38.59375 51.09375 
Q 42.875 49.171875 45.625 45.671875 
Q 48.390625 42.1875 49.953125 37.25 
Q 51.515625 32.328125 51.515625 26.703125 
Q 51.515625 13.375 44.921875 6.09375 
Q 38.328125 -1.171875 29.109375 -1.171875 
Q 19.921875 -1.171875 14.703125 6.5 
z
M 14.59375 26.3125 
Q 14.59375 17 17.140625 12.84375 
Q 21.296875 6.0625 28.375 6.0625 
Q 34.125 6.0625 38.328125 11.0625 
Q 42.53125 16.0625 42.53125 25.984375 
Q 42.53125 36.140625 38.5 40.96875 
Q 34.46875 45.796875 28.765625 45.796875 
Q 23 45.796875 18.796875 40.796875 
Q 14.59375 35.796875 14.59375 26.3125 
z
" id="ArialMT-98"/>
      <path d="M 6.59375 0 
L 6.59375 51.859375 
L 14.453125 51.859375 
L 14.453125 44.578125 
Q 16.890625 48.390625 20.9375 50.703125 
Q 25 53.03125 30.171875 53.03125 
Q 35.9375 53.03125 39.625 50.640625 
Q 43.3125 48.25 44.828125 43.953125 
Q 50.984375 53.03125 60.84375 53.03125 
Q 68.5625 53.03125 72.703125 48.75 
Q 76.859375 44.484375 76.859375 35.59375 
L 76.859375 0 
L 68.109375 0 
L 68.109375 32.671875 
Q 68.109375 37.9375 67.25 40.25 
Q 66.40625 42.578125 64.15625 43.984375 
Q 61.921875 45.40625 58.890625 45.40625 
Q 53.421875 45.40625 49.796875 41.765625 
Q 46.1875 38.140625 46.1875 30.125 
L 46.1875 0 
L 37.40625 0 
L 37.40625 33.6875 
Q 37.40625 39.546875 35.25 42.46875 
Q 33.109375 45.40625 28.21875 45.40625 
Q 24.515625 45.40625 21.359375 43.453125 
Q 18.21875 41.5 16.796875 37.734375 
Q 15.375 33.984375 15.375 26.90625 
L 15.375 0 
z
" id="ArialMT-109"/>
      <path d="M 6.203125 -19.96875 
L 5.21875 -11.71875 
Q 8.109375 -12.5 10.25 -12.5 
Q 13.1875 -12.5 14.9375 -11.515625 
Q 16.703125 -10.546875 17.828125 -8.796875 
Q 18.65625 -7.46875 20.515625 -2.25 
Q 20.75 -1.515625 21.296875 -0.09375 
L 1.609375 51.859375 
L 11.078125 51.859375 
L 21.875 21.828125 
Q 23.96875 16.109375 25.640625 9.8125 
Q 27.15625 15.875 29.25 21.625 
L 40.328125 51.859375 
L 49.125 51.859375 
L 29.390625 -0.875 
Q 26.21875 -9.421875 24.46875 -12.640625 
Q 22.125 -17 19.09375 -19.015625 
Q 16.0625 -21.046875 11.859375 -21.046875 
Q 9.328125 -21.046875 6.203125 -19.96875 
z
" id="ArialMT-121"/>
      <path d="M 6.390625 0 
L 6.390625 71.578125 
L 15.1875 71.578125 
L 15.1875 0 
z
" id="ArialMT-108"/>
      <path d="M 3.078125 15.484375 
L 11.765625 16.84375 
Q 12.5 11.625 15.84375 8.84375 
Q 19.1875 6.0625 25.203125 6.0625 
Q 31.25 6.0625 34.171875 8.515625 
Q 37.109375 10.984375 37.109375 14.3125 
Q 37.109375 17.28125 34.515625 19 
Q 32.71875 20.171875 25.53125 21.96875 
Q 15.875 24.421875 12.140625 26.203125 
Q 8.40625 27.984375 6.46875 31.125 
Q 4.546875 34.28125 4.546875 38.09375 
Q 4.546875 41.546875 6.125 44.5 
Q 7.71875 47.46875 10.453125 49.421875 
Q 12.5 50.921875 16.03125 51.96875 
Q 19.578125 53.03125 23.640625 53.03125 
Q 29.734375 53.03125 34.34375 51.265625 
Q 38.96875 49.515625 41.15625 46.5 
Q 43.359375 43.5 44.1875 38.484375 
L 35.59375 37.3125 
Q 35.015625 41.3125 32.203125 43.546875 
Q 29.390625 45.796875 24.265625 45.796875 
Q 18.21875 45.796875 15.625 43.796875 
Q 13.03125 41.796875 13.03125 39.109375 
Q 13.03125 37.40625 14.109375 36.03125 
Q 15.1875 34.625 17.484375 33.6875 
Q 18.796875 33.203125 25.25 31.453125 
Q 34.578125 28.953125 38.25 27.359375 
Q 41.9375 25.78125 44.03125 22.75 
Q 46.140625 19.734375 46.140625 15.234375 
Q 46.140625 10.84375 43.578125 6.953125 
Q 41.015625 3.078125 36.171875 0.953125 
Q 31.34375 -1.171875 25.25 -1.171875 
Q 15.140625 -1.171875 9.84375 3.03125 
Q 4.546875 7.234375 3.078125 15.484375 
z
" id="ArialMT-115"/>
      <path d="M 7.71875 0 
L 7.71875 71.578125 
L 34.71875 71.578125 
Q 41.84375 71.578125 45.609375 70.90625 
Q 50.875 70.015625 54.4375 67.546875 
Q 58.015625 65.09375 60.1875 60.640625 
Q 62.359375 56.203125 62.359375 50.875 
Q 62.359375 41.75 56.546875 35.421875 
Q 50.734375 29.109375 35.546875 29.109375 
L 17.1875 29.109375 
L 17.1875 0 
z
M 17.1875 37.546875 
L 35.6875 37.546875 
Q 44.875 37.546875 48.734375 40.96875 
Q 52.59375 44.390625 52.59375 50.59375 
Q 52.59375 55.078125 50.3125 58.265625 
Q 48.046875 61.46875 44.34375 62.5 
Q 41.9375 63.140625 35.5 63.140625 
L 17.1875 63.140625 
z
" id="ArialMT-80"/>
      <path d="M 6.59375 -19.875 
L 6.59375 51.859375 
L 14.59375 51.859375 
L 14.59375 45.125 
Q 17.4375 49.078125 21 51.046875 
Q 24.5625 53.03125 29.640625 53.03125 
Q 36.28125 53.03125 41.359375 49.609375 
Q 46.4375 46.1875 49.015625 39.953125 
Q 51.609375 33.734375 51.609375 26.3125 
Q 51.609375 18.359375 48.75 11.984375 
Q 45.90625 5.609375 40.453125 2.21875 
Q 35.015625 -1.171875 29 -1.171875 
Q 24.609375 -1.171875 21.109375 0.6875 
Q 17.625 2.546875 15.375 5.375 
L 15.375 -19.875 
z
M 14.546875 25.640625 
Q 14.546875 15.625 18.59375 10.84375 
Q 22.65625 6.0625 28.421875 6.0625 
Q 34.28125 6.0625 38.453125 11.015625 
Q 42.625 15.96875 42.625 26.375 
Q 42.625 36.28125 38.546875 41.203125 
Q 34.46875 46.140625 28.8125 46.140625 
Q 23.1875 46.140625 18.859375 40.890625 
Q 14.546875 35.640625 14.546875 25.640625 
z
" id="ArialMT-112"/>
      <path d="M 8.6875 0 
L 8.6875 45.015625 
L 0.921875 45.015625 
L 0.921875 51.859375 
L 8.6875 51.859375 
L 8.6875 57.375 
Q 8.6875 62.59375 9.625 65.140625 
Q 10.890625 68.5625 14.078125 70.671875 
Q 17.28125 72.796875 23.046875 72.796875 
Q 26.765625 72.796875 31.25 71.921875 
L 29.9375 64.265625 
Q 27.203125 64.75 24.75 64.75 
Q 20.75 64.75 19.09375 63.03125 
Q 17.4375 61.328125 17.4375 56.640625 
L 17.4375 51.859375 
L 27.546875 51.859375 
L 27.546875 45.015625 
L 17.4375 45.015625 
L 17.4375 0 
z
" id="ArialMT-102"/>
      <path d="M -1.515625 -19.875 
L -1.515625 -13.53125 
L 56.734375 -13.53125 
L 56.734375 -19.875 
z
" id="ArialMT-95"/>
     </defs>
     <use xlink:href="#ArialMT-66"/>
     <use x="66.699219" xlink:href="#ArialMT-97"/>
     <use x="122.314453" xlink:href="#ArialMT-99"/>
     <use x="172.314453" xlink:href="#ArialMT-116"/>
     <use x="200.097656" xlink:href="#ArialMT-101"/>
     <use x="255.712891" xlink:href="#ArialMT-114"/>
     <use x="289.013672" xlink:href="#ArialMT-105"/>
     <use x="311.230469" xlink:href="#ArialMT-97"/>
     <use x="366.845703" xlink:href="#ArialMT-59"/>
     <use x="394.628906" xlink:href="#ArialMT-65"/>
     <use x="461.328125" xlink:href="#ArialMT-99"/>
     <use x="511.328125" xlink:href="#ArialMT-116"/>
     <use x="539.111328" xlink:href="#ArialMT-105"/>
     <use x="561.328125" xlink:href="#ArialMT-110"/>
     <use x="616.943359" xlink:href="#ArialMT-111"/>
     <use x="672.558594" xlink:href="#ArialMT-98"/>
     <use x="728.173828" xlink:href="#ArialMT-97"/>
     <use x="783.789062" xlink:href="#ArialMT-99"/>
     <use x="833.789062" xlink:href="#ArialMT-116"/>
     <use x="861.572266" xlink:href="#ArialMT-101"/>
     <use x="917.1875" xlink:href="#ArialMT-114"/>
     <use x="950.488281" xlink:href="#ArialMT-105"/>
     <use x="972.705078" xlink:href="#ArialMT-97"/>
     <use x="1028.320312" xlink:href="#ArialMT-59"/>
     <use x="1056.103516" xlink:href="#ArialMT-65"/>
     <use x="1122.802734" xlink:href="#ArialMT-99"/>
     <use x="1172.802734" xlink:href="#ArialMT-116"/>
     <use x="1200.585938" xlink:href="#ArialMT-105"/>
     <use x="1222.802734" xlink:href="#ArialMT-110"/>
     <use x="1278.417969" xlink:href="#ArialMT-111"/>
     <use x="1334.033203" xlink:href="#ArialMT-98"/>
     <use x="1389.648438" xlink:href="#ArialMT-97"/>
     <use x="1445.263672" xlink:href="#ArialMT-99"/>
     <use x="1495.263672" xlink:href="#ArialMT-116"/>
     <use x="1523.046875" xlink:href="#ArialMT-101"/>
     <use x="1578.662109" xlink:href="#ArialMT-114"/>
     <use x="1611.962891" xlink:href="#ArialMT-105"/>
     <use x="1634.179688" xlink:href="#ArialMT-97"/>
     <use x="1689.794922" xlink:href="#ArialMT-59"/>
     <use x="1717.578125" xlink:href="#ArialMT-65"/>
     <use x="1784.277344" xlink:href="#ArialMT-99"/>
     <use x="1834.277344" xlink:href="#ArialMT-116"/>
     <use x="1862.060547" xlink:href="#ArialMT-105"/>
     <use x="1884.277344" xlink:href="#ArialMT-110"/>
     <use x="1939.892578" xlink:href="#ArialMT-111"/>
     <use x="1995.507812" xlink:href="#ArialMT-109"/>
     <use x="2078.808594" xlink:href="#ArialMT-121"/>
     <use x="2128.808594" xlink:href="#ArialMT-99"/>
     <use x="2178.808594" xlink:href="#ArialMT-101"/>
     <use x="2234.423828" xlink:href="#ArialMT-116"/>
     <use x="2262.207031" xlink:href="#ArialMT-97"/>
     <use x="2317.822266" xlink:href="#ArialMT-108"/>
     <use x="2340.039062" xlink:href="#ArialMT-101"/>
     <use x="2395.654297" xlink:href="#ArialMT-115"/>
     <use x="2445.654297" xlink:href="#ArialMT-59"/>
     <use x="2473.4375" xlink:href="#ArialMT-80"/>
     <use x="2540.136719" xlink:href="#ArialMT-114"/>
     <use x="2573.4375" xlink:href="#ArialMT-111"/>
     <use x="2629.052734" xlink:href="#ArialMT-112"/>
     <use x="2684.667969" xlink:href="#ArialMT-105"/>
     <use x="2706.884766" xlink:href="#ArialMT-111"/>
     <use x="2762.5" xlink:href="#ArialMT-110"/>
     <use x="2818.115234" xlink:href="#ArialMT-105"/>
     <use x="2840.332031" xlink:href="#ArialMT-98"/>
     <use x="2895.947266" xlink:href="#ArialMT-97"/>
     <use x="2951.5625" xlink:href="#ArialMT-99"/>
     <use x="3001.5625" xlink:href="#ArialMT-116"/>
     <use x="3029.345703" xlink:href="#ArialMT-101"/>
     <use x="3084.960938" xlink:href="#ArialMT-114"/>
     <use x="3118.261719" xlink:href="#ArialMT-105"/>
     <use x="3140.478516" xlink:href="#ArialMT-97"/>
     <use x="3196.09375" xlink:href="#ArialMT-99"/>
     <use x="3246.09375" xlink:href="#ArialMT-101"/>
     <use x="3301.708984" xlink:href="#ArialMT-97"/>
     <use x="3357.324219" xlink:href="#ArialMT-101"/>
     <use x="3412.939453" xlink:href="#ArialMT-59"/>
     <use x="3440.722656" xlink:href="#ArialMT-115"/>
     <use x="3490.722656" xlink:href="#ArialMT-102"/>
     <use x="3518.505859" xlink:href="#ArialMT-95"/>
     <use x="3574.121094" xlink:href="#ArialMT-49"/>
     <use x="3629.736328" xlink:href="#ArialMT-59"/>
     <use x="3657.519531" xlink:href="#ArialMT-50"/>
     <use x="3713.134766" xlink:href="#ArialMT-48"/>
     <use x="3768.75" xlink:href="#ArialMT-48"/>
     <use x="3824.365234" xlink:href="#ArialMT-50"/>
    </g>
   </g>
  </g>
  <g id="axes_2">
   <g id="patch_7">
    <path d="M 67.16 411.368653 
L 1137.96 411.368653 
L 1137.96 240.943174 
L 67.16 240.943174 
z
" style="fill:#eaeaf2;"/>
   </g>
   <g id="matplotlib.axis_3">
    <g id="xtick_8">
     <g id="line2d_14">
      <path clip-path="url(#pa86858dd61)" d="M 172.327857 411.368653 
L 172.327857 240.943174 
" style="fill:none;stroke:#ffffff;stroke-linecap:round;stroke-width:0.8;"/>
     </g>
     <g id="text_14">
      <!-- 2003-01-15 -->
      <g style="fill:#262626;" transform="translate(139.082388 427.673809)scale(0.13 -0.13)">
       <use xlink:href="#ArialMT-50"/>
       <use x="55.615234" xlink:href="#ArialMT-48"/>
       <use x="111.230469" xlink:href="#ArialMT-48"/>
       <use x="166.845703" xlink:href="#ArialMT-51"/>
       <use x="222.460938" xlink:href="#ArialMT-45"/>
       <use x="255.761719" xlink:href="#ArialMT-48"/>
       <use x="311.376953" xlink:href="#ArialMT-49"/>
       <use x="366.992188" xlink:href="#ArialMT-45"/>
       <use x="400.292969" xlink:href="#ArialMT-49"/>
       <use x="455.908203" xlink:href="#ArialMT-53"/>
      </g>
     </g>
    </g>
    <g id="xtick_9">
     <g id="line2d_15">
      <path clip-path="url(#pa86858dd61)" d="M 334.86 411.368653 
L 334.86 240.943174 
" style="fill:none;stroke:#ffffff;stroke-linecap:round;stroke-width:0.8;"/>
     </g>
     <g id="text_15">
      <!-- 2003-02-01 -->
      <g style="fill:#262626;" transform="translate(301.614531 427.673809)scale(0.13 -0.13)">
       <use xlink:href="#ArialMT-50"/>
       <use x="55.615234" xlink:href="#ArialMT-48"/>
       <use x="111.230469" xlink:href="#ArialMT-48"/>
       <use x="166.845703" xlink:href="#ArialMT-51"/>
       <use x="222.460938" xlink:href="#ArialMT-45"/>
       <use x="255.761719" xlink:href="#ArialMT-48"/>
       <use x="311.376953" xlink:href="#ArialMT-50"/>
       <use x="366.992188" xlink:href="#ArialMT-45"/>
       <use x="400.292969" xlink:href="#ArialMT-48"/>
       <use x="455.908203" xlink:href="#ArialMT-49"/>
      </g>
     </g>
    </g>
    <g id="xtick_10">
     <g id="line2d_16">
      <path clip-path="url(#pa86858dd61)" d="M 468.71 411.368653 
L 468.71 240.943174 
" style="fill:none;stroke:#ffffff;stroke-linecap:round;stroke-width:0.8;"/>
     </g>
     <g id="text_16">
      <!-- 2003-02-15 -->
      <g style="fill:#262626;" transform="translate(435.464531 427.673809)scale(0.13 -0.13)">
       <use xlink:href="#ArialMT-50"/>
       <use x="55.615234" xlink:href="#ArialMT-48"/>
       <use x="111.230469" xlink:href="#ArialMT-48"/>
       <use x="166.845703" xlink:href="#ArialMT-51"/>
       <use x="222.460938" xlink:href="#ArialMT-45"/>
       <use x="255.761719" xlink:href="#ArialMT-48"/>
       <use x="311.376953" xlink:href="#ArialMT-50"/>
       <use x="366.992188" xlink:href="#ArialMT-45"/>
       <use x="400.292969" xlink:href="#ArialMT-49"/>
       <use x="455.908203" xlink:href="#ArialMT-53"/>
      </g>
     </g>
    </g>
    <g id="xtick_11">
     <g id="line2d_17">
      <path clip-path="url(#pa86858dd61)" d="M 602.56 411.368653 
L 602.56 240.943174 
" style="fill:none;stroke:#ffffff;stroke-linecap:round;stroke-width:0.8;"/>
     </g>
     <g id="text_17">
      <!-- 2003-03-01 -->
      <g style="fill:#262626;" transform="translate(569.314531 427.673809)scale(0.13 -0.13)">
       <use xlink:href="#ArialMT-50"/>
       <use x="55.615234" xlink:href="#ArialMT-48"/>
       <use x="111.230469" xlink:href="#ArialMT-48"/>
       <use x="166.845703" xlink:href="#ArialMT-51"/>
       <use x="222.460938" xlink:href="#ArialMT-45"/>
       <use x="255.761719" xlink:href="#ArialMT-48"/>
       <use x="311.376953" xlink:href="#ArialMT-51"/>
       <use x="366.992188" xlink:href="#ArialMT-45"/>
       <use x="400.292969" xlink:href="#ArialMT-48"/>
       <use x="455.908203" xlink:href="#ArialMT-49"/>
      </g>
     </g>
    </g>
    <g id="xtick_12">
     <g id="line2d_18">
      <path clip-path="url(#pa86858dd61)" d="M 736.41 411.368653 
L 736.41 240.943174 
" style="fill:none;stroke:#ffffff;stroke-linecap:round;stroke-width:0.8;"/>
     </g>
     <g id="text_18">
      <!-- 2003-03-15 -->
      <g style="fill:#262626;" transform="translate(703.164531 427.673809)scale(0.13 -0.13)">
       <use xlink:href="#ArialMT-50"/>
       <use x="55.615234" xlink:href="#ArialMT-48"/>
       <use x="111.230469" xlink:href="#ArialMT-48"/>
       <use x="166.845703" xlink:href="#ArialMT-51"/>
       <use x="222.460938" xlink:href="#ArialMT-45"/>
       <use x="255.761719" xlink:href="#ArialMT-48"/>
       <use x="311.376953" xlink:href="#ArialMT-51"/>
       <use x="366.992188" xlink:href="#ArialMT-45"/>
       <use x="400.292969" xlink:href="#ArialMT-49"/>
       <use x="455.908203" xlink:href="#ArialMT-53"/>
      </g>
     </g>
    </g>
    <g id="xtick_13">
     <g id="line2d_19">
      <path clip-path="url(#pa86858dd61)" d="M 898.942143 411.368653 
L 898.942143 240.943174 
" style="fill:none;stroke:#ffffff;stroke-linecap:round;stroke-width:0.8;"/>
     </g>
     <g id="text_19">
      <!-- 2003-04-01 -->
      <g style="fill:#262626;" transform="translate(865.696674 427.673809)scale(0.13 -0.13)">
       <use xlink:href="#ArialMT-50"/>
       <use x="55.615234" xlink:href="#ArialMT-48"/>
       <use x="111.230469" xlink:href="#ArialMT-48"/>
       <use x="166.845703" xlink:href="#ArialMT-51"/>
       <use x="222.460938" xlink:href="#ArialMT-45"/>
       <use x="255.761719" xlink:href="#ArialMT-48"/>
       <use x="311.376953" xlink:href="#ArialMT-52"/>
       <use x="366.992188" xlink:href="#ArialMT-45"/>
       <use x="400.292969" xlink:href="#ArialMT-48"/>
       <use x="455.908203" xlink:href="#ArialMT-49"/>
      </g>
     </g>
    </g>
    <g id="xtick_14">
     <g id="line2d_20">
      <path clip-path="url(#pa86858dd61)" d="M 1032.792143 411.368653 
L 1032.792143 240.943174 
" style="fill:none;stroke:#ffffff;stroke-linecap:round;stroke-width:0.8;"/>
     </g>
     <g id="text_20">
      <!-- 2003-04-15 -->
      <g style="fill:#262626;" transform="translate(999.546674 427.673809)scale(0.13 -0.13)">
       <use xlink:href="#ArialMT-50"/>
       <use x="55.615234" xlink:href="#ArialMT-48"/>
       <use x="111.230469" xlink:href="#ArialMT-48"/>
       <use x="166.845703" xlink:href="#ArialMT-51"/>
       <use x="222.460938" xlink:href="#ArialMT-45"/>
       <use x="255.761719" xlink:href="#ArialMT-48"/>
       <use x="311.376953" xlink:href="#ArialMT-52"/>
       <use x="366.992188" xlink:href="#ArialMT-45"/>
       <use x="400.292969" xlink:href="#ArialMT-49"/>
       <use x="455.908203" xlink:href="#ArialMT-53"/>
      </g>
     </g>
    </g>
   </g>
   <g id="matplotlib.axis_4">
    <g id="ytick_6">
     <g id="line2d_21">
      <path clip-path="url(#pa86858dd61)" d="M 67.16 405.022209 
L 1137.96 405.022209 
" style="fill:none;stroke:#ffffff;stroke-linecap:round;stroke-width:0.8;"/>
     </g>
     <g id="text_21">
      <!-- 500 -->
      <g style="fill:#262626;" transform="translate(38.472344 409.674787)scale(0.13 -0.13)">
       <use xlink:href="#ArialMT-53"/>
       <use x="55.615234" xlink:href="#ArialMT-48"/>
       <use x="111.230469" xlink:href="#ArialMT-48"/>
      </g>
     </g>
    </g>
    <g id="ytick_7">
     <g id="line2d_22">
      <path clip-path="url(#pa86858dd61)" d="M 67.16 350.38804 
L 1137.96 350.38804 
" style="fill:none;stroke:#ffffff;stroke-linecap:round;stroke-width:0.8;"/>
     </g>
     <g id="text_22">
      <!-- 1000 -->
      <g style="fill:#262626;" transform="translate(31.243125 355.040618)scale(0.13 -0.13)">
       <use xlink:href="#ArialMT-49"/>
       <use x="55.615234" xlink:href="#ArialMT-48"/>
       <use x="111.230469" xlink:href="#ArialMT-48"/>
       <use x="166.845703" xlink:href="#ArialMT-48"/>
      </g>
     </g>
    </g>
    <g id="ytick_8">
     <g id="line2d_23">
      <path clip-path="url(#pa86858dd61)" d="M 67.16 295.753871 
L 1137.96 295.753871 
" style="fill:none;stroke:#ffffff;stroke-linecap:round;stroke-width:0.8;"/>
     </g>
     <g id="text_23">
      <!-- 1500 -->
      <g style="fill:#262626;" transform="translate(31.243125 300.406449)scale(0.13 -0.13)">
       <use xlink:href="#ArialMT-49"/>
       <use x="55.615234" xlink:href="#ArialMT-53"/>
       <use x="111.230469" xlink:href="#ArialMT-48"/>
       <use x="166.845703" xlink:href="#ArialMT-48"/>
      </g>
     </g>
    </g>
    <g id="ytick_9">
     <g id="line2d_24">
      <path clip-path="url(#pa86858dd61)" d="M 67.16 241.119702 
L 1137.96 241.119702 
" style="fill:none;stroke:#ffffff;stroke-linecap:round;stroke-width:0.8;"/>
     </g>
     <g id="text_24">
      <!-- 2000 -->
      <g style="fill:#262626;" transform="translate(31.243125 245.77228)scale(0.13 -0.13)">
       <use xlink:href="#ArialMT-50"/>
       <use x="55.615234" xlink:href="#ArialMT-48"/>
       <use x="111.230469" xlink:href="#ArialMT-48"/>
       <use x="166.845703" xlink:href="#ArialMT-48"/>
      </g>
     </g>
    </g>
    <g id="text_25">
     <!-- Trend -->
     <g style="fill:#262626;" transform="translate(24.659375 342.890366)rotate(-90)scale(0.13 -0.13)">
      <defs>
       <path d="M 25.921875 0 
L 25.921875 63.140625 
L 2.34375 63.140625 
L 2.34375 71.578125 
L 59.078125 71.578125 
L 59.078125 63.140625 
L 35.40625 63.140625 
L 35.40625 0 
z
" id="ArialMT-84"/>
       <path d="M 40.234375 0 
L 40.234375 6.546875 
Q 35.296875 -1.171875 25.734375 -1.171875 
Q 19.53125 -1.171875 14.328125 2.25 
Q 9.125 5.671875 6.265625 11.796875 
Q 3.421875 17.921875 3.421875 25.875 
Q 3.421875 33.640625 6 39.96875 
Q 8.59375 46.296875 13.765625 49.65625 
Q 18.953125 53.03125 25.34375 53.03125 
Q 30.03125 53.03125 33.6875 51.046875 
Q 37.359375 49.078125 39.65625 45.90625 
L 39.65625 71.578125 
L 48.390625 71.578125 
L 48.390625 0 
z
M 12.453125 25.875 
Q 12.453125 15.921875 16.640625 10.984375 
Q 20.84375 6.0625 26.5625 6.0625 
Q 32.328125 6.0625 36.34375 10.765625 
Q 40.375 15.484375 40.375 25.140625 
Q 40.375 35.796875 36.265625 40.765625 
Q 32.171875 45.75 26.171875 45.75 
Q 20.3125 45.75 16.375 40.96875 
Q 12.453125 36.1875 12.453125 25.875 
z
" id="ArialMT-100"/>
      </defs>
      <use xlink:href="#ArialMT-84"/>
      <use x="57.333984" xlink:href="#ArialMT-114"/>
      <use x="90.634766" xlink:href="#ArialMT-101"/>
      <use x="146.25" xlink:href="#ArialMT-110"/>
      <use x="201.865234" xlink:href="#ArialMT-100"/>
     </g>
    </g>
   </g>
   <g id="line2d_25">
    <path clip-path="url(#pa86858dd61)" d="M 67.16 295.765528 
L 76.720714 307.831937 
L 86.281429 319.756563 
L 95.842143 331.533347 
L 105.402857 343.163708 
L 114.963571 354.666687 
L 124.524286 365.904332 
L 134.085 374.689283 
L 143.645714 382.101254 
L 153.206429 388.160768 
L 162.767143 392.8552 
L 172.327857 395.972084 
L 181.888571 397.32766 
L 191.449286 396.864554 
L 201.01 394.518455 
L 210.570714 390.273092 
L 220.131429 384.156398 
L 229.692143 376.618729 
L 239.252857 369.08212 
L 248.813571 363.316104 
L 258.374286 360.645226 
L 267.935 361.560625 
L 277.495714 366.121872 
L 287.056429 374.280352 
L 296.617143 385.143614 
L 306.177857 395.876363 
L 315.738571 402.9202 
L 325.299286 403.62204 
L 334.86 397.02908 
L 344.420714 383.047603 
L 353.981429 361.781566 
L 363.542143 334.564704 
L 373.102857 305.408717 
L 382.663571 279.455338 
L 392.224286 260.646919 
L 401.785 250.349286 
L 411.345714 248.689786 
L 420.906429 255.55118 
L 430.467143 269.940783 
L 440.027857 289.250551 
L 449.588571 309.895313 
L 459.149286 328.950324 
L 468.71 345.545608 
L 478.270714 359.654516 
L 487.831429 371.314235 
L 497.392143 380.473102 
L 506.952857 386.652515 
L 516.513571 389.43119 
L 526.074286 388.643098 
L 535.635 384.129999 
L 545.195714 375.847098 
L 554.756429 363.850084 
L 564.317143 348.650204 
L 573.877857 331.676205 
L 583.438571 314.828891 
L 592.999286 299.621332 
L 602.56 286.546354 
L 612.120714 275.639394 
L 621.681429 266.869187 
L 631.242143 260.152684 
L 640.802857 255.464434 
L 650.363571 252.650102 
L 659.924286 251.495794 
L 669.485 252.002387 
L 679.045714 254.194861 
L 688.606429 258.04717 
L 698.167143 263.376266 
L 707.727857 269.731645 
L 717.288571 276.489026 
L 726.849286 283.131304 
L 736.41 289.513817 
L 745.970714 295.635592 
L 755.531429 301.497778 
L 765.092143 307.06675 
L 774.652857 312.207525 
L 784.213571 316.785126 
L 793.774286 320.72168 
L 803.335 323.977546 
L 812.895714 326.545706 
L 822.456429 328.433043 
L 832.017143 329.828456 
L 841.577857 331.360384 
L 851.138571 333.818766 
L 860.699286 337.789637 
L 870.26 343.491897 
L 879.820714 350.95191 
L 889.381429 360.142462 
L 898.942143 370.556696 
L 908.502857 380.565282 
L 918.063571 388.163743 
L 927.624286 391.875587 
L 937.185 391.152383 
L 946.745714 385.933563 
L 956.306429 376.277952 
L 965.867143 362.922525 
L 975.427857 348.052163 
L 984.988571 334.516904 
L 994.549286 324.525387 
L 1004.11 318.819701 
L 1013.670714 317.461238 
L 1023.231429 320.386282 
L 1032.792143 326.930199 
L 1042.352857 335.193406 
L 1051.913571 342.705366 
L 1061.474286 347.535178 
L 1071.035 349.043371 
L 1080.595714 347.18468 
L 1090.156429 339.367822 
L 1099.717143 331.00701 
L 1109.277857 322.315629 
L 1118.838571 313.254532 
L 1128.399286 303.842223 
L 1137.96 294.11511 
" style="fill:none;stroke:#1f77b4;stroke-linecap:round;stroke-width:1.5;"/>
   </g>
   <g id="patch_8">
    <path d="M 67.16 411.368653 
L 67.16 240.943174 
" style="fill:none;stroke:#ffffff;stroke-linecap:square;stroke-linejoin:miter;stroke-width:0.8;"/>
   </g>
   <g id="patch_9">
    <path d="M 1137.96 411.368653 
L 1137.96 240.943174 
" style="fill:none;stroke:#ffffff;stroke-linecap:square;stroke-linejoin:miter;stroke-width:0.8;"/>
   </g>
   <g id="patch_10">
    <path d="M 67.16 411.368653 
L 1137.96 411.368653 
" style="fill:none;stroke:#ffffff;stroke-linecap:square;stroke-linejoin:miter;stroke-width:0.8;"/>
   </g>
   <g id="patch_11">
    <path d="M 67.16 240.943174 
L 1137.96 240.943174 
" style="fill:none;stroke:#ffffff;stroke-linecap:square;stroke-linejoin:miter;stroke-width:0.8;"/>
   </g>
  </g>
  <g id="axes_3">
   <g id="patch_12">
    <path d="M 67.16 620.684326 
L 1137.96 620.684326 
L 1137.96 450.258847 
L 67.16 450.258847 
z
" style="fill:#eaeaf2;"/>
   </g>
   <g id="matplotlib.axis_5">
    <g id="xtick_15">
     <g id="line2d_26">
      <path clip-path="url(#p779190dee6)" d="M 172.327857 620.684326 
L 172.327857 450.258847 
" style="fill:none;stroke:#ffffff;stroke-linecap:round;stroke-width:0.8;"/>
     </g>
     <g id="text_26">
      <!-- 2003-01-15 -->
      <g style="fill:#262626;" transform="translate(139.082388 636.989483)scale(0.13 -0.13)">
       <use xlink:href="#ArialMT-50"/>
       <use x="55.615234" xlink:href="#ArialMT-48"/>
       <use x="111.230469" xlink:href="#ArialMT-48"/>
       <use x="166.845703" xlink:href="#ArialMT-51"/>
       <use x="222.460938" xlink:href="#ArialMT-45"/>
       <use x="255.761719" xlink:href="#ArialMT-48"/>
       <use x="311.376953" xlink:href="#ArialMT-49"/>
       <use x="366.992188" xlink:href="#ArialMT-45"/>
       <use x="400.292969" xlink:href="#ArialMT-49"/>
       <use x="455.908203" xlink:href="#ArialMT-53"/>
      </g>
     </g>
    </g>
    <g id="xtick_16">
     <g id="line2d_27">
      <path clip-path="url(#p779190dee6)" d="M 334.86 620.684326 
L 334.86 450.258847 
" style="fill:none;stroke:#ffffff;stroke-linecap:round;stroke-width:0.8;"/>
     </g>
     <g id="text_27">
      <!-- 2003-02-01 -->
      <g style="fill:#262626;" transform="translate(301.614531 636.989483)scale(0.13 -0.13)">
       <use xlink:href="#ArialMT-50"/>
       <use x="55.615234" xlink:href="#ArialMT-48"/>
       <use x="111.230469" xlink:href="#ArialMT-48"/>
       <use x="166.845703" xlink:href="#ArialMT-51"/>
       <use x="222.460938" xlink:href="#ArialMT-45"/>
       <use x="255.761719" xlink:href="#ArialMT-48"/>
       <use x="311.376953" xlink:href="#ArialMT-50"/>
       <use x="366.992188" xlink:href="#ArialMT-45"/>
       <use x="400.292969" xlink:href="#ArialMT-48"/>
       <use x="455.908203" xlink:href="#ArialMT-49"/>
      </g>
     </g>
    </g>
    <g id="xtick_17">
     <g id="line2d_28">
      <path clip-path="url(#p779190dee6)" d="M 468.71 620.684326 
L 468.71 450.258847 
" style="fill:none;stroke:#ffffff;stroke-linecap:round;stroke-width:0.8;"/>
     </g>
     <g id="text_28">
      <!-- 2003-02-15 -->
      <g style="fill:#262626;" transform="translate(435.464531 636.989483)scale(0.13 -0.13)">
       <use xlink:href="#ArialMT-50"/>
       <use x="55.615234" xlink:href="#ArialMT-48"/>
       <use x="111.230469" xlink:href="#ArialMT-48"/>
       <use x="166.845703" xlink:href="#ArialMT-51"/>
       <use x="222.460938" xlink:href="#ArialMT-45"/>
       <use x="255.761719" xlink:href="#ArialMT-48"/>
       <use x="311.376953" xlink:href="#ArialMT-50"/>
       <use x="366.992188" xlink:href="#ArialMT-45"/>
       <use x="400.292969" xlink:href="#ArialMT-49"/>
       <use x="455.908203" xlink:href="#ArialMT-53"/>
      </g>
     </g>
    </g>
    <g id="xtick_18">
     <g id="line2d_29">
      <path clip-path="url(#p779190dee6)" d="M 602.56 620.684326 
L 602.56 450.258847 
" style="fill:none;stroke:#ffffff;stroke-linecap:round;stroke-width:0.8;"/>
     </g>
     <g id="text_29">
      <!-- 2003-03-01 -->
      <g style="fill:#262626;" transform="translate(569.314531 636.989483)scale(0.13 -0.13)">
       <use xlink:href="#ArialMT-50"/>
       <use x="55.615234" xlink:href="#ArialMT-48"/>
       <use x="111.230469" xlink:href="#ArialMT-48"/>
       <use x="166.845703" xlink:href="#ArialMT-51"/>
       <use x="222.460938" xlink:href="#ArialMT-45"/>
       <use x="255.761719" xlink:href="#ArialMT-48"/>
       <use x="311.376953" xlink:href="#ArialMT-51"/>
       <use x="366.992188" xlink:href="#ArialMT-45"/>
       <use x="400.292969" xlink:href="#ArialMT-48"/>
       <use x="455.908203" xlink:href="#ArialMT-49"/>
      </g>
     </g>
    </g>
    <g id="xtick_19">
     <g id="line2d_30">
      <path clip-path="url(#p779190dee6)" d="M 736.41 620.684326 
L 736.41 450.258847 
" style="fill:none;stroke:#ffffff;stroke-linecap:round;stroke-width:0.8;"/>
     </g>
     <g id="text_30">
      <!-- 2003-03-15 -->
      <g style="fill:#262626;" transform="translate(703.164531 636.989483)scale(0.13 -0.13)">
       <use xlink:href="#ArialMT-50"/>
       <use x="55.615234" xlink:href="#ArialMT-48"/>
       <use x="111.230469" xlink:href="#ArialMT-48"/>
       <use x="166.845703" xlink:href="#ArialMT-51"/>
       <use x="222.460938" xlink:href="#ArialMT-45"/>
       <use x="255.761719" xlink:href="#ArialMT-48"/>
       <use x="311.376953" xlink:href="#ArialMT-51"/>
       <use x="366.992188" xlink:href="#ArialMT-45"/>
       <use x="400.292969" xlink:href="#ArialMT-49"/>
       <use x="455.908203" xlink:href="#ArialMT-53"/>
      </g>
     </g>
    </g>
    <g id="xtick_20">
     <g id="line2d_31">
      <path clip-path="url(#p779190dee6)" d="M 898.942143 620.684326 
L 898.942143 450.258847 
" style="fill:none;stroke:#ffffff;stroke-linecap:round;stroke-width:0.8;"/>
     </g>
     <g id="text_31">
      <!-- 2003-04-01 -->
      <g style="fill:#262626;" transform="translate(865.696674 636.989483)scale(0.13 -0.13)">
       <use xlink:href="#ArialMT-50"/>
       <use x="55.615234" xlink:href="#ArialMT-48"/>
       <use x="111.230469" xlink:href="#ArialMT-48"/>
       <use x="166.845703" xlink:href="#ArialMT-51"/>
       <use x="222.460938" xlink:href="#ArialMT-45"/>
       <use x="255.761719" xlink:href="#ArialMT-48"/>
       <use x="311.376953" xlink:href="#ArialMT-52"/>
       <use x="366.992188" xlink:href="#ArialMT-45"/>
       <use x="400.292969" xlink:href="#ArialMT-48"/>
       <use x="455.908203" xlink:href="#ArialMT-49"/>
      </g>
     </g>
    </g>
    <g id="xtick_21">
     <g id="line2d_32">
      <path clip-path="url(#p779190dee6)" d="M 1032.792143 620.684326 
L 1032.792143 450.258847 
" style="fill:none;stroke:#ffffff;stroke-linecap:round;stroke-width:0.8;"/>
     </g>
     <g id="text_32">
      <!-- 2003-04-15 -->
      <g style="fill:#262626;" transform="translate(999.546674 636.989483)scale(0.13 -0.13)">
       <use xlink:href="#ArialMT-50"/>
       <use x="55.615234" xlink:href="#ArialMT-48"/>
       <use x="111.230469" xlink:href="#ArialMT-48"/>
       <use x="166.845703" xlink:href="#ArialMT-51"/>
       <use x="222.460938" xlink:href="#ArialMT-45"/>
       <use x="255.761719" xlink:href="#ArialMT-48"/>
       <use x="311.376953" xlink:href="#ArialMT-52"/>
       <use x="366.992188" xlink:href="#ArialMT-45"/>
       <use x="400.292969" xlink:href="#ArialMT-49"/>
       <use x="455.908203" xlink:href="#ArialMT-53"/>
      </g>
     </g>
    </g>
   </g>
   <g id="matplotlib.axis_6">
    <g id="ytick_10">
     <g id="line2d_33">
      <path clip-path="url(#p779190dee6)" d="M 67.16 605.714394 
L 1137.96 605.714394 
" style="fill:none;stroke:#ffffff;stroke-linecap:round;stroke-width:0.8;"/>
     </g>
     <g id="text_33">
      <!-- 10 -->
      <g style="fill:#262626;" transform="translate(38.10875 610.366972)scale(0.13 -0.13)">
       <defs>
        <path d="M 52.828125 31.203125 
L 5.5625 31.203125 
L 5.5625 39.40625 
L 52.828125 39.40625 
z
" id="ArialMT-8722"/>
       </defs>
       <use xlink:href="#ArialMT-8722"/>
       <use x="58.398438" xlink:href="#ArialMT-49"/>
       <use x="114.013672" xlink:href="#ArialMT-48"/>
      </g>
     </g>
    </g>
    <g id="ytick_11">
     <g id="line2d_34">
      <path clip-path="url(#p779190dee6)" d="M 67.16 564.471944 
L 1137.96 564.471944 
" style="fill:none;stroke:#ffffff;stroke-linecap:round;stroke-width:0.8;"/>
     </g>
     <g id="text_34">
      <!-- 5 -->
      <g style="fill:#262626;" transform="translate(45.337969 569.124522)scale(0.13 -0.13)">
       <use xlink:href="#ArialMT-8722"/>
       <use x="58.398438" xlink:href="#ArialMT-53"/>
      </g>
     </g>
    </g>
    <g id="ytick_12">
     <g id="line2d_35">
      <path clip-path="url(#p779190dee6)" d="M 67.16 523.229494 
L 1137.96 523.229494 
" style="fill:none;stroke:#ffffff;stroke-linecap:round;stroke-width:0.8;"/>
     </g>
     <g id="text_35">
      <!-- 0 -->
      <g style="fill:#262626;" transform="translate(52.930781 527.882072)scale(0.13 -0.13)">
       <use xlink:href="#ArialMT-48"/>
      </g>
     </g>
    </g>
    <g id="ytick_13">
     <g id="line2d_36">
      <path clip-path="url(#p779190dee6)" d="M 67.16 481.987044 
L 1137.96 481.987044 
" style="fill:none;stroke:#ffffff;stroke-linecap:round;stroke-width:0.8;"/>
     </g>
     <g id="text_36">
      <!-- 5 -->
      <g style="fill:#262626;" transform="translate(52.930781 486.639622)scale(0.13 -0.13)">
       <use xlink:href="#ArialMT-53"/>
      </g>
     </g>
    </g>
    <g id="text_37">
     <!-- Season -->
     <g style="fill:#262626;" transform="translate(31.525 557.515727)rotate(-90)scale(0.13 -0.13)">
      <defs>
       <path d="M 4.5 23 
L 13.421875 23.78125 
Q 14.0625 18.40625 16.375 14.96875 
Q 18.703125 11.53125 23.578125 9.40625 
Q 28.46875 7.28125 34.578125 7.28125 
Q 39.984375 7.28125 44.140625 8.890625 
Q 48.296875 10.5 50.3125 13.296875 
Q 52.34375 16.109375 52.34375 19.4375 
Q 52.34375 22.796875 50.390625 25.3125 
Q 48.4375 27.828125 43.953125 29.546875 
Q 41.0625 30.671875 31.203125 33.03125 
Q 21.34375 35.40625 17.390625 37.5 
Q 12.25 40.1875 9.734375 44.15625 
Q 7.234375 48.140625 7.234375 53.078125 
Q 7.234375 58.5 10.296875 63.203125 
Q 13.375 67.921875 19.28125 70.359375 
Q 25.203125 72.796875 32.421875 72.796875 
Q 40.375 72.796875 46.453125 70.234375 
Q 52.546875 67.671875 55.8125 62.6875 
Q 59.078125 57.71875 59.328125 51.421875 
L 50.25 50.734375 
Q 49.515625 57.515625 45.28125 60.984375 
Q 41.0625 64.453125 32.8125 64.453125 
Q 24.21875 64.453125 20.28125 61.296875 
Q 16.359375 58.15625 16.359375 53.71875 
Q 16.359375 49.859375 19.140625 47.359375 
Q 21.875 44.875 33.421875 42.265625 
Q 44.96875 39.65625 49.265625 37.703125 
Q 55.515625 34.8125 58.484375 30.390625 
Q 61.46875 25.984375 61.46875 20.21875 
Q 61.46875 14.5 58.203125 9.4375 
Q 54.9375 4.390625 48.796875 1.578125 
Q 42.671875 -1.21875 35.015625 -1.21875 
Q 25.296875 -1.21875 18.71875 1.609375 
Q 12.15625 4.4375 8.421875 10.125 
Q 4.6875 15.828125 4.5 23 
z
" id="ArialMT-83"/>
      </defs>
      <use xlink:href="#ArialMT-83"/>
      <use x="66.699219" xlink:href="#ArialMT-101"/>
      <use x="122.314453" xlink:href="#ArialMT-97"/>
      <use x="177.929688" xlink:href="#ArialMT-115"/>
      <use x="227.929688" xlink:href="#ArialMT-111"/>
      <use x="283.544922" xlink:href="#ArialMT-110"/>
     </g>
    </g>
   </g>
   <g id="line2d_37">
    <path clip-path="url(#p779190dee6)" d="M 67.16 612.937714 
L 76.720714 531.485423 
L 86.281429 474.321314 
L 95.842143 458.00546 
L 105.402857 476.699953 
L 114.963571 521.533239 
L 124.524286 587.597734 
L 134.085 601.003747 
L 143.645714 530.103685 
L 153.206429 481.515928 
L 162.767143 467.691831 
L 172.327857 483.555355 
L 181.888571 521.464977 
L 191.449286 577.156744 
L 201.01 590.093913 
L 210.570714 528.763723 
L 220.131429 488.17617 
L 229.692143 476.631295 
L 239.252857 489.822365 
L 248.813571 521.308894 
L 258.374286 567.480581 
L 267.935 580.339228 
L 277.495714 527.64304 
L 287.056429 494.458885 
L 296.617143 484.929166 
L 306.177857 495.508129 
L 315.738571 520.930656 
L 325.299286 558.219572 
L 334.86 571.469014 
L 344.420714 526.63012 
L 353.981429 500.391392 
L 363.542143 492.641779 
L 373.102857 500.648675 
L 382.663571 520.37928 
L 392.224286 549.529241 
L 401.785 563.783108 
L 411.345714 526.042017 
L 420.906429 506.307948 
L 430.467143 500.136957 
L 440.027857 505.547434 
L 449.588571 519.662556 
L 459.149286 540.788926 
L 468.71 555.675544 
L 478.270714 524.873748 
L 487.831429 512.048109 
L 497.392143 507.664731 
L 506.952857 510.602136 
L 516.513571 519.286888 
L 526.074286 532.749003 
L 535.635 547.078674 
L 545.195714 522.6214 
L 554.756429 516.848659 
L 564.317143 514.178893 
L 573.877857 514.507174 
L 583.438571 517.766029 
L 592.999286 523.892785 
L 602.56 534.129298 
L 612.120714 526.393767 
L 621.681429 522.759787 
L 631.242143 518.394084 
L 640.802857 514.679291 
L 650.363571 513.802432 
L 659.924286 517.283923 
L 669.485 537.466794 
L 679.045714 534.55617 
L 688.606429 529.394029 
L 698.167143 520.973767 
L 707.727857 512.376047 
L 717.288571 508.666369 
L 726.849286 513.439067 
L 736.41 534.422023 
L 745.970714 541.950311 
L 755.531429 535.666258 
L 765.092143 523.281237 
L 774.652857 509.622428 
L 784.213571 502.767355 
L 793.774286 508.489175 
L 803.335 530.888977 
L 812.895714 550.24394 
L 822.456429 542.266399 
L 832.017143 525.516677 
L 841.577857 506.579711 
L 851.138571 496.563485 
L 860.699286 503.428924 
L 870.26 527.95993 
L 879.820714 559.127879 
L 889.381429 548.810268 
L 898.942143 527.318696 
L 908.502857 503.003985 
L 918.063571 490.011595 
L 927.624286 498.486903 
L 937.185 525.992788 
L 946.745714 568.520142 
L 956.306429 555.198788 
L 965.867143 528.561531 
L 975.427857 498.763766 
L 984.988571 483.037714 
L 994.549286 493.740172 
L 1004.11 525.224514 
L 1013.670714 578.670064 
L 1023.231429 561.664104 
L 1032.792143 529.428986 
L 1042.352857 493.923492 
L 1051.913571 475.486036 
L 1061.474286 488.688262 
L 1071.035 524.890948 
L 1080.595714 589.351814 
L 1090.156429 568.327387 
L 1099.717143 530.112446 
L 1109.277857 488.568036 
L 1118.838571 467.34708 
L 1128.399286 483.371032 
L 1137.96 525.171921 
" style="fill:none;stroke:#1f77b4;stroke-linecap:round;stroke-width:1.5;"/>
   </g>
   <g id="patch_13">
    <path d="M 67.16 620.684326 
L 67.16 450.258847 
" style="fill:none;stroke:#ffffff;stroke-linecap:square;stroke-linejoin:miter;stroke-width:0.8;"/>
   </g>
   <g id="patch_14">
    <path d="M 1137.96 620.684326 
L 1137.96 450.258847 
" style="fill:none;stroke:#ffffff;stroke-linecap:square;stroke-linejoin:miter;stroke-width:0.8;"/>
   </g>
   <g id="patch_15">
    <path d="M 67.16 620.684326 
L 1137.96 620.684326 
" style="fill:none;stroke:#ffffff;stroke-linecap:square;stroke-linejoin:miter;stroke-width:0.8;"/>
   </g>
   <g id="patch_16">
    <path d="M 67.16 450.258847 
L 1137.96 450.258847 
" style="fill:none;stroke:#ffffff;stroke-linecap:square;stroke-linejoin:miter;stroke-width:0.8;"/>
   </g>
  </g>
  <g id="axes_4">
   <g id="patch_17">
    <path d="M 67.16 830 
L 1137.96 830 
L 1137.96 659.574521 
L 67.16 659.574521 
z
" style="fill:#eaeaf2;"/>
   </g>
   <g id="line2d_38">
    <path clip-path="url(#pa103133e67)" d="M 67.16 751.654981 
L 1137.96 751.654981 
" style="fill:none;stroke:#000000;stroke-linecap:round;stroke-width:1.5;"/>
   </g>
   <g id="matplotlib.axis_7">
    <g id="xtick_22">
     <g id="line2d_39">
      <path clip-path="url(#pa103133e67)" d="M 172.327857 830 
L 172.327857 659.574521 
" style="fill:none;stroke:#ffffff;stroke-linecap:round;stroke-width:0.8;"/>
     </g>
     <g id="text_38">
      <!-- 2003-01-15 -->
      <g style="fill:#262626;" transform="translate(139.082388 846.305156)scale(0.13 -0.13)">
       <use xlink:href="#ArialMT-50"/>
       <use x="55.615234" xlink:href="#ArialMT-48"/>
       <use x="111.230469" xlink:href="#ArialMT-48"/>
       <use x="166.845703" xlink:href="#ArialMT-51"/>
       <use x="222.460938" xlink:href="#ArialMT-45"/>
       <use x="255.761719" xlink:href="#ArialMT-48"/>
       <use x="311.376953" xlink:href="#ArialMT-49"/>
       <use x="366.992188" xlink:href="#ArialMT-45"/>
       <use x="400.292969" xlink:href="#ArialMT-49"/>
       <use x="455.908203" xlink:href="#ArialMT-53"/>
      </g>
     </g>
    </g>
    <g id="xtick_23">
     <g id="line2d_40">
      <path clip-path="url(#pa103133e67)" d="M 334.86 830 
L 334.86 659.574521 
" style="fill:none;stroke:#ffffff;stroke-linecap:round;stroke-width:0.8;"/>
     </g>
     <g id="text_39">
      <!-- 2003-02-01 -->
      <g style="fill:#262626;" transform="translate(301.614531 846.305156)scale(0.13 -0.13)">
       <use xlink:href="#ArialMT-50"/>
       <use x="55.615234" xlink:href="#ArialMT-48"/>
       <use x="111.230469" xlink:href="#ArialMT-48"/>
       <use x="166.845703" xlink:href="#ArialMT-51"/>
       <use x="222.460938" xlink:href="#ArialMT-45"/>
       <use x="255.761719" xlink:href="#ArialMT-48"/>
       <use x="311.376953" xlink:href="#ArialMT-50"/>
       <use x="366.992188" xlink:href="#ArialMT-45"/>
       <use x="400.292969" xlink:href="#ArialMT-48"/>
       <use x="455.908203" xlink:href="#ArialMT-49"/>
      </g>
     </g>
    </g>
    <g id="xtick_24">
     <g id="line2d_41">
      <path clip-path="url(#pa103133e67)" d="M 468.71 830 
L 468.71 659.574521 
" style="fill:none;stroke:#ffffff;stroke-linecap:round;stroke-width:0.8;"/>
     </g>
     <g id="text_40">
      <!-- 2003-02-15 -->
      <g style="fill:#262626;" transform="translate(435.464531 846.305156)scale(0.13 -0.13)">
       <use xlink:href="#ArialMT-50"/>
       <use x="55.615234" xlink:href="#ArialMT-48"/>
       <use x="111.230469" xlink:href="#ArialMT-48"/>
       <use x="166.845703" xlink:href="#ArialMT-51"/>
       <use x="222.460938" xlink:href="#ArialMT-45"/>
       <use x="255.761719" xlink:href="#ArialMT-48"/>
       <use x="311.376953" xlink:href="#ArialMT-50"/>
       <use x="366.992188" xlink:href="#ArialMT-45"/>
       <use x="400.292969" xlink:href="#ArialMT-49"/>
       <use x="455.908203" xlink:href="#ArialMT-53"/>
      </g>
     </g>
    </g>
    <g id="xtick_25">
     <g id="line2d_42">
      <path clip-path="url(#pa103133e67)" d="M 602.56 830 
L 602.56 659.574521 
" style="fill:none;stroke:#ffffff;stroke-linecap:round;stroke-width:0.8;"/>
     </g>
     <g id="text_41">
      <!-- 2003-03-01 -->
      <g style="fill:#262626;" transform="translate(569.314531 846.305156)scale(0.13 -0.13)">
       <use xlink:href="#ArialMT-50"/>
       <use x="55.615234" xlink:href="#ArialMT-48"/>
       <use x="111.230469" xlink:href="#ArialMT-48"/>
       <use x="166.845703" xlink:href="#ArialMT-51"/>
       <use x="222.460938" xlink:href="#ArialMT-45"/>
       <use x="255.761719" xlink:href="#ArialMT-48"/>
       <use x="311.376953" xlink:href="#ArialMT-51"/>
       <use x="366.992188" xlink:href="#ArialMT-45"/>
       <use x="400.292969" xlink:href="#ArialMT-48"/>
       <use x="455.908203" xlink:href="#ArialMT-49"/>
      </g>
     </g>
    </g>
    <g id="xtick_26">
     <g id="line2d_43">
      <path clip-path="url(#pa103133e67)" d="M 736.41 830 
L 736.41 659.574521 
" style="fill:none;stroke:#ffffff;stroke-linecap:round;stroke-width:0.8;"/>
     </g>
     <g id="text_42">
      <!-- 2003-03-15 -->
      <g style="fill:#262626;" transform="translate(703.164531 846.305156)scale(0.13 -0.13)">
       <use xlink:href="#ArialMT-50"/>
       <use x="55.615234" xlink:href="#ArialMT-48"/>
       <use x="111.230469" xlink:href="#ArialMT-48"/>
       <use x="166.845703" xlink:href="#ArialMT-51"/>
       <use x="222.460938" xlink:href="#ArialMT-45"/>
       <use x="255.761719" xlink:href="#ArialMT-48"/>
       <use x="311.376953" xlink:href="#ArialMT-51"/>
       <use x="366.992188" xlink:href="#ArialMT-45"/>
       <use x="400.292969" xlink:href="#ArialMT-49"/>
       <use x="455.908203" xlink:href="#ArialMT-53"/>
      </g>
     </g>
    </g>
    <g id="xtick_27">
     <g id="line2d_44">
      <path clip-path="url(#pa103133e67)" d="M 898.942143 830 
L 898.942143 659.574521 
" style="fill:none;stroke:#ffffff;stroke-linecap:round;stroke-width:0.8;"/>
     </g>
     <g id="text_43">
      <!-- 2003-04-01 -->
      <g style="fill:#262626;" transform="translate(865.696674 846.305156)scale(0.13 -0.13)">
       <use xlink:href="#ArialMT-50"/>
       <use x="55.615234" xlink:href="#ArialMT-48"/>
       <use x="111.230469" xlink:href="#ArialMT-48"/>
       <use x="166.845703" xlink:href="#ArialMT-51"/>
       <use x="222.460938" xlink:href="#ArialMT-45"/>
       <use x="255.761719" xlink:href="#ArialMT-48"/>
       <use x="311.376953" xlink:href="#ArialMT-52"/>
       <use x="366.992188" xlink:href="#ArialMT-45"/>
       <use x="400.292969" xlink:href="#ArialMT-48"/>
       <use x="455.908203" xlink:href="#ArialMT-49"/>
      </g>
     </g>
    </g>
    <g id="xtick_28">
     <g id="line2d_45">
      <path clip-path="url(#pa103133e67)" d="M 1032.792143 830 
L 1032.792143 659.574521 
" style="fill:none;stroke:#ffffff;stroke-linecap:round;stroke-width:0.8;"/>
     </g>
     <g id="text_44">
      <!-- 2003-04-15 -->
      <g style="fill:#262626;" transform="translate(999.546674 846.305156)scale(0.13 -0.13)">
       <use xlink:href="#ArialMT-50"/>
       <use x="55.615234" xlink:href="#ArialMT-48"/>
       <use x="111.230469" xlink:href="#ArialMT-48"/>
       <use x="166.845703" xlink:href="#ArialMT-51"/>
       <use x="222.460938" xlink:href="#ArialMT-45"/>
       <use x="255.761719" xlink:href="#ArialMT-48"/>
       <use x="311.376953" xlink:href="#ArialMT-52"/>
       <use x="366.992188" xlink:href="#ArialMT-45"/>
       <use x="400.292969" xlink:href="#ArialMT-49"/>
       <use x="455.908203" xlink:href="#ArialMT-53"/>
      </g>
     </g>
    </g>
   </g>
   <g id="matplotlib.axis_8">
    <g id="ytick_14">
     <g id="line2d_46">
      <path clip-path="url(#pa103133e67)" d="M 67.16 816.23116 
L 1137.96 816.23116 
" style="fill:none;stroke:#ffffff;stroke-linecap:round;stroke-width:0.8;"/>
     </g>
     <g id="text_45">
      <!-- 400 -->
      <g style="fill:#262626;" transform="translate(30.879531 820.883739)scale(0.13 -0.13)">
       <use xlink:href="#ArialMT-8722"/>
       <use x="58.398438" xlink:href="#ArialMT-52"/>
       <use x="114.013672" xlink:href="#ArialMT-48"/>
       <use x="169.628906" xlink:href="#ArialMT-48"/>
      </g>
     </g>
    </g>
    <g id="ytick_15">
     <g id="line2d_47">
      <path clip-path="url(#pa103133e67)" d="M 67.16 783.943071 
L 1137.96 783.943071 
" style="fill:none;stroke:#ffffff;stroke-linecap:round;stroke-width:0.8;"/>
     </g>
     <g id="text_46">
      <!-- 200 -->
      <g style="fill:#262626;" transform="translate(30.879531 788.595649)scale(0.13 -0.13)">
       <use xlink:href="#ArialMT-8722"/>
       <use x="58.398438" xlink:href="#ArialMT-50"/>
       <use x="114.013672" xlink:href="#ArialMT-48"/>
       <use x="169.628906" xlink:href="#ArialMT-48"/>
      </g>
     </g>
    </g>
    <g id="ytick_16">
     <g id="line2d_48">
      <path clip-path="url(#pa103133e67)" d="M 67.16 751.654981 
L 1137.96 751.654981 
" style="fill:none;stroke:#ffffff;stroke-linecap:round;stroke-width:0.8;"/>
     </g>
     <g id="text_47">
      <!-- 0 -->
      <g style="fill:#262626;" transform="translate(52.930781 756.307559)scale(0.13 -0.13)">
       <use xlink:href="#ArialMT-48"/>
      </g>
     </g>
    </g>
    <g id="ytick_17">
     <g id="line2d_49">
      <path clip-path="url(#pa103133e67)" d="M 67.16 719.366892 
L 1137.96 719.366892 
" style="fill:none;stroke:#ffffff;stroke-linecap:round;stroke-width:0.8;"/>
     </g>
     <g id="text_48">
      <!-- 200 -->
      <g style="fill:#262626;" transform="translate(38.472344 724.01947)scale(0.13 -0.13)">
       <use xlink:href="#ArialMT-50"/>
       <use x="55.615234" xlink:href="#ArialMT-48"/>
       <use x="111.230469" xlink:href="#ArialMT-48"/>
      </g>
     </g>
    </g>
    <g id="ytick_18">
     <g id="line2d_50">
      <path clip-path="url(#pa103133e67)" d="M 67.16 687.078802 
L 1137.96 687.078802 
" style="fill:none;stroke:#ffffff;stroke-linecap:round;stroke-width:0.8;"/>
     </g>
     <g id="text_49">
      <!-- 400 -->
      <g style="fill:#262626;" transform="translate(38.472344 691.73138)scale(0.13 -0.13)">
       <use xlink:href="#ArialMT-52"/>
       <use x="55.615234" xlink:href="#ArialMT-48"/>
       <use x="111.230469" xlink:href="#ArialMT-48"/>
      </g>
     </g>
    </g>
    <g id="text_50">
     <!-- Resid -->
     <g style="fill:#262626;" transform="translate(24.295781 761.404917)rotate(-90)scale(0.13 -0.13)">
      <defs>
       <path d="M 7.859375 0 
L 7.859375 71.578125 
L 39.59375 71.578125 
Q 49.171875 71.578125 54.140625 69.640625 
Q 59.125 67.71875 62.109375 62.828125 
Q 65.09375 57.953125 65.09375 52.046875 
Q 65.09375 44.4375 60.15625 39.203125 
Q 55.21875 33.984375 44.921875 32.5625 
Q 48.6875 30.765625 50.640625 29 
Q 54.78125 25.203125 58.5 19.484375 
L 70.953125 0 
L 59.03125 0 
L 49.5625 14.890625 
Q 45.40625 21.34375 42.71875 24.75 
Q 40.046875 28.171875 37.921875 29.53125 
Q 35.796875 30.90625 33.59375 31.453125 
Q 31.984375 31.78125 28.328125 31.78125 
L 17.328125 31.78125 
L 17.328125 0 
z
M 17.328125 39.984375 
L 37.703125 39.984375 
Q 44.1875 39.984375 47.84375 41.328125 
Q 51.515625 42.671875 53.421875 45.625 
Q 55.328125 48.578125 55.328125 52.046875 
Q 55.328125 57.125 51.640625 60.390625 
Q 47.953125 63.671875 39.984375 63.671875 
L 17.328125 63.671875 
z
" id="ArialMT-82"/>
      </defs>
      <use xlink:href="#ArialMT-82"/>
      <use x="72.216797" xlink:href="#ArialMT-101"/>
      <use x="127.832031" xlink:href="#ArialMT-115"/>
      <use x="177.832031" xlink:href="#ArialMT-105"/>
      <use x="200.048828" xlink:href="#ArialMT-100"/>
     </g>
    </g>
   </g>
   <g id="line2d_51">
    <defs>
     <path d="M 0 3 
C 0.795609 3 1.55874 2.683901 2.12132 2.12132 
C 2.683901 1.55874 3 0.795609 3 0 
C 3 -0.795609 2.683901 -1.55874 2.12132 -2.12132 
C 1.55874 -2.683901 0.795609 -3 0 -3 
C -0.795609 -3 -1.55874 -2.683901 -2.12132 -2.12132 
C -2.683901 -1.55874 -3 -0.795609 -3 0 
C -3 0.795609 -2.683901 1.55874 -2.12132 2.12132 
C -1.55874 2.683901 -0.795609 3 0 3 
z
" id="mbdd7ff7656" style="stroke:#1f77b4;"/>
    </defs>
    <g clip-path="url(#pa103133e67)">
     <use style="fill:#1f77b4;stroke:#1f77b4;" x="67.16" xlink:href="#mbdd7ff7656" y="746.491729"/>
     <use style="fill:#1f77b4;stroke:#1f77b4;" x="76.720714" xlink:href="#mbdd7ff7656" y="749.308165"/>
     <use style="fill:#1f77b4;stroke:#1f77b4;" x="86.281429" xlink:href="#mbdd7ff7656" y="751.858711"/>
     <use style="fill:#1f77b4;stroke:#1f77b4;" x="95.842143" xlink:href="#mbdd7ff7656" y="753.828201"/>
     <use style="fill:#1f77b4;stroke:#1f77b4;" x="105.402857" xlink:href="#mbdd7ff7656" y="755.328798"/>
     <use style="fill:#1f77b4;stroke:#1f77b4;" x="114.963571" xlink:href="#mbdd7ff7656" y="756.506008"/>
     <use style="fill:#1f77b4;stroke:#1f77b4;" x="124.524286" xlink:href="#mbdd7ff7656" y="757.659701"/>
     <use style="fill:#1f77b4;stroke:#1f77b4;" x="134.085" xlink:href="#mbdd7ff7656" y="763.467807"/>
     <use style="fill:#1f77b4;stroke:#1f77b4;" x="143.645714" xlink:href="#mbdd7ff7656" y="758.816925"/>
     <use style="fill:#1f77b4;stroke:#1f77b4;" x="153.206429" xlink:href="#mbdd7ff7656" y="755.727556"/>
     <use style="fill:#1f77b4;stroke:#1f77b4;" x="162.767143" xlink:href="#mbdd7ff7656" y="753.974654"/>
     <use style="fill:#1f77b4;stroke:#1f77b4;" x="172.327857" xlink:href="#mbdd7ff7656" y="753.971477"/>
     <use style="fill:#1f77b4;stroke:#1f77b4;" x="181.888571" xlink:href="#mbdd7ff7656" y="756.139088"/>
     <use style="fill:#1f77b4;stroke:#1f77b4;" x="191.449286" xlink:href="#mbdd7ff7656" y="760.645709"/>
     <use style="fill:#1f77b4;stroke:#1f77b4;" x="201.01" xlink:href="#mbdd7ff7656" y="768.771189"/>
     <use style="fill:#1f77b4;stroke:#1f77b4;" x="210.570714" xlink:href="#mbdd7ff7656" y="761.622045"/>
     <use style="fill:#1f77b4;stroke:#1f77b4;" x="220.131429" xlink:href="#mbdd7ff7656" y="756.831756"/>
     <use style="fill:#1f77b4;stroke:#1f77b4;" x="229.692143" xlink:href="#mbdd7ff7656" y="753.572486"/>
     <use style="fill:#1f77b4;stroke:#1f77b4;" x="239.252857" xlink:href="#mbdd7ff7656" y="749.827513"/>
     <use style="fill:#1f77b4;stroke:#1f77b4;" x="248.813571" xlink:href="#mbdd7ff7656" y="743.108465"/>
     <use style="fill:#1f77b4;stroke:#1f77b4;" x="258.374286" xlink:href="#mbdd7ff7656" y="731.529032"/>
     <use style="fill:#1f77b4;stroke:#1f77b4;" x="267.935" xlink:href="#mbdd7ff7656" y="715.302996"/>
     <use style="fill:#1f77b4;stroke:#1f77b4;" x="277.495714" xlink:href="#mbdd7ff7656" y="732.335317"/>
     <use style="fill:#1f77b4;stroke:#1f77b4;" x="287.056429" xlink:href="#mbdd7ff7656" y="743.670951"/>
     <use style="fill:#1f77b4;stroke:#1f77b4;" x="296.617143" xlink:href="#mbdd7ff7656" y="750.547388"/>
     <use style="fill:#1f77b4;stroke:#1f77b4;" x="306.177857" xlink:href="#mbdd7ff7656" y="757.223084"/>
     <use style="fill:#1f77b4;stroke:#1f77b4;" x="315.738571" xlink:href="#mbdd7ff7656" y="769.05851"/>
     <use style="fill:#1f77b4;stroke:#1f77b4;" x="325.299286" xlink:href="#mbdd7ff7656" y="790.031781"/>
     <use style="fill:#1f77b4;stroke:#1f77b4;" x="334.86" xlink:href="#mbdd7ff7656" y="822.253387"/>
     <use style="fill:#1f77b4;stroke:#1f77b4;" x="344.420714" xlink:href="#mbdd7ff7656" y="790.674254"/>
     <use style="fill:#1f77b4;stroke:#1f77b4;" x="353.981429" xlink:href="#mbdd7ff7656" y="769.493779"/>
     <use style="fill:#1f77b4;stroke:#1f77b4;" x="363.542143" xlink:href="#mbdd7ff7656" y="756.743584"/>
     <use style="fill:#1f77b4;stroke:#1f77b4;" x="373.102857" xlink:href="#mbdd7ff7656" y="746.549997"/>
     <use style="fill:#1f77b4;stroke:#1f77b4;" x="382.663571" xlink:href="#mbdd7ff7656" y="731.3952"/>
     <use style="fill:#1f77b4;stroke:#1f77b4;" x="392.224286" xlink:href="#mbdd7ff7656" y="705.499599"/>
     <use style="fill:#1f77b4;stroke:#1f77b4;" x="401.785" xlink:href="#mbdd7ff7656" y="667.321134"/>
     <use style="fill:#1f77b4;stroke:#1f77b4;" x="411.345714" xlink:href="#mbdd7ff7656" y="705.982437"/>
     <use style="fill:#1f77b4;stroke:#1f77b4;" x="420.906429" xlink:href="#mbdd7ff7656" y="731.70196"/>
     <use style="fill:#1f77b4;stroke:#1f77b4;" x="430.467143" xlink:href="#mbdd7ff7656" y="746.033338"/>
     <use style="fill:#1f77b4;stroke:#1f77b4;" x="440.027857" xlink:href="#mbdd7ff7656" y="752.868655"/>
     <use style="fill:#1f77b4;stroke:#1f77b4;" x="449.588571" xlink:href="#mbdd7ff7656" y="757.561194"/>
     <use style="fill:#1f77b4;stroke:#1f77b4;" x="459.149286" xlink:href="#mbdd7ff7656" y="764.465315"/>
     <use style="fill:#1f77b4;stroke:#1f77b4;" x="468.71" xlink:href="#mbdd7ff7656" y="775.125728"/>
     <use style="fill:#1f77b4;stroke:#1f77b4;" x="478.270714" xlink:href="#mbdd7ff7656" y="764.800183"/>
     <use style="fill:#1f77b4;stroke:#1f77b4;" x="487.831429" xlink:href="#mbdd7ff7656" y="757.741405"/>
     <use style="fill:#1f77b4;stroke:#1f77b4;" x="497.392143" xlink:href="#mbdd7ff7656" y="754.212322"/>
     <use style="fill:#1f77b4;stroke:#1f77b4;" x="506.952857" xlink:href="#mbdd7ff7656" y="754.942003"/>
     <use style="fill:#1f77b4;stroke:#1f77b4;" x="516.513571" xlink:href="#mbdd7ff7656" y="760.583677"/>
     <use style="fill:#1f77b4;stroke:#1f77b4;" x="526.074286" xlink:href="#mbdd7ff7656" y="771.401631"/>
     <use style="fill:#1f77b4;stroke:#1f77b4;" x="535.635" xlink:href="#mbdd7ff7656" y="787.706185"/>
     <use style="fill:#1f77b4;stroke:#1f77b4;" x="545.195714" xlink:href="#mbdd7ff7656" y="771.616996"/>
     <use style="fill:#1f77b4;stroke:#1f77b4;" x="554.756429" xlink:href="#mbdd7ff7656" y="760.649593"/>
     <use style="fill:#1f77b4;stroke:#1f77b4;" x="564.317143" xlink:href="#mbdd7ff7656" y="754.353592"/>
     <use style="fill:#1f77b4;stroke:#1f77b4;" x="573.877857" xlink:href="#mbdd7ff7656" y="750.620114"/>
     <use style="fill:#1f77b4;stroke:#1f77b4;" x="583.438571" xlink:href="#mbdd7ff7656" y="746.642107"/>
     <use style="fill:#1f77b4;stroke:#1f77b4;" x="592.999286" xlink:href="#mbdd7ff7656" y="740.185283"/>
     <use style="fill:#1f77b4;stroke:#1f77b4;" x="602.56" xlink:href="#mbdd7ff7656" y="730.497202"/>
     <use style="fill:#1f77b4;stroke:#1f77b4;" x="612.120714" xlink:href="#mbdd7ff7656" y="740.144227"/>
     <use style="fill:#1f77b4;stroke:#1f77b4;" x="621.681429" xlink:href="#mbdd7ff7656" y="746.553992"/>
     <use style="fill:#1f77b4;stroke:#1f77b4;" x="631.242143" xlink:href="#mbdd7ff7656" y="749.943796"/>
     <use style="fill:#1f77b4;stroke:#1f77b4;" x="640.802857" xlink:href="#mbdd7ff7656" y="750.324183"/>
     <use style="fill:#1f77b4;stroke:#1f77b4;" x="650.363571" xlink:href="#mbdd7ff7656" y="747.88037"/>
     <use style="fill:#1f77b4;stroke:#1f77b4;" x="659.924286" xlink:href="#mbdd7ff7656" y="742.898625"/>
     <use style="fill:#1f77b4;stroke:#1f77b4;" x="669.485" xlink:href="#mbdd7ff7656" y="735.136071"/>
     <use style="fill:#1f77b4;stroke:#1f77b4;" x="679.045714" xlink:href="#mbdd7ff7656" y="742.562672"/>
     <use style="fill:#1f77b4;stroke:#1f77b4;" x="688.606429" xlink:href="#mbdd7ff7656" y="747.580987"/>
     <use style="fill:#1f77b4;stroke:#1f77b4;" x="698.167143" xlink:href="#mbdd7ff7656" y="750.481165"/>
     <use style="fill:#1f77b4;stroke:#1f77b4;" x="707.727857" xlink:href="#mbdd7ff7656" y="751.868517"/>
     <use style="fill:#1f77b4;stroke:#1f77b4;" x="717.288571" xlink:href="#mbdd7ff7656" y="752.566254"/>
     <use style="fill:#1f77b4;stroke:#1f77b4;" x="726.849286" xlink:href="#mbdd7ff7656" y="753.268034"/>
     <use style="fill:#1f77b4;stroke:#1f77b4;" x="736.41" xlink:href="#mbdd7ff7656" y="754.03634"/>
     <use style="fill:#1f77b4;stroke:#1f77b4;" x="745.970714" xlink:href="#mbdd7ff7656" y="752.708726"/>
     <use style="fill:#1f77b4;stroke:#1f77b4;" x="755.531429" xlink:href="#mbdd7ff7656" y="752.034983"/>
     <use style="fill:#1f77b4;stroke:#1f77b4;" x="765.092143" xlink:href="#mbdd7ff7656" y="751.913865"/>
     <use style="fill:#1f77b4;stroke:#1f77b4;" x="774.652857" xlink:href="#mbdd7ff7656" y="752.450323"/>
     <use style="fill:#1f77b4;stroke:#1f77b4;" x="784.213571" xlink:href="#mbdd7ff7656" y="753.68569"/>
     <use style="fill:#1f77b4;stroke:#1f77b4;" x="793.774286" xlink:href="#mbdd7ff7656" y="755.622026"/>
     <use style="fill:#1f77b4;stroke:#1f77b4;" x="803.335" xlink:href="#mbdd7ff7656" y="758.237633"/>
     <use style="fill:#1f77b4;stroke:#1f77b4;" x="812.895714" xlink:href="#mbdd7ff7656" y="754.802455"/>
     <use style="fill:#1f77b4;stroke:#1f77b4;" x="822.456429" xlink:href="#mbdd7ff7656" y="752.908127"/>
     <use style="fill:#1f77b4;stroke:#1f77b4;" x="832.017143" xlink:href="#mbdd7ff7656" y="751.91229"/>
     <use style="fill:#1f77b4;stroke:#1f77b4;" x="841.577857" xlink:href="#mbdd7ff7656" y="750.757566"/>
     <use style="fill:#1f77b4;stroke:#1f77b4;" x="851.138571" xlink:href="#mbdd7ff7656" y="748.059438"/>
     <use style="fill:#1f77b4;stroke:#1f77b4;" x="860.699286" xlink:href="#mbdd7ff7656" y="742.796247"/>
     <use style="fill:#1f77b4;stroke:#1f77b4;" x="870.26" xlink:href="#mbdd7ff7656" y="734.629231"/>
     <use style="fill:#1f77b4;stroke:#1f77b4;" x="879.820714" xlink:href="#mbdd7ff7656" y="741.701308"/>
     <use style="fill:#1f77b4;stroke:#1f77b4;" x="889.381429" xlink:href="#mbdd7ff7656" y="747.02853"/>
     <use style="fill:#1f77b4;stroke:#1f77b4;" x="898.942143" xlink:href="#mbdd7ff7656" y="750.7665"/>
     <use style="fill:#1f77b4;stroke:#1f77b4;" x="908.502857" xlink:href="#mbdd7ff7656" y="755.159056"/>
     <use style="fill:#1f77b4;stroke:#1f77b4;" x="918.063571" xlink:href="#mbdd7ff7656" y="762.890892"/>
     <use style="fill:#1f77b4;stroke:#1f77b4;" x="927.624286" xlink:href="#mbdd7ff7656" y="775.944911"/>
     <use style="fill:#1f77b4;stroke:#1f77b4;" x="937.185" xlink:href="#mbdd7ff7656" y="795.179103"/>
     <use style="fill:#1f77b4;stroke:#1f77b4;" x="946.745714" xlink:href="#mbdd7ff7656" y="774.566389"/>
     <use style="fill:#1f77b4;stroke:#1f77b4;" x="956.306429" xlink:href="#mbdd7ff7656" y="761.601968"/>
     <use style="fill:#1f77b4;stroke:#1f77b4;" x="965.867143" xlink:href="#mbdd7ff7656" y="754.364527"/>
     <use style="fill:#1f77b4;stroke:#1f77b4;" x="975.427857" xlink:href="#mbdd7ff7656" y="749.42721"/>
     <use style="fill:#1f77b4;stroke:#1f77b4;" x="984.988571" xlink:href="#mbdd7ff7656" y="742.24191"/>
     <use style="fill:#1f77b4;stroke:#1f77b4;" x="994.549286" xlink:href="#mbdd7ff7656" y="729.303582"/>
     <use style="fill:#1f77b4;stroke:#1f77b4;" x="1004.11" xlink:href="#mbdd7ff7656" y="709.626333"/>
     <use style="fill:#1f77b4;stroke:#1f77b4;" x="1013.670714" xlink:href="#mbdd7ff7656" y="727.630874"/>
     <use style="fill:#1f77b4;stroke:#1f77b4;" x="1023.231429" xlink:href="#mbdd7ff7656" y="740.685556"/>
     <use style="fill:#1f77b4;stroke:#1f77b4;" x="1032.792143" xlink:href="#mbdd7ff7656" y="748.691538"/>
     <use style="fill:#1f77b4;stroke:#1f77b4;" x="1042.352857" xlink:href="#mbdd7ff7656" y="754.221332"/>
     <use style="fill:#1f77b4;stroke:#1f77b4;" x="1051.913571" xlink:href="#mbdd7ff7656" y="760.527013"/>
     <use style="fill:#1f77b4;stroke:#1f77b4;" x="1061.474286" xlink:href="#mbdd7ff7656" y="770.176225"/>
     <use style="fill:#1f77b4;stroke:#1f77b4;" x="1071.035" xlink:href="#mbdd7ff7656" y="784.282853"/>
     <use style="fill:#1f77b4;stroke:#1f77b4;" x="1080.595714" xlink:href="#mbdd7ff7656" y="768.193427"/>
     <use style="fill:#1f77b4;stroke:#1f77b4;" x="1090.156429" xlink:href="#mbdd7ff7656" y="762.58013"/>
     <use style="fill:#1f77b4;stroke:#1f77b4;" x="1099.717143" xlink:href="#mbdd7ff7656" y="758.106961"/>
     <use style="fill:#1f77b4;stroke:#1f77b4;" x="1109.277857" xlink:href="#mbdd7ff7656" y="754.187364"/>
     <use style="fill:#1f77b4;stroke:#1f77b4;" x="1118.838571" xlink:href="#mbdd7ff7656" y="750.416235"/>
     <use style="fill:#1f77b4;stroke:#1f77b4;" x="1128.399286" xlink:href="#mbdd7ff7656" y="746.435051"/>
     <use style="fill:#1f77b4;stroke:#1f77b4;" x="1137.96" xlink:href="#mbdd7ff7656" y="742.414468"/>
    </g>
   </g>
   <g id="patch_18">
    <path d="M 67.16 830 
L 67.16 659.574521 
" style="fill:none;stroke:#ffffff;stroke-linecap:square;stroke-linejoin:miter;stroke-width:0.8;"/>
   </g>
   <g id="patch_19">
    <path d="M 1137.96 830 
L 1137.96 659.574521 
" style="fill:none;stroke:#ffffff;stroke-linecap:square;stroke-linejoin:miter;stroke-width:0.8;"/>
   </g>
   <g id="patch_20">
    <path d="M 67.16 830 
L 1137.96 830 
" style="fill:none;stroke:#ffffff;stroke-linecap:square;stroke-linejoin:miter;stroke-width:0.8;"/>
   </g>
   <g id="patch_21">
    <path d="M 67.16 659.574521 
L 1137.96 659.574521 
" style="fill:none;stroke:#ffffff;stroke-linecap:square;stroke-linejoin:miter;stroke-width:0.8;"/>
   </g>
  </g>
 </g>
 <defs>
  <clipPath id="p9a449d136e">
   <rect height="170.425479" width="1070.8" x="67.16" y="31.6275"/>
  </clipPath>
  <clipPath id="pa86858dd61">
   <rect height="170.425479" width="1070.8" x="67.16" y="240.943174"/>
  </clipPath>
  <clipPath id="p779190dee6">
   <rect height="170.425479" width="1070.8" x="67.16" y="450.258847"/>
  </clipPath>
  <clipPath id="pa103133e67">
   <rect height="170.425479" width="1070.8" x="67.16" y="659.574521"/>
  </clipPath>
 </defs>
</svg>
