<?xml version="1.0" encoding="utf-8" standalone="no"?>
<!DOCTYPE svg PUBLIC "-//W3C//DTD SVG 1.1//EN"
  "http://www.w3.org/Graphics/SVG/1.1/DTD/svg11.dtd">
<!-- Created with matplotlib (https://matplotlib.org/) -->
<svg height="864pt" version="1.1" viewBox="0 0 1152 864" width="1152pt" xmlns="http://www.w3.org/2000/svg" xmlns:xlink="http://www.w3.org/1999/xlink">
 <metadata>
  <rdf:RDF xmlns:cc="http://creativecommons.org/ns#" xmlns:dc="http://purl.org/dc/elements/1.1/" xmlns:rdf="http://www.w3.org/1999/02/22-rdf-syntax-ns#">
   <cc:Work>
    <dc:type rdf:resource="http://purl.org/dc/dcmitype/StillImage"/>
    <dc:date>2021-03-10T13:04:02.966778</dc:date>
    <dc:format>image/svg+xml</dc:format>
    <dc:creator>
     <cc:Agent>
      <dc:title>Matplotlib v3.3.4, https://matplotlib.org/</dc:title>
     </cc:Agent>
    </dc:creator>
   </cc:Work>
  </rdf:RDF>
 </metadata>
 <defs>
  <style type="text/css">*{stroke-linecap:butt;stroke-linejoin:round;}</style>
 </defs>
 <g id="figure_1">
  <g id="patch_1">
   <path d="M 0 864 
L 1152 864 
L 1152 0 
L 0 0 
z
" style="fill:#ffffff;"/>
  </g>
  <g id="axes_1">
   <g id="patch_2">
    <path d="M 67.16 203.346894 
L 1137.96 203.346894 
L 1137.96 31.6275 
L 67.16 31.6275 
z
" style="fill:#eaeaf2;"/>
   </g>
   <g id="matplotlib.axis_1">
    <g id="xtick_1">
     <g id="line2d_1">
      <path clip-path="url(#p7fb82d9e12)" d="M 172.327857 203.346894 
L 172.327857 31.6275 
" style="fill:none;stroke:#ffffff;stroke-linecap:round;stroke-width:0.8;"/>
     </g>
     <g id="text_1">
      <!-- 2003-01-15 -->
      <g style="fill:#262626;" transform="translate(139.082388 219.652051)scale(0.13 -0.13)">
       <defs>
        <path d="M 50.34375 8.453125 
L 50.34375 0 
L 3.03125 0 
Q 2.9375 3.171875 4.046875 6.109375 
Q 5.859375 10.9375 9.828125 15.625 
Q 13.8125 20.3125 21.34375 26.46875 
Q 33.015625 36.03125 37.109375 41.625 
Q 41.21875 47.21875 41.21875 52.203125 
Q 41.21875 57.421875 37.46875 61 
Q 33.734375 64.59375 27.734375 64.59375 
Q 21.390625 64.59375 17.578125 60.78125 
Q 13.765625 56.984375 13.71875 50.25 
L 4.6875 51.171875 
Q 5.609375 61.28125 11.65625 66.578125 
Q 17.71875 71.875 27.9375 71.875 
Q 38.234375 71.875 44.234375 66.15625 
Q 50.25 60.453125 50.25 52 
Q 50.25 47.703125 48.484375 43.546875 
Q 46.734375 39.40625 42.65625 34.8125 
Q 38.578125 30.21875 29.109375 22.21875 
Q 21.1875 15.578125 18.9375 13.203125 
Q 16.703125 10.84375 15.234375 8.453125 
z
" id="ArialMT-50"/>
        <path d="M 4.15625 35.296875 
Q 4.15625 48 6.765625 55.734375 
Q 9.375 63.484375 14.515625 67.671875 
Q 19.671875 71.875 27.484375 71.875 
Q 33.25 71.875 37.59375 69.546875 
Q 41.9375 67.234375 44.765625 62.859375 
Q 47.609375 58.5 49.21875 52.21875 
Q 50.828125 45.953125 50.828125 35.296875 
Q 50.828125 22.703125 48.234375 14.96875 
Q 45.65625 7.234375 40.5 3 
Q 35.359375 -1.21875 27.484375 -1.21875 
Q 17.140625 -1.21875 11.234375 6.203125 
Q 4.15625 15.140625 4.15625 35.296875 
z
M 13.1875 35.296875 
Q 13.1875 17.671875 17.3125 11.828125 
Q 21.4375 6 27.484375 6 
Q 33.546875 6 37.671875 11.859375 
Q 41.796875 17.71875 41.796875 35.296875 
Q 41.796875 52.984375 37.671875 58.78125 
Q 33.546875 64.59375 27.390625 64.59375 
Q 21.34375 64.59375 17.71875 59.46875 
Q 13.1875 52.9375 13.1875 35.296875 
z
" id="ArialMT-48"/>
        <path d="M 4.203125 18.890625 
L 12.984375 20.0625 
Q 14.5 12.59375 18.140625 9.296875 
Q 21.78125 6 27 6 
Q 33.203125 6 37.46875 10.296875 
Q 41.75 14.59375 41.75 20.953125 
Q 41.75 27 37.796875 30.921875 
Q 33.84375 34.859375 27.734375 34.859375 
Q 25.25 34.859375 21.53125 33.890625 
L 22.515625 41.609375 
Q 23.390625 41.5 23.921875 41.5 
Q 29.546875 41.5 34.03125 44.421875 
Q 38.53125 47.359375 38.53125 53.46875 
Q 38.53125 58.296875 35.25 61.46875 
Q 31.984375 64.65625 26.8125 64.65625 
Q 21.6875 64.65625 18.265625 61.421875 
Q 14.84375 58.203125 13.875 51.765625 
L 5.078125 53.328125 
Q 6.6875 62.15625 12.390625 67.015625 
Q 18.109375 71.875 26.609375 71.875 
Q 32.46875 71.875 37.390625 69.359375 
Q 42.328125 66.84375 44.9375 62.5 
Q 47.5625 58.15625 47.5625 53.265625 
Q 47.5625 48.640625 45.0625 44.828125 
Q 42.578125 41.015625 37.703125 38.765625 
Q 44.046875 37.3125 47.5625 32.6875 
Q 51.078125 28.078125 51.078125 21.140625 
Q 51.078125 11.765625 44.234375 5.25 
Q 37.40625 -1.265625 26.953125 -1.265625 
Q 17.53125 -1.265625 11.296875 4.34375 
Q 5.078125 9.96875 4.203125 18.890625 
z
" id="ArialMT-51"/>
        <path d="M 3.171875 21.484375 
L 3.171875 30.328125 
L 30.171875 30.328125 
L 30.171875 21.484375 
z
" id="ArialMT-45"/>
        <path d="M 37.25 0 
L 28.46875 0 
L 28.46875 56 
Q 25.296875 52.984375 20.140625 49.953125 
Q 14.984375 46.921875 10.890625 45.40625 
L 10.890625 53.90625 
Q 18.265625 57.375 23.78125 62.296875 
Q 29.296875 67.234375 31.59375 71.875 
L 37.25 71.875 
z
" id="ArialMT-49"/>
        <path d="M 4.15625 18.75 
L 13.375 19.53125 
Q 14.40625 12.796875 18.140625 9.390625 
Q 21.875 6 27.15625 6 
Q 33.5 6 37.890625 10.78125 
Q 42.28125 15.578125 42.28125 23.484375 
Q 42.28125 31 38.0625 35.34375 
Q 33.84375 39.703125 27 39.703125 
Q 22.75 39.703125 19.328125 37.765625 
Q 15.921875 35.84375 13.96875 32.765625 
L 5.71875 33.84375 
L 12.640625 70.609375 
L 48.25 70.609375 
L 48.25 62.203125 
L 19.671875 62.203125 
L 15.828125 42.96875 
Q 22.265625 47.46875 29.34375 47.46875 
Q 38.71875 47.46875 45.15625 40.96875 
Q 51.609375 34.46875 51.609375 24.265625 
Q 51.609375 14.546875 45.953125 7.46875 
Q 39.0625 -1.21875 27.15625 -1.21875 
Q 17.390625 -1.21875 11.203125 4.25 
Q 5.03125 9.71875 4.15625 18.75 
z
" id="ArialMT-53"/>
       </defs>
       <use xlink:href="#ArialMT-50"/>
       <use x="55.615234" xlink:href="#ArialMT-48"/>
       <use x="111.230469" xlink:href="#ArialMT-48"/>
       <use x="166.845703" xlink:href="#ArialMT-51"/>
       <use x="222.460938" xlink:href="#ArialMT-45"/>
       <use x="255.761719" xlink:href="#ArialMT-48"/>
       <use x="311.376953" xlink:href="#ArialMT-49"/>
       <use x="366.992188" xlink:href="#ArialMT-45"/>
       <use x="400.292969" xlink:href="#ArialMT-49"/>
       <use x="455.908203" xlink:href="#ArialMT-53"/>
      </g>
     </g>
    </g>
    <g id="xtick_2">
     <g id="line2d_2">
      <path clip-path="url(#p7fb82d9e12)" d="M 334.86 203.346894 
L 334.86 31.6275 
" style="fill:none;stroke:#ffffff;stroke-linecap:round;stroke-width:0.8;"/>
     </g>
     <g id="text_2">
      <!-- 2003-02-01 -->
      <g style="fill:#262626;" transform="translate(301.614531 219.652051)scale(0.13 -0.13)">
       <use xlink:href="#ArialMT-50"/>
       <use x="55.615234" xlink:href="#ArialMT-48"/>
       <use x="111.230469" xlink:href="#ArialMT-48"/>
       <use x="166.845703" xlink:href="#ArialMT-51"/>
       <use x="222.460938" xlink:href="#ArialMT-45"/>
       <use x="255.761719" xlink:href="#ArialMT-48"/>
       <use x="311.376953" xlink:href="#ArialMT-50"/>
       <use x="366.992188" xlink:href="#ArialMT-45"/>
       <use x="400.292969" xlink:href="#ArialMT-48"/>
       <use x="455.908203" xlink:href="#ArialMT-49"/>
      </g>
     </g>
    </g>
    <g id="xtick_3">
     <g id="line2d_3">
      <path clip-path="url(#p7fb82d9e12)" d="M 468.71 203.346894 
L 468.71 31.6275 
" style="fill:none;stroke:#ffffff;stroke-linecap:round;stroke-width:0.8;"/>
     </g>
     <g id="text_3">
      <!-- 2003-02-15 -->
      <g style="fill:#262626;" transform="translate(435.464531 219.652051)scale(0.13 -0.13)">
       <use xlink:href="#ArialMT-50"/>
       <use x="55.615234" xlink:href="#ArialMT-48"/>
       <use x="111.230469" xlink:href="#ArialMT-48"/>
       <use x="166.845703" xlink:href="#ArialMT-51"/>
       <use x="222.460938" xlink:href="#ArialMT-45"/>
       <use x="255.761719" xlink:href="#ArialMT-48"/>
       <use x="311.376953" xlink:href="#ArialMT-50"/>
       <use x="366.992188" xlink:href="#ArialMT-45"/>
       <use x="400.292969" xlink:href="#ArialMT-49"/>
       <use x="455.908203" xlink:href="#ArialMT-53"/>
      </g>
     </g>
    </g>
    <g id="xtick_4">
     <g id="line2d_4">
      <path clip-path="url(#p7fb82d9e12)" d="M 602.56 203.346894 
L 602.56 31.6275 
" style="fill:none;stroke:#ffffff;stroke-linecap:round;stroke-width:0.8;"/>
     </g>
     <g id="text_4">
      <!-- 2003-03-01 -->
      <g style="fill:#262626;" transform="translate(569.314531 219.652051)scale(0.13 -0.13)">
       <use xlink:href="#ArialMT-50"/>
       <use x="55.615234" xlink:href="#ArialMT-48"/>
       <use x="111.230469" xlink:href="#ArialMT-48"/>
       <use x="166.845703" xlink:href="#ArialMT-51"/>
       <use x="222.460938" xlink:href="#ArialMT-45"/>
       <use x="255.761719" xlink:href="#ArialMT-48"/>
       <use x="311.376953" xlink:href="#ArialMT-51"/>
       <use x="366.992188" xlink:href="#ArialMT-45"/>
       <use x="400.292969" xlink:href="#ArialMT-48"/>
       <use x="455.908203" xlink:href="#ArialMT-49"/>
      </g>
     </g>
    </g>
    <g id="xtick_5">
     <g id="line2d_5">
      <path clip-path="url(#p7fb82d9e12)" d="M 736.41 203.346894 
L 736.41 31.6275 
" style="fill:none;stroke:#ffffff;stroke-linecap:round;stroke-width:0.8;"/>
     </g>
     <g id="text_5">
      <!-- 2003-03-15 -->
      <g style="fill:#262626;" transform="translate(703.164531 219.652051)scale(0.13 -0.13)">
       <use xlink:href="#ArialMT-50"/>
       <use x="55.615234" xlink:href="#ArialMT-48"/>
       <use x="111.230469" xlink:href="#ArialMT-48"/>
       <use x="166.845703" xlink:href="#ArialMT-51"/>
       <use x="222.460938" xlink:href="#ArialMT-45"/>
       <use x="255.761719" xlink:href="#ArialMT-48"/>
       <use x="311.376953" xlink:href="#ArialMT-51"/>
       <use x="366.992188" xlink:href="#ArialMT-45"/>
       <use x="400.292969" xlink:href="#ArialMT-49"/>
       <use x="455.908203" xlink:href="#ArialMT-53"/>
      </g>
     </g>
    </g>
    <g id="xtick_6">
     <g id="line2d_6">
      <path clip-path="url(#p7fb82d9e12)" d="M 898.942143 203.346894 
L 898.942143 31.6275 
" style="fill:none;stroke:#ffffff;stroke-linecap:round;stroke-width:0.8;"/>
     </g>
     <g id="text_6">
      <!-- 2003-04-01 -->
      <g style="fill:#262626;" transform="translate(865.696674 219.652051)scale(0.13 -0.13)">
       <defs>
        <path d="M 32.328125 0 
L 32.328125 17.140625 
L 1.265625 17.140625 
L 1.265625 25.203125 
L 33.9375 71.578125 
L 41.109375 71.578125 
L 41.109375 25.203125 
L 50.78125 25.203125 
L 50.78125 17.140625 
L 41.109375 17.140625 
L 41.109375 0 
z
M 32.328125 25.203125 
L 32.328125 57.46875 
L 9.90625 25.203125 
z
" id="ArialMT-52"/>
       </defs>
       <use xlink:href="#ArialMT-50"/>
       <use x="55.615234" xlink:href="#ArialMT-48"/>
       <use x="111.230469" xlink:href="#ArialMT-48"/>
       <use x="166.845703" xlink:href="#ArialMT-51"/>
       <use x="222.460938" xlink:href="#ArialMT-45"/>
       <use x="255.761719" xlink:href="#ArialMT-48"/>
       <use x="311.376953" xlink:href="#ArialMT-52"/>
       <use x="366.992188" xlink:href="#ArialMT-45"/>
       <use x="400.292969" xlink:href="#ArialMT-48"/>
       <use x="455.908203" xlink:href="#ArialMT-49"/>
      </g>
     </g>
    </g>
    <g id="xtick_7">
     <g id="line2d_7">
      <path clip-path="url(#p7fb82d9e12)" d="M 1032.792143 203.346894 
L 1032.792143 31.6275 
" style="fill:none;stroke:#ffffff;stroke-linecap:round;stroke-width:0.8;"/>
     </g>
     <g id="text_7">
      <!-- 2003-04-15 -->
      <g style="fill:#262626;" transform="translate(999.546674 219.652051)scale(0.13 -0.13)">
       <use xlink:href="#ArialMT-50"/>
       <use x="55.615234" xlink:href="#ArialMT-48"/>
       <use x="111.230469" xlink:href="#ArialMT-48"/>
       <use x="166.845703" xlink:href="#ArialMT-51"/>
       <use x="222.460938" xlink:href="#ArialMT-45"/>
       <use x="255.761719" xlink:href="#ArialMT-48"/>
       <use x="311.376953" xlink:href="#ArialMT-52"/>
       <use x="366.992188" xlink:href="#ArialMT-45"/>
       <use x="400.292969" xlink:href="#ArialMT-49"/>
       <use x="455.908203" xlink:href="#ArialMT-53"/>
      </g>
     </g>
    </g>
   </g>
   <g id="matplotlib.axis_2">
    <g id="ytick_1">
     <g id="line2d_8">
      <path clip-path="url(#p7fb82d9e12)" d="M 67.16 186.631812 
L 1137.96 186.631812 
" style="fill:none;stroke:#ffffff;stroke-linecap:round;stroke-width:0.8;"/>
     </g>
     <g id="text_8">
      <!-- 2000 -->
      <g style="fill:#262626;" transform="translate(31.243125 191.28439)scale(0.13 -0.13)">
       <use xlink:href="#ArialMT-50"/>
       <use x="55.615234" xlink:href="#ArialMT-48"/>
       <use x="111.230469" xlink:href="#ArialMT-48"/>
       <use x="166.845703" xlink:href="#ArialMT-48"/>
      </g>
     </g>
    </g>
    <g id="ytick_2">
     <g id="line2d_9">
      <path clip-path="url(#p7fb82d9e12)" d="M 67.16 155.037288 
L 1137.96 155.037288 
" style="fill:none;stroke:#ffffff;stroke-linecap:round;stroke-width:0.8;"/>
     </g>
     <g id="text_9">
      <!-- 3000 -->
      <g style="fill:#262626;" transform="translate(31.243125 159.689866)scale(0.13 -0.13)">
       <use xlink:href="#ArialMT-51"/>
       <use x="55.615234" xlink:href="#ArialMT-48"/>
       <use x="111.230469" xlink:href="#ArialMT-48"/>
       <use x="166.845703" xlink:href="#ArialMT-48"/>
      </g>
     </g>
    </g>
    <g id="ytick_3">
     <g id="line2d_10">
      <path clip-path="url(#p7fb82d9e12)" d="M 67.16 123.442765 
L 1137.96 123.442765 
" style="fill:none;stroke:#ffffff;stroke-linecap:round;stroke-width:0.8;"/>
     </g>
     <g id="text_10">
      <!-- 4000 -->
      <g style="fill:#262626;" transform="translate(31.243125 128.095343)scale(0.13 -0.13)">
       <use xlink:href="#ArialMT-52"/>
       <use x="55.615234" xlink:href="#ArialMT-48"/>
       <use x="111.230469" xlink:href="#ArialMT-48"/>
       <use x="166.845703" xlink:href="#ArialMT-48"/>
      </g>
     </g>
    </g>
    <g id="ytick_4">
     <g id="line2d_11">
      <path clip-path="url(#p7fb82d9e12)" d="M 67.16 91.848241 
L 1137.96 91.848241 
" style="fill:none;stroke:#ffffff;stroke-linecap:round;stroke-width:0.8;"/>
     </g>
     <g id="text_11">
      <!-- 5000 -->
      <g style="fill:#262626;" transform="translate(31.243125 96.50082)scale(0.13 -0.13)">
       <use xlink:href="#ArialMT-53"/>
       <use x="55.615234" xlink:href="#ArialMT-48"/>
       <use x="111.230469" xlink:href="#ArialMT-48"/>
       <use x="166.845703" xlink:href="#ArialMT-48"/>
      </g>
     </g>
    </g>
    <g id="ytick_5">
     <g id="line2d_12">
      <path clip-path="url(#p7fb82d9e12)" d="M 67.16 60.253718 
L 1137.96 60.253718 
" style="fill:none;stroke:#ffffff;stroke-linecap:round;stroke-width:0.8;"/>
     </g>
     <g id="text_12">
      <!-- 6000 -->
      <g style="fill:#262626;" transform="translate(31.243125 64.906296)scale(0.13 -0.13)">
       <defs>
        <path d="M 49.75 54.046875 
L 41.015625 53.375 
Q 39.84375 58.546875 37.703125 60.890625 
Q 34.125 64.65625 28.90625 64.65625 
Q 24.703125 64.65625 21.53125 62.3125 
Q 17.390625 59.28125 14.984375 53.46875 
Q 12.59375 47.65625 12.5 36.921875 
Q 15.671875 41.75 20.265625 44.09375 
Q 24.859375 46.4375 29.890625 46.4375 
Q 38.671875 46.4375 44.84375 39.96875 
Q 51.03125 33.5 51.03125 23.25 
Q 51.03125 16.5 48.125 10.71875 
Q 45.21875 4.9375 40.140625 1.859375 
Q 35.0625 -1.21875 28.609375 -1.21875 
Q 17.625 -1.21875 10.6875 6.859375 
Q 3.765625 14.9375 3.765625 33.5 
Q 3.765625 54.25 11.421875 63.671875 
Q 18.109375 71.875 29.4375 71.875 
Q 37.890625 71.875 43.28125 67.140625 
Q 48.6875 62.40625 49.75 54.046875 
z
M 13.875 23.1875 
Q 13.875 18.65625 15.796875 14.5 
Q 17.71875 10.359375 21.1875 8.171875 
Q 24.65625 6 28.46875 6 
Q 34.03125 6 38.03125 10.484375 
Q 42.046875 14.984375 42.046875 22.703125 
Q 42.046875 30.125 38.078125 34.390625 
Q 34.125 38.671875 28.125 38.671875 
Q 22.171875 38.671875 18.015625 34.390625 
Q 13.875 30.125 13.875 23.1875 
z
" id="ArialMT-54"/>
       </defs>
       <use xlink:href="#ArialMT-54"/>
       <use x="55.615234" xlink:href="#ArialMT-48"/>
       <use x="111.230469" xlink:href="#ArialMT-48"/>
       <use x="166.845703" xlink:href="#ArialMT-48"/>
      </g>
     </g>
    </g>
   </g>
   <g id="line2d_13">
    <path clip-path="url(#p7fb82d9e12)" d="M 67.16 130.614722 
L 76.720714 129.359968 
L 86.281429 128.105214 
L 95.842143 126.85046 
L 105.402857 125.595706 
L 114.963571 124.340952 
L 124.524286 123.086198 
L 134.085 121.831444 
L 143.645714 125.017978 
L 153.206429 128.204511 
L 162.767143 131.391044 
L 172.327857 134.577578 
L 181.888571 137.764111 
L 191.449286 140.950644 
L 201.01 144.137178 
L 210.570714 140.490267 
L 220.131429 136.843356 
L 229.692143 133.196446 
L 239.252857 129.549535 
L 248.813571 125.902624 
L 258.374286 122.255714 
L 267.935 118.608803 
L 277.495714 120.468366 
L 287.056429 122.32793 
L 296.617143 124.187493 
L 306.177857 126.047056 
L 315.738571 127.90662 
L 325.299286 129.766183 
L 334.86 131.625746 
L 344.420714 131.354936 
L 353.981429 131.084126 
L 363.542143 130.813316 
L 373.102857 130.542506 
L 382.663571 130.271695 
L 392.224286 130.000885 
L 401.785 129.730075 
L 411.345714 127.495891 
L 420.906429 125.261707 
L 430.467143 123.027523 
L 440.027857 120.793338 
L 449.588571 118.559154 
L 459.149286 116.32497 
L 468.71 114.090786 
L 478.270714 119.24972 
L 487.831429 124.408655 
L 497.392143 129.567589 
L 506.952857 134.726523 
L 516.513571 139.885458 
L 526.074286 145.044392 
L 535.635 150.203326 
L 545.195714 156.680204 
L 554.756429 163.157081 
L 564.317143 169.633958 
L 573.877857 176.110836 
L 583.438571 182.587713 
L 592.999286 189.06459 
L 602.56 195.541467 
L 612.120714 191.917124 
L 621.681429 188.292781 
L 631.242143 184.668438 
L 640.802857 181.044095 
L 650.363571 177.419751 
L 659.924286 173.795408 
L 669.485 170.171065 
L 679.045714 152.96559 
L 688.606429 135.760116 
L 698.167143 118.554641 
L 707.727857 101.349166 
L 717.288571 84.143691 
L 726.849286 66.938216 
L 736.41 49.732742 
L 745.970714 61.169959 
L 755.531429 72.607177 
L 765.092143 84.044394 
L 774.652857 95.481612 
L 784.213571 106.918829 
L 793.774286 118.356047 
L 803.335 129.793264 
L 812.895714 131.950719 
L 822.456429 134.108173 
L 832.017143 136.265628 
L 841.577857 138.423083 
L 851.138571 140.580537 
L 860.699286 142.737992 
L 870.26 144.895446 
L 879.820714 147.359819 
L 889.381429 149.824192 
L 898.942143 152.288565 
L 908.502857 154.752938 
L 918.063571 157.21731 
L 927.624286 159.681683 
L 937.185 162.146056 
L 946.745714 161.703733 
L 956.306429 161.261409 
L 965.867143 160.819086 
L 975.427857 160.376763 
L 984.988571 159.93444 
L 994.549286 159.492116 
L 1004.11 159.049793 
L 1013.670714 141.961669 
L 1023.231429 124.873545 
L 1032.792143 107.785422 
L 1042.352857 90.697298 
L 1051.913571 73.609174 
L 1061.474286 56.521051 
L 1071.035 39.432927 
L 1080.595714 54.155975 
L 1090.156429 68.879023 
L 1099.717143 83.602071 
L 1109.277857 98.325119 
L 1118.838571 113.048167 
L 1128.399286 127.771215 
L 1137.96 142.494263 
" style="fill:none;stroke:#1f77b4;stroke-linecap:round;stroke-width:1.5;"/>
   </g>
   <g id="patch_3">
    <path d="M 67.16 203.346894 
L 67.16 31.6275 
" style="fill:none;stroke:#ffffff;stroke-linecap:square;stroke-linejoin:miter;stroke-width:0.8;"/>
   </g>
   <g id="patch_4">
    <path d="M 1137.96 203.346894 
L 1137.96 31.6275 
" style="fill:none;stroke:#ffffff;stroke-linecap:square;stroke-linejoin:miter;stroke-width:0.8;"/>
   </g>
   <g id="patch_5">
    <path d="M 67.16 203.346894 
L 1137.96 203.346894 
" style="fill:none;stroke:#ffffff;stroke-linecap:square;stroke-linejoin:miter;stroke-width:0.8;"/>
   </g>
   <g id="patch_6">
    <path d="M 67.16 31.6275 
L 1137.96 31.6275 
" style="fill:none;stroke:#ffffff;stroke-linecap:square;stroke-linejoin:miter;stroke-width:0.8;"/>
   </g>
   <g id="text_13">
    <!-- Bacteria;Cyanobacteria;Cyanobacteria;Chloroplasts;Chloroplasts;sf_5;5006 -->
    <g style="fill:#262626;" transform="translate(341.565906 25.6275)scale(0.156 -0.156)">
     <defs>
      <path d="M 7.328125 0 
L 7.328125 71.578125 
L 34.1875 71.578125 
Q 42.390625 71.578125 47.34375 69.40625 
Q 52.296875 67.234375 55.09375 62.71875 
Q 57.90625 58.203125 57.90625 53.265625 
Q 57.90625 48.6875 55.421875 44.625 
Q 52.9375 40.578125 47.90625 38.09375 
Q 54.390625 36.1875 57.875 31.59375 
Q 61.375 27 61.375 20.75 
Q 61.375 15.71875 59.25 11.390625 
Q 57.125 7.078125 54 4.734375 
Q 50.875 2.390625 46.15625 1.1875 
Q 41.453125 0 34.625 0 
z
M 16.796875 41.5 
L 32.28125 41.5 
Q 38.578125 41.5 41.3125 42.328125 
Q 44.921875 43.40625 46.75 45.890625 
Q 48.578125 48.390625 48.578125 52.15625 
Q 48.578125 55.71875 46.875 58.421875 
Q 45.171875 61.140625 41.984375 62.140625 
Q 38.8125 63.140625 31.109375 63.140625 
L 16.796875 63.140625 
z
M 16.796875 8.453125 
L 34.625 8.453125 
Q 39.203125 8.453125 41.0625 8.796875 
Q 44.34375 9.375 46.53125 10.734375 
Q 48.734375 12.109375 50.140625 14.71875 
Q 51.5625 17.328125 51.5625 20.75 
Q 51.5625 24.75 49.515625 27.703125 
Q 47.46875 30.671875 43.828125 31.859375 
Q 40.1875 33.0625 33.34375 33.0625 
L 16.796875 33.0625 
z
" id="ArialMT-66"/>
      <path d="M 40.4375 6.390625 
Q 35.546875 2.25 31.03125 0.53125 
Q 26.515625 -1.171875 21.34375 -1.171875 
Q 12.796875 -1.171875 8.203125 3 
Q 3.609375 7.171875 3.609375 13.671875 
Q 3.609375 17.484375 5.34375 20.625 
Q 7.078125 23.78125 9.890625 25.6875 
Q 12.703125 27.59375 16.21875 28.5625 
Q 18.796875 29.25 24.03125 29.890625 
Q 34.671875 31.15625 39.703125 32.90625 
Q 39.75 34.71875 39.75 35.203125 
Q 39.75 40.578125 37.25 42.78125 
Q 33.890625 45.75 27.25 45.75 
Q 21.046875 45.75 18.09375 43.578125 
Q 15.140625 41.40625 13.71875 35.890625 
L 5.125 37.0625 
Q 6.296875 42.578125 8.984375 45.96875 
Q 11.671875 49.359375 16.75 51.1875 
Q 21.828125 53.03125 28.515625 53.03125 
Q 35.15625 53.03125 39.296875 51.46875 
Q 43.453125 49.90625 45.40625 47.53125 
Q 47.359375 45.171875 48.140625 41.546875 
Q 48.578125 39.3125 48.578125 33.453125 
L 48.578125 21.734375 
Q 48.578125 9.46875 49.140625 6.21875 
Q 49.703125 2.984375 51.375 0 
L 42.1875 0 
Q 40.828125 2.734375 40.4375 6.390625 
z
M 39.703125 26.03125 
Q 34.90625 24.078125 25.34375 22.703125 
Q 19.921875 21.921875 17.671875 20.9375 
Q 15.4375 19.96875 14.203125 18.09375 
Q 12.984375 16.21875 12.984375 13.921875 
Q 12.984375 10.40625 15.640625 8.0625 
Q 18.3125 5.71875 23.4375 5.71875 
Q 28.515625 5.71875 32.46875 7.9375 
Q 36.421875 10.15625 38.28125 14.015625 
Q 39.703125 17 39.703125 22.796875 
z
" id="ArialMT-97"/>
      <path d="M 40.4375 19 
L 49.078125 17.875 
Q 47.65625 8.9375 41.8125 3.875 
Q 35.984375 -1.171875 27.484375 -1.171875 
Q 16.84375 -1.171875 10.375 5.78125 
Q 3.90625 12.75 3.90625 25.734375 
Q 3.90625 34.125 6.6875 40.421875 
Q 9.46875 46.734375 15.15625 49.875 
Q 20.84375 53.03125 27.546875 53.03125 
Q 35.984375 53.03125 41.359375 48.75 
Q 46.734375 44.484375 48.25 36.625 
L 39.703125 35.296875 
Q 38.484375 40.53125 35.375 43.15625 
Q 32.28125 45.796875 27.875 45.796875 
Q 21.234375 45.796875 17.078125 41.03125 
Q 12.9375 36.28125 12.9375 25.984375 
Q 12.9375 15.53125 16.9375 10.796875 
Q 20.953125 6.0625 27.390625 6.0625 
Q 32.5625 6.0625 36.03125 9.234375 
Q 39.5 12.40625 40.4375 19 
z
" id="ArialMT-99"/>
      <path d="M 25.78125 7.859375 
L 27.046875 0.09375 
Q 23.34375 -0.6875 20.40625 -0.6875 
Q 15.625 -0.6875 12.984375 0.828125 
Q 10.359375 2.34375 9.28125 4.8125 
Q 8.203125 7.28125 8.203125 15.1875 
L 8.203125 45.015625 
L 1.765625 45.015625 
L 1.765625 51.859375 
L 8.203125 51.859375 
L 8.203125 64.703125 
L 16.9375 69.96875 
L 16.9375 51.859375 
L 25.78125 51.859375 
L 25.78125 45.015625 
L 16.9375 45.015625 
L 16.9375 14.703125 
Q 16.9375 10.9375 17.40625 9.859375 
Q 17.875 8.796875 18.921875 8.15625 
Q 19.96875 7.515625 21.921875 7.515625 
Q 23.390625 7.515625 25.78125 7.859375 
z
" id="ArialMT-116"/>
      <path d="M 42.09375 16.703125 
L 51.171875 15.578125 
Q 49.03125 7.625 43.21875 3.21875 
Q 37.40625 -1.171875 28.375 -1.171875 
Q 17 -1.171875 10.328125 5.828125 
Q 3.65625 12.84375 3.65625 25.484375 
Q 3.65625 38.578125 10.390625 45.796875 
Q 17.140625 53.03125 27.875 53.03125 
Q 38.28125 53.03125 44.875 45.953125 
Q 51.46875 38.875 51.46875 26.03125 
Q 51.46875 25.25 51.421875 23.6875 
L 12.75 23.6875 
Q 13.234375 15.140625 17.578125 10.59375 
Q 21.921875 6.0625 28.421875 6.0625 
Q 33.25 6.0625 36.671875 8.59375 
Q 40.09375 11.140625 42.09375 16.703125 
z
M 13.234375 30.90625 
L 42.1875 30.90625 
Q 41.609375 37.453125 38.875 40.71875 
Q 34.671875 45.796875 27.984375 45.796875 
Q 21.921875 45.796875 17.796875 41.75 
Q 13.671875 37.703125 13.234375 30.90625 
z
" id="ArialMT-101"/>
      <path d="M 6.5 0 
L 6.5 51.859375 
L 14.40625 51.859375 
L 14.40625 44 
Q 17.4375 49.515625 20 51.265625 
Q 22.5625 53.03125 25.640625 53.03125 
Q 30.078125 53.03125 34.671875 50.203125 
L 31.640625 42.046875 
Q 28.421875 43.953125 25.203125 43.953125 
Q 22.3125 43.953125 20.015625 42.21875 
Q 17.71875 40.484375 16.75 37.40625 
Q 15.28125 32.71875 15.28125 27.15625 
L 15.28125 0 
z
" id="ArialMT-114"/>
      <path d="M 6.640625 61.46875 
L 6.640625 71.578125 
L 15.4375 71.578125 
L 15.4375 61.46875 
z
M 6.640625 0 
L 6.640625 51.859375 
L 15.4375 51.859375 
L 15.4375 0 
z
" id="ArialMT-105"/>
      <path d="M 8.890625 41.84375 
L 8.890625 51.859375 
L 18.890625 51.859375 
L 18.890625 41.84375 
z
M 8.890625 0 
L 8.890625 10.015625 
L 18.890625 10.015625 
L 18.890625 0 
Q 18.890625 -5.515625 16.9375 -8.90625 
Q 14.984375 -12.3125 10.75 -14.15625 
L 8.296875 -10.40625 
Q 11.078125 -9.1875 12.390625 -6.8125 
Q 13.71875 -4.4375 13.875 0 
z
" id="ArialMT-59"/>
      <path d="M 58.796875 25.09375 
L 68.265625 22.703125 
Q 65.28125 11.03125 57.546875 4.90625 
Q 49.8125 -1.21875 38.625 -1.21875 
Q 27.046875 -1.21875 19.796875 3.484375 
Q 12.546875 8.203125 8.765625 17.140625 
Q 4.984375 26.078125 4.984375 36.328125 
Q 4.984375 47.515625 9.25 55.828125 
Q 13.53125 64.15625 21.40625 68.46875 
Q 29.296875 72.796875 38.765625 72.796875 
Q 49.515625 72.796875 56.828125 67.328125 
Q 64.15625 61.859375 67.046875 51.953125 
L 57.71875 49.75 
Q 55.21875 57.5625 50.484375 61.125 
Q 45.75 64.703125 38.578125 64.703125 
Q 30.328125 64.703125 24.78125 60.734375 
Q 19.234375 56.78125 16.984375 50.109375 
Q 14.75 43.453125 14.75 36.375 
Q 14.75 27.25 17.40625 20.4375 
Q 20.0625 13.625 25.671875 10.25 
Q 31.296875 6.890625 37.84375 6.890625 
Q 45.796875 6.890625 51.3125 11.46875 
Q 56.84375 16.0625 58.796875 25.09375 
z
" id="ArialMT-67"/>
      <path d="M 6.203125 -19.96875 
L 5.21875 -11.71875 
Q 8.109375 -12.5 10.25 -12.5 
Q 13.1875 -12.5 14.9375 -11.515625 
Q 16.703125 -10.546875 17.828125 -8.796875 
Q 18.65625 -7.46875 20.515625 -2.25 
Q 20.75 -1.515625 21.296875 -0.09375 
L 1.609375 51.859375 
L 11.078125 51.859375 
L 21.875 21.828125 
Q 23.96875 16.109375 25.640625 9.8125 
Q 27.15625 15.875 29.25 21.625 
L 40.328125 51.859375 
L 49.125 51.859375 
L 29.390625 -0.875 
Q 26.21875 -9.421875 24.46875 -12.640625 
Q 22.125 -17 19.09375 -19.015625 
Q 16.0625 -21.046875 11.859375 -21.046875 
Q 9.328125 -21.046875 6.203125 -19.96875 
z
" id="ArialMT-121"/>
      <path d="M 6.59375 0 
L 6.59375 51.859375 
L 14.5 51.859375 
L 14.5 44.484375 
Q 20.21875 53.03125 31 53.03125 
Q 35.6875 53.03125 39.625 51.34375 
Q 43.5625 49.65625 45.515625 46.921875 
Q 47.46875 44.1875 48.25 40.4375 
Q 48.734375 37.984375 48.734375 31.890625 
L 48.734375 0 
L 39.9375 0 
L 39.9375 31.546875 
Q 39.9375 36.921875 38.90625 39.578125 
Q 37.890625 42.234375 35.28125 43.8125 
Q 32.671875 45.40625 29.15625 45.40625 
Q 23.53125 45.40625 19.453125 41.84375 
Q 15.375 38.28125 15.375 28.328125 
L 15.375 0 
z
" id="ArialMT-110"/>
      <path d="M 3.328125 25.921875 
Q 3.328125 40.328125 11.328125 47.265625 
Q 18.015625 53.03125 27.640625 53.03125 
Q 38.328125 53.03125 45.109375 46.015625 
Q 51.90625 39.015625 51.90625 26.65625 
Q 51.90625 16.65625 48.90625 10.90625 
Q 45.90625 5.171875 40.15625 2 
Q 34.421875 -1.171875 27.640625 -1.171875 
Q 16.75 -1.171875 10.03125 5.8125 
Q 3.328125 12.796875 3.328125 25.921875 
z
M 12.359375 25.921875 
Q 12.359375 15.96875 16.703125 11.015625 
Q 21.046875 6.0625 27.640625 6.0625 
Q 34.1875 6.0625 38.53125 11.03125 
Q 42.875 16.015625 42.875 26.21875 
Q 42.875 35.84375 38.5 40.796875 
Q 34.125 45.75 27.640625 45.75 
Q 21.046875 45.75 16.703125 40.8125 
Q 12.359375 35.890625 12.359375 25.921875 
z
" id="ArialMT-111"/>
      <path d="M 14.703125 0 
L 6.546875 0 
L 6.546875 71.578125 
L 15.328125 71.578125 
L 15.328125 46.046875 
Q 20.90625 53.03125 29.546875 53.03125 
Q 34.328125 53.03125 38.59375 51.09375 
Q 42.875 49.171875 45.625 45.671875 
Q 48.390625 42.1875 49.953125 37.25 
Q 51.515625 32.328125 51.515625 26.703125 
Q 51.515625 13.375 44.921875 6.09375 
Q 38.328125 -1.171875 29.109375 -1.171875 
Q 19.921875 -1.171875 14.703125 6.5 
z
M 14.59375 26.3125 
Q 14.59375 17 17.140625 12.84375 
Q 21.296875 6.0625 28.375 6.0625 
Q 34.125 6.0625 38.328125 11.0625 
Q 42.53125 16.0625 42.53125 25.984375 
Q 42.53125 36.140625 38.5 40.96875 
Q 34.46875 45.796875 28.765625 45.796875 
Q 23 45.796875 18.796875 40.796875 
Q 14.59375 35.796875 14.59375 26.3125 
z
" id="ArialMT-98"/>
      <path d="M 6.59375 0 
L 6.59375 71.578125 
L 15.375 71.578125 
L 15.375 45.90625 
Q 21.53125 53.03125 30.90625 53.03125 
Q 36.671875 53.03125 40.921875 50.75 
Q 45.171875 48.484375 47 44.484375 
Q 48.828125 40.484375 48.828125 32.859375 
L 48.828125 0 
L 40.046875 0 
L 40.046875 32.859375 
Q 40.046875 39.453125 37.1875 42.453125 
Q 34.328125 45.453125 29.109375 45.453125 
Q 25.203125 45.453125 21.75 43.421875 
Q 18.3125 41.40625 16.84375 37.9375 
Q 15.375 34.46875 15.375 28.375 
L 15.375 0 
z
" id="ArialMT-104"/>
      <path d="M 6.390625 0 
L 6.390625 71.578125 
L 15.1875 71.578125 
L 15.1875 0 
z
" id="ArialMT-108"/>
      <path d="M 6.59375 -19.875 
L 6.59375 51.859375 
L 14.59375 51.859375 
L 14.59375 45.125 
Q 17.4375 49.078125 21 51.046875 
Q 24.5625 53.03125 29.640625 53.03125 
Q 36.28125 53.03125 41.359375 49.609375 
Q 46.4375 46.1875 49.015625 39.953125 
Q 51.609375 33.734375 51.609375 26.3125 
Q 51.609375 18.359375 48.75 11.984375 
Q 45.90625 5.609375 40.453125 2.21875 
Q 35.015625 -1.171875 29 -1.171875 
Q 24.609375 -1.171875 21.109375 0.6875 
Q 17.625 2.546875 15.375 5.375 
L 15.375 -19.875 
z
M 14.546875 25.640625 
Q 14.546875 15.625 18.59375 10.84375 
Q 22.65625 6.0625 28.421875 6.0625 
Q 34.28125 6.0625 38.453125 11.015625 
Q 42.625 15.96875 42.625 26.375 
Q 42.625 36.28125 38.546875 41.203125 
Q 34.46875 46.140625 28.8125 46.140625 
Q 23.1875 46.140625 18.859375 40.890625 
Q 14.546875 35.640625 14.546875 25.640625 
z
" id="ArialMT-112"/>
      <path d="M 3.078125 15.484375 
L 11.765625 16.84375 
Q 12.5 11.625 15.84375 8.84375 
Q 19.1875 6.0625 25.203125 6.0625 
Q 31.25 6.0625 34.171875 8.515625 
Q 37.109375 10.984375 37.109375 14.3125 
Q 37.109375 17.28125 34.515625 19 
Q 32.71875 20.171875 25.53125 21.96875 
Q 15.875 24.421875 12.140625 26.203125 
Q 8.40625 27.984375 6.46875 31.125 
Q 4.546875 34.28125 4.546875 38.09375 
Q 4.546875 41.546875 6.125 44.5 
Q 7.71875 47.46875 10.453125 49.421875 
Q 12.5 50.921875 16.03125 51.96875 
Q 19.578125 53.03125 23.640625 53.03125 
Q 29.734375 53.03125 34.34375 51.265625 
Q 38.96875 49.515625 41.15625 46.5 
Q 43.359375 43.5 44.1875 38.484375 
L 35.59375 37.3125 
Q 35.015625 41.3125 32.203125 43.546875 
Q 29.390625 45.796875 24.265625 45.796875 
Q 18.21875 45.796875 15.625 43.796875 
Q 13.03125 41.796875 13.03125 39.109375 
Q 13.03125 37.40625 14.109375 36.03125 
Q 15.1875 34.625 17.484375 33.6875 
Q 18.796875 33.203125 25.25 31.453125 
Q 34.578125 28.953125 38.25 27.359375 
Q 41.9375 25.78125 44.03125 22.75 
Q 46.140625 19.734375 46.140625 15.234375 
Q 46.140625 10.84375 43.578125 6.953125 
Q 41.015625 3.078125 36.171875 0.953125 
Q 31.34375 -1.171875 25.25 -1.171875 
Q 15.140625 -1.171875 9.84375 3.03125 
Q 4.546875 7.234375 3.078125 15.484375 
z
" id="ArialMT-115"/>
      <path d="M 8.6875 0 
L 8.6875 45.015625 
L 0.921875 45.015625 
L 0.921875 51.859375 
L 8.6875 51.859375 
L 8.6875 57.375 
Q 8.6875 62.59375 9.625 65.140625 
Q 10.890625 68.5625 14.078125 70.671875 
Q 17.28125 72.796875 23.046875 72.796875 
Q 26.765625 72.796875 31.25 71.921875 
L 29.9375 64.265625 
Q 27.203125 64.75 24.75 64.75 
Q 20.75 64.75 19.09375 63.03125 
Q 17.4375 61.328125 17.4375 56.640625 
L 17.4375 51.859375 
L 27.546875 51.859375 
L 27.546875 45.015625 
L 17.4375 45.015625 
L 17.4375 0 
z
" id="ArialMT-102"/>
      <path d="M -1.515625 -19.875 
L -1.515625 -13.53125 
L 56.734375 -13.53125 
L 56.734375 -19.875 
z
" id="ArialMT-95"/>
     </defs>
     <use xlink:href="#ArialMT-66"/>
     <use x="66.699219" xlink:href="#ArialMT-97"/>
     <use x="122.314453" xlink:href="#ArialMT-99"/>
     <use x="172.314453" xlink:href="#ArialMT-116"/>
     <use x="200.097656" xlink:href="#ArialMT-101"/>
     <use x="255.712891" xlink:href="#ArialMT-114"/>
     <use x="289.013672" xlink:href="#ArialMT-105"/>
     <use x="311.230469" xlink:href="#ArialMT-97"/>
     <use x="366.845703" xlink:href="#ArialMT-59"/>
     <use x="394.628906" xlink:href="#ArialMT-67"/>
     <use x="466.845703" xlink:href="#ArialMT-121"/>
     <use x="516.845703" xlink:href="#ArialMT-97"/>
     <use x="572.460938" xlink:href="#ArialMT-110"/>
     <use x="628.076172" xlink:href="#ArialMT-111"/>
     <use x="683.691406" xlink:href="#ArialMT-98"/>
     <use x="739.306641" xlink:href="#ArialMT-97"/>
     <use x="794.921875" xlink:href="#ArialMT-99"/>
     <use x="844.921875" xlink:href="#ArialMT-116"/>
     <use x="872.705078" xlink:href="#ArialMT-101"/>
     <use x="928.320312" xlink:href="#ArialMT-114"/>
     <use x="961.621094" xlink:href="#ArialMT-105"/>
     <use x="983.837891" xlink:href="#ArialMT-97"/>
     <use x="1039.453125" xlink:href="#ArialMT-59"/>
     <use x="1067.236328" xlink:href="#ArialMT-67"/>
     <use x="1139.453125" xlink:href="#ArialMT-121"/>
     <use x="1189.453125" xlink:href="#ArialMT-97"/>
     <use x="1245.068359" xlink:href="#ArialMT-110"/>
     <use x="1300.683594" xlink:href="#ArialMT-111"/>
     <use x="1356.298828" xlink:href="#ArialMT-98"/>
     <use x="1411.914062" xlink:href="#ArialMT-97"/>
     <use x="1467.529297" xlink:href="#ArialMT-99"/>
     <use x="1517.529297" xlink:href="#ArialMT-116"/>
     <use x="1545.3125" xlink:href="#ArialMT-101"/>
     <use x="1600.927734" xlink:href="#ArialMT-114"/>
     <use x="1634.228516" xlink:href="#ArialMT-105"/>
     <use x="1656.445312" xlink:href="#ArialMT-97"/>
     <use x="1712.060547" xlink:href="#ArialMT-59"/>
     <use x="1739.84375" xlink:href="#ArialMT-67"/>
     <use x="1812.060547" xlink:href="#ArialMT-104"/>
     <use x="1867.675781" xlink:href="#ArialMT-108"/>
     <use x="1889.892578" xlink:href="#ArialMT-111"/>
     <use x="1945.507812" xlink:href="#ArialMT-114"/>
     <use x="1978.808594" xlink:href="#ArialMT-111"/>
     <use x="2034.423828" xlink:href="#ArialMT-112"/>
     <use x="2090.039062" xlink:href="#ArialMT-108"/>
     <use x="2112.255859" xlink:href="#ArialMT-97"/>
     <use x="2167.871094" xlink:href="#ArialMT-115"/>
     <use x="2217.871094" xlink:href="#ArialMT-116"/>
     <use x="2245.654297" xlink:href="#ArialMT-115"/>
     <use x="2295.654297" xlink:href="#ArialMT-59"/>
     <use x="2323.4375" xlink:href="#ArialMT-67"/>
     <use x="2395.654297" xlink:href="#ArialMT-104"/>
     <use x="2451.269531" xlink:href="#ArialMT-108"/>
     <use x="2473.486328" xlink:href="#ArialMT-111"/>
     <use x="2529.101562" xlink:href="#ArialMT-114"/>
     <use x="2562.402344" xlink:href="#ArialMT-111"/>
     <use x="2618.017578" xlink:href="#ArialMT-112"/>
     <use x="2673.632812" xlink:href="#ArialMT-108"/>
     <use x="2695.849609" xlink:href="#ArialMT-97"/>
     <use x="2751.464844" xlink:href="#ArialMT-115"/>
     <use x="2801.464844" xlink:href="#ArialMT-116"/>
     <use x="2829.248047" xlink:href="#ArialMT-115"/>
     <use x="2879.248047" xlink:href="#ArialMT-59"/>
     <use x="2907.03125" xlink:href="#ArialMT-115"/>
     <use x="2957.03125" xlink:href="#ArialMT-102"/>
     <use x="2984.814453" xlink:href="#ArialMT-95"/>
     <use x="3040.429688" xlink:href="#ArialMT-53"/>
     <use x="3096.044922" xlink:href="#ArialMT-59"/>
     <use x="3123.828125" xlink:href="#ArialMT-53"/>
     <use x="3179.443359" xlink:href="#ArialMT-48"/>
     <use x="3235.058594" xlink:href="#ArialMT-48"/>
     <use x="3290.673828" xlink:href="#ArialMT-54"/>
    </g>
   </g>
  </g>
  <g id="axes_2">
   <g id="patch_7">
    <path d="M 67.16 412.231263 
L 1137.96 412.231263 
L 1137.96 240.511869 
L 67.16 240.511869 
z
" style="fill:#eaeaf2;"/>
   </g>
   <g id="matplotlib.axis_3">
    <g id="xtick_8">
     <g id="line2d_14">
      <path clip-path="url(#p1f7e87239c)" d="M 172.327857 412.231263 
L 172.327857 240.511869 
" style="fill:none;stroke:#ffffff;stroke-linecap:round;stroke-width:0.8;"/>
     </g>
     <g id="text_14">
      <!-- 2003-01-15 -->
      <g style="fill:#262626;" transform="translate(139.082388 428.536419)scale(0.13 -0.13)">
       <use xlink:href="#ArialMT-50"/>
       <use x="55.615234" xlink:href="#ArialMT-48"/>
       <use x="111.230469" xlink:href="#ArialMT-48"/>
       <use x="166.845703" xlink:href="#ArialMT-51"/>
       <use x="222.460938" xlink:href="#ArialMT-45"/>
       <use x="255.761719" xlink:href="#ArialMT-48"/>
       <use x="311.376953" xlink:href="#ArialMT-49"/>
       <use x="366.992188" xlink:href="#ArialMT-45"/>
       <use x="400.292969" xlink:href="#ArialMT-49"/>
       <use x="455.908203" xlink:href="#ArialMT-53"/>
      </g>
     </g>
    </g>
    <g id="xtick_9">
     <g id="line2d_15">
      <path clip-path="url(#p1f7e87239c)" d="M 334.86 412.231263 
L 334.86 240.511869 
" style="fill:none;stroke:#ffffff;stroke-linecap:round;stroke-width:0.8;"/>
     </g>
     <g id="text_15">
      <!-- 2003-02-01 -->
      <g style="fill:#262626;" transform="translate(301.614531 428.536419)scale(0.13 -0.13)">
       <use xlink:href="#ArialMT-50"/>
       <use x="55.615234" xlink:href="#ArialMT-48"/>
       <use x="111.230469" xlink:href="#ArialMT-48"/>
       <use x="166.845703" xlink:href="#ArialMT-51"/>
       <use x="222.460938" xlink:href="#ArialMT-45"/>
       <use x="255.761719" xlink:href="#ArialMT-48"/>
       <use x="311.376953" xlink:href="#ArialMT-50"/>
       <use x="366.992188" xlink:href="#ArialMT-45"/>
       <use x="400.292969" xlink:href="#ArialMT-48"/>
       <use x="455.908203" xlink:href="#ArialMT-49"/>
      </g>
     </g>
    </g>
    <g id="xtick_10">
     <g id="line2d_16">
      <path clip-path="url(#p1f7e87239c)" d="M 468.71 412.231263 
L 468.71 240.511869 
" style="fill:none;stroke:#ffffff;stroke-linecap:round;stroke-width:0.8;"/>
     </g>
     <g id="text_16">
      <!-- 2003-02-15 -->
      <g style="fill:#262626;" transform="translate(435.464531 428.536419)scale(0.13 -0.13)">
       <use xlink:href="#ArialMT-50"/>
       <use x="55.615234" xlink:href="#ArialMT-48"/>
       <use x="111.230469" xlink:href="#ArialMT-48"/>
       <use x="166.845703" xlink:href="#ArialMT-51"/>
       <use x="222.460938" xlink:href="#ArialMT-45"/>
       <use x="255.761719" xlink:href="#ArialMT-48"/>
       <use x="311.376953" xlink:href="#ArialMT-50"/>
       <use x="366.992188" xlink:href="#ArialMT-45"/>
       <use x="400.292969" xlink:href="#ArialMT-49"/>
       <use x="455.908203" xlink:href="#ArialMT-53"/>
      </g>
     </g>
    </g>
    <g id="xtick_11">
     <g id="line2d_17">
      <path clip-path="url(#p1f7e87239c)" d="M 602.56 412.231263 
L 602.56 240.511869 
" style="fill:none;stroke:#ffffff;stroke-linecap:round;stroke-width:0.8;"/>
     </g>
     <g id="text_17">
      <!-- 2003-03-01 -->
      <g style="fill:#262626;" transform="translate(569.314531 428.536419)scale(0.13 -0.13)">
       <use xlink:href="#ArialMT-50"/>
       <use x="55.615234" xlink:href="#ArialMT-48"/>
       <use x="111.230469" xlink:href="#ArialMT-48"/>
       <use x="166.845703" xlink:href="#ArialMT-51"/>
       <use x="222.460938" xlink:href="#ArialMT-45"/>
       <use x="255.761719" xlink:href="#ArialMT-48"/>
       <use x="311.376953" xlink:href="#ArialMT-51"/>
       <use x="366.992188" xlink:href="#ArialMT-45"/>
       <use x="400.292969" xlink:href="#ArialMT-48"/>
       <use x="455.908203" xlink:href="#ArialMT-49"/>
      </g>
     </g>
    </g>
    <g id="xtick_12">
     <g id="line2d_18">
      <path clip-path="url(#p1f7e87239c)" d="M 736.41 412.231263 
L 736.41 240.511869 
" style="fill:none;stroke:#ffffff;stroke-linecap:round;stroke-width:0.8;"/>
     </g>
     <g id="text_18">
      <!-- 2003-03-15 -->
      <g style="fill:#262626;" transform="translate(703.164531 428.536419)scale(0.13 -0.13)">
       <use xlink:href="#ArialMT-50"/>
       <use x="55.615234" xlink:href="#ArialMT-48"/>
       <use x="111.230469" xlink:href="#ArialMT-48"/>
       <use x="166.845703" xlink:href="#ArialMT-51"/>
       <use x="222.460938" xlink:href="#ArialMT-45"/>
       <use x="255.761719" xlink:href="#ArialMT-48"/>
       <use x="311.376953" xlink:href="#ArialMT-51"/>
       <use x="366.992188" xlink:href="#ArialMT-45"/>
       <use x="400.292969" xlink:href="#ArialMT-49"/>
       <use x="455.908203" xlink:href="#ArialMT-53"/>
      </g>
     </g>
    </g>
    <g id="xtick_13">
     <g id="line2d_19">
      <path clip-path="url(#p1f7e87239c)" d="M 898.942143 412.231263 
L 898.942143 240.511869 
" style="fill:none;stroke:#ffffff;stroke-linecap:round;stroke-width:0.8;"/>
     </g>
     <g id="text_19">
      <!-- 2003-04-01 -->
      <g style="fill:#262626;" transform="translate(865.696674 428.536419)scale(0.13 -0.13)">
       <use xlink:href="#ArialMT-50"/>
       <use x="55.615234" xlink:href="#ArialMT-48"/>
       <use x="111.230469" xlink:href="#ArialMT-48"/>
       <use x="166.845703" xlink:href="#ArialMT-51"/>
       <use x="222.460938" xlink:href="#ArialMT-45"/>
       <use x="255.761719" xlink:href="#ArialMT-48"/>
       <use x="311.376953" xlink:href="#ArialMT-52"/>
       <use x="366.992188" xlink:href="#ArialMT-45"/>
       <use x="400.292969" xlink:href="#ArialMT-48"/>
       <use x="455.908203" xlink:href="#ArialMT-49"/>
      </g>
     </g>
    </g>
    <g id="xtick_14">
     <g id="line2d_20">
      <path clip-path="url(#p1f7e87239c)" d="M 1032.792143 412.231263 
L 1032.792143 240.511869 
" style="fill:none;stroke:#ffffff;stroke-linecap:round;stroke-width:0.8;"/>
     </g>
     <g id="text_20">
      <!-- 2003-04-15 -->
      <g style="fill:#262626;" transform="translate(999.546674 428.536419)scale(0.13 -0.13)">
       <use xlink:href="#ArialMT-50"/>
       <use x="55.615234" xlink:href="#ArialMT-48"/>
       <use x="111.230469" xlink:href="#ArialMT-48"/>
       <use x="166.845703" xlink:href="#ArialMT-51"/>
       <use x="222.460938" xlink:href="#ArialMT-45"/>
       <use x="255.761719" xlink:href="#ArialMT-48"/>
       <use x="311.376953" xlink:href="#ArialMT-52"/>
       <use x="366.992188" xlink:href="#ArialMT-45"/>
       <use x="400.292969" xlink:href="#ArialMT-49"/>
       <use x="455.908203" xlink:href="#ArialMT-53"/>
      </g>
     </g>
    </g>
   </g>
   <g id="matplotlib.axis_4">
    <g id="ytick_6">
     <g id="line2d_21">
      <path clip-path="url(#p1f7e87239c)" d="M 67.16 404.331146 
L 1137.96 404.331146 
" style="fill:none;stroke:#ffffff;stroke-linecap:round;stroke-width:0.8;"/>
     </g>
     <g id="text_21">
      <!-- 2000 -->
      <g style="fill:#262626;" transform="translate(31.243125 408.983724)scale(0.13 -0.13)">
       <use xlink:href="#ArialMT-50"/>
       <use x="55.615234" xlink:href="#ArialMT-48"/>
       <use x="111.230469" xlink:href="#ArialMT-48"/>
       <use x="166.845703" xlink:href="#ArialMT-48"/>
      </g>
     </g>
    </g>
    <g id="ytick_7">
     <g id="line2d_22">
      <path clip-path="url(#p1f7e87239c)" d="M 67.16 362.267947 
L 1137.96 362.267947 
" style="fill:none;stroke:#ffffff;stroke-linecap:round;stroke-width:0.8;"/>
     </g>
     <g id="text_22">
      <!-- 3000 -->
      <g style="fill:#262626;" transform="translate(31.243125 366.920525)scale(0.13 -0.13)">
       <use xlink:href="#ArialMT-51"/>
       <use x="55.615234" xlink:href="#ArialMT-48"/>
       <use x="111.230469" xlink:href="#ArialMT-48"/>
       <use x="166.845703" xlink:href="#ArialMT-48"/>
      </g>
     </g>
    </g>
    <g id="ytick_8">
     <g id="line2d_23">
      <path clip-path="url(#p1f7e87239c)" d="M 67.16 320.204747 
L 1137.96 320.204747 
" style="fill:none;stroke:#ffffff;stroke-linecap:round;stroke-width:0.8;"/>
     </g>
     <g id="text_23">
      <!-- 4000 -->
      <g style="fill:#262626;" transform="translate(31.243125 324.857326)scale(0.13 -0.13)">
       <use xlink:href="#ArialMT-52"/>
       <use x="55.615234" xlink:href="#ArialMT-48"/>
       <use x="111.230469" xlink:href="#ArialMT-48"/>
       <use x="166.845703" xlink:href="#ArialMT-48"/>
      </g>
     </g>
    </g>
    <g id="ytick_9">
     <g id="line2d_24">
      <path clip-path="url(#p1f7e87239c)" d="M 67.16 278.141548 
L 1137.96 278.141548 
" style="fill:none;stroke:#ffffff;stroke-linecap:round;stroke-width:0.8;"/>
     </g>
     <g id="text_24">
      <!-- 5000 -->
      <g style="fill:#262626;" transform="translate(31.243125 282.794126)scale(0.13 -0.13)">
       <use xlink:href="#ArialMT-53"/>
       <use x="55.615234" xlink:href="#ArialMT-48"/>
       <use x="111.230469" xlink:href="#ArialMT-48"/>
       <use x="166.845703" xlink:href="#ArialMT-48"/>
      </g>
     </g>
    </g>
    <g id="text_25">
     <!-- Trend -->
     <g style="fill:#262626;" transform="translate(24.659375 343.106019)rotate(-90)scale(0.13 -0.13)">
      <defs>
       <path d="M 25.921875 0 
L 25.921875 63.140625 
L 2.34375 63.140625 
L 2.34375 71.578125 
L 59.078125 71.578125 
L 59.078125 63.140625 
L 35.40625 63.140625 
L 35.40625 0 
z
" id="ArialMT-84"/>
       <path d="M 40.234375 0 
L 40.234375 6.546875 
Q 35.296875 -1.171875 25.734375 -1.171875 
Q 19.53125 -1.171875 14.328125 2.25 
Q 9.125 5.671875 6.265625 11.796875 
Q 3.421875 17.921875 3.421875 25.875 
Q 3.421875 33.640625 6 39.96875 
Q 8.59375 46.296875 13.765625 49.65625 
Q 18.953125 53.03125 25.34375 53.03125 
Q 30.03125 53.03125 33.6875 51.046875 
Q 37.359375 49.078125 39.65625 45.90625 
L 39.65625 71.578125 
L 48.390625 71.578125 
L 48.390625 0 
z
M 12.453125 25.875 
Q 12.453125 15.921875 16.640625 10.984375 
Q 20.84375 6.0625 26.5625 6.0625 
Q 32.328125 6.0625 36.34375 10.765625 
Q 40.375 15.484375 40.375 25.140625 
Q 40.375 35.796875 36.265625 40.765625 
Q 32.171875 45.75 26.171875 45.75 
Q 20.3125 45.75 16.375 40.96875 
Q 12.453125 36.1875 12.453125 25.875 
z
" id="ArialMT-100"/>
      </defs>
      <use xlink:href="#ArialMT-84"/>
      <use x="57.333984" xlink:href="#ArialMT-114"/>
      <use x="90.634766" xlink:href="#ArialMT-101"/>
      <use x="146.25" xlink:href="#ArialMT-110"/>
      <use x="201.865234" xlink:href="#ArialMT-100"/>
     </g>
    </g>
   </g>
   <g id="line2d_25">
    <path clip-path="url(#p1f7e87239c)" d="M 67.16 328.1522 
L 76.720714 327.035669 
L 86.281429 325.997148 
L 95.842143 325.046716 
L 105.402857 324.189938 
L 114.963571 323.417232 
L 124.524286 322.77694 
L 134.085 323.638419 
L 143.645714 325.349788 
L 153.206429 327.899333 
L 162.767143 331.109837 
L 172.327857 334.436651 
L 181.888571 337.185866 
L 191.449286 338.828565 
L 201.01 339.178298 
L 210.570714 338.216436 
L 220.131429 335.961189 
L 229.692143 332.613998 
L 239.252857 328.759319 
L 248.813571 325.158357 
L 258.374286 322.401803 
L 267.935 320.685241 
L 277.495714 320.022749 
L 287.056429 320.399952 
L 296.617143 321.688594 
L 306.177857 323.54427 
L 315.738571 325.496921 
L 325.299286 327.163567 
L 334.86 328.42624 
L 344.420714 329.278847 
L 353.981429 329.727457 
L 363.542143 329.783046 
L 373.102857 329.435897 
L 382.663571 328.696682 
L 392.224286 327.590625 
L 401.785 326.111991 
L 411.345714 324.25522 
L 420.906429 322.026212 
L 430.467143 319.56743 
L 440.027857 317.352232 
L 449.588571 315.95742 
L 459.149286 315.799915 
L 468.71 317.038548 
L 478.270714 319.692735 
L 487.831429 323.743947 
L 497.392143 329.080616 
L 506.952857 335.456295 
L 516.513571 342.49654 
L 526.074286 349.867892 
L 535.635 357.486014 
L 545.195714 365.354222 
L 554.756429 373.470159 
L 564.317143 381.668136 
L 573.877857 389.364296 
L 583.438571 395.855317 
L 592.999286 400.636347 
L 602.56 403.502545 
L 612.120714 404.425836 
L 621.681429 403.436936 
L 631.242143 400.530216 
L 640.802857 395.430028 
L 650.363571 387.918394 
L 659.924286 377.935032 
L 669.485 365.37363 
L 679.045714 350.197212 
L 688.606429 332.447946 
L 698.167143 312.790649 
L 707.727857 293.316333 
L 717.288571 276.621948 
L 726.849286 264.634281 
L 736.41 258.050866 
L 745.970714 256.945945 
L 755.531429 261.250506 
L 765.092143 270.332643 
L 774.652857 282.489893 
L 784.213571 295.377737 
L 793.774286 307.0843 
L 803.335 317.025187 
L 812.895714 325.173802 
L 822.456429 331.561787 
L 832.017143 336.373383 
L 841.577857 340.032141 
L 851.138571 343.118887 
L 860.699286 346.120408 
L 870.26 349.169188 
L 879.820714 352.263479 
L 889.381429 355.409168 
L 898.942143 358.573791 
L 908.502857 361.603805 
L 918.063571 364.288823 
L 927.624286 366.474378 
L 937.185 368.100311 
L 946.745714 369.155742 
L 956.306429 369.654608 
L 965.867143 369.425611 
L 975.427857 367.733159 
L 984.988571 363.715761 
L 994.549286 356.799198 
L 1004.11 346.726056 
L 1013.670714 333.448481 
L 1023.231429 317.016525 
L 1032.792143 298.199968 
L 1042.352857 279.394699 
L 1051.913571 263.569263 
L 1061.474286 252.940916 
L 1071.035 248.317296 
L 1080.595714 249.778638 
L 1090.156429 262.003557 
L 1099.717143 275.214195 
L 1109.277857 289.022759 
L 1118.838571 303.498838 
L 1128.399286 318.608584 
L 1137.96 334.28628 
" style="fill:none;stroke:#1f77b4;stroke-linecap:round;stroke-width:1.5;"/>
   </g>
   <g id="patch_8">
    <path d="M 67.16 412.231263 
L 67.16 240.511869 
" style="fill:none;stroke:#ffffff;stroke-linecap:square;stroke-linejoin:miter;stroke-width:0.8;"/>
   </g>
   <g id="patch_9">
    <path d="M 1137.96 412.231263 
L 1137.96 240.511869 
" style="fill:none;stroke:#ffffff;stroke-linecap:square;stroke-linejoin:miter;stroke-width:0.8;"/>
   </g>
   <g id="patch_10">
    <path d="M 67.16 412.231263 
L 1137.96 412.231263 
" style="fill:none;stroke:#ffffff;stroke-linecap:square;stroke-linejoin:miter;stroke-width:0.8;"/>
   </g>
   <g id="patch_11">
    <path d="M 67.16 240.511869 
L 1137.96 240.511869 
" style="fill:none;stroke:#ffffff;stroke-linecap:square;stroke-linejoin:miter;stroke-width:0.8;"/>
   </g>
  </g>
  <g id="axes_3">
   <g id="patch_12">
    <path d="M 67.16 621.115631 
L 1137.96 621.115631 
L 1137.96 449.396237 
L 67.16 449.396237 
z
" style="fill:#eaeaf2;"/>
   </g>
   <g id="matplotlib.axis_5">
    <g id="xtick_15">
     <g id="line2d_26">
      <path clip-path="url(#pac71af800e)" d="M 172.327857 621.115631 
L 172.327857 449.396237 
" style="fill:none;stroke:#ffffff;stroke-linecap:round;stroke-width:0.8;"/>
     </g>
     <g id="text_26">
      <!-- 2003-01-15 -->
      <g style="fill:#262626;" transform="translate(139.082388 637.420788)scale(0.13 -0.13)">
       <use xlink:href="#ArialMT-50"/>
       <use x="55.615234" xlink:href="#ArialMT-48"/>
       <use x="111.230469" xlink:href="#ArialMT-48"/>
       <use x="166.845703" xlink:href="#ArialMT-51"/>
       <use x="222.460938" xlink:href="#ArialMT-45"/>
       <use x="255.761719" xlink:href="#ArialMT-48"/>
       <use x="311.376953" xlink:href="#ArialMT-49"/>
       <use x="366.992188" xlink:href="#ArialMT-45"/>
       <use x="400.292969" xlink:href="#ArialMT-49"/>
       <use x="455.908203" xlink:href="#ArialMT-53"/>
      </g>
     </g>
    </g>
    <g id="xtick_16">
     <g id="line2d_27">
      <path clip-path="url(#pac71af800e)" d="M 334.86 621.115631 
L 334.86 449.396237 
" style="fill:none;stroke:#ffffff;stroke-linecap:round;stroke-width:0.8;"/>
     </g>
     <g id="text_27">
      <!-- 2003-02-01 -->
      <g style="fill:#262626;" transform="translate(301.614531 637.420788)scale(0.13 -0.13)">
       <use xlink:href="#ArialMT-50"/>
       <use x="55.615234" xlink:href="#ArialMT-48"/>
       <use x="111.230469" xlink:href="#ArialMT-48"/>
       <use x="166.845703" xlink:href="#ArialMT-51"/>
       <use x="222.460938" xlink:href="#ArialMT-45"/>
       <use x="255.761719" xlink:href="#ArialMT-48"/>
       <use x="311.376953" xlink:href="#ArialMT-50"/>
       <use x="366.992188" xlink:href="#ArialMT-45"/>
       <use x="400.292969" xlink:href="#ArialMT-48"/>
       <use x="455.908203" xlink:href="#ArialMT-49"/>
      </g>
     </g>
    </g>
    <g id="xtick_17">
     <g id="line2d_28">
      <path clip-path="url(#pac71af800e)" d="M 468.71 621.115631 
L 468.71 449.396237 
" style="fill:none;stroke:#ffffff;stroke-linecap:round;stroke-width:0.8;"/>
     </g>
     <g id="text_28">
      <!-- 2003-02-15 -->
      <g style="fill:#262626;" transform="translate(435.464531 637.420788)scale(0.13 -0.13)">
       <use xlink:href="#ArialMT-50"/>
       <use x="55.615234" xlink:href="#ArialMT-48"/>
       <use x="111.230469" xlink:href="#ArialMT-48"/>
       <use x="166.845703" xlink:href="#ArialMT-51"/>
       <use x="222.460938" xlink:href="#ArialMT-45"/>
       <use x="255.761719" xlink:href="#ArialMT-48"/>
       <use x="311.376953" xlink:href="#ArialMT-50"/>
       <use x="366.992188" xlink:href="#ArialMT-45"/>
       <use x="400.292969" xlink:href="#ArialMT-49"/>
       <use x="455.908203" xlink:href="#ArialMT-53"/>
      </g>
     </g>
    </g>
    <g id="xtick_18">
     <g id="line2d_29">
      <path clip-path="url(#pac71af800e)" d="M 602.56 621.115631 
L 602.56 449.396237 
" style="fill:none;stroke:#ffffff;stroke-linecap:round;stroke-width:0.8;"/>
     </g>
     <g id="text_29">
      <!-- 2003-03-01 -->
      <g style="fill:#262626;" transform="translate(569.314531 637.420788)scale(0.13 -0.13)">
       <use xlink:href="#ArialMT-50"/>
       <use x="55.615234" xlink:href="#ArialMT-48"/>
       <use x="111.230469" xlink:href="#ArialMT-48"/>
       <use x="166.845703" xlink:href="#ArialMT-51"/>
       <use x="222.460938" xlink:href="#ArialMT-45"/>
       <use x="255.761719" xlink:href="#ArialMT-48"/>
       <use x="311.376953" xlink:href="#ArialMT-51"/>
       <use x="366.992188" xlink:href="#ArialMT-45"/>
       <use x="400.292969" xlink:href="#ArialMT-48"/>
       <use x="455.908203" xlink:href="#ArialMT-49"/>
      </g>
     </g>
    </g>
    <g id="xtick_19">
     <g id="line2d_30">
      <path clip-path="url(#pac71af800e)" d="M 736.41 621.115631 
L 736.41 449.396237 
" style="fill:none;stroke:#ffffff;stroke-linecap:round;stroke-width:0.8;"/>
     </g>
     <g id="text_30">
      <!-- 2003-03-15 -->
      <g style="fill:#262626;" transform="translate(703.164531 637.420788)scale(0.13 -0.13)">
       <use xlink:href="#ArialMT-50"/>
       <use x="55.615234" xlink:href="#ArialMT-48"/>
       <use x="111.230469" xlink:href="#ArialMT-48"/>
       <use x="166.845703" xlink:href="#ArialMT-51"/>
       <use x="222.460938" xlink:href="#ArialMT-45"/>
       <use x="255.761719" xlink:href="#ArialMT-48"/>
       <use x="311.376953" xlink:href="#ArialMT-51"/>
       <use x="366.992188" xlink:href="#ArialMT-45"/>
       <use x="400.292969" xlink:href="#ArialMT-49"/>
       <use x="455.908203" xlink:href="#ArialMT-53"/>
      </g>
     </g>
    </g>
    <g id="xtick_20">
     <g id="line2d_31">
      <path clip-path="url(#pac71af800e)" d="M 898.942143 621.115631 
L 898.942143 449.396237 
" style="fill:none;stroke:#ffffff;stroke-linecap:round;stroke-width:0.8;"/>
     </g>
     <g id="text_31">
      <!-- 2003-04-01 -->
      <g style="fill:#262626;" transform="translate(865.696674 637.420788)scale(0.13 -0.13)">
       <use xlink:href="#ArialMT-50"/>
       <use x="55.615234" xlink:href="#ArialMT-48"/>
       <use x="111.230469" xlink:href="#ArialMT-48"/>
       <use x="166.845703" xlink:href="#ArialMT-51"/>
       <use x="222.460938" xlink:href="#ArialMT-45"/>
       <use x="255.761719" xlink:href="#ArialMT-48"/>
       <use x="311.376953" xlink:href="#ArialMT-52"/>
       <use x="366.992188" xlink:href="#ArialMT-45"/>
       <use x="400.292969" xlink:href="#ArialMT-48"/>
       <use x="455.908203" xlink:href="#ArialMT-49"/>
      </g>
     </g>
    </g>
    <g id="xtick_21">
     <g id="line2d_32">
      <path clip-path="url(#pac71af800e)" d="M 1032.792143 621.115631 
L 1032.792143 449.396237 
" style="fill:none;stroke:#ffffff;stroke-linecap:round;stroke-width:0.8;"/>
     </g>
     <g id="text_32">
      <!-- 2003-04-15 -->
      <g style="fill:#262626;" transform="translate(999.546674 637.420788)scale(0.13 -0.13)">
       <use xlink:href="#ArialMT-50"/>
       <use x="55.615234" xlink:href="#ArialMT-48"/>
       <use x="111.230469" xlink:href="#ArialMT-48"/>
       <use x="166.845703" xlink:href="#ArialMT-51"/>
       <use x="222.460938" xlink:href="#ArialMT-45"/>
       <use x="255.761719" xlink:href="#ArialMT-48"/>
       <use x="311.376953" xlink:href="#ArialMT-52"/>
       <use x="366.992188" xlink:href="#ArialMT-45"/>
       <use x="400.292969" xlink:href="#ArialMT-49"/>
       <use x="455.908203" xlink:href="#ArialMT-53"/>
      </g>
     </g>
    </g>
   </g>
   <g id="matplotlib.axis_6">
    <g id="ytick_10">
     <g id="line2d_33">
      <path clip-path="url(#pac71af800e)" d="M 67.16 585.696359 
L 1137.96 585.696359 
" style="fill:none;stroke:#ffffff;stroke-linecap:round;stroke-width:0.8;"/>
     </g>
     <g id="text_33">
      <!-- 20 -->
      <g style="fill:#262626;" transform="translate(38.10875 590.348937)scale(0.13 -0.13)">
       <defs>
        <path d="M 52.828125 31.203125 
L 5.5625 31.203125 
L 5.5625 39.40625 
L 52.828125 39.40625 
z
" id="ArialMT-8722"/>
       </defs>
       <use xlink:href="#ArialMT-8722"/>
       <use x="58.398438" xlink:href="#ArialMT-50"/>
       <use x="114.013672" xlink:href="#ArialMT-48"/>
      </g>
     </g>
    </g>
    <g id="ytick_11">
     <g id="line2d_34">
      <path clip-path="url(#pac71af800e)" d="M 67.16 541.834002 
L 1137.96 541.834002 
" style="fill:none;stroke:#ffffff;stroke-linecap:round;stroke-width:0.8;"/>
     </g>
     <g id="text_34">
      <!-- 0 -->
      <g style="fill:#262626;" transform="translate(52.930781 546.486581)scale(0.13 -0.13)">
       <use xlink:href="#ArialMT-48"/>
      </g>
     </g>
    </g>
    <g id="ytick_12">
     <g id="line2d_35">
      <path clip-path="url(#pac71af800e)" d="M 67.16 497.971646 
L 1137.96 497.971646 
" style="fill:none;stroke:#ffffff;stroke-linecap:round;stroke-width:0.8;"/>
     </g>
     <g id="text_35">
      <!-- 20 -->
      <g style="fill:#262626;" transform="translate(45.701562 502.624224)scale(0.13 -0.13)">
       <use xlink:href="#ArialMT-50"/>
       <use x="55.615234" xlink:href="#ArialMT-48"/>
      </g>
     </g>
    </g>
    <g id="ytick_13">
     <g id="line2d_36">
      <path clip-path="url(#pac71af800e)" d="M 67.16 454.109289 
L 1137.96 454.109289 
" style="fill:none;stroke:#ffffff;stroke-linecap:round;stroke-width:0.8;"/>
     </g>
     <g id="text_36">
      <!-- 40 -->
      <g style="fill:#262626;" transform="translate(45.701562 458.761868)scale(0.13 -0.13)">
       <use xlink:href="#ArialMT-52"/>
       <use x="55.615234" xlink:href="#ArialMT-48"/>
      </g>
     </g>
    </g>
    <g id="text_37">
     <!-- Season -->
     <g style="fill:#262626;" transform="translate(31.525 557.300075)rotate(-90)scale(0.13 -0.13)">
      <defs>
       <path d="M 4.5 23 
L 13.421875 23.78125 
Q 14.0625 18.40625 16.375 14.96875 
Q 18.703125 11.53125 23.578125 9.40625 
Q 28.46875 7.28125 34.578125 7.28125 
Q 39.984375 7.28125 44.140625 8.890625 
Q 48.296875 10.5 50.3125 13.296875 
Q 52.34375 16.109375 52.34375 19.4375 
Q 52.34375 22.796875 50.390625 25.3125 
Q 48.4375 27.828125 43.953125 29.546875 
Q 41.0625 30.671875 31.203125 33.03125 
Q 21.34375 35.40625 17.390625 37.5 
Q 12.25 40.1875 9.734375 44.15625 
Q 7.234375 48.140625 7.234375 53.078125 
Q 7.234375 58.5 10.296875 63.203125 
Q 13.375 67.921875 19.28125 70.359375 
Q 25.203125 72.796875 32.421875 72.796875 
Q 40.375 72.796875 46.453125 70.234375 
Q 52.546875 67.671875 55.8125 62.6875 
Q 59.078125 57.71875 59.328125 51.421875 
L 50.25 50.734375 
Q 49.515625 57.515625 45.28125 60.984375 
Q 41.0625 64.453125 32.8125 64.453125 
Q 24.21875 64.453125 20.28125 61.296875 
Q 16.359375 58.15625 16.359375 53.71875 
Q 16.359375 49.859375 19.140625 47.359375 
Q 21.875 44.875 33.421875 42.265625 
Q 44.96875 39.65625 49.265625 37.703125 
Q 55.515625 34.8125 58.484375 30.390625 
Q 61.46875 25.984375 61.46875 20.21875 
Q 61.46875 14.5 58.203125 9.4375 
Q 54.9375 4.390625 48.796875 1.578125 
Q 42.671875 -1.21875 35.015625 -1.21875 
Q 25.296875 -1.21875 18.71875 1.609375 
Q 12.15625 4.4375 8.421875 10.125 
Q 4.6875 15.828125 4.5 23 
z
" id="ArialMT-83"/>
      </defs>
      <use xlink:href="#ArialMT-83"/>
      <use x="66.699219" xlink:href="#ArialMT-101"/>
      <use x="122.314453" xlink:href="#ArialMT-97"/>
      <use x="177.929688" xlink:href="#ArialMT-115"/>
      <use x="227.929688" xlink:href="#ArialMT-111"/>
      <use x="283.544922" xlink:href="#ArialMT-110"/>
     </g>
    </g>
   </g>
   <g id="line2d_37">
    <path clip-path="url(#pac71af800e)" d="M 67.16 548.966526 
L 76.720714 549.457319 
L 86.281429 550.276678 
L 95.842143 544.755642 
L 105.402857 536.802458 
L 114.963571 531.762708 
L 124.524286 532.927769 
L 134.085 548.240785 
L 143.645714 548.460503 
L 153.206429 548.955256 
L 162.767143 544.159344 
L 172.327857 537.381965 
L 181.888571 533.198114 
L 191.449286 534.454232 
L 201.01 547.464781 
L 210.570714 547.5631 
L 220.131429 547.680166 
L 229.692143 543.567113 
L 239.252857 537.938618 
L 248.813571 534.604767 
L 258.374286 535.960382 
L 267.935 546.692136 
L 277.495714 546.800859 
L 287.056429 546.450706 
L 296.617143 542.987201 
L 306.177857 538.502821 
L 315.738571 536.001521 
L 325.299286 537.390817 
L 334.86 545.768278 
L 344.420714 546.098489 
L 353.981429 545.247716 
L 363.542143 542.444196 
L 373.102857 539.125473 
L 382.663571 537.439374 
L 392.224286 538.766597 
L 401.785 544.68139 
L 411.345714 545.471472 
L 420.906429 544.076284 
L 430.467143 541.950503 
L 440.027857 539.828064 
L 449.588571 538.927469 
L 459.149286 540.046377 
L 468.71 543.394106 
L 478.270714 544.946648 
L 487.831429 542.973612 
L 497.392143 541.550287 
L 506.952857 540.64309 
L 516.513571 540.447281 
L 526.074286 541.109974 
L 535.635 541.84493 
L 545.195714 544.607385 
L 554.756429 542.176963 
L 564.317143 541.658847 
L 573.877857 542.233075 
L 583.438571 543.026629 
L 592.999286 543.493256 
L 602.56 542.541314 
L 612.120714 541.502273 
L 621.681429 539.312177 
L 631.242143 541.405459 
L 640.802857 545.53501 
L 650.363571 548.572758 
L 659.924286 548.32671 
L 669.485 538.586444 
L 679.045714 532.245635 
L 688.606429 532.581067 
L 698.167143 539.959398 
L 707.727857 550.102252 
L 717.288571 556.350129 
L 726.849286 553.936962 
L 736.41 537.854458 
L 745.970714 521.298182 
L 755.531429 525.28497 
L 765.092143 538.77308 
L 774.652857 555.467208 
L 784.213571 565.121962 
L 793.774286 560.376985 
L 803.335 537.433993 
L 812.895714 508.969806 
L 822.456429 517.445773 
L 832.017143 537.572544 
L 841.577857 561.116873 
L 851.138571 574.333994 
L 860.699286 567.347102 
L 870.26 537.355291 
L 879.820714 496.230484 
L 889.381429 509.355371 
L 898.942143 536.258064 
L 908.502857 566.784254 
L 918.063571 583.698973 
L 927.624286 574.616514 
L 937.185 537.520482 
L 946.745714 483.408728 
L 956.306429 501.087263 
L 965.867143 534.80061 
L 975.427857 572.436333 
L 984.988571 593.197828 
L 994.549286 582.133269 
L 1004.11 537.866137 
L 1013.670714 470.505791 
L 1023.231429 492.626422 
L 1032.792143 533.256155 
L 1042.352857 578.218354 
L 1051.913571 602.976061 
L 1061.474286 589.874665 
L 1071.035 538.181406 
L 1080.595714 457.201664 
L 1090.156429 483.898285 
L 1099.717143 531.789977 
L 1109.277857 584.462586 
L 1118.838571 613.310204 
L 1128.399286 597.750874 
L 1137.96 537.908431 
" style="fill:none;stroke:#1f77b4;stroke-linecap:round;stroke-width:1.5;"/>
   </g>
   <g id="patch_13">
    <path d="M 67.16 621.115631 
L 67.16 449.396237 
" style="fill:none;stroke:#ffffff;stroke-linecap:square;stroke-linejoin:miter;stroke-width:0.8;"/>
   </g>
   <g id="patch_14">
    <path d="M 1137.96 621.115631 
L 1137.96 449.396237 
" style="fill:none;stroke:#ffffff;stroke-linecap:square;stroke-linejoin:miter;stroke-width:0.8;"/>
   </g>
   <g id="patch_15">
    <path d="M 67.16 621.115631 
L 1137.96 621.115631 
" style="fill:none;stroke:#ffffff;stroke-linecap:square;stroke-linejoin:miter;stroke-width:0.8;"/>
   </g>
   <g id="patch_16">
    <path d="M 67.16 449.396237 
L 1137.96 449.396237 
" style="fill:none;stroke:#ffffff;stroke-linecap:square;stroke-linejoin:miter;stroke-width:0.8;"/>
   </g>
  </g>
  <g id="axes_4">
   <g id="patch_17">
    <path d="M 67.16 830 
L 1137.96 830 
L 1137.96 658.280606 
L 67.16 658.280606 
z
" style="fill:#eaeaf2;"/>
   </g>
   <g id="line2d_38">
    <path clip-path="url(#p919b0c9bff)" d="M 67.16 768.421106 
L 1137.96 768.421106 
" style="fill:none;stroke:#000000;stroke-linecap:round;stroke-width:1.5;"/>
   </g>
   <g id="matplotlib.axis_7">
    <g id="xtick_22">
     <g id="line2d_39">
      <path clip-path="url(#p919b0c9bff)" d="M 172.327857 830 
L 172.327857 658.280606 
" style="fill:none;stroke:#ffffff;stroke-linecap:round;stroke-width:0.8;"/>
     </g>
     <g id="text_38">
      <!-- 2003-01-15 -->
      <g style="fill:#262626;" transform="translate(139.082388 846.305156)scale(0.13 -0.13)">
       <use xlink:href="#ArialMT-50"/>
       <use x="55.615234" xlink:href="#ArialMT-48"/>
       <use x="111.230469" xlink:href="#ArialMT-48"/>
       <use x="166.845703" xlink:href="#ArialMT-51"/>
       <use x="222.460938" xlink:href="#ArialMT-45"/>
       <use x="255.761719" xlink:href="#ArialMT-48"/>
       <use x="311.376953" xlink:href="#ArialMT-49"/>
       <use x="366.992188" xlink:href="#ArialMT-45"/>
       <use x="400.292969" xlink:href="#ArialMT-49"/>
       <use x="455.908203" xlink:href="#ArialMT-53"/>
      </g>
     </g>
    </g>
    <g id="xtick_23">
     <g id="line2d_40">
      <path clip-path="url(#p919b0c9bff)" d="M 334.86 830 
L 334.86 658.280606 
" style="fill:none;stroke:#ffffff;stroke-linecap:round;stroke-width:0.8;"/>
     </g>
     <g id="text_39">
      <!-- 2003-02-01 -->
      <g style="fill:#262626;" transform="translate(301.614531 846.305156)scale(0.13 -0.13)">
       <use xlink:href="#ArialMT-50"/>
       <use x="55.615234" xlink:href="#ArialMT-48"/>
       <use x="111.230469" xlink:href="#ArialMT-48"/>
       <use x="166.845703" xlink:href="#ArialMT-51"/>
       <use x="222.460938" xlink:href="#ArialMT-45"/>
       <use x="255.761719" xlink:href="#ArialMT-48"/>
       <use x="311.376953" xlink:href="#ArialMT-50"/>
       <use x="366.992188" xlink:href="#ArialMT-45"/>
       <use x="400.292969" xlink:href="#ArialMT-48"/>
       <use x="455.908203" xlink:href="#ArialMT-49"/>
      </g>
     </g>
    </g>
    <g id="xtick_24">
     <g id="line2d_41">
      <path clip-path="url(#p919b0c9bff)" d="M 468.71 830 
L 468.71 658.280606 
" style="fill:none;stroke:#ffffff;stroke-linecap:round;stroke-width:0.8;"/>
     </g>
     <g id="text_40">
      <!-- 2003-02-15 -->
      <g style="fill:#262626;" transform="translate(435.464531 846.305156)scale(0.13 -0.13)">
       <use xlink:href="#ArialMT-50"/>
       <use x="55.615234" xlink:href="#ArialMT-48"/>
       <use x="111.230469" xlink:href="#ArialMT-48"/>
       <use x="166.845703" xlink:href="#ArialMT-51"/>
       <use x="222.460938" xlink:href="#ArialMT-45"/>
       <use x="255.761719" xlink:href="#ArialMT-48"/>
       <use x="311.376953" xlink:href="#ArialMT-50"/>
       <use x="366.992188" xlink:href="#ArialMT-45"/>
       <use x="400.292969" xlink:href="#ArialMT-49"/>
       <use x="455.908203" xlink:href="#ArialMT-53"/>
      </g>
     </g>
    </g>
    <g id="xtick_25">
     <g id="line2d_42">
      <path clip-path="url(#p919b0c9bff)" d="M 602.56 830 
L 602.56 658.280606 
" style="fill:none;stroke:#ffffff;stroke-linecap:round;stroke-width:0.8;"/>
     </g>
     <g id="text_41">
      <!-- 2003-03-01 -->
      <g style="fill:#262626;" transform="translate(569.314531 846.305156)scale(0.13 -0.13)">
       <use xlink:href="#ArialMT-50"/>
       <use x="55.615234" xlink:href="#ArialMT-48"/>
       <use x="111.230469" xlink:href="#ArialMT-48"/>
       <use x="166.845703" xlink:href="#ArialMT-51"/>
       <use x="222.460938" xlink:href="#ArialMT-45"/>
       <use x="255.761719" xlink:href="#ArialMT-48"/>
       <use x="311.376953" xlink:href="#ArialMT-51"/>
       <use x="366.992188" xlink:href="#ArialMT-45"/>
       <use x="400.292969" xlink:href="#ArialMT-48"/>
       <use x="455.908203" xlink:href="#ArialMT-49"/>
      </g>
     </g>
    </g>
    <g id="xtick_26">
     <g id="line2d_43">
      <path clip-path="url(#p919b0c9bff)" d="M 736.41 830 
L 736.41 658.280606 
" style="fill:none;stroke:#ffffff;stroke-linecap:round;stroke-width:0.8;"/>
     </g>
     <g id="text_42">
      <!-- 2003-03-15 -->
      <g style="fill:#262626;" transform="translate(703.164531 846.305156)scale(0.13 -0.13)">
       <use xlink:href="#ArialMT-50"/>
       <use x="55.615234" xlink:href="#ArialMT-48"/>
       <use x="111.230469" xlink:href="#ArialMT-48"/>
       <use x="166.845703" xlink:href="#ArialMT-51"/>
       <use x="222.460938" xlink:href="#ArialMT-45"/>
       <use x="255.761719" xlink:href="#ArialMT-48"/>
       <use x="311.376953" xlink:href="#ArialMT-51"/>
       <use x="366.992188" xlink:href="#ArialMT-45"/>
       <use x="400.292969" xlink:href="#ArialMT-49"/>
       <use x="455.908203" xlink:href="#ArialMT-53"/>
      </g>
     </g>
    </g>
    <g id="xtick_27">
     <g id="line2d_44">
      <path clip-path="url(#p919b0c9bff)" d="M 898.942143 830 
L 898.942143 658.280606 
" style="fill:none;stroke:#ffffff;stroke-linecap:round;stroke-width:0.8;"/>
     </g>
     <g id="text_43">
      <!-- 2003-04-01 -->
      <g style="fill:#262626;" transform="translate(865.696674 846.305156)scale(0.13 -0.13)">
       <use xlink:href="#ArialMT-50"/>
       <use x="55.615234" xlink:href="#ArialMT-48"/>
       <use x="111.230469" xlink:href="#ArialMT-48"/>
       <use x="166.845703" xlink:href="#ArialMT-51"/>
       <use x="222.460938" xlink:href="#ArialMT-45"/>
       <use x="255.761719" xlink:href="#ArialMT-48"/>
       <use x="311.376953" xlink:href="#ArialMT-52"/>
       <use x="366.992188" xlink:href="#ArialMT-45"/>
       <use x="400.292969" xlink:href="#ArialMT-48"/>
       <use x="455.908203" xlink:href="#ArialMT-49"/>
      </g>
     </g>
    </g>
    <g id="xtick_28">
     <g id="line2d_45">
      <path clip-path="url(#p919b0c9bff)" d="M 1032.792143 830 
L 1032.792143 658.280606 
" style="fill:none;stroke:#ffffff;stroke-linecap:round;stroke-width:0.8;"/>
     </g>
     <g id="text_44">
      <!-- 2003-04-15 -->
      <g style="fill:#262626;" transform="translate(999.546674 846.305156)scale(0.13 -0.13)">
       <use xlink:href="#ArialMT-50"/>
       <use x="55.615234" xlink:href="#ArialMT-48"/>
       <use x="111.230469" xlink:href="#ArialMT-48"/>
       <use x="166.845703" xlink:href="#ArialMT-51"/>
       <use x="222.460938" xlink:href="#ArialMT-45"/>
       <use x="255.761719" xlink:href="#ArialMT-48"/>
       <use x="311.376953" xlink:href="#ArialMT-52"/>
       <use x="366.992188" xlink:href="#ArialMT-45"/>
       <use x="400.292969" xlink:href="#ArialMT-49"/>
       <use x="455.908203" xlink:href="#ArialMT-53"/>
      </g>
     </g>
    </g>
   </g>
   <g id="matplotlib.axis_8">
    <g id="ytick_14">
     <g id="line2d_46">
      <path clip-path="url(#p919b0c9bff)" d="M 67.16 822.378215 
L 1137.96 822.378215 
" style="fill:none;stroke:#ffffff;stroke-linecap:round;stroke-width:0.8;"/>
     </g>
     <g id="text_45">
      <!-- 500 -->
      <g style="fill:#262626;" transform="translate(30.879531 827.030793)scale(0.13 -0.13)">
       <use xlink:href="#ArialMT-8722"/>
       <use x="58.398438" xlink:href="#ArialMT-53"/>
       <use x="114.013672" xlink:href="#ArialMT-48"/>
       <use x="169.628906" xlink:href="#ArialMT-48"/>
      </g>
     </g>
    </g>
    <g id="ytick_15">
     <g id="line2d_47">
      <path clip-path="url(#p919b0c9bff)" d="M 67.16 768.421106 
L 1137.96 768.421106 
" style="fill:none;stroke:#ffffff;stroke-linecap:round;stroke-width:0.8;"/>
     </g>
     <g id="text_46">
      <!-- 0 -->
      <g style="fill:#262626;" transform="translate(52.930781 773.073684)scale(0.13 -0.13)">
       <use xlink:href="#ArialMT-48"/>
      </g>
     </g>
    </g>
    <g id="ytick_16">
     <g id="line2d_48">
      <path clip-path="url(#p919b0c9bff)" d="M 67.16 714.463996 
L 1137.96 714.463996 
" style="fill:none;stroke:#ffffff;stroke-linecap:round;stroke-width:0.8;"/>
     </g>
     <g id="text_47">
      <!-- 500 -->
      <g style="fill:#262626;" transform="translate(38.472344 719.116574)scale(0.13 -0.13)">
       <use xlink:href="#ArialMT-53"/>
       <use x="55.615234" xlink:href="#ArialMT-48"/>
       <use x="111.230469" xlink:href="#ArialMT-48"/>
      </g>
     </g>
    </g>
    <g id="ytick_17">
     <g id="line2d_49">
      <path clip-path="url(#p919b0c9bff)" d="M 67.16 660.506887 
L 1137.96 660.506887 
" style="fill:none;stroke:#ffffff;stroke-linecap:round;stroke-width:0.8;"/>
     </g>
     <g id="text_48">
      <!-- 1000 -->
      <g style="fill:#262626;" transform="translate(31.243125 665.159465)scale(0.13 -0.13)">
       <use xlink:href="#ArialMT-49"/>
       <use x="55.615234" xlink:href="#ArialMT-48"/>
       <use x="111.230469" xlink:href="#ArialMT-48"/>
       <use x="166.845703" xlink:href="#ArialMT-48"/>
      </g>
     </g>
    </g>
    <g id="text_49">
     <!-- Resid -->
     <g style="fill:#262626;" transform="translate(24.295781 760.757959)rotate(-90)scale(0.13 -0.13)">
      <defs>
       <path d="M 7.859375 0 
L 7.859375 71.578125 
L 39.59375 71.578125 
Q 49.171875 71.578125 54.140625 69.640625 
Q 59.125 67.71875 62.109375 62.828125 
Q 65.09375 57.953125 65.09375 52.046875 
Q 65.09375 44.4375 60.15625 39.203125 
Q 55.21875 33.984375 44.921875 32.5625 
Q 48.6875 30.765625 50.640625 29 
Q 54.78125 25.203125 58.5 19.484375 
L 70.953125 0 
L 59.03125 0 
L 49.5625 14.890625 
Q 45.40625 21.34375 42.71875 24.75 
Q 40.046875 28.171875 37.921875 29.53125 
Q 35.796875 30.90625 33.59375 31.453125 
Q 31.984375 31.78125 28.328125 31.78125 
L 17.328125 31.78125 
L 17.328125 0 
z
M 17.328125 39.984375 
L 37.703125 39.984375 
Q 44.1875 39.984375 47.84375 41.328125 
Q 51.515625 42.671875 53.421875 45.625 
Q 55.328125 48.578125 55.328125 52.046875 
Q 55.328125 57.125 51.640625 60.390625 
Q 47.953125 63.671875 39.984375 63.671875 
L 17.328125 63.671875 
z
" id="ArialMT-82"/>
      </defs>
      <use xlink:href="#ArialMT-82"/>
      <use x="72.216797" xlink:href="#ArialMT-101"/>
      <use x="127.832031" xlink:href="#ArialMT-115"/>
      <use x="177.832031" xlink:href="#ArialMT-105"/>
      <use x="200.048828" xlink:href="#ArialMT-100"/>
     </g>
    </g>
   </g>
   <g id="line2d_50">
    <defs>
     <path d="M 0 3 
C 0.795609 3 1.55874 2.683901 2.12132 2.12132 
C 2.683901 1.55874 3 0.795609 3 0 
C 3 -0.795609 2.683901 -1.55874 2.12132 -2.12132 
C 1.55874 -2.683901 0.795609 -3 0 -3 
C -0.795609 -3 -1.55874 -2.683901 -2.12132 -2.12132 
C -2.683901 -1.55874 -3 -0.795609 -3 0 
C -3 0.795609 -2.683901 1.55874 -2.12132 2.12132 
C -1.55874 2.683901 -0.795609 3 0 3 
z
" id="m4906b7580b" style="stroke:#1f77b4;"/>
    </defs>
    <g clip-path="url(#p919b0c9bff)">
     <use style="fill:#1f77b4;stroke:#1f77b4;" x="67.16" xlink:href="#m4906b7580b" y="772.177279"/>
     <use style="fill:#1f77b4;stroke:#1f77b4;" x="76.720714" xlink:href="#m4906b7580b" y="770.731881"/>
     <use style="fill:#1f77b4;stroke:#1f77b4;" x="86.281429" xlink:href="#m4906b7580b" y="769.07018"/>
     <use style="fill:#1f77b4;stroke:#1f77b4;" x="95.842143" xlink:href="#m4906b7580b" y="767.494467"/>
     <use style="fill:#1f77b4;stroke:#1f77b4;" x="105.402857" xlink:href="#m4906b7580b" y="765.798161"/>
     <use style="fill:#1f77b4;stroke:#1f77b4;" x="114.963571" xlink:href="#m4906b7580b" y="763.742808"/>
     <use style="fill:#1f77b4;stroke:#1f77b4;" x="124.524286" xlink:href="#m4906b7580b" y="761.042428"/>
     <use style="fill:#1f77b4;stroke:#1f77b4;" x="134.085" xlink:href="#m4906b7580b" y="753.793056"/>
     <use style="fill:#1f77b4;stroke:#1f77b4;" x="143.645714" xlink:href="#m4906b7580b" y="760.275604"/>
     <use style="fill:#1f77b4;stroke:#1f77b4;" x="153.206429" xlink:href="#m4906b7580b" y="764.594255"/>
     <use style="fill:#1f77b4;stroke:#1f77b4;" x="162.767143" xlink:href="#m4906b7580b" y="767.477532"/>
     <use style="fill:#1f77b4;stroke:#1f77b4;" x="172.327857" xlink:href="#m4906b7580b" y="770.15991"/>
     <use style="fill:#1f77b4;stroke:#1f77b4;" x="181.888571" xlink:href="#m4906b7580b" y="774.196521"/>
     <use style="fill:#1f77b4;stroke:#1f77b4;" x="191.449286" xlink:href="#m4906b7580b" y="780.804245"/>
     <use style="fill:#1f77b4;stroke:#1f77b4;" x="201.01" xlink:href="#m4906b7580b" y="790.15072"/>
     <use style="fill:#1f77b4;stroke:#1f77b4;" x="210.570714" xlink:href="#m4906b7580b" y="780.15718"/>
     <use style="fill:#1f77b4;stroke:#1f77b4;" x="220.131429" xlink:href="#m4906b7580b" y="773.480929"/>
     <use style="fill:#1f77b4;stroke:#1f77b4;" x="229.692143" xlink:href="#m4906b7580b" y="769.814237"/>
     <use style="fill:#1f77b4;stroke:#1f77b4;" x="239.252857" xlink:href="#m4906b7580b" y="767.524086"/>
     <use style="fill:#1f77b4;stroke:#1f77b4;" x="248.813571" xlink:href="#m4906b7580b" y="764.470108"/>
     <use style="fill:#1f77b4;stroke:#1f77b4;" x="258.374286" xlink:href="#m4906b7580b" y="759.019028"/>
     <use style="fill:#1f77b4;stroke:#1f77b4;" x="267.935" xlink:href="#m4906b7580b" y="750.438464"/>
     <use style="fill:#1f77b4;stroke:#1f77b4;" x="277.495714" xlink:href="#m4906b7580b" y="758.484276"/>
     <use style="fill:#1f77b4;stroke:#1f77b4;" x="287.056429" xlink:href="#m4906b7580b" y="763.885305"/>
     <use style="fill:#1f77b4;stroke:#1f77b4;" x="296.617143" xlink:href="#m4906b7580b" y="767.101207"/>
     <use style="fill:#1f77b4;stroke:#1f77b4;" x="306.177857" xlink:href="#m4906b7580b" y="768.912603"/>
     <use style="fill:#1f77b4;stroke:#1f77b4;" x="315.738571" xlink:href="#m4906b7580b" y="770.377628"/>
     <use style="fill:#1f77b4;stroke:#1f77b4;" x="325.299286" xlink:href="#m4906b7580b" y="772.384967"/>
     <use style="fill:#1f77b4;stroke:#1f77b4;" x="334.86" xlink:href="#m4906b7580b" y="775.084848"/>
     <use style="fill:#1f77b4;stroke:#1f77b4;" x="344.420714" xlink:href="#m4906b7580b" y="771.956237"/>
     <use style="fill:#1f77b4;stroke:#1f77b4;" x="353.981429" xlink:href="#m4906b7580b" y="769.922199"/>
     <use style="fill:#1f77b4;stroke:#1f77b4;" x="363.542143" xlink:href="#m4906b7580b" y="768.992555"/>
     <use style="fill:#1f77b4;stroke:#1f77b4;" x="373.102857" xlink:href="#m4906b7580b" y="769.121496"/>
     <use style="fill:#1f77b4;stroke:#1f77b4;" x="382.663571" xlink:href="#m4906b7580b" y="770.175957"/>
     <use style="fill:#1f77b4;stroke:#1f77b4;" x="392.224286" xlink:href="#m4906b7580b" y="772.023289"/>
     <use style="fill:#1f77b4;stroke:#1f77b4;" x="401.785" xlink:href="#m4906b7580b" y="774.600741"/>
     <use style="fill:#1f77b4;stroke:#1f77b4;" x="411.345714" xlink:href="#m4906b7580b" y="771.694382"/>
     <use style="fill:#1f77b4;stroke:#1f77b4;" x="420.906429" xlink:href="#m4906b7580b" y="769.850535"/>
     <use style="fill:#1f77b4;stroke:#1f77b4;" x="430.467143" xlink:href="#m4906b7580b" y="768.632125"/>
     <use style="fill:#1f77b4;stroke:#1f77b4;" x="440.027857" xlink:href="#m4906b7580b" y="766.788633"/>
     <use style="fill:#1f77b4;stroke:#1f77b4;" x="449.588571" xlink:href="#m4906b7580b" y="762.780298"/>
     <use style="fill:#1f77b4;stroke:#1f77b4;" x="459.149286" xlink:href="#m4906b7580b" y="755.498247"/>
     <use style="fill:#1f77b4;stroke:#1f77b4;" x="468.71" xlink:href="#m4906b7580b" y="744.524697"/>
     <use style="fill:#1f77b4;stroke:#1f77b4;" x="478.270714" xlink:href="#m4906b7580b" y="755.259768"/>
     <use style="fill:#1f77b4;stroke:#1f77b4;" x="487.831429" xlink:href="#m4906b7580b" y="762.584215"/>
     <use style="fill:#1f77b4;stroke:#1f77b4;" x="497.392143" xlink:href="#m4906b7580b" y="766.583739"/>
     <use style="fill:#1f77b4;stroke:#1f77b4;" x="506.952857" xlink:href="#m4906b7580b" y="767.892259"/>
     <use style="fill:#1f77b4;stroke:#1f77b4;" x="516.513571" xlink:href="#m4906b7580b" y="767.460817"/>
     <use style="fill:#1f77b4;stroke:#1f77b4;" x="526.074286" xlink:href="#m4906b7580b" y="766.137666"/>
     <use style="fill:#1f77b4;stroke:#1f77b4;" x="535.635" xlink:href="#m4906b7580b" y="764.177862"/>
     <use style="fill:#1f77b4;stroke:#1f77b4;" x="545.195714" xlink:href="#m4906b7580b" y="765.97826"/>
     <use style="fill:#1f77b4;stroke:#1f77b4;" x="554.756429" xlink:href="#m4906b7580b" y="767.398619"/>
     <use style="fill:#1f77b4;stroke:#1f77b4;" x="564.317143" xlink:href="#m4906b7580b" y="768.51441"/>
     <use style="fill:#1f77b4;stroke:#1f77b4;" x="573.877857" xlink:href="#m4906b7580b" y="770.863872"/>
     <use style="fill:#1f77b4;stroke:#1f77b4;" x="583.438571" xlink:href="#m4906b7580b" y="776.294357"/>
     <use style="fill:#1f77b4;stroke:#1f77b4;" x="592.999286" xlink:href="#m4906b7580b" y="786.127956"/>
     <use style="fill:#1f77b4;stroke:#1f77b4;" x="602.56" xlink:href="#m4906b7580b" y="800.943908"/>
     <use style="fill:#1f77b4;stroke:#1f77b4;" x="612.120714" xlink:href="#m4906b7580b" y="786.247006"/>
     <use style="fill:#1f77b4;stroke:#1f77b4;" x="621.681429" xlink:href="#m4906b7580b" y="776.512517"/>
     <use style="fill:#1f77b4;stroke:#1f77b4;" x="631.242143" xlink:href="#m4906b7580b" y="771.487479"/>
     <use style="fill:#1f77b4;stroke:#1f77b4;" x="640.802857" xlink:href="#m4906b7580b" y="771.989642"/>
     <use style="fill:#1f77b4;stroke:#1f77b4;" x="650.363571" xlink:href="#m4906b7580b" y="778.732153"/>
     <use style="fill:#1f77b4;stroke:#1f77b4;" x="659.924286" xlink:href="#m4906b7580b" y="791.97753"/>
     <use style="fill:#1f77b4;stroke:#1f77b4;" x="669.485" xlink:href="#m4906b7580b" y="812.304106"/>
     <use style="fill:#1f77b4;stroke:#1f77b4;" x="679.045714" xlink:href="#m4906b7580b" y="792.784601"/>
     <use style="fill:#1f77b4;stroke:#1f77b4;" x="688.606429" xlink:href="#m4906b7580b" y="779.537293"/>
     <use style="fill:#1f77b4;stroke:#1f77b4;" x="698.167143" xlink:href="#m4906b7580b" y="770.838535"/>
     <use style="fill:#1f77b4;stroke:#1f77b4;" x="707.727857" xlink:href="#m4906b7580b" y="761.534307"/>
     <use style="fill:#1f77b4;stroke:#1f77b4;" x="717.288571" xlink:href="#m4906b7580b" y="745.289747"/>
     <use style="fill:#1f77b4;stroke:#1f77b4;" x="726.849286" xlink:href="#m4906b7580b" y="717.396156"/>
     <use style="fill:#1f77b4;stroke:#1f77b4;" x="736.41" xlink:href="#m4906b7580b" y="676.310431"/>
     <use style="fill:#1f77b4;stroke:#1f77b4;" x="745.970714" xlink:href="#m4906b7580b" y="719.024748"/>
     <use style="fill:#1f77b4;stroke:#1f77b4;" x="755.531429" xlink:href="#m4906b7580b" y="746.850057"/>
     <use style="fill:#1f77b4;stroke:#1f77b4;" x="765.092143" xlink:href="#m4906b7580b" y="761.950857"/>
     <use style="fill:#1f77b4;stroke:#1f77b4;" x="774.652857" xlink:href="#m4906b7580b" y="769.004618"/>
     <use style="fill:#1f77b4;stroke:#1f77b4;" x="784.213571" xlink:href="#m4906b7580b" y="774.5304"/>
     <use style="fill:#1f77b4;stroke:#1f77b4;" x="793.774286" xlink:href="#m4906b7580b" y="783.795338"/>
     <use style="fill:#1f77b4;stroke:#1f77b4;" x="803.335" xlink:href="#m4906b7580b" y="798.485615"/>
     <use style="fill:#1f77b4;stroke:#1f77b4;" x="812.895714" xlink:href="#m4906b7580b" y="786.349737"/>
     <use style="fill:#1f77b4;stroke:#1f77b4;" x="822.456429" xlink:href="#m4906b7580b" y="776.91313"/>
     <use style="fill:#1f77b4;stroke:#1f77b4;" x="832.017143" xlink:href="#m4906b7580b" y="770.9475"/>
     <use style="fill:#1f77b4;stroke:#1f77b4;" x="841.577857" xlink:href="#m4906b7580b" y="767.771343"/>
     <use style="fill:#1f77b4;stroke:#1f77b4;" x="851.138571" xlink:href="#m4906b7580b" y="766.570857"/>
     <use style="fill:#1f77b4;stroke:#1f77b4;" x="860.699286" xlink:href="#m4906b7580b" y="766.583173"/>
     <use style="fill:#1f77b4;stroke:#1f77b4;" x="870.26" xlink:href="#m4906b7580b" y="767.606222"/>
     <use style="fill:#1f77b4;stroke:#1f77b4;" x="879.820714" xlink:href="#m4906b7580b" y="770.108628"/>
     <use style="fill:#1f77b4;stroke:#1f77b4;" x="889.381429" xlink:href="#m4906b7580b" y="769.809772"/>
     <use style="fill:#1f77b4;stroke:#1f77b4;" x="898.942143" xlink:href="#m4906b7580b" y="768.784389"/>
     <use style="fill:#1f77b4;stroke:#1f77b4;" x="908.502857" xlink:href="#m4906b7580b" y="767.926053"/>
     <use style="fill:#1f77b4;stroke:#1f77b4;" x="918.063571" xlink:href="#m4906b7580b" y="768.622574"/>
     <use style="fill:#1f77b4;stroke:#1f77b4;" x="927.624286" xlink:href="#m4906b7580b" y="771.879696"/>
     <use style="fill:#1f77b4;stroke:#1f77b4;" x="937.185" xlink:href="#m4906b7580b" y="777.950974"/>
     <use style="fill:#1f77b4;stroke:#1f77b4;" x="946.745714" xlink:href="#m4906b7580b" y="776.395055"/>
     <use style="fill:#1f77b4;stroke:#1f77b4;" x="956.306429" xlink:href="#m4906b7580b" y="772.734516"/>
     <use style="fill:#1f77b4;stroke:#1f77b4;" x="965.867143" xlink:href="#m4906b7580b" y="770.152319"/>
     <use style="fill:#1f77b4;stroke:#1f77b4;" x="975.427857" xlink:href="#m4906b7580b" y="771.131653"/>
     <use style="fill:#1f77b4;stroke:#1f77b4;" x="984.988571" xlink:href="#m4906b7580b" y="778.906004"/>
     <use style="fill:#1f77b4;stroke:#1f77b4;" x="994.549286" xlink:href="#m4906b7580b" y="795.684267"/>
     <use style="fill:#1f77b4;stroke:#1f77b4;" x="1004.11" xlink:href="#m4906b7580b" y="822.194573"/>
     <use style="fill:#1f77b4;stroke:#1f77b4;" x="1013.670714" xlink:href="#m4906b7580b" y="801.20688"/>
     <use style="fill:#1f77b4;stroke:#1f77b4;" x="1023.231429" xlink:href="#m4906b7580b" y="783.908847"/>
     <use style="fill:#1f77b4;stroke:#1f77b4;" x="1032.792143" xlink:href="#m4906b7580b" y="771.817811"/>
     <use style="fill:#1f77b4;stroke:#1f77b4;" x="1042.352857" xlink:href="#m4906b7580b" y="759.48463"/>
     <use style="fill:#1f77b4;stroke:#1f77b4;" x="1051.913571" xlink:href="#m4906b7580b" y="740.500795"/>
     <use style="fill:#1f77b4;stroke:#1f77b4;" x="1061.474286" xlink:href="#m4906b7580b" y="710.046582"/>
     <use style="fill:#1f77b4;stroke:#1f77b4;" x="1071.035" xlink:href="#m4906b7580b" y="666.086033"/>
     <use style="fill:#1f77b4;stroke:#1f77b4;" x="1080.595714" xlink:href="#m4906b7580b" y="716.609623"/>
     <use style="fill:#1f77b4;stroke:#1f77b4;" x="1090.156429" xlink:href="#m4906b7580b" y="734.220675"/>
     <use style="fill:#1f77b4;stroke:#1f77b4;" x="1099.717143" xlink:href="#m4906b7580b" y="748.259918"/>
     <use style="fill:#1f77b4;stroke:#1f77b4;" x="1109.277857" xlink:href="#m4906b7580b" y="760.52992"/>
     <use style="fill:#1f77b4;stroke:#1f77b4;" x="1118.838571" xlink:href="#m4906b7580b" y="772.25972"/>
     <use style="fill:#1f77b4;stroke:#1f77b4;" x="1128.399286" xlink:href="#m4906b7580b" y="784.548915"/>
     <use style="fill:#1f77b4;stroke:#1f77b4;" x="1137.96" xlink:href="#m4906b7580b" y="797.560008"/>
    </g>
   </g>
   <g id="patch_18">
    <path d="M 67.16 830 
L 67.16 658.280606 
" style="fill:none;stroke:#ffffff;stroke-linecap:square;stroke-linejoin:miter;stroke-width:0.8;"/>
   </g>
   <g id="patch_19">
    <path d="M 1137.96 830 
L 1137.96 658.280606 
" style="fill:none;stroke:#ffffff;stroke-linecap:square;stroke-linejoin:miter;stroke-width:0.8;"/>
   </g>
   <g id="patch_20">
    <path d="M 67.16 830 
L 1137.96 830 
" style="fill:none;stroke:#ffffff;stroke-linecap:square;stroke-linejoin:miter;stroke-width:0.8;"/>
   </g>
   <g id="patch_21">
    <path d="M 67.16 658.280606 
L 1137.96 658.280606 
" style="fill:none;stroke:#ffffff;stroke-linecap:square;stroke-linejoin:miter;stroke-width:0.8;"/>
   </g>
  </g>
 </g>
 <defs>
  <clipPath id="p7fb82d9e12">
   <rect height="171.719394" width="1070.8" x="67.16" y="31.6275"/>
  </clipPath>
  <clipPath id="p1f7e87239c">
   <rect height="171.719394" width="1070.8" x="67.16" y="240.511869"/>
  </clipPath>
  <clipPath id="pac71af800e">
   <rect height="171.719394" width="1070.8" x="67.16" y="449.396237"/>
  </clipPath>
  <clipPath id="p919b0c9bff">
   <rect height="171.719394" width="1070.8" x="67.16" y="658.280606"/>
  </clipPath>
 </defs>
</svg>
