<?xml version="1.0" encoding="utf-8" standalone="no"?>
<!DOCTYPE svg PUBLIC "-//W3C//DTD SVG 1.1//EN"
  "http://www.w3.org/Graphics/SVG/1.1/DTD/svg11.dtd">
<!-- Created with matplotlib (https://matplotlib.org/) -->
<svg height="864pt" version="1.1" viewBox="0 0 1152 864" width="1152pt" xmlns="http://www.w3.org/2000/svg" xmlns:xlink="http://www.w3.org/1999/xlink">
 <metadata>
  <rdf:RDF xmlns:cc="http://creativecommons.org/ns#" xmlns:dc="http://purl.org/dc/elements/1.1/" xmlns:rdf="http://www.w3.org/1999/02/22-rdf-syntax-ns#">
   <cc:Work>
    <dc:type rdf:resource="http://purl.org/dc/dcmitype/StillImage"/>
    <dc:date>2021-03-10T13:04:03.540761</dc:date>
    <dc:format>image/svg+xml</dc:format>
    <dc:creator>
     <cc:Agent>
      <dc:title>Matplotlib v3.3.4, https://matplotlib.org/</dc:title>
     </cc:Agent>
    </dc:creator>
   </cc:Work>
  </rdf:RDF>
 </metadata>
 <defs>
  <style type="text/css">*{stroke-linecap:butt;stroke-linejoin:round;}</style>
 </defs>
 <g id="figure_1">
  <g id="patch_1">
   <path d="M 0 864 
L 1152 864 
L 1152 0 
L 0 0 
z
" style="fill:#ffffff;"/>
  </g>
  <g id="axes_1">
   <g id="patch_2">
    <path d="M 74.36 203.689121 
L 1137.96 203.689121 
L 1137.96 31.6275 
L 74.36 31.6275 
z
" style="fill:#eaeaf2;"/>
   </g>
   <g id="matplotlib.axis_1">
    <g id="xtick_1">
     <g id="line2d_1">
      <path clip-path="url(#p2a89046731)" d="M 178.820714 203.689121 
L 178.820714 31.6275 
" style="fill:none;stroke:#ffffff;stroke-linecap:round;stroke-width:0.8;"/>
     </g>
     <g id="text_1">
      <!-- 2003-01-15 -->
      <g style="fill:#262626;" transform="translate(145.575246 219.994278)scale(0.13 -0.13)">
       <defs>
        <path d="M 50.34375 8.453125 
L 50.34375 0 
L 3.03125 0 
Q 2.9375 3.171875 4.046875 6.109375 
Q 5.859375 10.9375 9.828125 15.625 
Q 13.8125 20.3125 21.34375 26.46875 
Q 33.015625 36.03125 37.109375 41.625 
Q 41.21875 47.21875 41.21875 52.203125 
Q 41.21875 57.421875 37.46875 61 
Q 33.734375 64.59375 27.734375 64.59375 
Q 21.390625 64.59375 17.578125 60.78125 
Q 13.765625 56.984375 13.71875 50.25 
L 4.6875 51.171875 
Q 5.609375 61.28125 11.65625 66.578125 
Q 17.71875 71.875 27.9375 71.875 
Q 38.234375 71.875 44.234375 66.15625 
Q 50.25 60.453125 50.25 52 
Q 50.25 47.703125 48.484375 43.546875 
Q 46.734375 39.40625 42.65625 34.8125 
Q 38.578125 30.21875 29.109375 22.21875 
Q 21.1875 15.578125 18.9375 13.203125 
Q 16.703125 10.84375 15.234375 8.453125 
z
" id="ArialMT-50"/>
        <path d="M 4.15625 35.296875 
Q 4.15625 48 6.765625 55.734375 
Q 9.375 63.484375 14.515625 67.671875 
Q 19.671875 71.875 27.484375 71.875 
Q 33.25 71.875 37.59375 69.546875 
Q 41.9375 67.234375 44.765625 62.859375 
Q 47.609375 58.5 49.21875 52.21875 
Q 50.828125 45.953125 50.828125 35.296875 
Q 50.828125 22.703125 48.234375 14.96875 
Q 45.65625 7.234375 40.5 3 
Q 35.359375 -1.21875 27.484375 -1.21875 
Q 17.140625 -1.21875 11.234375 6.203125 
Q 4.15625 15.140625 4.15625 35.296875 
z
M 13.1875 35.296875 
Q 13.1875 17.671875 17.3125 11.828125 
Q 21.4375 6 27.484375 6 
Q 33.546875 6 37.671875 11.859375 
Q 41.796875 17.71875 41.796875 35.296875 
Q 41.796875 52.984375 37.671875 58.78125 
Q 33.546875 64.59375 27.390625 64.59375 
Q 21.34375 64.59375 17.71875 59.46875 
Q 13.1875 52.9375 13.1875 35.296875 
z
" id="ArialMT-48"/>
        <path d="M 4.203125 18.890625 
L 12.984375 20.0625 
Q 14.5 12.59375 18.140625 9.296875 
Q 21.78125 6 27 6 
Q 33.203125 6 37.46875 10.296875 
Q 41.75 14.59375 41.75 20.953125 
Q 41.75 27 37.796875 30.921875 
Q 33.84375 34.859375 27.734375 34.859375 
Q 25.25 34.859375 21.53125 33.890625 
L 22.515625 41.609375 
Q 23.390625 41.5 23.921875 41.5 
Q 29.546875 41.5 34.03125 44.421875 
Q 38.53125 47.359375 38.53125 53.46875 
Q 38.53125 58.296875 35.25 61.46875 
Q 31.984375 64.65625 26.8125 64.65625 
Q 21.6875 64.65625 18.265625 61.421875 
Q 14.84375 58.203125 13.875 51.765625 
L 5.078125 53.328125 
Q 6.6875 62.15625 12.390625 67.015625 
Q 18.109375 71.875 26.609375 71.875 
Q 32.46875 71.875 37.390625 69.359375 
Q 42.328125 66.84375 44.9375 62.5 
Q 47.5625 58.15625 47.5625 53.265625 
Q 47.5625 48.640625 45.0625 44.828125 
Q 42.578125 41.015625 37.703125 38.765625 
Q 44.046875 37.3125 47.5625 32.6875 
Q 51.078125 28.078125 51.078125 21.140625 
Q 51.078125 11.765625 44.234375 5.25 
Q 37.40625 -1.265625 26.953125 -1.265625 
Q 17.53125 -1.265625 11.296875 4.34375 
Q 5.078125 9.96875 4.203125 18.890625 
z
" id="ArialMT-51"/>
        <path d="M 3.171875 21.484375 
L 3.171875 30.328125 
L 30.171875 30.328125 
L 30.171875 21.484375 
z
" id="ArialMT-45"/>
        <path d="M 37.25 0 
L 28.46875 0 
L 28.46875 56 
Q 25.296875 52.984375 20.140625 49.953125 
Q 14.984375 46.921875 10.890625 45.40625 
L 10.890625 53.90625 
Q 18.265625 57.375 23.78125 62.296875 
Q 29.296875 67.234375 31.59375 71.875 
L 37.25 71.875 
z
" id="ArialMT-49"/>
        <path d="M 4.15625 18.75 
L 13.375 19.53125 
Q 14.40625 12.796875 18.140625 9.390625 
Q 21.875 6 27.15625 6 
Q 33.5 6 37.890625 10.78125 
Q 42.28125 15.578125 42.28125 23.484375 
Q 42.28125 31 38.0625 35.34375 
Q 33.84375 39.703125 27 39.703125 
Q 22.75 39.703125 19.328125 37.765625 
Q 15.921875 35.84375 13.96875 32.765625 
L 5.71875 33.84375 
L 12.640625 70.609375 
L 48.25 70.609375 
L 48.25 62.203125 
L 19.671875 62.203125 
L 15.828125 42.96875 
Q 22.265625 47.46875 29.34375 47.46875 
Q 38.71875 47.46875 45.15625 40.96875 
Q 51.609375 34.46875 51.609375 24.265625 
Q 51.609375 14.546875 45.953125 7.46875 
Q 39.0625 -1.21875 27.15625 -1.21875 
Q 17.390625 -1.21875 11.203125 4.25 
Q 5.03125 9.71875 4.15625 18.75 
z
" id="ArialMT-53"/>
       </defs>
       <use xlink:href="#ArialMT-50"/>
       <use x="55.615234" xlink:href="#ArialMT-48"/>
       <use x="111.230469" xlink:href="#ArialMT-48"/>
       <use x="166.845703" xlink:href="#ArialMT-51"/>
       <use x="222.460938" xlink:href="#ArialMT-45"/>
       <use x="255.761719" xlink:href="#ArialMT-48"/>
       <use x="311.376953" xlink:href="#ArialMT-49"/>
       <use x="366.992188" xlink:href="#ArialMT-45"/>
       <use x="400.292969" xlink:href="#ArialMT-49"/>
       <use x="455.908203" xlink:href="#ArialMT-53"/>
      </g>
     </g>
    </g>
    <g id="xtick_2">
     <g id="line2d_2">
      <path clip-path="url(#p2a89046731)" d="M 340.26 203.689121 
L 340.26 31.6275 
" style="fill:none;stroke:#ffffff;stroke-linecap:round;stroke-width:0.8;"/>
     </g>
     <g id="text_2">
      <!-- 2003-02-01 -->
      <g style="fill:#262626;" transform="translate(307.014531 219.994278)scale(0.13 -0.13)">
       <use xlink:href="#ArialMT-50"/>
       <use x="55.615234" xlink:href="#ArialMT-48"/>
       <use x="111.230469" xlink:href="#ArialMT-48"/>
       <use x="166.845703" xlink:href="#ArialMT-51"/>
       <use x="222.460938" xlink:href="#ArialMT-45"/>
       <use x="255.761719" xlink:href="#ArialMT-48"/>
       <use x="311.376953" xlink:href="#ArialMT-50"/>
       <use x="366.992188" xlink:href="#ArialMT-45"/>
       <use x="400.292969" xlink:href="#ArialMT-48"/>
       <use x="455.908203" xlink:href="#ArialMT-49"/>
      </g>
     </g>
    </g>
    <g id="xtick_3">
     <g id="line2d_3">
      <path clip-path="url(#p2a89046731)" d="M 473.21 203.689121 
L 473.21 31.6275 
" style="fill:none;stroke:#ffffff;stroke-linecap:round;stroke-width:0.8;"/>
     </g>
     <g id="text_3">
      <!-- 2003-02-15 -->
      <g style="fill:#262626;" transform="translate(439.964531 219.994278)scale(0.13 -0.13)">
       <use xlink:href="#ArialMT-50"/>
       <use x="55.615234" xlink:href="#ArialMT-48"/>
       <use x="111.230469" xlink:href="#ArialMT-48"/>
       <use x="166.845703" xlink:href="#ArialMT-51"/>
       <use x="222.460938" xlink:href="#ArialMT-45"/>
       <use x="255.761719" xlink:href="#ArialMT-48"/>
       <use x="311.376953" xlink:href="#ArialMT-50"/>
       <use x="366.992188" xlink:href="#ArialMT-45"/>
       <use x="400.292969" xlink:href="#ArialMT-49"/>
       <use x="455.908203" xlink:href="#ArialMT-53"/>
      </g>
     </g>
    </g>
    <g id="xtick_4">
     <g id="line2d_4">
      <path clip-path="url(#p2a89046731)" d="M 606.16 203.689121 
L 606.16 31.6275 
" style="fill:none;stroke:#ffffff;stroke-linecap:round;stroke-width:0.8;"/>
     </g>
     <g id="text_4">
      <!-- 2003-03-01 -->
      <g style="fill:#262626;" transform="translate(572.914531 219.994278)scale(0.13 -0.13)">
       <use xlink:href="#ArialMT-50"/>
       <use x="55.615234" xlink:href="#ArialMT-48"/>
       <use x="111.230469" xlink:href="#ArialMT-48"/>
       <use x="166.845703" xlink:href="#ArialMT-51"/>
       <use x="222.460938" xlink:href="#ArialMT-45"/>
       <use x="255.761719" xlink:href="#ArialMT-48"/>
       <use x="311.376953" xlink:href="#ArialMT-51"/>
       <use x="366.992188" xlink:href="#ArialMT-45"/>
       <use x="400.292969" xlink:href="#ArialMT-48"/>
       <use x="455.908203" xlink:href="#ArialMT-49"/>
      </g>
     </g>
    </g>
    <g id="xtick_5">
     <g id="line2d_5">
      <path clip-path="url(#p2a89046731)" d="M 739.11 203.689121 
L 739.11 31.6275 
" style="fill:none;stroke:#ffffff;stroke-linecap:round;stroke-width:0.8;"/>
     </g>
     <g id="text_5">
      <!-- 2003-03-15 -->
      <g style="fill:#262626;" transform="translate(705.864531 219.994278)scale(0.13 -0.13)">
       <use xlink:href="#ArialMT-50"/>
       <use x="55.615234" xlink:href="#ArialMT-48"/>
       <use x="111.230469" xlink:href="#ArialMT-48"/>
       <use x="166.845703" xlink:href="#ArialMT-51"/>
       <use x="222.460938" xlink:href="#ArialMT-45"/>
       <use x="255.761719" xlink:href="#ArialMT-48"/>
       <use x="311.376953" xlink:href="#ArialMT-51"/>
       <use x="366.992188" xlink:href="#ArialMT-45"/>
       <use x="400.292969" xlink:href="#ArialMT-49"/>
       <use x="455.908203" xlink:href="#ArialMT-53"/>
      </g>
     </g>
    </g>
    <g id="xtick_6">
     <g id="line2d_6">
      <path clip-path="url(#p2a89046731)" d="M 900.549286 203.689121 
L 900.549286 31.6275 
" style="fill:none;stroke:#ffffff;stroke-linecap:round;stroke-width:0.8;"/>
     </g>
     <g id="text_6">
      <!-- 2003-04-01 -->
      <g style="fill:#262626;" transform="translate(867.303817 219.994278)scale(0.13 -0.13)">
       <defs>
        <path d="M 32.328125 0 
L 32.328125 17.140625 
L 1.265625 17.140625 
L 1.265625 25.203125 
L 33.9375 71.578125 
L 41.109375 71.578125 
L 41.109375 25.203125 
L 50.78125 25.203125 
L 50.78125 17.140625 
L 41.109375 17.140625 
L 41.109375 0 
z
M 32.328125 25.203125 
L 32.328125 57.46875 
L 9.90625 25.203125 
z
" id="ArialMT-52"/>
       </defs>
       <use xlink:href="#ArialMT-50"/>
       <use x="55.615234" xlink:href="#ArialMT-48"/>
       <use x="111.230469" xlink:href="#ArialMT-48"/>
       <use x="166.845703" xlink:href="#ArialMT-51"/>
       <use x="222.460938" xlink:href="#ArialMT-45"/>
       <use x="255.761719" xlink:href="#ArialMT-48"/>
       <use x="311.376953" xlink:href="#ArialMT-52"/>
       <use x="366.992188" xlink:href="#ArialMT-45"/>
       <use x="400.292969" xlink:href="#ArialMT-48"/>
       <use x="455.908203" xlink:href="#ArialMT-49"/>
      </g>
     </g>
    </g>
    <g id="xtick_7">
     <g id="line2d_7">
      <path clip-path="url(#p2a89046731)" d="M 1033.499286 203.689121 
L 1033.499286 31.6275 
" style="fill:none;stroke:#ffffff;stroke-linecap:round;stroke-width:0.8;"/>
     </g>
     <g id="text_7">
      <!-- 2003-04-15 -->
      <g style="fill:#262626;" transform="translate(1000.253817 219.994278)scale(0.13 -0.13)">
       <use xlink:href="#ArialMT-50"/>
       <use x="55.615234" xlink:href="#ArialMT-48"/>
       <use x="111.230469" xlink:href="#ArialMT-48"/>
       <use x="166.845703" xlink:href="#ArialMT-51"/>
       <use x="222.460938" xlink:href="#ArialMT-45"/>
       <use x="255.761719" xlink:href="#ArialMT-48"/>
       <use x="311.376953" xlink:href="#ArialMT-52"/>
       <use x="366.992188" xlink:href="#ArialMT-45"/>
       <use x="400.292969" xlink:href="#ArialMT-49"/>
       <use x="455.908203" xlink:href="#ArialMT-53"/>
      </g>
     </g>
    </g>
   </g>
   <g id="matplotlib.axis_2">
    <g id="ytick_1">
     <g id="line2d_8">
      <path clip-path="url(#p2a89046731)" d="M 74.36 187.633451 
L 1137.96 187.633451 
" style="fill:none;stroke:#ffffff;stroke-linecap:round;stroke-width:0.8;"/>
     </g>
     <g id="text_8">
      <!-- 4000 -->
      <g style="fill:#262626;" transform="translate(38.443125 192.28603)scale(0.13 -0.13)">
       <use xlink:href="#ArialMT-52"/>
       <use x="55.615234" xlink:href="#ArialMT-48"/>
       <use x="111.230469" xlink:href="#ArialMT-48"/>
       <use x="166.845703" xlink:href="#ArialMT-48"/>
      </g>
     </g>
    </g>
    <g id="ytick_2">
     <g id="line2d_9">
      <path clip-path="url(#p2a89046731)" d="M 74.36 148.233034 
L 1137.96 148.233034 
" style="fill:none;stroke:#ffffff;stroke-linecap:round;stroke-width:0.8;"/>
     </g>
     <g id="text_9">
      <!-- 6000 -->
      <g style="fill:#262626;" transform="translate(38.443125 152.885612)scale(0.13 -0.13)">
       <defs>
        <path d="M 49.75 54.046875 
L 41.015625 53.375 
Q 39.84375 58.546875 37.703125 60.890625 
Q 34.125 64.65625 28.90625 64.65625 
Q 24.703125 64.65625 21.53125 62.3125 
Q 17.390625 59.28125 14.984375 53.46875 
Q 12.59375 47.65625 12.5 36.921875 
Q 15.671875 41.75 20.265625 44.09375 
Q 24.859375 46.4375 29.890625 46.4375 
Q 38.671875 46.4375 44.84375 39.96875 
Q 51.03125 33.5 51.03125 23.25 
Q 51.03125 16.5 48.125 10.71875 
Q 45.21875 4.9375 40.140625 1.859375 
Q 35.0625 -1.21875 28.609375 -1.21875 
Q 17.625 -1.21875 10.6875 6.859375 
Q 3.765625 14.9375 3.765625 33.5 
Q 3.765625 54.25 11.421875 63.671875 
Q 18.109375 71.875 29.4375 71.875 
Q 37.890625 71.875 43.28125 67.140625 
Q 48.6875 62.40625 49.75 54.046875 
z
M 13.875 23.1875 
Q 13.875 18.65625 15.796875 14.5 
Q 17.71875 10.359375 21.1875 8.171875 
Q 24.65625 6 28.46875 6 
Q 34.03125 6 38.03125 10.484375 
Q 42.046875 14.984375 42.046875 22.703125 
Q 42.046875 30.125 38.078125 34.390625 
Q 34.125 38.671875 28.125 38.671875 
Q 22.171875 38.671875 18.015625 34.390625 
Q 13.875 30.125 13.875 23.1875 
z
" id="ArialMT-54"/>
       </defs>
       <use xlink:href="#ArialMT-54"/>
       <use x="55.615234" xlink:href="#ArialMT-48"/>
       <use x="111.230469" xlink:href="#ArialMT-48"/>
       <use x="166.845703" xlink:href="#ArialMT-48"/>
      </g>
     </g>
    </g>
    <g id="ytick_3">
     <g id="line2d_10">
      <path clip-path="url(#p2a89046731)" d="M 74.36 108.832617 
L 1137.96 108.832617 
" style="fill:none;stroke:#ffffff;stroke-linecap:round;stroke-width:0.8;"/>
     </g>
     <g id="text_10">
      <!-- 8000 -->
      <g style="fill:#262626;" transform="translate(38.443125 113.485195)scale(0.13 -0.13)">
       <defs>
        <path d="M 17.671875 38.8125 
Q 12.203125 40.828125 9.5625 44.53125 
Q 6.9375 48.25 6.9375 53.421875 
Q 6.9375 61.234375 12.546875 66.546875 
Q 18.171875 71.875 27.484375 71.875 
Q 36.859375 71.875 42.578125 66.421875 
Q 48.296875 60.984375 48.296875 53.171875 
Q 48.296875 48.1875 45.671875 44.5 
Q 43.0625 40.828125 37.75 38.8125 
Q 44.34375 36.671875 47.78125 31.875 
Q 51.21875 27.09375 51.21875 20.453125 
Q 51.21875 11.28125 44.71875 5.03125 
Q 38.234375 -1.21875 27.640625 -1.21875 
Q 17.046875 -1.21875 10.546875 5.046875 
Q 4.046875 11.328125 4.046875 20.703125 
Q 4.046875 27.6875 7.59375 32.390625 
Q 11.140625 37.109375 17.671875 38.8125 
z
M 15.921875 53.71875 
Q 15.921875 48.640625 19.1875 45.40625 
Q 22.46875 42.1875 27.6875 42.1875 
Q 32.765625 42.1875 36.015625 45.375 
Q 39.265625 48.578125 39.265625 53.21875 
Q 39.265625 58.0625 35.90625 61.359375 
Q 32.5625 64.65625 27.59375 64.65625 
Q 22.5625 64.65625 19.234375 61.421875 
Q 15.921875 58.203125 15.921875 53.71875 
z
M 13.09375 20.65625 
Q 13.09375 16.890625 14.875 13.375 
Q 16.65625 9.859375 20.171875 7.921875 
Q 23.6875 6 27.734375 6 
Q 34.03125 6 38.125 10.046875 
Q 42.234375 14.109375 42.234375 20.359375 
Q 42.234375 26.703125 38.015625 30.859375 
Q 33.796875 35.015625 27.4375 35.015625 
Q 21.234375 35.015625 17.15625 30.90625 
Q 13.09375 26.8125 13.09375 20.65625 
z
" id="ArialMT-56"/>
       </defs>
       <use xlink:href="#ArialMT-56"/>
       <use x="55.615234" xlink:href="#ArialMT-48"/>
       <use x="111.230469" xlink:href="#ArialMT-48"/>
       <use x="166.845703" xlink:href="#ArialMT-48"/>
      </g>
     </g>
    </g>
    <g id="ytick_4">
     <g id="line2d_11">
      <path clip-path="url(#p2a89046731)" d="M 74.36 69.4322 
L 1137.96 69.4322 
" style="fill:none;stroke:#ffffff;stroke-linecap:round;stroke-width:0.8;"/>
     </g>
     <g id="text_11">
      <!-- 10000 -->
      <g style="fill:#262626;" transform="translate(31.213906 74.084778)scale(0.13 -0.13)">
       <use xlink:href="#ArialMT-49"/>
       <use x="55.615234" xlink:href="#ArialMT-48"/>
       <use x="111.230469" xlink:href="#ArialMT-48"/>
       <use x="166.845703" xlink:href="#ArialMT-48"/>
       <use x="222.460938" xlink:href="#ArialMT-48"/>
      </g>
     </g>
    </g>
   </g>
   <g id="line2d_12">
    <path clip-path="url(#p2a89046731)" d="M 74.36 171.932385 
L 83.856429 170.896717 
L 93.352857 169.861049 
L 102.849286 168.825381 
L 112.345714 167.789713 
L 121.842143 166.754045 
L 131.338571 165.718377 
L 140.835 164.682708 
L 150.331429 166.250282 
L 159.827857 167.817856 
L 169.324286 169.38543 
L 178.820714 170.953003 
L 188.317143 172.520577 
L 197.813571 174.088151 
L 207.31 175.655725 
L 216.806429 176.995339 
L 226.302857 178.334953 
L 235.799286 179.674567 
L 245.295714 181.014181 
L 254.792143 182.353795 
L 264.288571 183.69341 
L 273.785 185.033024 
L 283.281429 184.585548 
L 292.777857 184.138072 
L 302.274286 183.690595 
L 311.770714 183.243119 
L 321.267143 182.795643 
L 330.763571 182.348167 
L 340.26 181.900691 
L 349.756429 179.685824 
L 359.252857 177.470958 
L 368.749286 175.256092 
L 378.245714 173.041225 
L 387.742143 170.826359 
L 397.238571 168.611493 
L 406.735 166.396627 
L 416.231429 153.917952 
L 425.727857 141.439277 
L 435.224286 128.960602 
L 444.720714 116.481927 
L 454.217143 104.003252 
L 463.713571 91.524577 
L 473.21 79.045902 
L 482.706429 73.389128 
L 492.202857 67.732354 
L 501.699286 62.075579 
L 511.195714 56.418805 
L 520.692143 50.762031 
L 530.188571 45.105257 
L 539.685 39.448483 
L 549.181429 48.713209 
L 558.677857 57.977936 
L 568.174286 67.242663 
L 577.670714 76.507389 
L 587.167143 85.772116 
L 596.663571 95.036843 
L 606.16 104.301569 
L 615.656429 115.924692 
L 625.152857 127.547815 
L 634.649286 139.170938 
L 644.145714 150.794061 
L 653.642143 162.417184 
L 663.138571 174.040307 
L 672.635 185.663431 
L 682.131429 170.426726 
L 691.627857 155.190022 
L 701.124286 139.953318 
L 710.620714 124.716614 
L 720.117143 109.47991 
L 729.613571 94.243206 
L 739.11 79.006502 
L 748.606429 81.308612 
L 758.102857 83.610722 
L 767.599286 85.912832 
L 777.095714 88.214942 
L 786.592143 90.517052 
L 796.088571 92.819162 
L 805.585 95.121272 
L 815.081429 105.466696 
L 824.577857 115.81212 
L 834.074286 126.157543 
L 843.570714 136.502967 
L 853.067143 146.848391 
L 862.563571 157.193815 
L 872.06 167.539239 
L 881.556429 163.343094 
L 891.052857 159.14695 
L 900.549286 154.950805 
L 910.045714 150.754661 
L 919.542143 146.558517 
L 929.038571 142.362372 
L 938.535 138.166228 
L 948.031429 146.409358 
L 957.527857 154.652488 
L 967.024286 162.895618 
L 976.520714 171.138748 
L 986.017143 179.381878 
L 995.513571 187.625008 
L 1005.01 195.868139 
L 1014.506429 184.478604 
L 1024.002857 173.089069 
L 1033.499286 161.699534 
L 1042.995714 150.309999 
L 1052.492143 138.920464 
L 1061.988571 127.530929 
L 1071.485 116.141395 
L 1080.981429 125.69881 
L 1090.477857 135.256226 
L 1099.974286 144.813641 
L 1109.470714 154.371056 
L 1118.967143 163.928472 
L 1128.463571 173.485887 
L 1137.96 183.043303 
" style="fill:none;stroke:#1f77b4;stroke-linecap:round;stroke-width:1.5;"/>
   </g>
   <g id="patch_3">
    <path d="M 74.36 203.689121 
L 74.36 31.6275 
" style="fill:none;stroke:#ffffff;stroke-linecap:square;stroke-linejoin:miter;stroke-width:0.8;"/>
   </g>
   <g id="patch_4">
    <path d="M 1137.96 203.689121 
L 1137.96 31.6275 
" style="fill:none;stroke:#ffffff;stroke-linecap:square;stroke-linejoin:miter;stroke-width:0.8;"/>
   </g>
   <g id="patch_5">
    <path d="M 74.36 203.689121 
L 1137.96 203.689121 
" style="fill:none;stroke:#ffffff;stroke-linecap:square;stroke-linejoin:miter;stroke-width:0.8;"/>
   </g>
   <g id="patch_6">
    <path d="M 74.36 31.6275 
L 1137.96 31.6275 
" style="fill:none;stroke:#ffffff;stroke-linecap:square;stroke-linejoin:miter;stroke-width:0.8;"/>
   </g>
   <g id="text_12">
    <!-- Bacteria;Firmicutes;Clostridia;Unclassified;Unclassified;sf_7;4216 -->
    <g style="fill:#262626;" transform="translate(379.879563 25.6275)scale(0.156 -0.156)">
     <defs>
      <path d="M 7.328125 0 
L 7.328125 71.578125 
L 34.1875 71.578125 
Q 42.390625 71.578125 47.34375 69.40625 
Q 52.296875 67.234375 55.09375 62.71875 
Q 57.90625 58.203125 57.90625 53.265625 
Q 57.90625 48.6875 55.421875 44.625 
Q 52.9375 40.578125 47.90625 38.09375 
Q 54.390625 36.1875 57.875 31.59375 
Q 61.375 27 61.375 20.75 
Q 61.375 15.71875 59.25 11.390625 
Q 57.125 7.078125 54 4.734375 
Q 50.875 2.390625 46.15625 1.1875 
Q 41.453125 0 34.625 0 
z
M 16.796875 41.5 
L 32.28125 41.5 
Q 38.578125 41.5 41.3125 42.328125 
Q 44.921875 43.40625 46.75 45.890625 
Q 48.578125 48.390625 48.578125 52.15625 
Q 48.578125 55.71875 46.875 58.421875 
Q 45.171875 61.140625 41.984375 62.140625 
Q 38.8125 63.140625 31.109375 63.140625 
L 16.796875 63.140625 
z
M 16.796875 8.453125 
L 34.625 8.453125 
Q 39.203125 8.453125 41.0625 8.796875 
Q 44.34375 9.375 46.53125 10.734375 
Q 48.734375 12.109375 50.140625 14.71875 
Q 51.5625 17.328125 51.5625 20.75 
Q 51.5625 24.75 49.515625 27.703125 
Q 47.46875 30.671875 43.828125 31.859375 
Q 40.1875 33.0625 33.34375 33.0625 
L 16.796875 33.0625 
z
" id="ArialMT-66"/>
      <path d="M 40.4375 6.390625 
Q 35.546875 2.25 31.03125 0.53125 
Q 26.515625 -1.171875 21.34375 -1.171875 
Q 12.796875 -1.171875 8.203125 3 
Q 3.609375 7.171875 3.609375 13.671875 
Q 3.609375 17.484375 5.34375 20.625 
Q 7.078125 23.78125 9.890625 25.6875 
Q 12.703125 27.59375 16.21875 28.5625 
Q 18.796875 29.25 24.03125 29.890625 
Q 34.671875 31.15625 39.703125 32.90625 
Q 39.75 34.71875 39.75 35.203125 
Q 39.75 40.578125 37.25 42.78125 
Q 33.890625 45.75 27.25 45.75 
Q 21.046875 45.75 18.09375 43.578125 
Q 15.140625 41.40625 13.71875 35.890625 
L 5.125 37.0625 
Q 6.296875 42.578125 8.984375 45.96875 
Q 11.671875 49.359375 16.75 51.1875 
Q 21.828125 53.03125 28.515625 53.03125 
Q 35.15625 53.03125 39.296875 51.46875 
Q 43.453125 49.90625 45.40625 47.53125 
Q 47.359375 45.171875 48.140625 41.546875 
Q 48.578125 39.3125 48.578125 33.453125 
L 48.578125 21.734375 
Q 48.578125 9.46875 49.140625 6.21875 
Q 49.703125 2.984375 51.375 0 
L 42.1875 0 
Q 40.828125 2.734375 40.4375 6.390625 
z
M 39.703125 26.03125 
Q 34.90625 24.078125 25.34375 22.703125 
Q 19.921875 21.921875 17.671875 20.9375 
Q 15.4375 19.96875 14.203125 18.09375 
Q 12.984375 16.21875 12.984375 13.921875 
Q 12.984375 10.40625 15.640625 8.0625 
Q 18.3125 5.71875 23.4375 5.71875 
Q 28.515625 5.71875 32.46875 7.9375 
Q 36.421875 10.15625 38.28125 14.015625 
Q 39.703125 17 39.703125 22.796875 
z
" id="ArialMT-97"/>
      <path d="M 40.4375 19 
L 49.078125 17.875 
Q 47.65625 8.9375 41.8125 3.875 
Q 35.984375 -1.171875 27.484375 -1.171875 
Q 16.84375 -1.171875 10.375 5.78125 
Q 3.90625 12.75 3.90625 25.734375 
Q 3.90625 34.125 6.6875 40.421875 
Q 9.46875 46.734375 15.15625 49.875 
Q 20.84375 53.03125 27.546875 53.03125 
Q 35.984375 53.03125 41.359375 48.75 
Q 46.734375 44.484375 48.25 36.625 
L 39.703125 35.296875 
Q 38.484375 40.53125 35.375 43.15625 
Q 32.28125 45.796875 27.875 45.796875 
Q 21.234375 45.796875 17.078125 41.03125 
Q 12.9375 36.28125 12.9375 25.984375 
Q 12.9375 15.53125 16.9375 10.796875 
Q 20.953125 6.0625 27.390625 6.0625 
Q 32.5625 6.0625 36.03125 9.234375 
Q 39.5 12.40625 40.4375 19 
z
" id="ArialMT-99"/>
      <path d="M 25.78125 7.859375 
L 27.046875 0.09375 
Q 23.34375 -0.6875 20.40625 -0.6875 
Q 15.625 -0.6875 12.984375 0.828125 
Q 10.359375 2.34375 9.28125 4.8125 
Q 8.203125 7.28125 8.203125 15.1875 
L 8.203125 45.015625 
L 1.765625 45.015625 
L 1.765625 51.859375 
L 8.203125 51.859375 
L 8.203125 64.703125 
L 16.9375 69.96875 
L 16.9375 51.859375 
L 25.78125 51.859375 
L 25.78125 45.015625 
L 16.9375 45.015625 
L 16.9375 14.703125 
Q 16.9375 10.9375 17.40625 9.859375 
Q 17.875 8.796875 18.921875 8.15625 
Q 19.96875 7.515625 21.921875 7.515625 
Q 23.390625 7.515625 25.78125 7.859375 
z
" id="ArialMT-116"/>
      <path d="M 42.09375 16.703125 
L 51.171875 15.578125 
Q 49.03125 7.625 43.21875 3.21875 
Q 37.40625 -1.171875 28.375 -1.171875 
Q 17 -1.171875 10.328125 5.828125 
Q 3.65625 12.84375 3.65625 25.484375 
Q 3.65625 38.578125 10.390625 45.796875 
Q 17.140625 53.03125 27.875 53.03125 
Q 38.28125 53.03125 44.875 45.953125 
Q 51.46875 38.875 51.46875 26.03125 
Q 51.46875 25.25 51.421875 23.6875 
L 12.75 23.6875 
Q 13.234375 15.140625 17.578125 10.59375 
Q 21.921875 6.0625 28.421875 6.0625 
Q 33.25 6.0625 36.671875 8.59375 
Q 40.09375 11.140625 42.09375 16.703125 
z
M 13.234375 30.90625 
L 42.1875 30.90625 
Q 41.609375 37.453125 38.875 40.71875 
Q 34.671875 45.796875 27.984375 45.796875 
Q 21.921875 45.796875 17.796875 41.75 
Q 13.671875 37.703125 13.234375 30.90625 
z
" id="ArialMT-101"/>
      <path d="M 6.5 0 
L 6.5 51.859375 
L 14.40625 51.859375 
L 14.40625 44 
Q 17.4375 49.515625 20 51.265625 
Q 22.5625 53.03125 25.640625 53.03125 
Q 30.078125 53.03125 34.671875 50.203125 
L 31.640625 42.046875 
Q 28.421875 43.953125 25.203125 43.953125 
Q 22.3125 43.953125 20.015625 42.21875 
Q 17.71875 40.484375 16.75 37.40625 
Q 15.28125 32.71875 15.28125 27.15625 
L 15.28125 0 
z
" id="ArialMT-114"/>
      <path d="M 6.640625 61.46875 
L 6.640625 71.578125 
L 15.4375 71.578125 
L 15.4375 61.46875 
z
M 6.640625 0 
L 6.640625 51.859375 
L 15.4375 51.859375 
L 15.4375 0 
z
" id="ArialMT-105"/>
      <path d="M 8.890625 41.84375 
L 8.890625 51.859375 
L 18.890625 51.859375 
L 18.890625 41.84375 
z
M 8.890625 0 
L 8.890625 10.015625 
L 18.890625 10.015625 
L 18.890625 0 
Q 18.890625 -5.515625 16.9375 -8.90625 
Q 14.984375 -12.3125 10.75 -14.15625 
L 8.296875 -10.40625 
Q 11.078125 -9.1875 12.390625 -6.8125 
Q 13.71875 -4.4375 13.875 0 
z
" id="ArialMT-59"/>
      <path d="M 8.203125 0 
L 8.203125 71.578125 
L 56.5 71.578125 
L 56.5 63.140625 
L 17.671875 63.140625 
L 17.671875 40.96875 
L 51.265625 40.96875 
L 51.265625 32.515625 
L 17.671875 32.515625 
L 17.671875 0 
z
" id="ArialMT-70"/>
      <path d="M 6.59375 0 
L 6.59375 51.859375 
L 14.453125 51.859375 
L 14.453125 44.578125 
Q 16.890625 48.390625 20.9375 50.703125 
Q 25 53.03125 30.171875 53.03125 
Q 35.9375 53.03125 39.625 50.640625 
Q 43.3125 48.25 44.828125 43.953125 
Q 50.984375 53.03125 60.84375 53.03125 
Q 68.5625 53.03125 72.703125 48.75 
Q 76.859375 44.484375 76.859375 35.59375 
L 76.859375 0 
L 68.109375 0 
L 68.109375 32.671875 
Q 68.109375 37.9375 67.25 40.25 
Q 66.40625 42.578125 64.15625 43.984375 
Q 61.921875 45.40625 58.890625 45.40625 
Q 53.421875 45.40625 49.796875 41.765625 
Q 46.1875 38.140625 46.1875 30.125 
L 46.1875 0 
L 37.40625 0 
L 37.40625 33.6875 
Q 37.40625 39.546875 35.25 42.46875 
Q 33.109375 45.40625 28.21875 45.40625 
Q 24.515625 45.40625 21.359375 43.453125 
Q 18.21875 41.5 16.796875 37.734375 
Q 15.375 33.984375 15.375 26.90625 
L 15.375 0 
z
" id="ArialMT-109"/>
      <path d="M 40.578125 0 
L 40.578125 7.625 
Q 34.515625 -1.171875 24.125 -1.171875 
Q 19.53125 -1.171875 15.546875 0.578125 
Q 11.578125 2.34375 9.640625 5 
Q 7.71875 7.671875 6.9375 11.53125 
Q 6.390625 14.109375 6.390625 19.734375 
L 6.390625 51.859375 
L 15.1875 51.859375 
L 15.1875 23.09375 
Q 15.1875 16.21875 15.71875 13.8125 
Q 16.546875 10.359375 19.234375 8.375 
Q 21.921875 6.390625 25.875 6.390625 
Q 29.828125 6.390625 33.296875 8.421875 
Q 36.765625 10.453125 38.203125 13.9375 
Q 39.65625 17.4375 39.65625 24.078125 
L 39.65625 51.859375 
L 48.4375 51.859375 
L 48.4375 0 
z
" id="ArialMT-117"/>
      <path d="M 3.078125 15.484375 
L 11.765625 16.84375 
Q 12.5 11.625 15.84375 8.84375 
Q 19.1875 6.0625 25.203125 6.0625 
Q 31.25 6.0625 34.171875 8.515625 
Q 37.109375 10.984375 37.109375 14.3125 
Q 37.109375 17.28125 34.515625 19 
Q 32.71875 20.171875 25.53125 21.96875 
Q 15.875 24.421875 12.140625 26.203125 
Q 8.40625 27.984375 6.46875 31.125 
Q 4.546875 34.28125 4.546875 38.09375 
Q 4.546875 41.546875 6.125 44.5 
Q 7.71875 47.46875 10.453125 49.421875 
Q 12.5 50.921875 16.03125 51.96875 
Q 19.578125 53.03125 23.640625 53.03125 
Q 29.734375 53.03125 34.34375 51.265625 
Q 38.96875 49.515625 41.15625 46.5 
Q 43.359375 43.5 44.1875 38.484375 
L 35.59375 37.3125 
Q 35.015625 41.3125 32.203125 43.546875 
Q 29.390625 45.796875 24.265625 45.796875 
Q 18.21875 45.796875 15.625 43.796875 
Q 13.03125 41.796875 13.03125 39.109375 
Q 13.03125 37.40625 14.109375 36.03125 
Q 15.1875 34.625 17.484375 33.6875 
Q 18.796875 33.203125 25.25 31.453125 
Q 34.578125 28.953125 38.25 27.359375 
Q 41.9375 25.78125 44.03125 22.75 
Q 46.140625 19.734375 46.140625 15.234375 
Q 46.140625 10.84375 43.578125 6.953125 
Q 41.015625 3.078125 36.171875 0.953125 
Q 31.34375 -1.171875 25.25 -1.171875 
Q 15.140625 -1.171875 9.84375 3.03125 
Q 4.546875 7.234375 3.078125 15.484375 
z
" id="ArialMT-115"/>
      <path d="M 58.796875 25.09375 
L 68.265625 22.703125 
Q 65.28125 11.03125 57.546875 4.90625 
Q 49.8125 -1.21875 38.625 -1.21875 
Q 27.046875 -1.21875 19.796875 3.484375 
Q 12.546875 8.203125 8.765625 17.140625 
Q 4.984375 26.078125 4.984375 36.328125 
Q 4.984375 47.515625 9.25 55.828125 
Q 13.53125 64.15625 21.40625 68.46875 
Q 29.296875 72.796875 38.765625 72.796875 
Q 49.515625 72.796875 56.828125 67.328125 
Q 64.15625 61.859375 67.046875 51.953125 
L 57.71875 49.75 
Q 55.21875 57.5625 50.484375 61.125 
Q 45.75 64.703125 38.578125 64.703125 
Q 30.328125 64.703125 24.78125 60.734375 
Q 19.234375 56.78125 16.984375 50.109375 
Q 14.75 43.453125 14.75 36.375 
Q 14.75 27.25 17.40625 20.4375 
Q 20.0625 13.625 25.671875 10.25 
Q 31.296875 6.890625 37.84375 6.890625 
Q 45.796875 6.890625 51.3125 11.46875 
Q 56.84375 16.0625 58.796875 25.09375 
z
" id="ArialMT-67"/>
      <path d="M 6.390625 0 
L 6.390625 71.578125 
L 15.1875 71.578125 
L 15.1875 0 
z
" id="ArialMT-108"/>
      <path d="M 3.328125 25.921875 
Q 3.328125 40.328125 11.328125 47.265625 
Q 18.015625 53.03125 27.640625 53.03125 
Q 38.328125 53.03125 45.109375 46.015625 
Q 51.90625 39.015625 51.90625 26.65625 
Q 51.90625 16.65625 48.90625 10.90625 
Q 45.90625 5.171875 40.15625 2 
Q 34.421875 -1.171875 27.640625 -1.171875 
Q 16.75 -1.171875 10.03125 5.8125 
Q 3.328125 12.796875 3.328125 25.921875 
z
M 12.359375 25.921875 
Q 12.359375 15.96875 16.703125 11.015625 
Q 21.046875 6.0625 27.640625 6.0625 
Q 34.1875 6.0625 38.53125 11.03125 
Q 42.875 16.015625 42.875 26.21875 
Q 42.875 35.84375 38.5 40.796875 
Q 34.125 45.75 27.640625 45.75 
Q 21.046875 45.75 16.703125 40.8125 
Q 12.359375 35.890625 12.359375 25.921875 
z
" id="ArialMT-111"/>
      <path d="M 40.234375 0 
L 40.234375 6.546875 
Q 35.296875 -1.171875 25.734375 -1.171875 
Q 19.53125 -1.171875 14.328125 2.25 
Q 9.125 5.671875 6.265625 11.796875 
Q 3.421875 17.921875 3.421875 25.875 
Q 3.421875 33.640625 6 39.96875 
Q 8.59375 46.296875 13.765625 49.65625 
Q 18.953125 53.03125 25.34375 53.03125 
Q 30.03125 53.03125 33.6875 51.046875 
Q 37.359375 49.078125 39.65625 45.90625 
L 39.65625 71.578125 
L 48.390625 71.578125 
L 48.390625 0 
z
M 12.453125 25.875 
Q 12.453125 15.921875 16.640625 10.984375 
Q 20.84375 6.0625 26.5625 6.0625 
Q 32.328125 6.0625 36.34375 10.765625 
Q 40.375 15.484375 40.375 25.140625 
Q 40.375 35.796875 36.265625 40.765625 
Q 32.171875 45.75 26.171875 45.75 
Q 20.3125 45.75 16.375 40.96875 
Q 12.453125 36.1875 12.453125 25.875 
z
" id="ArialMT-100"/>
      <path d="M 54.6875 71.578125 
L 64.15625 71.578125 
L 64.15625 30.21875 
Q 64.15625 19.4375 61.71875 13.078125 
Q 59.28125 6.734375 52.90625 2.75 
Q 46.53125 -1.21875 36.1875 -1.21875 
Q 26.125 -1.21875 19.71875 2.25 
Q 13.328125 5.71875 10.59375 12.28125 
Q 7.859375 18.84375 7.859375 30.21875 
L 7.859375 71.578125 
L 17.328125 71.578125 
L 17.328125 30.28125 
Q 17.328125 20.953125 19.0625 16.53125 
Q 20.796875 12.109375 25.015625 9.71875 
Q 29.25 7.328125 35.359375 7.328125 
Q 45.796875 7.328125 50.234375 12.0625 
Q 54.6875 16.796875 54.6875 30.28125 
z
" id="ArialMT-85"/>
      <path d="M 6.59375 0 
L 6.59375 51.859375 
L 14.5 51.859375 
L 14.5 44.484375 
Q 20.21875 53.03125 31 53.03125 
Q 35.6875 53.03125 39.625 51.34375 
Q 43.5625 49.65625 45.515625 46.921875 
Q 47.46875 44.1875 48.25 40.4375 
Q 48.734375 37.984375 48.734375 31.890625 
L 48.734375 0 
L 39.9375 0 
L 39.9375 31.546875 
Q 39.9375 36.921875 38.90625 39.578125 
Q 37.890625 42.234375 35.28125 43.8125 
Q 32.671875 45.40625 29.15625 45.40625 
Q 23.53125 45.40625 19.453125 41.84375 
Q 15.375 38.28125 15.375 28.328125 
L 15.375 0 
z
" id="ArialMT-110"/>
      <path d="M 8.6875 0 
L 8.6875 45.015625 
L 0.921875 45.015625 
L 0.921875 51.859375 
L 8.6875 51.859375 
L 8.6875 57.375 
Q 8.6875 62.59375 9.625 65.140625 
Q 10.890625 68.5625 14.078125 70.671875 
Q 17.28125 72.796875 23.046875 72.796875 
Q 26.765625 72.796875 31.25 71.921875 
L 29.9375 64.265625 
Q 27.203125 64.75 24.75 64.75 
Q 20.75 64.75 19.09375 63.03125 
Q 17.4375 61.328125 17.4375 56.640625 
L 17.4375 51.859375 
L 27.546875 51.859375 
L 27.546875 45.015625 
L 17.4375 45.015625 
L 17.4375 0 
z
" id="ArialMT-102"/>
      <path d="M -1.515625 -19.875 
L -1.515625 -13.53125 
L 56.734375 -13.53125 
L 56.734375 -19.875 
z
" id="ArialMT-95"/>
      <path d="M 4.734375 62.203125 
L 4.734375 70.65625 
L 51.078125 70.65625 
L 51.078125 63.8125 
Q 44.234375 56.546875 37.515625 44.484375 
Q 30.8125 32.421875 27.15625 19.671875 
Q 24.515625 10.6875 23.78125 0 
L 14.75 0 
Q 14.890625 8.453125 18.0625 20.40625 
Q 21.234375 32.375 27.171875 43.484375 
Q 33.109375 54.59375 39.796875 62.203125 
z
" id="ArialMT-55"/>
     </defs>
     <use xlink:href="#ArialMT-66"/>
     <use x="66.699219" xlink:href="#ArialMT-97"/>
     <use x="122.314453" xlink:href="#ArialMT-99"/>
     <use x="172.314453" xlink:href="#ArialMT-116"/>
     <use x="200.097656" xlink:href="#ArialMT-101"/>
     <use x="255.712891" xlink:href="#ArialMT-114"/>
     <use x="289.013672" xlink:href="#ArialMT-105"/>
     <use x="311.230469" xlink:href="#ArialMT-97"/>
     <use x="366.845703" xlink:href="#ArialMT-59"/>
     <use x="394.628906" xlink:href="#ArialMT-70"/>
     <use x="455.712891" xlink:href="#ArialMT-105"/>
     <use x="477.929688" xlink:href="#ArialMT-114"/>
     <use x="511.230469" xlink:href="#ArialMT-109"/>
     <use x="594.53125" xlink:href="#ArialMT-105"/>
     <use x="616.748047" xlink:href="#ArialMT-99"/>
     <use x="666.748047" xlink:href="#ArialMT-117"/>
     <use x="722.363281" xlink:href="#ArialMT-116"/>
     <use x="750.146484" xlink:href="#ArialMT-101"/>
     <use x="805.761719" xlink:href="#ArialMT-115"/>
     <use x="855.761719" xlink:href="#ArialMT-59"/>
     <use x="883.544922" xlink:href="#ArialMT-67"/>
     <use x="955.761719" xlink:href="#ArialMT-108"/>
     <use x="977.978516" xlink:href="#ArialMT-111"/>
     <use x="1033.59375" xlink:href="#ArialMT-115"/>
     <use x="1083.59375" xlink:href="#ArialMT-116"/>
     <use x="1111.376953" xlink:href="#ArialMT-114"/>
     <use x="1144.677734" xlink:href="#ArialMT-105"/>
     <use x="1166.894531" xlink:href="#ArialMT-100"/>
     <use x="1222.509766" xlink:href="#ArialMT-105"/>
     <use x="1244.726562" xlink:href="#ArialMT-97"/>
     <use x="1300.341797" xlink:href="#ArialMT-59"/>
     <use x="1328.125" xlink:href="#ArialMT-85"/>
     <use x="1400.341797" xlink:href="#ArialMT-110"/>
     <use x="1455.957031" xlink:href="#ArialMT-99"/>
     <use x="1505.957031" xlink:href="#ArialMT-108"/>
     <use x="1528.173828" xlink:href="#ArialMT-97"/>
     <use x="1583.789062" xlink:href="#ArialMT-115"/>
     <use x="1633.789062" xlink:href="#ArialMT-115"/>
     <use x="1683.789062" xlink:href="#ArialMT-105"/>
     <use x="1706.005859" xlink:href="#ArialMT-102"/>
     <use x="1733.789062" xlink:href="#ArialMT-105"/>
     <use x="1756.005859" xlink:href="#ArialMT-101"/>
     <use x="1811.621094" xlink:href="#ArialMT-100"/>
     <use x="1867.236328" xlink:href="#ArialMT-59"/>
     <use x="1895.019531" xlink:href="#ArialMT-85"/>
     <use x="1967.236328" xlink:href="#ArialMT-110"/>
     <use x="2022.851562" xlink:href="#ArialMT-99"/>
     <use x="2072.851562" xlink:href="#ArialMT-108"/>
     <use x="2095.068359" xlink:href="#ArialMT-97"/>
     <use x="2150.683594" xlink:href="#ArialMT-115"/>
     <use x="2200.683594" xlink:href="#ArialMT-115"/>
     <use x="2250.683594" xlink:href="#ArialMT-105"/>
     <use x="2272.900391" xlink:href="#ArialMT-102"/>
     <use x="2300.683594" xlink:href="#ArialMT-105"/>
     <use x="2322.900391" xlink:href="#ArialMT-101"/>
     <use x="2378.515625" xlink:href="#ArialMT-100"/>
     <use x="2434.130859" xlink:href="#ArialMT-59"/>
     <use x="2461.914062" xlink:href="#ArialMT-115"/>
     <use x="2511.914062" xlink:href="#ArialMT-102"/>
     <use x="2539.697266" xlink:href="#ArialMT-95"/>
     <use x="2595.3125" xlink:href="#ArialMT-55"/>
     <use x="2650.927734" xlink:href="#ArialMT-59"/>
     <use x="2678.710938" xlink:href="#ArialMT-52"/>
     <use x="2734.326172" xlink:href="#ArialMT-50"/>
     <use x="2789.941406" xlink:href="#ArialMT-49"/>
     <use x="2845.556641" xlink:href="#ArialMT-54"/>
    </g>
   </g>
  </g>
  <g id="axes_2">
   <g id="patch_7">
    <path d="M 74.36 412.459414 
L 1137.96 412.459414 
L 1137.96 240.397793 
L 74.36 240.397793 
z
" style="fill:#eaeaf2;"/>
   </g>
   <g id="matplotlib.axis_3">
    <g id="xtick_8">
     <g id="line2d_13">
      <path clip-path="url(#p95b8a0c3f0)" d="M 178.820714 412.459414 
L 178.820714 240.397793 
" style="fill:none;stroke:#ffffff;stroke-linecap:round;stroke-width:0.8;"/>
     </g>
     <g id="text_13">
      <!-- 2003-01-15 -->
      <g style="fill:#262626;" transform="translate(145.575246 428.76457)scale(0.13 -0.13)">
       <use xlink:href="#ArialMT-50"/>
       <use x="55.615234" xlink:href="#ArialMT-48"/>
       <use x="111.230469" xlink:href="#ArialMT-48"/>
       <use x="166.845703" xlink:href="#ArialMT-51"/>
       <use x="222.460938" xlink:href="#ArialMT-45"/>
       <use x="255.761719" xlink:href="#ArialMT-48"/>
       <use x="311.376953" xlink:href="#ArialMT-49"/>
       <use x="366.992188" xlink:href="#ArialMT-45"/>
       <use x="400.292969" xlink:href="#ArialMT-49"/>
       <use x="455.908203" xlink:href="#ArialMT-53"/>
      </g>
     </g>
    </g>
    <g id="xtick_9">
     <g id="line2d_14">
      <path clip-path="url(#p95b8a0c3f0)" d="M 340.26 412.459414 
L 340.26 240.397793 
" style="fill:none;stroke:#ffffff;stroke-linecap:round;stroke-width:0.8;"/>
     </g>
     <g id="text_14">
      <!-- 2003-02-01 -->
      <g style="fill:#262626;" transform="translate(307.014531 428.76457)scale(0.13 -0.13)">
       <use xlink:href="#ArialMT-50"/>
       <use x="55.615234" xlink:href="#ArialMT-48"/>
       <use x="111.230469" xlink:href="#ArialMT-48"/>
       <use x="166.845703" xlink:href="#ArialMT-51"/>
       <use x="222.460938" xlink:href="#ArialMT-45"/>
       <use x="255.761719" xlink:href="#ArialMT-48"/>
       <use x="311.376953" xlink:href="#ArialMT-50"/>
       <use x="366.992188" xlink:href="#ArialMT-45"/>
       <use x="400.292969" xlink:href="#ArialMT-48"/>
       <use x="455.908203" xlink:href="#ArialMT-49"/>
      </g>
     </g>
    </g>
    <g id="xtick_10">
     <g id="line2d_15">
      <path clip-path="url(#p95b8a0c3f0)" d="M 473.21 412.459414 
L 473.21 240.397793 
" style="fill:none;stroke:#ffffff;stroke-linecap:round;stroke-width:0.8;"/>
     </g>
     <g id="text_15">
      <!-- 2003-02-15 -->
      <g style="fill:#262626;" transform="translate(439.964531 428.76457)scale(0.13 -0.13)">
       <use xlink:href="#ArialMT-50"/>
       <use x="55.615234" xlink:href="#ArialMT-48"/>
       <use x="111.230469" xlink:href="#ArialMT-48"/>
       <use x="166.845703" xlink:href="#ArialMT-51"/>
       <use x="222.460938" xlink:href="#ArialMT-45"/>
       <use x="255.761719" xlink:href="#ArialMT-48"/>
       <use x="311.376953" xlink:href="#ArialMT-50"/>
       <use x="366.992188" xlink:href="#ArialMT-45"/>
       <use x="400.292969" xlink:href="#ArialMT-49"/>
       <use x="455.908203" xlink:href="#ArialMT-53"/>
      </g>
     </g>
    </g>
    <g id="xtick_11">
     <g id="line2d_16">
      <path clip-path="url(#p95b8a0c3f0)" d="M 606.16 412.459414 
L 606.16 240.397793 
" style="fill:none;stroke:#ffffff;stroke-linecap:round;stroke-width:0.8;"/>
     </g>
     <g id="text_16">
      <!-- 2003-03-01 -->
      <g style="fill:#262626;" transform="translate(572.914531 428.76457)scale(0.13 -0.13)">
       <use xlink:href="#ArialMT-50"/>
       <use x="55.615234" xlink:href="#ArialMT-48"/>
       <use x="111.230469" xlink:href="#ArialMT-48"/>
       <use x="166.845703" xlink:href="#ArialMT-51"/>
       <use x="222.460938" xlink:href="#ArialMT-45"/>
       <use x="255.761719" xlink:href="#ArialMT-48"/>
       <use x="311.376953" xlink:href="#ArialMT-51"/>
       <use x="366.992188" xlink:href="#ArialMT-45"/>
       <use x="400.292969" xlink:href="#ArialMT-48"/>
       <use x="455.908203" xlink:href="#ArialMT-49"/>
      </g>
     </g>
    </g>
    <g id="xtick_12">
     <g id="line2d_17">
      <path clip-path="url(#p95b8a0c3f0)" d="M 739.11 412.459414 
L 739.11 240.397793 
" style="fill:none;stroke:#ffffff;stroke-linecap:round;stroke-width:0.8;"/>
     </g>
     <g id="text_17">
      <!-- 2003-03-15 -->
      <g style="fill:#262626;" transform="translate(705.864531 428.76457)scale(0.13 -0.13)">
       <use xlink:href="#ArialMT-50"/>
       <use x="55.615234" xlink:href="#ArialMT-48"/>
       <use x="111.230469" xlink:href="#ArialMT-48"/>
       <use x="166.845703" xlink:href="#ArialMT-51"/>
       <use x="222.460938" xlink:href="#ArialMT-45"/>
       <use x="255.761719" xlink:href="#ArialMT-48"/>
       <use x="311.376953" xlink:href="#ArialMT-51"/>
       <use x="366.992188" xlink:href="#ArialMT-45"/>
       <use x="400.292969" xlink:href="#ArialMT-49"/>
       <use x="455.908203" xlink:href="#ArialMT-53"/>
      </g>
     </g>
    </g>
    <g id="xtick_13">
     <g id="line2d_18">
      <path clip-path="url(#p95b8a0c3f0)" d="M 900.549286 412.459414 
L 900.549286 240.397793 
" style="fill:none;stroke:#ffffff;stroke-linecap:round;stroke-width:0.8;"/>
     </g>
     <g id="text_18">
      <!-- 2003-04-01 -->
      <g style="fill:#262626;" transform="translate(867.303817 428.76457)scale(0.13 -0.13)">
       <use xlink:href="#ArialMT-50"/>
       <use x="55.615234" xlink:href="#ArialMT-48"/>
       <use x="111.230469" xlink:href="#ArialMT-48"/>
       <use x="166.845703" xlink:href="#ArialMT-51"/>
       <use x="222.460938" xlink:href="#ArialMT-45"/>
       <use x="255.761719" xlink:href="#ArialMT-48"/>
       <use x="311.376953" xlink:href="#ArialMT-52"/>
       <use x="366.992188" xlink:href="#ArialMT-45"/>
       <use x="400.292969" xlink:href="#ArialMT-48"/>
       <use x="455.908203" xlink:href="#ArialMT-49"/>
      </g>
     </g>
    </g>
    <g id="xtick_14">
     <g id="line2d_19">
      <path clip-path="url(#p95b8a0c3f0)" d="M 1033.499286 412.459414 
L 1033.499286 240.397793 
" style="fill:none;stroke:#ffffff;stroke-linecap:round;stroke-width:0.8;"/>
     </g>
     <g id="text_19">
      <!-- 2003-04-15 -->
      <g style="fill:#262626;" transform="translate(1000.253817 428.76457)scale(0.13 -0.13)">
       <use xlink:href="#ArialMT-50"/>
       <use x="55.615234" xlink:href="#ArialMT-48"/>
       <use x="111.230469" xlink:href="#ArialMT-48"/>
       <use x="166.845703" xlink:href="#ArialMT-51"/>
       <use x="222.460938" xlink:href="#ArialMT-45"/>
       <use x="255.761719" xlink:href="#ArialMT-48"/>
       <use x="311.376953" xlink:href="#ArialMT-52"/>
       <use x="366.992188" xlink:href="#ArialMT-45"/>
       <use x="400.292969" xlink:href="#ArialMT-49"/>
       <use x="455.908203" xlink:href="#ArialMT-53"/>
      </g>
     </g>
    </g>
   </g>
   <g id="matplotlib.axis_4">
    <g id="ytick_5">
     <g id="line2d_20">
      <path clip-path="url(#p95b8a0c3f0)" d="M 74.36 409.305986 
L 1137.96 409.305986 
" style="fill:none;stroke:#ffffff;stroke-linecap:round;stroke-width:0.8;"/>
     </g>
     <g id="text_20">
      <!-- 4000 -->
      <g style="fill:#262626;" transform="translate(38.443125 413.958564)scale(0.13 -0.13)">
       <use xlink:href="#ArialMT-52"/>
       <use x="55.615234" xlink:href="#ArialMT-48"/>
       <use x="111.230469" xlink:href="#ArialMT-48"/>
       <use x="166.845703" xlink:href="#ArialMT-48"/>
      </g>
     </g>
    </g>
    <g id="ytick_6">
     <g id="line2d_21">
      <path clip-path="url(#p95b8a0c3f0)" d="M 74.36 362.236938 
L 1137.96 362.236938 
" style="fill:none;stroke:#ffffff;stroke-linecap:round;stroke-width:0.8;"/>
     </g>
     <g id="text_21">
      <!-- 6000 -->
      <g style="fill:#262626;" transform="translate(38.443125 366.889516)scale(0.13 -0.13)">
       <use xlink:href="#ArialMT-54"/>
       <use x="55.615234" xlink:href="#ArialMT-48"/>
       <use x="111.230469" xlink:href="#ArialMT-48"/>
       <use x="166.845703" xlink:href="#ArialMT-48"/>
      </g>
     </g>
    </g>
    <g id="ytick_7">
     <g id="line2d_22">
      <path clip-path="url(#p95b8a0c3f0)" d="M 74.36 315.167891 
L 1137.96 315.167891 
" style="fill:none;stroke:#ffffff;stroke-linecap:round;stroke-width:0.8;"/>
     </g>
     <g id="text_22">
      <!-- 8000 -->
      <g style="fill:#262626;" transform="translate(38.443125 319.820469)scale(0.13 -0.13)">
       <use xlink:href="#ArialMT-56"/>
       <use x="55.615234" xlink:href="#ArialMT-48"/>
       <use x="111.230469" xlink:href="#ArialMT-48"/>
       <use x="166.845703" xlink:href="#ArialMT-48"/>
      </g>
     </g>
    </g>
    <g id="ytick_8">
     <g id="line2d_23">
      <path clip-path="url(#p95b8a0c3f0)" d="M 74.36 268.098843 
L 1137.96 268.098843 
" style="fill:none;stroke:#ffffff;stroke-linecap:round;stroke-width:0.8;"/>
     </g>
     <g id="text_23">
      <!-- 10000 -->
      <g style="fill:#262626;" transform="translate(31.213906 272.751421)scale(0.13 -0.13)">
       <use xlink:href="#ArialMT-49"/>
       <use x="55.615234" xlink:href="#ArialMT-48"/>
       <use x="111.230469" xlink:href="#ArialMT-48"/>
       <use x="166.845703" xlink:href="#ArialMT-48"/>
       <use x="222.460938" xlink:href="#ArialMT-48"/>
      </g>
     </g>
    </g>
    <g id="text_24">
     <!-- Trend -->
     <g style="fill:#262626;" transform="translate(24.630156 343.163057)rotate(-90)scale(0.13 -0.13)">
      <defs>
       <path d="M 25.921875 0 
L 25.921875 63.140625 
L 2.34375 63.140625 
L 2.34375 71.578125 
L 59.078125 71.578125 
L 59.078125 63.140625 
L 35.40625 63.140625 
L 35.40625 0 
z
" id="ArialMT-84"/>
      </defs>
      <use xlink:href="#ArialMT-84"/>
      <use x="57.333984" xlink:href="#ArialMT-114"/>
      <use x="90.634766" xlink:href="#ArialMT-101"/>
      <use x="146.25" xlink:href="#ArialMT-110"/>
      <use x="201.865234" xlink:href="#ArialMT-100"/>
     </g>
    </g>
   </g>
   <g id="line2d_24">
    <path clip-path="url(#p95b8a0c3f0)" d="M 74.36 389.654226 
L 83.856429 388.721288 
L 93.352857 387.826883 
L 102.849286 386.977607 
L 112.345714 386.177837 
L 121.842143 385.423294 
L 131.338571 384.731946 
L 140.835 384.823141 
L 150.331429 385.361387 
L 159.827857 386.342423 
L 169.324286 387.72254 
L 178.820714 389.392481 
L 188.317143 391.193116 
L 197.813571 392.988578 
L 207.31 394.742291 
L 216.806429 396.455888 
L 226.302857 398.131919 
L 235.799286 399.752251 
L 245.295714 401.242255 
L 254.792143 402.513319 
L 264.288571 403.503889 
L 273.785 404.188493 
L 283.281429 404.564613 
L 292.777857 404.638431 
L 302.274286 404.417262 
L 311.770714 403.886798 
L 321.267143 403.046098 
L 330.763571 401.908652 
L 340.26 400.468996 
L 349.756429 398.724101 
L 359.252857 396.679873 
L 368.749286 394.234133 
L 378.245714 390.971503 
L 387.742143 386.420641 
L 397.238571 380.269026 
L 406.735 372.374323 
L 416.231429 362.712723 
L 425.727857 351.310041 
L 435.224286 338.420155 
L 444.720714 324.757815 
L 454.217143 311.266777 
L 463.713571 298.690883 
L 473.21 287.270814 
L 482.706429 277.023087 
L 492.202857 267.932873 
L 501.699286 260.084315 
L 511.195714 253.917329 
L 520.692143 249.878643 
L 530.188571 248.218776 
L 539.685 249.088373 
L 549.181429 252.523514 
L 558.677857 258.490814 
L 568.174286 266.783683 
L 577.670714 276.93967 
L 587.167143 288.262456 
L 596.663571 300.138347 
L 606.16 312.410783 
L 615.656429 325.085517 
L 625.152857 338.159913 
L 634.649286 351.255008 
L 644.145714 363.016988 
L 653.642143 371.828655 
L 663.138571 376.544828 
L 672.635 376.698972 
L 682.131429 372.225569 
L 691.627857 363.19168 
L 701.124286 350.260184 
L 710.620714 335.291892 
L 720.117143 320.740668 
L 729.613571 308.539135 
L 739.11 299.307701 
L 748.606429 293.085559 
L 758.102857 289.834005 
L 767.599286 289.382555 
L 777.095714 291.443107 
L 786.592143 295.488342 
L 796.088571 300.995252 
L 805.585 307.861516 
L 815.081429 316.103316 
L 824.577857 325.704172 
L 834.074286 336.355849 
L 843.570714 347.072615 
L 853.067143 356.602191 
L 862.563571 364.001399 
L 872.06 368.928999 
L 881.556429 371.346958 
L 891.052857 371.291846 
L 900.549286 369.164961 
L 910.045714 366.118869 
L 919.542143 363.641053 
L 929.038571 362.886222 
L 938.535 364.237606 
L 948.031429 367.720813 
L 957.527857 373.307529 
L 967.024286 380.554092 
L 976.520714 388.069369 
L 986.017143 394.074216 
L 995.513571 397.221722 
L 1005.01 397.035046 
L 1014.506429 393.463086 
L 1024.002857 386.553141 
L 1033.499286 376.898188 
L 1042.995714 366.249803 
L 1052.492143 356.844975 
L 1061.988571 350.402683 
L 1071.485 347.510631 
L 1080.981429 348.213896 
L 1090.477857 355.267599 
L 1099.974286 362.895717 
L 1109.470714 370.878461 
L 1118.967143 379.255934 
L 1128.463571 388.006272 
L 1137.96 397.089 
" style="fill:none;stroke:#1f77b4;stroke-linecap:round;stroke-width:1.5;"/>
   </g>
   <g id="patch_8">
    <path d="M 74.36 412.459414 
L 74.36 240.397793 
" style="fill:none;stroke:#ffffff;stroke-linecap:square;stroke-linejoin:miter;stroke-width:0.8;"/>
   </g>
   <g id="patch_9">
    <path d="M 1137.96 412.459414 
L 1137.96 240.397793 
" style="fill:none;stroke:#ffffff;stroke-linecap:square;stroke-linejoin:miter;stroke-width:0.8;"/>
   </g>
   <g id="patch_10">
    <path d="M 74.36 412.459414 
L 1137.96 412.459414 
" style="fill:none;stroke:#ffffff;stroke-linecap:square;stroke-linejoin:miter;stroke-width:0.8;"/>
   </g>
   <g id="patch_11">
    <path d="M 74.36 240.397793 
L 1137.96 240.397793 
" style="fill:none;stroke:#ffffff;stroke-linecap:square;stroke-linejoin:miter;stroke-width:0.8;"/>
   </g>
  </g>
  <g id="axes_3">
   <g id="patch_12">
    <path d="M 74.36 621.229707 
L 1137.96 621.229707 
L 1137.96 449.168086 
L 74.36 449.168086 
z
" style="fill:#eaeaf2;"/>
   </g>
   <g id="matplotlib.axis_5">
    <g id="xtick_15">
     <g id="line2d_25">
      <path clip-path="url(#p774166039b)" d="M 178.820714 621.229707 
L 178.820714 449.168086 
" style="fill:none;stroke:#ffffff;stroke-linecap:round;stroke-width:0.8;"/>
     </g>
     <g id="text_25">
      <!-- 2003-01-15 -->
      <g style="fill:#262626;" transform="translate(145.575246 637.534863)scale(0.13 -0.13)">
       <use xlink:href="#ArialMT-50"/>
       <use x="55.615234" xlink:href="#ArialMT-48"/>
       <use x="111.230469" xlink:href="#ArialMT-48"/>
       <use x="166.845703" xlink:href="#ArialMT-51"/>
       <use x="222.460938" xlink:href="#ArialMT-45"/>
       <use x="255.761719" xlink:href="#ArialMT-48"/>
       <use x="311.376953" xlink:href="#ArialMT-49"/>
       <use x="366.992188" xlink:href="#ArialMT-45"/>
       <use x="400.292969" xlink:href="#ArialMT-49"/>
       <use x="455.908203" xlink:href="#ArialMT-53"/>
      </g>
     </g>
    </g>
    <g id="xtick_16">
     <g id="line2d_26">
      <path clip-path="url(#p774166039b)" d="M 340.26 621.229707 
L 340.26 449.168086 
" style="fill:none;stroke:#ffffff;stroke-linecap:round;stroke-width:0.8;"/>
     </g>
     <g id="text_26">
      <!-- 2003-02-01 -->
      <g style="fill:#262626;" transform="translate(307.014531 637.534863)scale(0.13 -0.13)">
       <use xlink:href="#ArialMT-50"/>
       <use x="55.615234" xlink:href="#ArialMT-48"/>
       <use x="111.230469" xlink:href="#ArialMT-48"/>
       <use x="166.845703" xlink:href="#ArialMT-51"/>
       <use x="222.460938" xlink:href="#ArialMT-45"/>
       <use x="255.761719" xlink:href="#ArialMT-48"/>
       <use x="311.376953" xlink:href="#ArialMT-50"/>
       <use x="366.992188" xlink:href="#ArialMT-45"/>
       <use x="400.292969" xlink:href="#ArialMT-48"/>
       <use x="455.908203" xlink:href="#ArialMT-49"/>
      </g>
     </g>
    </g>
    <g id="xtick_17">
     <g id="line2d_27">
      <path clip-path="url(#p774166039b)" d="M 473.21 621.229707 
L 473.21 449.168086 
" style="fill:none;stroke:#ffffff;stroke-linecap:round;stroke-width:0.8;"/>
     </g>
     <g id="text_27">
      <!-- 2003-02-15 -->
      <g style="fill:#262626;" transform="translate(439.964531 637.534863)scale(0.13 -0.13)">
       <use xlink:href="#ArialMT-50"/>
       <use x="55.615234" xlink:href="#ArialMT-48"/>
       <use x="111.230469" xlink:href="#ArialMT-48"/>
       <use x="166.845703" xlink:href="#ArialMT-51"/>
       <use x="222.460938" xlink:href="#ArialMT-45"/>
       <use x="255.761719" xlink:href="#ArialMT-48"/>
       <use x="311.376953" xlink:href="#ArialMT-50"/>
       <use x="366.992188" xlink:href="#ArialMT-45"/>
       <use x="400.292969" xlink:href="#ArialMT-49"/>
       <use x="455.908203" xlink:href="#ArialMT-53"/>
      </g>
     </g>
    </g>
    <g id="xtick_18">
     <g id="line2d_28">
      <path clip-path="url(#p774166039b)" d="M 606.16 621.229707 
L 606.16 449.168086 
" style="fill:none;stroke:#ffffff;stroke-linecap:round;stroke-width:0.8;"/>
     </g>
     <g id="text_28">
      <!-- 2003-03-01 -->
      <g style="fill:#262626;" transform="translate(572.914531 637.534863)scale(0.13 -0.13)">
       <use xlink:href="#ArialMT-50"/>
       <use x="55.615234" xlink:href="#ArialMT-48"/>
       <use x="111.230469" xlink:href="#ArialMT-48"/>
       <use x="166.845703" xlink:href="#ArialMT-51"/>
       <use x="222.460938" xlink:href="#ArialMT-45"/>
       <use x="255.761719" xlink:href="#ArialMT-48"/>
       <use x="311.376953" xlink:href="#ArialMT-51"/>
       <use x="366.992188" xlink:href="#ArialMT-45"/>
       <use x="400.292969" xlink:href="#ArialMT-48"/>
       <use x="455.908203" xlink:href="#ArialMT-49"/>
      </g>
     </g>
    </g>
    <g id="xtick_19">
     <g id="line2d_29">
      <path clip-path="url(#p774166039b)" d="M 739.11 621.229707 
L 739.11 449.168086 
" style="fill:none;stroke:#ffffff;stroke-linecap:round;stroke-width:0.8;"/>
     </g>
     <g id="text_29">
      <!-- 2003-03-15 -->
      <g style="fill:#262626;" transform="translate(705.864531 637.534863)scale(0.13 -0.13)">
       <use xlink:href="#ArialMT-50"/>
       <use x="55.615234" xlink:href="#ArialMT-48"/>
       <use x="111.230469" xlink:href="#ArialMT-48"/>
       <use x="166.845703" xlink:href="#ArialMT-51"/>
       <use x="222.460938" xlink:href="#ArialMT-45"/>
       <use x="255.761719" xlink:href="#ArialMT-48"/>
       <use x="311.376953" xlink:href="#ArialMT-51"/>
       <use x="366.992188" xlink:href="#ArialMT-45"/>
       <use x="400.292969" xlink:href="#ArialMT-49"/>
       <use x="455.908203" xlink:href="#ArialMT-53"/>
      </g>
     </g>
    </g>
    <g id="xtick_20">
     <g id="line2d_30">
      <path clip-path="url(#p774166039b)" d="M 900.549286 621.229707 
L 900.549286 449.168086 
" style="fill:none;stroke:#ffffff;stroke-linecap:round;stroke-width:0.8;"/>
     </g>
     <g id="text_30">
      <!-- 2003-04-01 -->
      <g style="fill:#262626;" transform="translate(867.303817 637.534863)scale(0.13 -0.13)">
       <use xlink:href="#ArialMT-50"/>
       <use x="55.615234" xlink:href="#ArialMT-48"/>
       <use x="111.230469" xlink:href="#ArialMT-48"/>
       <use x="166.845703" xlink:href="#ArialMT-51"/>
       <use x="222.460938" xlink:href="#ArialMT-45"/>
       <use x="255.761719" xlink:href="#ArialMT-48"/>
       <use x="311.376953" xlink:href="#ArialMT-52"/>
       <use x="366.992188" xlink:href="#ArialMT-45"/>
       <use x="400.292969" xlink:href="#ArialMT-48"/>
       <use x="455.908203" xlink:href="#ArialMT-49"/>
      </g>
     </g>
    </g>
    <g id="xtick_21">
     <g id="line2d_31">
      <path clip-path="url(#p774166039b)" d="M 1033.499286 621.229707 
L 1033.499286 449.168086 
" style="fill:none;stroke:#ffffff;stroke-linecap:round;stroke-width:0.8;"/>
     </g>
     <g id="text_31">
      <!-- 2003-04-15 -->
      <g style="fill:#262626;" transform="translate(1000.253817 637.534863)scale(0.13 -0.13)">
       <use xlink:href="#ArialMT-50"/>
       <use x="55.615234" xlink:href="#ArialMT-48"/>
       <use x="111.230469" xlink:href="#ArialMT-48"/>
       <use x="166.845703" xlink:href="#ArialMT-51"/>
       <use x="222.460938" xlink:href="#ArialMT-45"/>
       <use x="255.761719" xlink:href="#ArialMT-48"/>
       <use x="311.376953" xlink:href="#ArialMT-52"/>
       <use x="366.992188" xlink:href="#ArialMT-45"/>
       <use x="400.292969" xlink:href="#ArialMT-49"/>
       <use x="455.908203" xlink:href="#ArialMT-53"/>
      </g>
     </g>
    </g>
   </g>
   <g id="matplotlib.axis_6">
    <g id="ytick_9">
     <g id="line2d_32">
      <path clip-path="url(#p774166039b)" d="M 74.36 585.826456 
L 1137.96 585.826456 
" style="fill:none;stroke:#ffffff;stroke-linecap:round;stroke-width:0.8;"/>
     </g>
     <g id="text_32">
      <!-- 20 -->
      <g style="fill:#262626;" transform="translate(45.30875 590.479034)scale(0.13 -0.13)">
       <defs>
        <path d="M 52.828125 31.203125 
L 5.5625 31.203125 
L 5.5625 39.40625 
L 52.828125 39.40625 
z
" id="ArialMT-8722"/>
       </defs>
       <use xlink:href="#ArialMT-8722"/>
       <use x="58.398438" xlink:href="#ArialMT-50"/>
       <use x="114.013672" xlink:href="#ArialMT-48"/>
      </g>
     </g>
    </g>
    <g id="ytick_10">
     <g id="line2d_33">
      <path clip-path="url(#p774166039b)" d="M 74.36 541.198193 
L 1137.96 541.198193 
" style="fill:none;stroke:#ffffff;stroke-linecap:round;stroke-width:0.8;"/>
     </g>
     <g id="text_33">
      <!-- 0 -->
      <g style="fill:#262626;" transform="translate(60.130781 545.850771)scale(0.13 -0.13)">
       <use xlink:href="#ArialMT-48"/>
      </g>
     </g>
    </g>
    <g id="ytick_11">
     <g id="line2d_34">
      <path clip-path="url(#p774166039b)" d="M 74.36 496.56993 
L 1137.96 496.56993 
" style="fill:none;stroke:#ffffff;stroke-linecap:round;stroke-width:0.8;"/>
     </g>
     <g id="text_34">
      <!-- 20 -->
      <g style="fill:#262626;" transform="translate(52.901562 501.222508)scale(0.13 -0.13)">
       <use xlink:href="#ArialMT-50"/>
       <use x="55.615234" xlink:href="#ArialMT-48"/>
      </g>
     </g>
    </g>
    <g id="ytick_12">
     <g id="line2d_35">
      <path clip-path="url(#p774166039b)" d="M 74.36 451.941667 
L 1137.96 451.941667 
" style="fill:none;stroke:#ffffff;stroke-linecap:round;stroke-width:0.8;"/>
     </g>
     <g id="text_35">
      <!-- 40 -->
      <g style="fill:#262626;" transform="translate(52.901562 456.594245)scale(0.13 -0.13)">
       <use xlink:href="#ArialMT-52"/>
       <use x="55.615234" xlink:href="#ArialMT-48"/>
      </g>
     </g>
    </g>
    <g id="text_36">
     <!-- Season -->
     <g style="fill:#262626;" transform="translate(38.725 557.243037)rotate(-90)scale(0.13 -0.13)">
      <defs>
       <path d="M 4.5 23 
L 13.421875 23.78125 
Q 14.0625 18.40625 16.375 14.96875 
Q 18.703125 11.53125 23.578125 9.40625 
Q 28.46875 7.28125 34.578125 7.28125 
Q 39.984375 7.28125 44.140625 8.890625 
Q 48.296875 10.5 50.3125 13.296875 
Q 52.34375 16.109375 52.34375 19.4375 
Q 52.34375 22.796875 50.390625 25.3125 
Q 48.4375 27.828125 43.953125 29.546875 
Q 41.0625 30.671875 31.203125 33.03125 
Q 21.34375 35.40625 17.390625 37.5 
Q 12.25 40.1875 9.734375 44.15625 
Q 7.234375 48.140625 7.234375 53.078125 
Q 7.234375 58.5 10.296875 63.203125 
Q 13.375 67.921875 19.28125 70.359375 
Q 25.203125 72.796875 32.421875 72.796875 
Q 40.375 72.796875 46.453125 70.234375 
Q 52.546875 67.671875 55.8125 62.6875 
Q 59.078125 57.71875 59.328125 51.421875 
L 50.25 50.734375 
Q 49.515625 57.515625 45.28125 60.984375 
Q 41.0625 64.453125 32.8125 64.453125 
Q 24.21875 64.453125 20.28125 61.296875 
Q 16.359375 58.15625 16.359375 53.71875 
Q 16.359375 49.859375 19.140625 47.359375 
Q 21.875 44.875 33.421875 42.265625 
Q 44.96875 39.65625 49.265625 37.703125 
Q 55.515625 34.8125 58.484375 30.390625 
Q 61.46875 25.984375 61.46875 20.21875 
Q 61.46875 14.5 58.203125 9.4375 
Q 54.9375 4.390625 48.796875 1.578125 
Q 42.671875 -1.21875 35.015625 -1.21875 
Q 25.296875 -1.21875 18.71875 1.609375 
Q 12.15625 4.4375 8.421875 10.125 
Q 4.6875 15.828125 4.5 23 
z
" id="ArialMT-83"/>
      </defs>
      <use xlink:href="#ArialMT-83"/>
      <use x="66.699219" xlink:href="#ArialMT-101"/>
      <use x="122.314453" xlink:href="#ArialMT-97"/>
      <use x="177.929688" xlink:href="#ArialMT-115"/>
      <use x="227.929688" xlink:href="#ArialMT-111"/>
      <use x="283.544922" xlink:href="#ArialMT-110"/>
     </g>
    </g>
   </g>
   <g id="line2d_36">
    <path clip-path="url(#p774166039b)" d="M 74.36 566.124128 
L 83.856429 556.485013 
L 93.352857 545.671957 
L 102.849286 534.226202 
L 112.345714 526.07967 
L 121.842143 526.358176 
L 131.338571 538.100809 
L 140.835 560.016355 
L 150.331429 553.508643 
L 159.827857 545.801417 
L 169.324286 536.84874 
L 178.820714 529.89012 
L 188.317143 529.253291 
L 197.813571 537.561555 
L 207.31 554.069823 
L 216.806429 550.566764 
L 226.302857 545.823672 
L 235.799286 539.277346 
L 245.295714 533.509827 
L 254.792143 532.088641 
L 264.288571 537.239489 
L 273.785 548.549497 
L 283.281429 547.76477 
L 292.777857 545.624898 
L 302.274286 541.306121 
L 311.770714 536.761463 
L 321.267143 534.81685 
L 330.763571 537.303144 
L 340.26 543.785278 
L 349.756429 545.280596 
L 359.252857 545.12576 
L 368.749286 542.743665 
L 378.245714 539.465509 
L 387.742143 537.357662 
L 397.238571 537.827371 
L 406.735 540.037934 
L 416.231429 543.324668 
L 425.727857 544.349257 
L 435.224286 543.538215 
L 444.720714 541.563594 
L 454.217143 539.652267 
L 463.713571 538.711562 
L 473.21 537.315332 
L 482.706429 542.106024 
L 492.202857 543.599924 
L 501.699286 544.077701 
L 511.195714 543.40492 
L 520.692143 541.756908 
L 530.188571 539.374387 
L 539.685 534.540227 
L 549.181429 541.250316 
L 558.677857 543.50172 
L 568.174286 545.599957 
L 577.670714 546.402291 
L 587.167143 544.763919 
L 596.663571 540.050839 
L 606.16 530.920014 
L 615.656429 537.70778 
L 625.152857 541.139317 
L 634.649286 546.354513 
L 644.145714 550.606765 
L 653.642143 550.283531 
L 663.138571 542.978344 
L 672.635 528.869968 
L 682.131429 528.381768 
L 691.627857 533.568157 
L 701.124286 543.934869 
L 710.620714 554.696634 
L 720.117143 558.631646 
L 729.613571 550.698506 
L 739.11 530.626391 
L 748.606429 517.355233 
L 758.102857 524.647007 
L 767.599286 540.697045 
L 777.095714 558.644683 
L 786.592143 567.516968 
L 796.088571 559.531394 
L 805.585 533.415612 
L 815.081429 505.302292 
L 824.577857 515.002469 
L 834.074286 537.00658 
L 843.570714 562.440341 
L 853.067143 576.622135 
L 862.563571 569.05958 
L 872.06 537.018581 
L 881.556429 492.996401 
L 891.052857 504.890085 
L 900.549286 532.792943 
L 910.045714 565.861202 
L 919.542143 585.734903 
L 929.038571 579.226797 
L 938.535 541.699459 
L 948.031429 480.957178 
L 957.527857 494.453309 
L 967.024286 528.048972 
L 976.520714 568.869666 
L 986.017143 594.762546 
L 995.513571 589.745558 
L 1005.01 547.089949 
L 1014.506429 468.994576 
L 1024.002857 483.614802 
L 1033.499286 522.82567 
L 1042.995714 571.630954 
L 1052.492143 603.912189 
L 1061.988571 600.752185 
L 1071.485 553.275706 
L 1080.981429 456.989069 
L 1090.477857 472.344622 
L 1099.974286 517.269957 
L 1109.470714 574.443529 
L 1118.967143 613.408724 
L 1128.463571 612.041798 
L 1137.96 559.554966 
" style="fill:none;stroke:#1f77b4;stroke-linecap:round;stroke-width:1.5;"/>
   </g>
   <g id="patch_13">
    <path d="M 74.36 621.229707 
L 74.36 449.168086 
" style="fill:none;stroke:#ffffff;stroke-linecap:square;stroke-linejoin:miter;stroke-width:0.8;"/>
   </g>
   <g id="patch_14">
    <path d="M 1137.96 621.229707 
L 1137.96 449.168086 
" style="fill:none;stroke:#ffffff;stroke-linecap:square;stroke-linejoin:miter;stroke-width:0.8;"/>
   </g>
   <g id="patch_15">
    <path d="M 74.36 621.229707 
L 1137.96 621.229707 
" style="fill:none;stroke:#ffffff;stroke-linecap:square;stroke-linejoin:miter;stroke-width:0.8;"/>
   </g>
   <g id="patch_16">
    <path d="M 74.36 449.168086 
L 1137.96 449.168086 
" style="fill:none;stroke:#ffffff;stroke-linecap:square;stroke-linejoin:miter;stroke-width:0.8;"/>
   </g>
  </g>
  <g id="axes_4">
   <g id="patch_17">
    <path d="M 74.36 830 
L 1137.96 830 
L 1137.96 657.938379 
L 74.36 657.938379 
z
" style="fill:#eaeaf2;"/>
   </g>
   <g id="line2d_37">
    <path clip-path="url(#pd834f578b5)" d="M 74.36 734.367128 
L 1137.96 734.367128 
" style="fill:none;stroke:#000000;stroke-linecap:round;stroke-width:1.5;"/>
   </g>
   <g id="matplotlib.axis_7">
    <g id="xtick_22">
     <g id="line2d_38">
      <path clip-path="url(#pd834f578b5)" d="M 178.820714 830 
L 178.820714 657.938379 
" style="fill:none;stroke:#ffffff;stroke-linecap:round;stroke-width:0.8;"/>
     </g>
     <g id="text_37">
      <!-- 2003-01-15 -->
      <g style="fill:#262626;" transform="translate(145.575246 846.305156)scale(0.13 -0.13)">
       <use xlink:href="#ArialMT-50"/>
       <use x="55.615234" xlink:href="#ArialMT-48"/>
       <use x="111.230469" xlink:href="#ArialMT-48"/>
       <use x="166.845703" xlink:href="#ArialMT-51"/>
       <use x="222.460938" xlink:href="#ArialMT-45"/>
       <use x="255.761719" xlink:href="#ArialMT-48"/>
       <use x="311.376953" xlink:href="#ArialMT-49"/>
       <use x="366.992188" xlink:href="#ArialMT-45"/>
       <use x="400.292969" xlink:href="#ArialMT-49"/>
       <use x="455.908203" xlink:href="#ArialMT-53"/>
      </g>
     </g>
    </g>
    <g id="xtick_23">
     <g id="line2d_39">
      <path clip-path="url(#pd834f578b5)" d="M 340.26 830 
L 340.26 657.938379 
" style="fill:none;stroke:#ffffff;stroke-linecap:round;stroke-width:0.8;"/>
     </g>
     <g id="text_38">
      <!-- 2003-02-01 -->
      <g style="fill:#262626;" transform="translate(307.014531 846.305156)scale(0.13 -0.13)">
       <use xlink:href="#ArialMT-50"/>
       <use x="55.615234" xlink:href="#ArialMT-48"/>
       <use x="111.230469" xlink:href="#ArialMT-48"/>
       <use x="166.845703" xlink:href="#ArialMT-51"/>
       <use x="222.460938" xlink:href="#ArialMT-45"/>
       <use x="255.761719" xlink:href="#ArialMT-48"/>
       <use x="311.376953" xlink:href="#ArialMT-50"/>
       <use x="366.992188" xlink:href="#ArialMT-45"/>
       <use x="400.292969" xlink:href="#ArialMT-48"/>
       <use x="455.908203" xlink:href="#ArialMT-49"/>
      </g>
     </g>
    </g>
    <g id="xtick_24">
     <g id="line2d_40">
      <path clip-path="url(#pd834f578b5)" d="M 473.21 830 
L 473.21 657.938379 
" style="fill:none;stroke:#ffffff;stroke-linecap:round;stroke-width:0.8;"/>
     </g>
     <g id="text_39">
      <!-- 2003-02-15 -->
      <g style="fill:#262626;" transform="translate(439.964531 846.305156)scale(0.13 -0.13)">
       <use xlink:href="#ArialMT-50"/>
       <use x="55.615234" xlink:href="#ArialMT-48"/>
       <use x="111.230469" xlink:href="#ArialMT-48"/>
       <use x="166.845703" xlink:href="#ArialMT-51"/>
       <use x="222.460938" xlink:href="#ArialMT-45"/>
       <use x="255.761719" xlink:href="#ArialMT-48"/>
       <use x="311.376953" xlink:href="#ArialMT-50"/>
       <use x="366.992188" xlink:href="#ArialMT-45"/>
       <use x="400.292969" xlink:href="#ArialMT-49"/>
       <use x="455.908203" xlink:href="#ArialMT-53"/>
      </g>
     </g>
    </g>
    <g id="xtick_25">
     <g id="line2d_41">
      <path clip-path="url(#pd834f578b5)" d="M 606.16 830 
L 606.16 657.938379 
" style="fill:none;stroke:#ffffff;stroke-linecap:round;stroke-width:0.8;"/>
     </g>
     <g id="text_40">
      <!-- 2003-03-01 -->
      <g style="fill:#262626;" transform="translate(572.914531 846.305156)scale(0.13 -0.13)">
       <use xlink:href="#ArialMT-50"/>
       <use x="55.615234" xlink:href="#ArialMT-48"/>
       <use x="111.230469" xlink:href="#ArialMT-48"/>
       <use x="166.845703" xlink:href="#ArialMT-51"/>
       <use x="222.460938" xlink:href="#ArialMT-45"/>
       <use x="255.761719" xlink:href="#ArialMT-48"/>
       <use x="311.376953" xlink:href="#ArialMT-51"/>
       <use x="366.992188" xlink:href="#ArialMT-45"/>
       <use x="400.292969" xlink:href="#ArialMT-48"/>
       <use x="455.908203" xlink:href="#ArialMT-49"/>
      </g>
     </g>
    </g>
    <g id="xtick_26">
     <g id="line2d_42">
      <path clip-path="url(#pd834f578b5)" d="M 739.11 830 
L 739.11 657.938379 
" style="fill:none;stroke:#ffffff;stroke-linecap:round;stroke-width:0.8;"/>
     </g>
     <g id="text_41">
      <!-- 2003-03-15 -->
      <g style="fill:#262626;" transform="translate(705.864531 846.305156)scale(0.13 -0.13)">
       <use xlink:href="#ArialMT-50"/>
       <use x="55.615234" xlink:href="#ArialMT-48"/>
       <use x="111.230469" xlink:href="#ArialMT-48"/>
       <use x="166.845703" xlink:href="#ArialMT-51"/>
       <use x="222.460938" xlink:href="#ArialMT-45"/>
       <use x="255.761719" xlink:href="#ArialMT-48"/>
       <use x="311.376953" xlink:href="#ArialMT-51"/>
       <use x="366.992188" xlink:href="#ArialMT-45"/>
       <use x="400.292969" xlink:href="#ArialMT-49"/>
       <use x="455.908203" xlink:href="#ArialMT-53"/>
      </g>
     </g>
    </g>
    <g id="xtick_27">
     <g id="line2d_43">
      <path clip-path="url(#pd834f578b5)" d="M 900.549286 830 
L 900.549286 657.938379 
" style="fill:none;stroke:#ffffff;stroke-linecap:round;stroke-width:0.8;"/>
     </g>
     <g id="text_42">
      <!-- 2003-04-01 -->
      <g style="fill:#262626;" transform="translate(867.303817 846.305156)scale(0.13 -0.13)">
       <use xlink:href="#ArialMT-50"/>
       <use x="55.615234" xlink:href="#ArialMT-48"/>
       <use x="111.230469" xlink:href="#ArialMT-48"/>
       <use x="166.845703" xlink:href="#ArialMT-51"/>
       <use x="222.460938" xlink:href="#ArialMT-45"/>
       <use x="255.761719" xlink:href="#ArialMT-48"/>
       <use x="311.376953" xlink:href="#ArialMT-52"/>
       <use x="366.992188" xlink:href="#ArialMT-45"/>
       <use x="400.292969" xlink:href="#ArialMT-48"/>
       <use x="455.908203" xlink:href="#ArialMT-49"/>
      </g>
     </g>
    </g>
    <g id="xtick_28">
     <g id="line2d_44">
      <path clip-path="url(#pd834f578b5)" d="M 1033.499286 830 
L 1033.499286 657.938379 
" style="fill:none;stroke:#ffffff;stroke-linecap:round;stroke-width:0.8;"/>
     </g>
     <g id="text_43">
      <!-- 2003-04-15 -->
      <g style="fill:#262626;" transform="translate(1000.253817 846.305156)scale(0.13 -0.13)">
       <use xlink:href="#ArialMT-50"/>
       <use x="55.615234" xlink:href="#ArialMT-48"/>
       <use x="111.230469" xlink:href="#ArialMT-48"/>
       <use x="166.845703" xlink:href="#ArialMT-51"/>
       <use x="222.460938" xlink:href="#ArialMT-45"/>
       <use x="255.761719" xlink:href="#ArialMT-48"/>
       <use x="311.376953" xlink:href="#ArialMT-52"/>
       <use x="366.992188" xlink:href="#ArialMT-45"/>
       <use x="400.292969" xlink:href="#ArialMT-49"/>
       <use x="455.908203" xlink:href="#ArialMT-53"/>
      </g>
     </g>
    </g>
   </g>
   <g id="matplotlib.axis_8">
    <g id="ytick_13">
     <g id="line2d_45">
      <path clip-path="url(#pd834f578b5)" d="M 74.36 802.384478 
L 1137.96 802.384478 
" style="fill:none;stroke:#ffffff;stroke-linecap:round;stroke-width:0.8;"/>
     </g>
     <g id="text_44">
      <!-- 1000 -->
      <g style="fill:#262626;" transform="translate(30.850313 807.037056)scale(0.13 -0.13)">
       <use xlink:href="#ArialMT-8722"/>
       <use x="58.398438" xlink:href="#ArialMT-49"/>
       <use x="114.013672" xlink:href="#ArialMT-48"/>
       <use x="169.628906" xlink:href="#ArialMT-48"/>
       <use x="225.244141" xlink:href="#ArialMT-48"/>
      </g>
     </g>
    </g>
    <g id="ytick_14">
     <g id="line2d_46">
      <path clip-path="url(#pd834f578b5)" d="M 74.36 768.375803 
L 1137.96 768.375803 
" style="fill:none;stroke:#ffffff;stroke-linecap:round;stroke-width:0.8;"/>
     </g>
     <g id="text_45">
      <!-- 500 -->
      <g style="fill:#262626;" transform="translate(38.079531 773.028381)scale(0.13 -0.13)">
       <use xlink:href="#ArialMT-8722"/>
       <use x="58.398438" xlink:href="#ArialMT-53"/>
       <use x="114.013672" xlink:href="#ArialMT-48"/>
       <use x="169.628906" xlink:href="#ArialMT-48"/>
      </g>
     </g>
    </g>
    <g id="ytick_15">
     <g id="line2d_47">
      <path clip-path="url(#pd834f578b5)" d="M 74.36 734.367128 
L 1137.96 734.367128 
" style="fill:none;stroke:#ffffff;stroke-linecap:round;stroke-width:0.8;"/>
     </g>
     <g id="text_46">
      <!-- 0 -->
      <g style="fill:#262626;" transform="translate(60.130781 739.019706)scale(0.13 -0.13)">
       <use xlink:href="#ArialMT-48"/>
      </g>
     </g>
    </g>
    <g id="ytick_16">
     <g id="line2d_48">
      <path clip-path="url(#pd834f578b5)" d="M 74.36 700.358453 
L 1137.96 700.358453 
" style="fill:none;stroke:#ffffff;stroke-linecap:round;stroke-width:0.8;"/>
     </g>
     <g id="text_47">
      <!-- 500 -->
      <g style="fill:#262626;" transform="translate(45.672344 705.011031)scale(0.13 -0.13)">
       <use xlink:href="#ArialMT-53"/>
       <use x="55.615234" xlink:href="#ArialMT-48"/>
       <use x="111.230469" xlink:href="#ArialMT-48"/>
      </g>
     </g>
    </g>
    <g id="ytick_17">
     <g id="line2d_49">
      <path clip-path="url(#pd834f578b5)" d="M 74.36 666.349778 
L 1137.96 666.349778 
" style="fill:none;stroke:#ffffff;stroke-linecap:round;stroke-width:0.8;"/>
     </g>
     <g id="text_48">
      <!-- 1000 -->
      <g style="fill:#262626;" transform="translate(38.443125 671.002356)scale(0.13 -0.13)">
       <use xlink:href="#ArialMT-49"/>
       <use x="55.615234" xlink:href="#ArialMT-48"/>
       <use x="111.230469" xlink:href="#ArialMT-48"/>
       <use x="166.845703" xlink:href="#ArialMT-48"/>
      </g>
     </g>
    </g>
    <g id="text_49">
     <!-- Resid -->
     <g style="fill:#262626;" transform="translate(24.266562 760.586846)rotate(-90)scale(0.13 -0.13)">
      <defs>
       <path d="M 7.859375 0 
L 7.859375 71.578125 
L 39.59375 71.578125 
Q 49.171875 71.578125 54.140625 69.640625 
Q 59.125 67.71875 62.109375 62.828125 
Q 65.09375 57.953125 65.09375 52.046875 
Q 65.09375 44.4375 60.15625 39.203125 
Q 55.21875 33.984375 44.921875 32.5625 
Q 48.6875 30.765625 50.640625 29 
Q 54.78125 25.203125 58.5 19.484375 
L 70.953125 0 
L 59.03125 0 
L 49.5625 14.890625 
Q 45.40625 21.34375 42.71875 24.75 
Q 40.046875 28.171875 37.921875 29.53125 
Q 35.796875 30.90625 33.59375 31.453125 
Q 31.984375 31.78125 28.328125 31.78125 
L 17.328125 31.78125 
L 17.328125 0 
z
M 17.328125 39.984375 
L 37.703125 39.984375 
Q 44.1875 39.984375 47.84375 41.328125 
Q 51.515625 42.671875 53.421875 45.625 
Q 55.328125 48.578125 55.328125 52.046875 
Q 55.328125 57.125 51.640625 60.390625 
Q 47.953125 63.671875 39.984375 63.671875 
L 17.328125 63.671875 
z
" id="ArialMT-82"/>
      </defs>
      <use xlink:href="#ArialMT-82"/>
      <use x="72.216797" xlink:href="#ArialMT-101"/>
      <use x="127.832031" xlink:href="#ArialMT-115"/>
      <use x="177.832031" xlink:href="#ArialMT-105"/>
      <use x="200.048828" xlink:href="#ArialMT-100"/>
     </g>
    </g>
   </g>
   <g id="line2d_50">
    <defs>
     <path d="M 0 3 
C 0.795609 3 1.55874 2.683901 2.12132 2.12132 
C 2.683901 1.55874 3 0.795609 3 0 
C 3 -0.795609 2.683901 -1.55874 2.12132 -2.12132 
C 1.55874 -2.683901 0.795609 -3 0 -3 
C -0.795609 -3 -1.55874 -2.683901 -2.12132 -2.12132 
C -2.683901 -1.55874 -3 -0.795609 -3 0 
C -3 0.795609 -2.683901 1.55874 -2.12132 2.12132 
C -1.55874 2.683901 -0.795609 3 0 3 
z
" id="mfdcf54bd53" style="stroke:#1f77b4;"/>
    </defs>
    <g clip-path="url(#pd834f578b5)">
     <use style="fill:#1f77b4;stroke:#1f77b4;" x="74.36" xlink:href="#mfdcf54bd53" y="736.193252"/>
     <use style="fill:#1f77b4;stroke:#1f77b4;" x="83.856429" xlink:href="#mfdcf54bd53" y="735.607591"/>
     <use style="fill:#1f77b4;stroke:#1f77b4;" x="93.352857" xlink:href="#mfdcf54bd53" y="734.946353"/>
     <use style="fill:#1f77b4;stroke:#1f77b4;" x="102.849286" xlink:href="#mfdcf54bd53" y="734.17397"/>
     <use style="fill:#1f77b4;stroke:#1f77b4;" x="112.345714" xlink:href="#mfdcf54bd53" y="733.157945"/>
     <use style="fill:#1f77b4;stroke:#1f77b4;" x="121.842143" xlink:href="#mfdcf54bd53" y="731.754396"/>
     <use style="fill:#1f77b4;stroke:#1f77b4;" x="131.338571" xlink:href="#mfdcf54bd53" y="729.818764"/>
     <use style="fill:#1f77b4;stroke:#1f77b4;" x="140.835" xlink:href="#mfdcf54bd53" y="725.311407"/>
     <use style="fill:#1f77b4;stroke:#1f77b4;" x="150.331429" xlink:href="#mfdcf54bd53" y="729.366421"/>
     <use style="fill:#1f77b4;stroke:#1f77b4;" x="159.827857" xlink:href="#mfdcf54bd53" y="732.178287"/>
     <use style="fill:#1f77b4;stroke:#1f77b4;" x="169.324286" xlink:href="#mfdcf54bd53" y="733.874729"/>
     <use style="fill:#1f77b4;stroke:#1f77b4;" x="178.820714" xlink:href="#mfdcf54bd53" y="734.672766"/>
     <use style="fill:#1f77b4;stroke:#1f77b4;" x="188.317143" xlink:href="#mfdcf54bd53" y="734.900382"/>
     <use style="fill:#1f77b4;stroke:#1f77b4;" x="197.813571" xlink:href="#mfdcf54bd53" y="734.870289"/>
     <use style="fill:#1f77b4;stroke:#1f77b4;" x="207.31" xlink:href="#mfdcf54bd53" y="734.710901"/>
     <use style="fill:#1f77b4;stroke:#1f77b4;" x="216.806429" xlink:href="#mfdcf54bd53" y="734.490378"/>
     <use style="fill:#1f77b4;stroke:#1f77b4;" x="226.302857" xlink:href="#mfdcf54bd53" y="734.416224"/>
     <use style="fill:#1f77b4;stroke:#1f77b4;" x="235.799286" xlink:href="#mfdcf54bd53" y="734.55801"/>
     <use style="fill:#1f77b4;stroke:#1f77b4;" x="245.295714" xlink:href="#mfdcf54bd53" y="735.05272"/>
     <use style="fill:#1f77b4;stroke:#1f77b4;" x="254.792143" xlink:href="#mfdcf54bd53" y="736.047706"/>
     <use style="fill:#1f77b4;stroke:#1f77b4;" x="264.288571" xlink:href="#mfdcf54bd53" y="737.653022"/>
     <use style="fill:#1f77b4;stroke:#1f77b4;" x="273.785" xlink:href="#mfdcf54bd53" y="739.954872"/>
     <use style="fill:#1f77b4;stroke:#1f77b4;" x="283.281429" xlink:href="#mfdcf54bd53" y="737.3468"/>
     <use style="fill:#1f77b4;stroke:#1f77b4;" x="292.777857" xlink:href="#mfdcf54bd53" y="735.653717"/>
     <use style="fill:#1f77b4;stroke:#1f77b4;" x="302.274286" xlink:href="#mfdcf54bd53" y="734.8796"/>
     <use style="fill:#1f77b4;stroke:#1f77b4;" x="311.770714" xlink:href="#mfdcf54bd53" y="735.006261"/>
     <use style="fill:#1f77b4;stroke:#1f77b4;" x="321.267143" xlink:href="#mfdcf54bd53" y="735.950286"/>
     <use style="fill:#1f77b4;stroke:#1f77b4;" x="330.763571" xlink:href="#mfdcf54bd53" y="737.616879"/>
     <use style="fill:#1f77b4;stroke:#1f77b4;" x="340.26" xlink:href="#mfdcf54bd53" y="740.035089"/>
     <use style="fill:#1f77b4;stroke:#1f77b4;" x="349.756429" xlink:href="#mfdcf54bd53" y="737.385353"/>
     <use style="fill:#1f77b4;stroke:#1f77b4;" x="359.252857" xlink:href="#mfdcf54bd53" y="735.651021"/>
     <use style="fill:#1f77b4;stroke:#1f77b4;" x="368.749286" xlink:href="#mfdcf54bd53" y="735.144995"/>
     <use style="fill:#1f77b4;stroke:#1f77b4;" x="378.245714" xlink:href="#mfdcf54bd53" y="737.027183"/>
     <use style="fill:#1f77b4;stroke:#1f77b4;" x="387.742143" xlink:href="#mfdcf54bd53" y="742.596828"/>
     <use style="fill:#1f77b4;stroke:#1f77b4;" x="397.238571" xlink:href="#mfdcf54bd53" y="752.71426"/>
     <use style="fill:#1f77b4;stroke:#1f77b4;" x="406.735" xlink:href="#mfdcf54bd53" y="767.816339"/>
     <use style="fill:#1f77b4;stroke:#1f77b4;" x="416.231429" xlink:href="#mfdcf54bd53" y="752.555103"/>
     <use style="fill:#1f77b4;stroke:#1f77b4;" x="425.727857" xlink:href="#mfdcf54bd53" y="742.394739"/>
     <use style="fill:#1f77b4;stroke:#1f77b4;" x="435.224286" xlink:href="#mfdcf54bd53" y="736.588509"/>
     <use style="fill:#1f77b4;stroke:#1f77b4;" x="444.720714" xlink:href="#mfdcf54bd53" y="733.050222"/>
     <use style="fill:#1f77b4;stroke:#1f77b4;" x="454.217143" xlink:href="#mfdcf54bd53" y="729.014928"/>
     <use style="fill:#1f77b4;stroke:#1f77b4;" x="463.713571" xlink:href="#mfdcf54bd53" y="722.305179"/>
     <use style="fill:#1f77b4;stroke:#1f77b4;" x="473.21" xlink:href="#mfdcf54bd53" y="712.268855"/>
     <use style="fill:#1f77b4;stroke:#1f77b4;" x="482.706429" xlink:href="#mfdcf54bd53" y="722.209183"/>
     <use style="fill:#1f77b4;stroke:#1f77b4;" x="492.202857" xlink:href="#mfdcf54bd53" y="728.904663"/>
     <use style="fill:#1f77b4;stroke:#1f77b4;" x="501.699286" xlink:href="#mfdcf54bd53" y="732.042596"/>
     <use style="fill:#1f77b4;stroke:#1f77b4;" x="511.195714" xlink:href="#mfdcf54bd53" y="730.355671"/>
     <use style="fill:#1f77b4;stroke:#1f77b4;" x="520.692143" xlink:href="#mfdcf54bd53" y="722.547454"/>
     <use style="fill:#1f77b4;stroke:#1f77b4;" x="530.188571" xlink:href="#mfdcf54bd53" y="707.88658"/>
     <use style="fill:#1f77b4;stroke:#1f77b4;" x="539.685" xlink:href="#mfdcf54bd53" y="685.990005"/>
     <use style="fill:#1f77b4;stroke:#1f77b4;" x="549.181429" xlink:href="#mfdcf54bd53" y="707.845125"/>
     <use style="fill:#1f77b4;stroke:#1f77b4;" x="558.677857" xlink:href="#mfdcf54bd53" y="722.517935"/>
     <use style="fill:#1f77b4;stroke:#1f77b4;" x="568.174286" xlink:href="#mfdcf54bd53" y="730.474266"/>
     <use style="fill:#1f77b4;stroke:#1f77b4;" x="577.670714" xlink:href="#mfdcf54bd53" y="733.085483"/>
     <use style="fill:#1f77b4;stroke:#1f77b4;" x="587.167143" xlink:href="#mfdcf54bd53" y="732.398921"/>
     <use style="fill:#1f77b4;stroke:#1f77b4;" x="596.663571" xlink:href="#mfdcf54bd53" y="730.207548"/>
     <use style="fill:#1f77b4;stroke:#1f77b4;" x="606.16" xlink:href="#mfdcf54bd53" y="727.004776"/>
     <use style="fill:#1f77b4;stroke:#1f77b4;" x="615.656429" xlink:href="#mfdcf54bd53" y="730.296741"/>
     <use style="fill:#1f77b4;stroke:#1f77b4;" x="625.152857" xlink:href="#mfdcf54bd53" y="732.535944"/>
     <use style="fill:#1f77b4;stroke:#1f77b4;" x="634.649286" xlink:href="#mfdcf54bd53" y="734.660953"/>
     <use style="fill:#1f77b4;stroke:#1f77b4;" x="644.145714" xlink:href="#mfdcf54bd53" y="740.668166"/>
     <use style="fill:#1f77b4;stroke:#1f77b4;" x="653.642143" xlink:href="#mfdcf54bd53" y="755.341571"/>
     <use style="fill:#1f77b4;stroke:#1f77b4;" x="663.138571" xlink:href="#mfdcf54bd53" y="782.064228"/>
     <use style="fill:#1f77b4;stroke:#1f77b4;" x="672.635" xlink:href="#mfdcf54bd53" y="822.179017"/>
     <use style="fill:#1f77b4;stroke:#1f77b4;" x="682.131429" xlink:href="#mfdcf54bd53" y="782.515961"/>
     <use style="fill:#1f77b4;stroke:#1f77b4;" x="691.627857" xlink:href="#mfdcf54bd53" y="755.860237"/>
     <use style="fill:#1f77b4;stroke:#1f77b4;" x="701.124286" xlink:href="#mfdcf54bd53" y="740.311121"/>
     <use style="fill:#1f77b4;stroke:#1f77b4;" x="710.620714" xlink:href="#mfdcf54bd53" y="730.636522"/>
     <use style="fill:#1f77b4;stroke:#1f77b4;" x="720.117143" xlink:href="#mfdcf54bd53" y="719.964644"/>
     <use style="fill:#1f77b4;stroke:#1f77b4;" x="729.613571" xlink:href="#mfdcf54bd53" y="702.863665"/>
     <use style="fill:#1f77b4;stroke:#1f77b4;" x="739.11" xlink:href="#mfdcf54bd53" y="677.548791"/>
     <use style="fill:#1f77b4;stroke:#1f77b4;" x="748.606429" xlink:href="#mfdcf54bd53" y="703.884303"/>
     <use style="fill:#1f77b4;stroke:#1f77b4;" x="758.102857" xlink:href="#mfdcf54bd53" y="721.007696"/>
     <use style="fill:#1f77b4;stroke:#1f77b4;" x="767.599286" xlink:href="#mfdcf54bd53" y="729.771517"/>
     <use style="fill:#1f77b4;stroke:#1f77b4;" x="777.095714" xlink:href="#mfdcf54bd53" y="731.217534"/>
     <use style="fill:#1f77b4;stroke:#1f77b4;" x="786.592143" xlink:href="#mfdcf54bd53" y="727.204233"/>
     <use style="fill:#1f77b4;stroke:#1f77b4;" x="796.088571" xlink:href="#mfdcf54bd53" y="719.480389"/>
     <use style="fill:#1f77b4;stroke:#1f77b4;" x="805.585" xlink:href="#mfdcf54bd53" y="708.380502"/>
     <use style="fill:#1f77b4;stroke:#1f77b4;" x="815.081429" xlink:href="#mfdcf54bd53" y="721.136565"/>
     <use style="fill:#1f77b4;stroke:#1f77b4;" x="824.577857" xlink:href="#mfdcf54bd53" y="728.812186"/>
     <use style="fill:#1f77b4;stroke:#1f77b4;" x="834.074286" xlink:href="#mfdcf54bd53" y="733.075776"/>
     <use style="fill:#1f77b4;stroke:#1f77b4;" x="843.570714" xlink:href="#mfdcf54bd53" y="737.046712"/>
     <use style="fill:#1f77b4;stroke:#1f77b4;" x="853.067143" xlink:href="#mfdcf54bd53" y="744.791733"/>
     <use style="fill:#1f77b4;stroke:#1f77b4;" x="862.563571" xlink:href="#mfdcf54bd53" y="759.356556"/>
     <use style="fill:#1f77b4;stroke:#1f77b4;" x="872.06" xlink:href="#mfdcf54bd53" y="781.810745"/>
     <use style="fill:#1f77b4;stroke:#1f77b4;" x="881.556429" xlink:href="#mfdcf54bd53" y="761.676756"/>
     <use style="fill:#1f77b4;stroke:#1f77b4;" x="891.052857" xlink:href="#mfdcf54bd53" y="746.9858"/>
     <use style="fill:#1f77b4;stroke:#1f77b4;" x="900.549286" xlink:href="#mfdcf54bd53" y="737.794508"/>
     <use style="fill:#1f77b4;stroke:#1f77b4;" x="910.045714" xlink:href="#mfdcf54bd53" y="731.102373"/>
     <use style="fill:#1f77b4;stroke:#1f77b4;" x="919.542143" xlink:href="#mfdcf54bd53" y="723.170052"/>
     <use style="fill:#1f77b4;stroke:#1f77b4;" x="929.038571" xlink:href="#mfdcf54bd53" y="711.062278"/>
     <use style="fill:#1f77b4;stroke:#1f77b4;" x="938.535" xlink:href="#mfdcf54bd53" y="693.812835"/>
     <use style="fill:#1f77b4;stroke:#1f77b4;" x="948.031429" xlink:href="#mfdcf54bd53" y="714.057918"/>
     <use style="fill:#1f77b4;stroke:#1f77b4;" x="957.527857" xlink:href="#mfdcf54bd53" y="725.960714"/>
     <use style="fill:#1f77b4;stroke:#1f77b4;" x="967.024286" xlink:href="#mfdcf54bd53" y="732.453701"/>
     <use style="fill:#1f77b4;stroke:#1f77b4;" x="976.520714" xlink:href="#mfdcf54bd53" y="737.949846"/>
     <use style="fill:#1f77b4;stroke:#1f77b4;" x="986.017143" xlink:href="#mfdcf54bd53" y="748.266322"/>
     <use style="fill:#1f77b4;stroke:#1f77b4;" x="995.513571" xlink:href="#mfdcf54bd53" y="767.783015"/>
     <use style="fill:#1f77b4;stroke:#1f77b4;" x="1005.01" xlink:href="#mfdcf54bd53" y="798.083149"/>
     <use style="fill:#1f77b4;stroke:#1f77b4;" x="1014.506429" xlink:href="#mfdcf54bd53" y="771.463241"/>
     <use style="fill:#1f77b4;stroke:#1f77b4;" x="1024.002857" xlink:href="#mfdcf54bd53" y="751.664344"/>
     <use style="fill:#1f77b4;stroke:#1f77b4;" x="1033.499286" xlink:href="#mfdcf54bd53" y="739.049256"/>
     <use style="fill:#1f77b4;stroke:#1f77b4;" x="1042.995714" xlink:href="#mfdcf54bd53" y="729.012839"/>
     <use style="fill:#1f77b4;stroke:#1f77b4;" x="1052.492143" xlink:href="#mfdcf54bd53" y="715.886088"/>
     <use style="fill:#1f77b4;stroke:#1f77b4;" x="1061.988571" xlink:href="#mfdcf54bd53" y="695.277595"/>
     <use style="fill:#1f77b4;stroke:#1f77b4;" x="1071.485" xlink:href="#mfdcf54bd53" y="665.759361"/>
     <use style="fill:#1f77b4;stroke:#1f77b4;" x="1080.981429" xlink:href="#mfdcf54bd53" y="699.659963"/>
     <use style="fill:#1f77b4;stroke:#1f77b4;" x="1090.477857" xlink:href="#mfdcf54bd53" y="711.804057"/>
     <use style="fill:#1f77b4;stroke:#1f77b4;" x="1099.974286" xlink:href="#mfdcf54bd53" y="721.38669"/>
     <use style="fill:#1f77b4;stroke:#1f77b4;" x="1109.470714" xlink:href="#mfdcf54bd53" y="729.571068"/>
     <use style="fill:#1f77b4;stroke:#1f77b4;" x="1118.967143" xlink:href="#mfdcf54bd53" y="737.16966"/>
     <use style="fill:#1f77b4;stroke:#1f77b4;" x="1128.463571" xlink:href="#mfdcf54bd53" y="744.920022"/>
     <use style="fill:#1f77b4;stroke:#1f77b4;" x="1137.96" xlink:href="#mfdcf54bd53" y="753.267965"/>
    </g>
   </g>
   <g id="patch_18">
    <path d="M 74.36 830 
L 74.36 657.938379 
" style="fill:none;stroke:#ffffff;stroke-linecap:square;stroke-linejoin:miter;stroke-width:0.8;"/>
   </g>
   <g id="patch_19">
    <path d="M 1137.96 830 
L 1137.96 657.938379 
" style="fill:none;stroke:#ffffff;stroke-linecap:square;stroke-linejoin:miter;stroke-width:0.8;"/>
   </g>
   <g id="patch_20">
    <path d="M 74.36 830 
L 1137.96 830 
" style="fill:none;stroke:#ffffff;stroke-linecap:square;stroke-linejoin:miter;stroke-width:0.8;"/>
   </g>
   <g id="patch_21">
    <path d="M 74.36 657.938379 
L 1137.96 657.938379 
" style="fill:none;stroke:#ffffff;stroke-linecap:square;stroke-linejoin:miter;stroke-width:0.8;"/>
   </g>
  </g>
 </g>
 <defs>
  <clipPath id="p2a89046731">
   <rect height="172.061621" width="1063.6" x="74.36" y="31.6275"/>
  </clipPath>
  <clipPath id="p95b8a0c3f0">
   <rect height="172.061621" width="1063.6" x="74.36" y="240.397793"/>
  </clipPath>
  <clipPath id="p774166039b">
   <rect height="172.061621" width="1063.6" x="74.36" y="449.168086"/>
  </clipPath>
  <clipPath id="pd834f578b5">
   <rect height="172.061621" width="1063.6" x="74.36" y="657.938379"/>
  </clipPath>
 </defs>
</svg>
